<svg width="421" height="391" viewBox="0 0 421 391" fill="none" xmlns="http://www.w3.org/2000/svg">
<ellipse cx="152.085" cy="146.37" rx="152.085" ry="146.37" transform="matrix(0.889559 -0.45682 0.510909 0.859634 0 139)" fill="url(#paint0_linear_199663_56352)"/>
<g filter="url(#filter0_df_199663_56352)">
<path d="M178.544 224.79L178.014 225.91C173.589 220.215 170.582 213.201 169.843 206.131C169.09 198.925 170.426 191.658 173.703 185.145C176.98 178.631 182.068 173.129 188.397 169.254C194.727 165.38 202.048 163.287 209.539 163.212C217.031 163.137 224.395 165.081 230.807 168.828C237.219 172.574 242.424 177.973 245.84 184.419C249.256 190.865 250.748 198.103 250.15 205.323C249.564 212.394 246.551 219.341 242.248 225.12L241.881 224.277C246.139 218.625 248.453 212.212 249.031 205.239C249.613 198.214 248.161 191.172 244.838 184.901C241.515 178.631 236.453 173.381 230.22 169.74C223.988 166.098 216.831 164.209 209.551 164.282C202.272 164.355 195.157 166.388 189.004 170.155C182.851 173.921 177.903 179.271 174.715 185.607C171.528 191.943 170.228 199.013 170.96 206.025C171.688 212.984 174.169 219.23 178.544 224.79Z" fill="#033043" stroke="#033043" stroke-width="0.5"/>
<path d="M254.676 178.793C222.878 173.215 181.226 176.469 164.374 178.793C158.61 180.341 161.972 181.068 164.374 181.239C204.818 175.018 241.427 178.647 254.676 181.239C262.114 180.713 257.775 179.389 254.676 178.793Z" fill="#033043" stroke="#033043" stroke-width="0.5"/>
<path d="M253.082 182.428C222.466 177.708 182.361 180.461 166.135 182.428C160.585 183.738 163.822 184.353 166.135 184.497C205.077 179.234 240.326 182.304 253.082 184.497C260.244 184.053 256.066 182.932 253.082 182.428Z" fill="#033043" stroke="#033043" stroke-width="0.5"/>
<path d="M247.032 186.079C220.898 181.868 186.294 183.789 172.258 185.276C167.431 186.315 170.189 186.857 172.172 186.998C205.88 182.977 236.067 185.858 246.947 187.801C253.124 187.497 249.578 186.526 247.032 186.079Z" fill="#033043" stroke="#033043" stroke-width="0.5"/>
<path d="M212.625 187.525C212.958 188.212 212.737 188.927 212.252 189.17C211.767 189.413 211.074 189.155 210.741 188.468C210.408 187.781 210.629 187.066 211.114 186.823C211.6 186.58 212.292 186.838 212.625 187.525Z" fill="#033043" stroke="#033043" stroke-width="0.5"/>
<path d="M220.756 206.79C221.089 207.477 220.868 208.192 220.383 208.435C219.898 208.678 219.205 208.42 218.872 207.733C218.539 207.047 218.76 206.331 219.245 206.088C219.73 205.845 220.423 206.103 220.756 206.79Z" fill="#033043" stroke="#033043" stroke-width="0.5"/>
<path d="M199.831 202.774C200.163 203.461 199.942 204.176 199.457 204.419C198.972 204.662 198.279 204.404 197.946 203.717C197.613 203.03 197.835 202.315 198.32 202.072C198.805 201.829 199.498 202.087 199.831 202.774Z" fill="#033043" stroke="#033043" stroke-width="0.5"/>
<path d="M210.88 187.649C209.294 187.52 207.635 188.423 206.221 190.289C204.808 192.152 203.765 194.818 203.296 197.799C202.827 200.779 202.967 203.854 203.685 206.454C204.405 209.059 205.646 210.976 207.143 211.897C208.62 212.805 210.282 212.706 211.854 211.579C213.44 210.442 214.82 208.334 215.717 205.619C216.612 202.908 216.955 199.799 216.682 196.871C216.408 193.939 215.538 191.409 214.252 189.736" stroke="#033043" stroke-width="0.5"/>
<path d="M220.45 206.566C221.295 205.19 221.267 203.276 220.287 201.143C219.308 199.013 217.459 196.847 215.071 195.054C212.683 193.261 209.933 191.975 207.332 191.428C204.726 190.88 202.481 191.119 200.987 192.047C199.511 192.964 198.833 194.514 199.095 196.452C199.36 198.406 200.567 200.62 202.527 202.676C204.484 204.73 207.041 206.468 209.725 207.567C212.411 208.667 215.021 209.044 217.074 208.653" stroke="#033043" stroke-width="0.5"/>
<path d="M199.903 206.697C200.807 208.033 202.545 208.772 204.86 208.711C207.173 208.65 209.866 207.792 212.437 206.282C215.007 204.774 217.266 202.725 218.798 200.52C220.333 198.311 221.015 196.123 220.774 194.36C220.536 192.62 219.409 191.369 217.556 190.84C215.687 190.306 213.208 190.546 210.57 191.551C207.937 192.554 205.347 194.243 203.284 196.305C201.219 198.368 199.836 200.65 199.369 202.718" stroke="#033043" stroke-width="0.5"/>
<path d="M214.361 204.742C213.623 203.444 212.438 202.558 211.066 202.238C211.718 201.967 212.257 201.474 212.591 200.843C212.925 200.213 213.033 199.484 212.897 198.782C212.761 198.079 212.389 197.446 211.845 196.991C211.301 196.537 210.618 196.288 209.914 196.288C209.209 196.288 208.526 196.537 207.982 196.991C207.438 197.446 207.066 198.079 206.93 198.782C206.794 199.484 206.902 200.213 207.236 200.843C207.57 201.474 208.109 201.967 208.761 202.238C207.39 202.557 206.204 203.444 205.466 204.742C205.444 204.784 205.44 204.832 205.452 204.877C205.465 204.922 205.495 204.96 205.535 204.984C205.575 205.007 205.622 205.014 205.667 205.003C205.712 204.992 205.75 204.964 205.775 204.924C206.649 203.387 208.197 202.47 209.914 202.47C211.63 202.47 213.178 203.387 214.052 204.924C214.068 204.952 214.09 204.975 214.117 204.991C214.145 205.006 214.175 205.015 214.207 205.015C214.238 205.015 214.269 205.007 214.296 204.99C214.337 204.966 214.367 204.927 214.379 204.88C214.392 204.833 214.385 204.784 214.361 204.742ZM207.23 199.379C207.23 198.84 207.388 198.313 207.683 197.864C207.977 197.416 208.396 197.066 208.887 196.86C209.377 196.653 209.917 196.599 210.437 196.705C210.958 196.81 211.436 197.07 211.811 197.451C212.186 197.832 212.442 198.318 212.545 198.847C212.649 199.376 212.596 199.925 212.393 200.423C212.189 200.921 211.846 201.347 211.404 201.647C210.963 201.946 210.444 202.106 209.914 202.106C209.202 202.105 208.52 201.818 208.017 201.307C207.514 200.795 207.231 200.102 207.23 199.379Z" fill="#033043" stroke="#033043" stroke-width="0.5"/>
<mask id="path-13-inside-1_199663_56352" fill="white">
<path d="M210.026 246.839C202.672 246.839 196.711 240.781 196.711 233.308C196.711 225.835 202.672 219.777 210.026 219.777C217.379 219.777 223.34 225.835 223.34 233.308C223.34 240.781 217.379 246.839 210.026 246.839ZM210.026 220.591C203.115 220.591 197.513 226.285 197.513 233.308C197.513 240.331 203.115 246.025 210.026 246.025C216.936 246.025 222.538 240.331 222.538 233.308C222.538 226.285 216.936 220.591 210.026 220.591Z"/>
</mask>
<path d="M210.026 246.839C202.672 246.839 196.711 240.781 196.711 233.308C196.711 225.835 202.672 219.777 210.026 219.777C217.379 219.777 223.34 225.835 223.34 233.308C223.34 240.781 217.379 246.839 210.026 246.839ZM210.026 220.591C203.115 220.591 197.513 226.285 197.513 233.308C197.513 240.331 203.115 246.025 210.026 246.025C216.936 246.025 222.538 240.331 222.538 233.308C222.538 226.285 216.936 220.591 210.026 220.591Z" fill="#033043" stroke="#033043" mask="url(#path-13-inside-1_199663_56352)"/>
<path d="M208.998 235.632C208.998 235.799 208.861 235.935 208.693 235.935C208.524 235.935 208.387 235.799 208.387 235.632C208.387 235.465 208.524 235.33 208.693 235.33C208.861 235.33 208.998 235.465 208.998 235.632Z" fill="#033043"/>
<path d="M202.426 232.306H202.528M209.864 238.959H208.285H205.279V238.253V238.052L205.432 237.901L205.585 237.749H206.756M209.864 238.959H216.539H217.15L217.558 238.556L217.711 238.253V237.044V234.272V232.407M209.864 238.959L209.61 238.657L209.508 238.405V237.749M217.711 232.407V232.003M217.711 232.407L217.762 232.306M217.711 232.003V231.399V230.844V230.693L217.609 230.542L217.507 230.441L217.405 230.39H216.692H215.876H214.908H214.654H214.577M217.711 232.003H209.508M214.577 230.39H214.501L210.017 230.441H209.712L209.508 230.592V230.844V232.003M214.577 230.39V227.87L214.45 227.669L214.246 227.568H213.584H203.037H202.833L202.63 227.669L202.528 227.82V228.022V232.306M202.528 232.306V234.574M209.406 236.741H206.756M206.756 236.741H202.986L202.833 236.691L202.731 236.641L202.63 236.54L202.528 236.389V236.288V234.574M206.756 236.741V237.749M206.756 237.749H209.508M209.508 237.749V234.876V234.574M209.508 234.574H202.528M209.508 234.574V232.003M210.374 236.691H212.87M208.998 235.632C208.998 235.799 208.861 235.935 208.693 235.935C208.524 235.935 208.387 235.799 208.387 235.632C208.387 235.465 208.524 235.33 208.693 235.33C208.861 235.33 208.998 235.465 208.998 235.632Z" stroke="#033043" stroke-width="0.5"/>
<path d="M214.297 236.995H216.742" stroke="#033043" stroke-width="0.5"/>
<path d="M210.373 238.003H211.647" stroke="#033043" stroke-width="1.5"/>
<path d="M214.246 238.055H215.571" stroke="#033043" stroke-width="1.5"/>
<path d="M214.193 236.038H212.919V235.937V235.836L213.021 235.735H213.989H214.244L214.295 235.836L214.244 235.937L214.193 236.038Z" fill="#033043"/>
<path d="M213.174 235.697V235.555L213.072 235.383L212.613 234.677L213.581 233.518M213.581 233.518L214.498 234.677L214.142 235.383L213.989 235.555V235.735M213.581 233.518V234.626H213.327H213.594H213.861M213.989 235.735H214.244L214.295 235.836L214.244 235.937L214.193 236.038H212.919V235.937V235.836L213.021 235.735H213.989Z" stroke="#033043" stroke-width="0.5"/>
<path d="M206.604 229.286L205.178 232.411" stroke="#033043" stroke-width="0.5"/>
<path d="M207.115 230.04L207.93 230.846L207.115 231.653" stroke="#033043" stroke-width="0.5"/>
<path d="M204.619 229.99L203.804 230.797L204.619 231.603" stroke="#033043" stroke-width="0.5"/>
<path d="M197.157 237.062H173.316L203.673 164.093H215.201L246.649 237.062H222.112" stroke="#033043" stroke-width="0.5"/>
</g>
<g filter="url(#filter1_d_199663_56352)">
<path d="M242.217 85.4781C242.062 85.7247 241.841 85.923 241.579 86.0508L233.164 90.1709L228.894 98.5258C228.762 98.7855 228.56 99.003 228.311 99.1541C228.062 99.3051 227.776 99.3836 227.485 99.3808C227.194 99.378 226.91 99.294 226.664 99.1382C226.418 98.9824 226.22 98.761 226.092 98.4988L221.984 90.0632L213.649 85.7839C213.39 85.6511 213.173 85.4486 213.022 85.199C212.871 84.9495 212.793 84.6628 212.796 84.3711C212.799 84.0795 212.882 83.7943 213.038 83.5477C213.193 83.3012 213.414 83.1028 213.676 82.975L222.091 78.8571L226.361 70.5022C226.493 70.2425 226.695 70.0249 226.944 69.8739C227.193 69.7229 227.479 69.6444 227.77 69.6472C228.061 69.65 228.345 69.734 228.591 69.8898C228.837 70.0456 229.035 70.267 229.163 70.5292L233.271 78.9626L241.606 83.242C241.865 83.3748 242.082 83.5773 242.233 83.8268C242.384 84.0764 242.462 84.3631 242.459 84.6547C242.456 84.9464 242.372 85.2315 242.217 85.4781Z" fill="#033043"/>
</g>
<g filter="url(#filter2_d_199663_56352)">
<path d="M217.737 84.9044C202.898 83.6931 187.437 92.1442 174.303 109.475C161.184 126.785 151.503 151.528 147.154 179.178C142.806 206.816 144.103 235.343 150.766 259.466C157.442 283.638 168.971 301.48 182.934 310.069C196.73 318.555 212.265 317.617 226.915 307.111C241.674 296.527 254.49 276.939 262.806 251.752C271.111 226.597 274.296 197.761 271.76 170.597C269.223 143.407 261.145 119.912 249.19 104.352" stroke="#033043" stroke-width="4"/>
</g>
<g filter="url(#filter3_d_199663_56352)">
<path d="M306.616 260.593C314.513 247.728 314.223 229.875 305.122 210.067C296.029 190.275 278.864 170.171 256.71 153.541C234.564 136.917 209.049 124.978 184.914 119.905C160.736 114.822 139.847 117.021 125.914 125.681C112.133 134.246 105.806 148.728 108.253 166.788C110.718 184.975 121.941 205.539 140.12 224.615C158.277 243.667 182.003 259.792 206.898 269.987C231.814 280.192 256.05 283.7 275.139 280.064" stroke="#033043" stroke-width="4"/>
</g>
<g filter="url(#filter4_d_199663_56352)">
<path d="M115.786 261.821C124.236 274.315 140.456 281.175 161.96 280.606C183.446 280.037 208.437 272.073 232.287 258.073C256.128 244.077 277.088 225.071 291.303 204.61C305.544 184.112 311.903 163.77 309.656 147.331C307.433 131.071 296.897 119.394 279.628 114.462C262.238 109.495 239.205 111.739 214.736 121.059C190.297 130.368 166.275 146.035 147.136 165.159C127.98 184.3 115.136 205.48 110.792 224.718" stroke="#033043" stroke-width="4"/>
</g>
<path d="M121.599 226.52C121.528 226.803 121.38 227.061 121.172 227.264L114.46 233.809L113.008 243.081C112.963 243.369 112.839 243.639 112.649 243.861C112.46 244.082 112.213 244.246 111.935 244.334C111.658 244.422 111.362 244.432 111.079 244.36C110.797 244.289 110.54 244.141 110.337 243.932L103.806 237.201L94.5545 235.74C94.267 235.695 93.9977 235.571 93.7768 235.381C93.5559 235.191 93.3922 234.943 93.3039 234.665C93.2157 234.387 93.2065 234.09 93.2773 233.807C93.3481 233.524 93.4962 233.267 93.7049 233.063L100.417 226.52L101.869 217.248C101.914 216.96 102.038 216.69 102.228 216.468C102.417 216.247 102.664 216.083 102.942 215.995C103.219 215.907 103.515 215.898 103.798 215.969C104.08 216.04 104.337 216.188 104.54 216.398L111.07 223.126L120.322 224.587C120.609 224.632 120.879 224.756 121.1 224.946C121.32 225.136 121.484 225.384 121.572 225.662C121.661 225.94 121.67 226.237 121.599 226.52Z" fill="#033043"/>
<path d="M310.041 280.322C309.751 280.305 309.471 280.206 309.233 280.038L301.576 274.634L292.216 274.913C291.925 274.922 291.637 274.85 291.385 274.704C291.133 274.558 290.927 274.345 290.789 274.088C290.651 273.831 290.588 273.541 290.605 273.249C290.623 272.958 290.721 272.678 290.889 272.439L296.283 264.764L296.006 255.381C295.998 255.09 296.07 254.801 296.215 254.549C296.361 254.296 296.574 254.089 296.83 253.951C297.086 253.813 297.376 253.749 297.667 253.766C297.957 253.784 298.237 253.882 298.475 254.05L306.13 259.455L315.49 259.176C315.781 259.167 316.069 259.24 316.321 259.386C316.572 259.532 316.779 259.745 316.917 260.002C317.055 260.259 317.118 260.549 317.101 260.84C317.083 261.131 316.985 261.412 316.817 261.65L311.425 269.324L311.701 278.707C311.71 278.999 311.638 279.287 311.492 279.54C311.347 279.793 311.134 280 310.877 280.138C310.621 280.276 310.332 280.34 310.041 280.322Z" fill="#033043"/>
<defs>
<filter id="filter0_df_199663_56352" x="156.941" y="162.26" width="106.092" height="92.5794" filterUnits="userSpaceOnUse" color-interpolation-filters="sRGB">
<feFlood flood-opacity="0" result="BackgroundImageFix"/>
<feColorMatrix in="SourceAlpha" type="matrix" values="0 0 0 0 0 0 0 0 0 0 0 0 0 0 0 0 0 0 127 0" result="hardAlpha"/>
<feOffset dy="4"/>
<feGaussianBlur stdDeviation="2"/>
<feComposite in2="hardAlpha" operator="out"/>
<feColorMatrix type="matrix" values="0 0 0 0 1 0 0 0 0 0.756863 0 0 0 0 0.027451 0 0 0 1 0"/>
<feBlend mode="normal" in2="BackgroundImageFix" result="effect1_dropShadow_199663_56352"/>
<feBlend mode="normal" in="SourceGraphic" in2="effect1_dropShadow_199663_56352" result="shape"/>
<feGaussianBlur stdDeviation="0.35" result="effect2_foregroundBlur_199663_56352"/>
</filter>
<filter id="filter1_d_199663_56352" x="194.795" y="55.647" width="65.6641" height="65.7339" filterUnits="userSpaceOnUse" color-interpolation-filters="sRGB">
<feFlood flood-opacity="0" result="BackgroundImageFix"/>
<feColorMatrix in="SourceAlpha" type="matrix" values="0 0 0 0 0 0 0 0 0 0 0 0 0 0 0 0 0 0 127 0" result="hardAlpha"/>
<feOffset dy="4"/>
<feGaussianBlur stdDeviation="9"/>
<feComposite in2="hardAlpha" operator="out"/>
<feColorMatrix type="matrix" values="0 0 0 0 1 0 0 0 0 0.756863 0 0 0 0 0.027451 0 0 0 1 0"/>
<feBlend mode="normal" in2="BackgroundImageFix" result="effect1_dropShadow_199663_56352"/>
<feBlend mode="normal" in="SourceGraphic" in2="effect1_dropShadow_199663_56352" result="shape"/>
</filter>
<filter id="filter2_d_199663_56352" x="124.627" y="68.7896" width="167.982" height="270.999" filterUnits="userSpaceOnUse" color-interpolation-filters="sRGB">
<feFlood flood-opacity="0" result="BackgroundImageFix"/>
<feColorMatrix in="SourceAlpha" type="matrix" values="0 0 0 0 0 0 0 0 0 0 0 0 0 0 0 0 0 0 127 0" result="hardAlpha"/>
<feOffset dy="4"/>
<feGaussianBlur stdDeviation="9"/>
<feComposite in2="hardAlpha" operator="out"/>
<feColorMatrix type="matrix" values="0 0 0 0 1 0 0 0 0 0.756863 0 0 0 0 0.027451 0 0 0 1 0"/>
<feBlend mode="normal" in2="BackgroundImageFix" result="effect1_dropShadow_199663_56352"/>
<feBlend mode="normal" in="SourceGraphic" in2="effect1_dropShadow_199663_56352" result="shape"/>
</filter>
<filter id="filter3_d_199663_56352" x="87.752" y="101.196" width="244.496" height="204.277" filterUnits="userSpaceOnUse" color-interpolation-filters="sRGB">
<feFlood flood-opacity="0" result="BackgroundImageFix"/>
<feColorMatrix in="SourceAlpha" type="matrix" values="0 0 0 0 0 0 0 0 0 0 0 0 0 0 0 0 0 0 127 0" result="hardAlpha"/>
<feOffset dy="4"/>
<feGaussianBlur stdDeviation="9"/>
<feComposite in2="hardAlpha" operator="out"/>
<feColorMatrix type="matrix" values="0 0 0 0 1 0 0 0 0 0.756863 0 0 0 0 0.027451 0 0 0 1 0"/>
<feBlend mode="normal" in2="BackgroundImageFix" result="effect1_dropShadow_199663_56352"/>
<feBlend mode="normal" in="SourceGraphic" in2="effect1_dropShadow_199663_56352" result="shape"/>
</filter>
<filter id="filter4_d_199663_56352" x="90.8574" y="95.876" width="239.227" height="208.777" filterUnits="userSpaceOnUse" color-interpolation-filters="sRGB">
<feFlood flood-opacity="0" result="BackgroundImageFix"/>
<feColorMatrix in="SourceAlpha" type="matrix" values="0 0 0 0 0 0 0 0 0 0 0 0 0 0 0 0 0 0 127 0" result="hardAlpha"/>
<feOffset dy="4"/>
<feGaussianBlur stdDeviation="9"/>
<feComposite in2="hardAlpha" operator="out"/>
<feColorMatrix type="matrix" values="0 0 0 0 1 0 0 0 0 0.756863 0 0 0 0 0.027451 0 0 0 1 0"/>
<feBlend mode="normal" in2="BackgroundImageFix" result="effect1_dropShadow_199663_56352"/>
<feBlend mode="normal" in="SourceGraphic" in2="effect1_dropShadow_199663_56352" result="shape"/>
</filter>
<linearGradient id="paint0_linear_199663_56352" x1="152.085" y1="0" x2="152.085" y2="292.741" gradientUnits="userSpaceOnUse">
<stop stop-color="#E6F7F5"/>
<stop offset="1" stop-color="#FF7B00" stop-opacity="0.15"/>
</linearGradient>
</defs>
</svg>
