<svg width="292" height="520" viewBox="0 0 292 520" fill="none" xmlns="http://www.w3.org/2000/svg">
<mask id="path-1-inside-1_199558_38307" fill="white">
<path d="M101.013 253.436C98.7818 222.641 105.268 192.126 119.745 165.31C134.221 138.495 156.116 116.44 182.974 101.618C209.832 86.7966 240.591 79.7936 271.804 81.3947C303.016 82.9958 333.448 93.1376 359.687 110.683C385.925 128.229 406.934 152.485 420.358 180.731C433.782 208.977 439.089 240.098 435.686 270.603C432.282 301.109 420.302 329.794 401.089 353.441C381.876 377.089 356.188 394.765 326.907 404.488L324.576 398.191C352.686 388.857 377.346 371.888 395.791 349.186C414.236 326.485 425.736 298.947 429.004 269.662C432.271 240.377 427.176 210.501 414.289 183.384C401.402 156.268 381.234 132.982 356.044 116.139C330.855 99.2948 301.641 89.5586 271.677 88.0215C241.713 86.4845 212.184 93.2073 186.4 107.436C160.617 121.665 139.598 142.838 125.7 168.581C111.803 194.323 105.576 223.618 107.718 253.181L101.013 253.436Z"/>
</mask>
<path d="M101.013 253.436C98.7818 222.641 105.268 192.126 119.745 165.31C134.221 138.495 156.116 116.44 182.974 101.618C209.832 86.7966 240.591 79.7936 271.804 81.3947C303.016 82.9958 333.448 93.1376 359.687 110.683C385.925 128.229 406.934 152.485 420.358 180.731C433.782 208.977 439.089 240.098 435.686 270.603C432.282 301.109 420.302 329.794 401.089 353.441C381.876 377.089 356.188 394.765 326.907 404.488L324.576 398.191C352.686 388.857 377.346 371.888 395.791 349.186C414.236 326.485 425.736 298.947 429.004 269.662C432.271 240.377 427.176 210.501 414.289 183.384C401.402 156.268 381.234 132.982 356.044 116.139C330.855 99.2948 301.641 89.5586 271.677 88.0215C241.713 86.4845 212.184 93.2073 186.4 107.436C160.617 121.665 139.598 142.838 125.7 168.581C111.803 194.323 105.576 223.618 107.718 253.181L101.013 253.436Z" fill="url(#paint0_linear_199558_38307)" stroke="url(#paint1_linear_199558_38307)" stroke-width="4" mask="url(#path-1-inside-1_199558_38307)"/>
<path d="M483.675 275.515C386.867 181.138 235.159 93.9404 171.406 62.1389C147.824 53.8576 157.736 64.3134 165.641 70.5765C320.162 144.684 438.204 243.705 477.91 283.953C504.87 299.715 492.987 284.895 483.675 275.515Z" fill="url(#paint2_linear_199558_38307)" stroke="url(#paint3_linear_199558_38307)" stroke-width="2"/>
<path d="M469.361 284.13C374.613 195.504 229.436 110.235 168.69 78.6791C146.41 70.0822 156.154 79.8567 163.812 85.8186C310.882 159.677 425.538 253.56 464.482 291.27C490.296 306.658 478.49 292.922 469.361 284.13Z" fill="url(#paint4_linear_199558_38307)" stroke="url(#paint5_linear_199558_38307)" stroke-width="2"/>
<path d="M439.942 282.503C359.494 206.223 235.301 131.083 183.26 103.048C164.117 95.224 172.379 103.614 178.903 108.787C304.945 174.564 402.542 255.831 435.585 288.242C457.664 301.79 447.689 290.061 439.942 282.503Z" fill="url(#paint6_linear_199558_38307)" stroke="url(#paint7_linear_199558_38307)" stroke-width="2"/>
<path d="M295.64 288.682C295.171 291.853 292.703 293.827 290.419 293.514C288.135 293.201 286.339 290.643 286.809 287.471C287.279 284.3 289.747 282.326 292.03 282.639C294.314 282.952 296.11 285.51 295.64 288.682Z" fill="url(#paint8_linear_199558_38307)" stroke="url(#paint9_linear_199558_38307)" stroke-width="2"/>
<path d="M232.741 225.378C232.271 228.549 229.803 230.523 227.519 230.21C225.236 229.897 223.439 227.339 223.909 224.168C224.379 220.996 226.847 219.023 229.13 219.335C231.414 219.648 233.21 222.206 232.741 225.378Z" fill="url(#paint10_linear_199558_38307)" stroke="url(#paint11_linear_199558_38307)" stroke-width="2"/>
<path d="M306.586 199.272C301.388 195.062 293.503 194.26 284.207 197.358C274.922 200.452 265.023 207.187 256.371 216.367C247.722 225.543 240.954 236.487 237.307 247.157C233.653 257.85 233.422 267.409 236.436 274.14C239.41 280.782 245.412 284.378 253.522 284.203C261.699 284.027 271.449 280.013 280.954 272.761C290.446 265.519 298.965 255.602 304.925 244.849C310.892 234.086 313.847 223.292 313.346 214.471" stroke="url(#paint12_linear_199558_38307)" stroke-width="2"/>
<path d="M295.081 287.219C301.262 284.461 305.685 277.773 307.325 268.093C308.964 258.421 307.675 246.57 303.64 234.735C299.606 222.905 293.125 211.961 285.416 203.926C277.691 195.874 269.354 191.381 261.982 191.054C254.699 190.73 248.685 194.484 245.018 201.804C241.322 209.182 240.277 219.682 242.207 231.413C244.135 243.128 248.885 255.174 255.578 265.312C262.277 275.459 270.42 282.934 278.451 286.44" stroke="url(#paint13_linear_199558_38307)" stroke-width="2"/>
<path d="M223.653 239.079C223.628 245.844 227.911 252.511 236.069 257.775C244.219 263.034 255.56 266.44 268.016 267.309C280.467 268.178 293.116 266.448 303.616 262.459C314.138 258.462 321.664 252.52 324.994 245.854C328.282 239.27 327.33 232.274 322.16 226.057C316.948 219.792 307.799 214.759 296.302 211.99C284.822 209.226 271.88 208.933 259.879 211.171C247.867 213.41 237.7 218.017 231.2 224.057" stroke="url(#paint14_linear_199558_38307)" stroke-width="2"/>
<path d="M278.305 266.496C278.81 260.273 276.804 254.417 272.813 250.073C275.707 250.677 278.733 250.25 281.374 248.863C284.015 247.477 286.107 245.219 287.293 242.474C288.478 239.728 288.683 236.667 287.873 233.812C287.063 230.957 285.289 228.487 282.852 226.822C280.416 225.157 277.469 224.402 274.515 224.685C271.561 224.967 268.784 226.271 266.657 228.373C264.53 230.475 263.186 233.245 262.855 236.209C262.523 239.173 263.225 242.148 264.839 244.625C259.351 242.484 253.158 242.744 247.543 245.476C247.371 245.569 247.241 245.724 247.179 245.91C247.117 246.096 247.129 246.297 247.212 246.473C247.295 246.648 247.442 246.784 247.624 246.851C247.805 246.918 248.006 246.912 248.185 246.834C254.829 243.598 262.346 244.091 268.281 248.147C274.216 252.202 277.407 259.026 276.806 266.392C276.796 266.524 276.82 266.657 276.876 266.776C276.932 266.895 277.019 266.997 277.127 267.071C277.236 267.146 277.363 267.19 277.494 267.198C277.693 267.211 277.89 267.145 278.042 267.014C278.194 266.882 278.289 266.696 278.305 266.496ZM266.287 231.145C267.558 229.285 269.345 227.838 271.422 226.987C273.499 226.137 275.772 225.921 277.954 226.368C280.136 226.815 282.129 227.903 283.681 229.496C285.232 231.089 286.273 233.114 286.672 235.317C287.071 237.519 286.809 239.799 285.92 241.869C285.031 243.938 283.555 245.704 281.678 246.943C279.802 248.182 277.608 248.839 275.376 248.83C273.144 248.821 270.973 248.146 269.138 246.893C266.68 245.209 264.999 242.605 264.465 239.653C263.93 236.701 264.586 233.641 266.287 231.145Z" fill="url(#paint15_linear_199558_38307)" stroke="url(#paint16_linear_199558_38307)" stroke-width="2"/>
<path d="M143.579 337.993L61.1377 281.661L338.117 101.668L377.984 128.909L314.728 454.941L229.876 396.962" stroke="url(#paint17_linear_199558_38307)" stroke-width="2"/>
<mask id="path-12-inside-2_199558_38307" fill="white">
<path d="M163.664 401.191C138.236 383.816 131.903 348.831 149.519 323.051C167.135 297.272 202.028 290.458 227.457 307.833C252.885 325.209 259.218 360.193 241.602 385.973C223.986 411.753 189.092 418.566 163.664 401.191ZM225.536 310.643C201.639 294.314 168.846 300.717 152.291 324.945C135.735 349.173 141.687 382.052 165.585 398.381C189.482 414.71 222.275 408.307 238.83 384.079C255.386 359.851 249.434 326.973 225.536 310.643Z"/>
</mask>
<path d="M163.664 401.191C138.236 383.816 131.903 348.831 149.519 323.051C167.135 297.272 202.028 290.458 227.457 307.833C252.885 325.209 259.218 360.193 241.602 385.973C223.986 411.753 189.092 418.566 163.664 401.191ZM225.536 310.643C201.639 294.314 168.846 300.717 152.291 324.945C135.735 349.173 141.687 382.052 165.585 398.381C189.482 414.71 222.275 408.307 238.83 384.079C255.386 359.851 249.434 326.973 225.536 310.643Z" fill="url(#paint18_linear_199558_38307)" stroke="url(#paint19_linear_199558_38307)" stroke-width="4" mask="url(#path-12-inside-2_199558_38307)"/>
<path d="M186.532 360.107C186.138 360.683 185.345 360.827 184.762 360.428C184.178 360.029 184.024 359.238 184.417 358.662C184.811 358.086 185.603 357.942 186.187 358.341C186.771 358.74 186.925 359.53 186.532 360.107Z" fill="url(#paint20_linear_199558_38307)"/>
<path d="M171.645 333.1L171.997 333.341M181.685 373.629L176.223 369.897L165.828 362.794L167.492 360.36L167.967 359.664L168.852 359.504L169.737 359.343L173.789 362.112M181.685 373.629L204.766 389.4L206.88 390.845L209.24 390.417L210.481 389.735L213.333 385.562L219.867 375.999L224.263 369.565M181.685 373.629L181.517 371.984L181.759 370.874L183.303 368.613M224.263 369.565L225.214 368.174M224.263 369.565L224.677 369.338M225.214 368.174L226.64 366.088L227.947 364.175L228.303 363.653L228.307 362.891L228.192 362.302L227.959 361.888L225.492 360.202L222.673 358.276L219.326 355.989L218.445 355.387L218.18 355.206M225.214 368.174L196.848 348.791M218.18 355.206L217.916 355.025L202.293 344.605L201.236 343.883L200.175 343.923L199.581 344.792L196.848 348.791M218.18 355.206L224.121 346.512L224.156 345.516L223.689 344.686L221.398 343.121L184.928 318.201L184.223 317.719L183.281 317.585L182.572 317.866L182.097 318.562L171.997 333.341M171.997 333.341L166.651 341.166M185.327 364.895L176.165 358.635M176.165 358.635L163.128 349.726L162.718 349.191L162.484 348.776L162.37 348.188L162.374 347.425L162.611 347.078L166.651 341.166M176.165 358.635L173.789 362.112M173.789 362.112L183.303 368.613M183.303 368.613L190.076 358.702L190.788 357.659M190.788 357.659L166.651 341.166M190.788 357.659L196.848 348.791M188.794 367.009L197.427 372.908M186.532 360.107C186.138 360.683 185.345 360.827 184.762 360.428C184.178 360.029 184.024 359.238 184.417 358.662C184.811 358.086 185.603 357.942 186.187 358.341C186.771 358.74 186.925 359.53 186.532 360.107Z" stroke="url(#paint21_linear_199558_38307)" stroke-width="2"/>
<path d="M201.646 377.327L210.102 383.106" stroke="url(#paint22_linear_199558_38307)" stroke-width="2"/>
<path d="M185.695 371.533L190.099 374.543" stroke="url(#paint23_linear_199558_38307)" stroke-width="2"/>
<path d="M198.969 380.865L203.55 383.995" stroke="url(#paint24_linear_199558_38307)" stroke-width="2"/>
<path d="M203.542 373.78L199.137 370.77L199.374 370.422L199.612 370.074L200.202 369.967L203.55 372.255L204.431 372.857L204.369 373.325L203.955 373.552L203.542 373.78Z" fill="url(#paint25_linear_199558_38307)"/>
<path d="M200.821 370.196L201.155 369.708L201.21 368.871L201.288 365.353L207.368 363.641M207.368 363.641L207.807 369.807L204.91 371.399L203.974 371.634L203.55 372.255M207.368 363.641L204.754 367.466L203.873 366.864L204.797 367.496L205.721 368.127M203.55 372.255L204.431 372.857L204.369 373.325L203.955 373.552L203.542 373.78L199.137 370.77L199.374 370.422L199.612 370.074L200.202 369.967L203.55 372.255Z" stroke="url(#paint26_linear_199558_38307)" stroke-width="2"/>
<path d="M193.212 332.553L180.912 339.962" stroke="url(#paint27_linear_199558_38307)" stroke-width="2"/>
<path d="M193.201 336.364L194.119 341.073L189.399 341.928" stroke="url(#paint28_linear_199558_38307)" stroke-width="2"/>
<path d="M184.685 330.292L179.965 331.148L180.883 335.856" stroke="url(#paint29_linear_199558_38307)" stroke-width="2"/>
<defs>
<linearGradient id="paint0_linear_199558_38307" x1="224.597" y1="-22.853" x2="302.304" y2="516.822" gradientUnits="userSpaceOnUse">
<stop stop-color="#033043"/>
<stop offset="0.5" stop-color="#0A7273"/>
<stop offset="1" stop-color="#FDA521"/>
</linearGradient>
<linearGradient id="paint1_linear_199558_38307" x1="224.597" y1="-22.853" x2="302.304" y2="516.822" gradientUnits="userSpaceOnUse">
<stop stop-color="#033043"/>
<stop offset="0.5" stop-color="#0A7273"/>
<stop offset="1" stop-color="#FDA521"/>
</linearGradient>
<linearGradient id="paint2_linear_199558_38307" x1="150.417" y1="29.3098" x2="123.415" y2="73.7711" gradientUnits="userSpaceOnUse">
<stop stop-color="#033043"/>
<stop offset="0.5" stop-color="#0A7273"/>
<stop offset="1" stop-color="#FDA521"/>
</linearGradient>
<linearGradient id="paint3_linear_199558_38307" x1="150.417" y1="29.3098" x2="123.415" y2="73.7711" gradientUnits="userSpaceOnUse">
<stop stop-color="#033043"/>
<stop offset="0.5" stop-color="#0A7273"/>
<stop offset="1" stop-color="#FDA521"/>
</linearGradient>
<linearGradient id="paint4_linear_199558_38307" x1="147.476" y1="48.5402" x2="124.377" y2="86.0243" gradientUnits="userSpaceOnUse">
<stop stop-color="#033043"/>
<stop offset="0.5" stop-color="#0A7273"/>
<stop offset="1" stop-color="#FDA521"/>
</linearGradient>
<linearGradient id="paint5_linear_199558_38307" x1="147.476" y1="48.5402" x2="124.377" y2="86.0243" gradientUnits="userSpaceOnUse">
<stop stop-color="#033043"/>
<stop offset="0.5" stop-color="#0A7273"/>
<stop offset="1" stop-color="#FDA521"/>
</linearGradient>
<linearGradient id="paint6_linear_199558_38307" x1="165.436" y1="77.4641" x2="145.854" y2="108.384" gradientUnits="userSpaceOnUse">
<stop stop-color="#033043"/>
<stop offset="0.5" stop-color="#0A7273"/>
<stop offset="1" stop-color="#FDA521"/>
</linearGradient>
<linearGradient id="paint7_linear_199558_38307" x1="165.436" y1="77.4641" x2="145.854" y2="108.384" gradientUnits="userSpaceOnUse">
<stop stop-color="#033043"/>
<stop offset="0.5" stop-color="#0A7273"/>
<stop offset="1" stop-color="#FDA521"/>
</linearGradient>
<linearGradient id="paint8_linear_199558_38307" x1="286.372" y1="279.494" x2="298.881" y2="294.198" gradientUnits="userSpaceOnUse">
<stop stop-color="#033043"/>
<stop offset="0.5" stop-color="#0A7273"/>
<stop offset="1" stop-color="#FDA521"/>
</linearGradient>
<linearGradient id="paint9_linear_199558_38307" x1="286.372" y1="279.494" x2="298.881" y2="294.198" gradientUnits="userSpaceOnUse">
<stop stop-color="#033043"/>
<stop offset="0.5" stop-color="#0A7273"/>
<stop offset="1" stop-color="#FDA521"/>
</linearGradient>
<linearGradient id="paint10_linear_199558_38307" x1="223.472" y1="216.19" x2="235.981" y2="230.894" gradientUnits="userSpaceOnUse">
<stop stop-color="#033043"/>
<stop offset="0.5" stop-color="#0A7273"/>
<stop offset="1" stop-color="#FDA521"/>
</linearGradient>
<linearGradient id="paint11_linear_199558_38307" x1="223.472" y1="216.19" x2="235.981" y2="230.894" gradientUnits="userSpaceOnUse">
<stop stop-color="#033043"/>
<stop offset="0.5" stop-color="#0A7273"/>
<stop offset="1" stop-color="#FDA521"/>
</linearGradient>
<linearGradient id="paint12_linear_199558_38307" x1="264.684" y1="308.281" x2="218.194" y2="199.53" gradientUnits="userSpaceOnUse">
<stop stop-color="#033043"/>
<stop offset="0.5" stop-color="#0A7273"/>
<stop offset="1" stop-color="#FDA521"/>
</linearGradient>
<linearGradient id="paint13_linear_199558_38307" x1="218.489" y1="200.956" x2="336.247" y2="211.086" gradientUnits="userSpaceOnUse">
<stop stop-color="#033043"/>
<stop offset="0.5" stop-color="#0A7273"/>
<stop offset="1" stop-color="#FDA521"/>
</linearGradient>
<linearGradient id="paint14_linear_199558_38307" x1="333.839" y1="201.94" x2="277.722" y2="307.341" gradientUnits="userSpaceOnUse">
<stop stop-color="#033043"/>
<stop offset="0.5" stop-color="#0A7273"/>
<stop offset="1" stop-color="#FDA521"/>
</linearGradient>
<linearGradient id="paint15_linear_199558_38307" x1="267.832" y1="211.976" x2="276.704" y2="271.688" gradientUnits="userSpaceOnUse">
<stop stop-color="#033043"/>
<stop offset="0.5" stop-color="#0A7273"/>
<stop offset="1" stop-color="#FDA521"/>
</linearGradient>
<linearGradient id="paint16_linear_199558_38307" x1="267.832" y1="211.976" x2="276.704" y2="271.688" gradientUnits="userSpaceOnUse">
<stop stop-color="#033043"/>
<stop offset="0.5" stop-color="#0A7273"/>
<stop offset="1" stop-color="#FDA521"/>
</linearGradient>
<linearGradient id="paint17_linear_199558_38307" x1="237.019" y1="-5.72968" x2="315.267" y2="488.387" gradientUnits="userSpaceOnUse">
<stop stop-color="#033043"/>
<stop offset="0.5" stop-color="#0A7273"/>
<stop offset="1" stop-color="#FDA521"/>
</linearGradient>
<linearGradient id="paint18_linear_199558_38307" x1="286.568" y1="340.679" x2="105.184" y2="368.813" gradientUnits="userSpaceOnUse">
<stop stop-color="#033043"/>
<stop offset="0.5" stop-color="#0A7273"/>
<stop offset="1" stop-color="#FDA521"/>
</linearGradient>
<linearGradient id="paint19_linear_199558_38307" x1="286.568" y1="340.679" x2="105.184" y2="368.813" gradientUnits="userSpaceOnUse">
<stop stop-color="#033043"/>
<stop offset="0.5" stop-color="#0A7273"/>
<stop offset="1" stop-color="#FDA521"/>
</linearGradient>
<linearGradient id="paint20_linear_199558_38307" x1="182.678" y1="310.682" x2="183.935" y2="398.461" gradientUnits="userSpaceOnUse">
<stop stop-color="#033043"/>
<stop offset="0.5" stop-color="#0A7273"/>
<stop offset="1" stop-color="#FDA521"/>
</linearGradient>
<linearGradient id="paint21_linear_199558_38307" x1="182.678" y1="310.682" x2="183.935" y2="398.461" gradientUnits="userSpaceOnUse">
<stop stop-color="#033043"/>
<stop offset="0.5" stop-color="#0A7273"/>
<stop offset="1" stop-color="#FDA521"/>
</linearGradient>
<linearGradient id="paint22_linear_199558_38307" x1="201.238" y1="376.923" x2="200.147" y2="378.887" gradientUnits="userSpaceOnUse">
<stop stop-color="#033043"/>
<stop offset="0.5" stop-color="#0A7273"/>
<stop offset="1" stop-color="#FDA521"/>
</linearGradient>
<linearGradient id="paint23_linear_199558_38307" x1="185.511" y1="371.282" x2="184.599" y2="373.307" gradientUnits="userSpaceOnUse">
<stop stop-color="#033043"/>
<stop offset="0.5" stop-color="#0A7273"/>
<stop offset="1" stop-color="#FDA521"/>
</linearGradient>
<linearGradient id="paint24_linear_199558_38307" x1="198.775" y1="380.607" x2="197.849" y2="382.629" gradientUnits="userSpaceOnUse">
<stop stop-color="#033043"/>
<stop offset="0.5" stop-color="#0A7273"/>
<stop offset="1" stop-color="#FDA521"/>
</linearGradient>
<linearGradient id="paint25_linear_199558_38307" x1="204.278" y1="360.206" x2="208.676" y2="374.245" gradientUnits="userSpaceOnUse">
<stop stop-color="#033043"/>
<stop offset="0.5" stop-color="#0A7273"/>
<stop offset="1" stop-color="#FDA521"/>
</linearGradient>
<linearGradient id="paint26_linear_199558_38307" x1="204.278" y1="360.206" x2="208.676" y2="374.245" gradientUnits="userSpaceOnUse">
<stop stop-color="#033043"/>
<stop offset="0.5" stop-color="#0A7273"/>
<stop offset="1" stop-color="#FDA521"/>
</linearGradient>
<linearGradient id="paint27_linear_199558_38307" x1="188.771" y1="327.877" x2="195.151" y2="338.947" gradientUnits="userSpaceOnUse">
<stop stop-color="#033043"/>
<stop offset="0.5" stop-color="#0A7273"/>
<stop offset="1" stop-color="#FDA521"/>
</linearGradient>
<linearGradient id="paint28_linear_199558_38307" x1="193.44" y1="335.681" x2="196.754" y2="342.017" gradientUnits="userSpaceOnUse">
<stop stop-color="#033043"/>
<stop offset="0.5" stop-color="#0A7273"/>
<stop offset="1" stop-color="#FDA521"/>
</linearGradient>
<linearGradient id="paint29_linear_199558_38307" x1="185.235" y1="329.821" x2="178.128" y2="329.037" gradientUnits="userSpaceOnUse">
<stop stop-color="#033043"/>
<stop offset="0.5" stop-color="#0A7273"/>
<stop offset="1" stop-color="#FDA521"/>
</linearGradient>
</defs>
</svg>
