<svg width="691" height="461" viewBox="0 0 691 461" fill="none" xmlns="http://www.w3.org/2000/svg">
<g clip-path="url(#clip0_199798_41112)">
<path fill-rule="evenodd" clip-rule="evenodd" d="M51.816 225.987C52.3544 358.916 53.2674 453.975 54.0319 456.834C54.9269 460.181 55.1142 455.422 54.6314 441.56C54.247 430.487 53.8169 326.606 53.6767 210.713C53.5241 85.4058 52.9108 0.00138855 52.1601 0C51.4053 0 51.2665 90.6545 51.816 225.987ZM338.055 57.6708C338.913 119.002 338.803 120.335 332.3 127.747C330.623 129.656 326.656 135.998 323.482 141.838C317.782 152.329 315.908 154.13 310.698 154.13C309.234 154.13 308.037 154.754 308.037 155.518C308.037 156.282 309.394 156.907 311.053 156.907H314.071L311.053 160.12C308.006 163.368 306.973 168.015 309.298 168.015C309.993 168.015 309.688 171.295 308.621 175.305C307.555 179.314 306.674 184.256 306.666 186.286C306.648 190.272 300.052 204.117 298.17 204.117C297.54 204.117 297.31 204.898 297.659 205.853C298.009 206.808 297.725 208.486 297.028 209.581C295.944 211.287 294.941 211.305 290.097 209.705C286.984 208.676 284.078 208.19 283.644 208.626C283.208 209.062 284.147 209.83 285.732 210.333C287.315 210.835 288.611 212.142 288.611 213.236C288.611 215.029 291.078 215.873 294.855 215.37C295.618 215.269 295.151 216.045 293.814 217.095C292.478 218.145 291.386 219.619 291.386 220.37C291.386 221.123 290.228 222.788 288.81 224.071C286.14 226.49 286.216 232.226 288.968 235.707C290.988 238.265 293.078 237.818 292.205 235.013C291.339 232.229 291.995 231.132 297.372 226.368C300.476 223.617 301.056 223.441 300.272 225.487C299.442 227.651 299.698 227.835 301.929 226.683C303.38 225.934 305.291 225.582 306.175 225.901C307.059 226.22 308.19 225.823 308.685 225.019C309.182 224.215 308.578 223.557 307.343 223.557C306.108 223.557 305.45 222.985 305.882 222.287C306.314 221.588 305.882 220.729 304.923 220.376C300.526 218.757 311.944 217.727 317.668 219.225C324.281 220.956 333.615 229.545 338.126 238.048C340.61 242.73 340.055 256.442 337.127 262.755L335.369 266.544L332.803 263.584C331.392 261.955 330.149 259.312 330.039 257.711C329.931 256.11 329.37 260.558 328.793 267.595C327.798 279.735 325.104 293.926 323.393 296.041C322.96 296.577 322.81 288.454 323.059 277.99C323.332 266.525 322.923 257.587 322.029 255.494C320.614 252.181 320.554 252.245 320.737 256.883C320.843 259.555 320.818 264.554 320.682 267.991L320.435 274.239L317.886 266.857C315.331 259.454 307.687 249.94 304.296 249.94C301.539 249.94 302.134 252.464 305.528 255.161C313.484 261.481 316.362 265.157 316.362 268.995C316.362 271.192 316.952 273.584 317.672 274.309C319.24 275.888 316.796 305.539 314.943 307.433C314.227 308.163 314.053 304.627 314.526 298.972C315.187 291.094 314.947 289.105 313.26 288.458C311.794 287.895 310.278 289.572 308.126 294.14C302.366 306.365 293.327 313.813 284.254 313.813C281.309 313.813 278.898 314.458 278.898 315.245C278.898 317.878 283.286 318.405 291.188 316.721C308.181 313.098 307.338 313.006 310.077 318.78C312.286 323.439 313.286 335.919 311.663 338.556C311.342 339.075 310.662 349.499 310.152 361.718C309.641 373.938 309.014 388.508 308.76 394.095C308.398 402.043 308.739 404.426 310.328 405.036C311.445 405.465 312.03 406.673 311.629 407.72C311.228 408.767 311.504 409.623 312.243 409.623C312.982 409.623 313.587 408.272 313.587 406.621C313.587 404.97 314.485 400.44 315.581 396.554C316.679 392.669 318.269 377.426 319.114 362.682C319.96 347.938 321.217 334.389 321.907 332.573L323.161 329.272L328.825 332.012C331.942 333.517 335.051 334.403 335.735 333.979C336.422 333.554 336.641 326.534 336.224 318.304C335.409 302.273 338.904 277.475 343.331 267.867L345.512 263.131L344.761 270.445C343.78 280.003 346.451 281.414 353.179 274.888C358.676 269.557 358.777 269.702 360.049 284.654C360.538 290.381 361.899 298.817 363.077 303.399C365.691 313.576 364.892 325.942 361.057 334.642C359.541 338.078 357.471 344.327 356.457 348.527C355.441 352.727 354.219 356.477 353.739 356.858C353.259 357.24 352.437 359.304 351.914 361.443C351.026 365.072 351.161 365.229 353.898 363.762C355.515 362.897 357.736 359.897 358.835 357.095C359.934 354.291 363.402 347.023 366.539 340.941L372.244 329.884L371.415 317.336C370.96 310.435 369.954 302.913 369.182 300.622C368.409 298.331 366.82 288.958 365.652 279.794C364.482 270.629 363.186 261.256 362.77 258.965L362.013 254.8L364.333 258.965C370.364 269.8 378.4 273.53 389.808 270.79C395.146 269.51 396.99 268.191 400.048 263.471C402.099 260.305 403.728 256.746 403.668 255.563C403.596 254.133 403.324 253.993 402.859 255.147C402.474 256.101 401.275 256.883 400.194 256.883C397.764 256.883 397.6 259.175 399.962 260.129C401.057 260.571 400.857 260.869 399.417 260.939C396.163 261.095 395.453 258.211 395.453 244.86V233.065L390.249 233.517L385.046 233.971L383.774 224.497C382.611 215.838 382.253 215.09 379.611 215.799C378.021 216.227 374.223 216.61 371.17 216.651L365.62 216.726L369.436 218.797C371.534 219.937 373.256 221.63 373.26 222.56C373.266 223.491 374.143 225.927 375.211 227.977C378.834 234.927 379.157 240.149 376.601 250.412C373.708 262.029 371.9 264.947 371.777 258.202C371.691 253.529 371.651 253.497 370.177 256.883C368.874 259.878 368.583 260.003 368.058 257.799C367.263 254.457 370.472 231.889 371.743 231.889C372.283 231.889 369.41 228.295 365.357 223.904C361.305 219.514 357.99 215.436 357.989 214.844C357.989 214.253 354.363 210.191 349.931 205.818C342.913 198.894 341.525 196.615 339.178 188.149C334.459 171.137 337.274 139.891 344.189 132.525C347.715 128.77 360.971 122.209 367.016 121.228C372.355 120.361 385.318 125.967 390.525 131.393C394.026 135.042 401.003 148.298 401.003 151.301C401.003 151.994 401.674 154.32 402.494 156.469C403.896 160.145 404.097 160.225 405.856 157.829C408.339 154.446 407.116 147.427 402.132 136.425C396.966 125.025 390.369 117.904 379.777 112.294C372.604 108.495 369.632 107.725 361.925 107.674C354.455 107.624 351.87 108.213 348.453 110.737C346.128 112.456 343.576 113.861 342.781 113.861C341.806 113.861 341.338 95.4353 341.338 56.9307C341.338 7.69953 341.062 0 339.293 0C337.511 0 337.352 7.42321 338.055 57.6708ZM376.721 148.218C373.436 150.042 373.07 150.637 374.986 151.043C377.824 151.643 377.901 152.013 375.951 155.662C374.005 159.298 375.436 163.37 378.982 164.299C382.45 165.206 386.013 164.027 384.96 162.321C384.539 161.64 385.792 160.356 387.743 159.467C392.446 157.322 392.242 155.518 387.297 155.518C381.524 155.518 379.077 152.108 382.294 148.549C385.455 145.054 382.716 144.893 376.721 148.218ZM346.301 156.733C345.839 157.483 346.718 158.495 348.255 158.983C352.709 160.397 351.969 162.185 344.807 167.324C342.204 169.193 342.358 169.318 347.317 169.359C350.478 169.386 352.258 169.962 351.745 170.792C351.273 171.556 352.151 172.181 353.696 172.181C357.407 172.181 359.637 167.723 359.11 161.361C358.698 156.394 358.478 156.197 352.913 155.792C349.74 155.56 346.765 155.983 346.301 156.733ZM305.262 159.684C305.262 160.447 305.886 161.072 306.649 161.072C307.412 161.072 308.037 160.447 308.037 159.684C308.037 158.92 307.412 158.295 306.649 158.295C305.886 158.295 305.262 158.92 305.262 159.684ZM189.021 166.954C184.563 171.749 183.17 177.853 183.074 192.999C183.03 200.26 182.365 209.325 181.598 213.143C179.608 223.053 179.78 226.143 182.487 229.138C184.918 231.825 184.843 235.096 182.158 243.691C181.098 247.082 181.42 248.679 183.887 252.278L186.919 256.698L187.91 216.176C189.029 170.388 189.245 169.404 198.119 169.404C201.8 169.404 203.806 170.209 205.036 172.181C206.6 174.687 208.272 174.958 222.15 174.958C236.364 174.958 237.587 174.747 238.257 172.181C239.274 168.29 247.352 168.383 251.299 172.332C254.103 175.138 254.19 176.166 253.398 196.979C252.944 208.925 252.187 238.068 251.716 261.742C250.999 297.827 250.512 305.181 248.708 307.218C246.792 309.381 243.476 309.648 218.54 309.648C182.731 309.648 185.326 311.818 186.214 282.603C186.574 270.747 186.442 261.048 185.921 261.048C185.401 261.048 183.977 262.151 182.759 263.499C181.043 265.397 180.549 269.012 180.571 279.541C180.589 288.114 179.984 293.875 178.934 295.143C177.754 296.563 177.724 297.151 178.825 297.151C179.682 297.151 180.382 298.996 180.382 301.251C180.382 307.036 182.894 311.86 186.844 313.661C188.984 314.635 201.05 315.202 219.685 315.202C252.736 315.202 254.121 314.849 256.636 305.789C257.425 302.946 258.085 296.56 258.105 291.596C258.148 280.62 260.48 263.65 262.178 261.951C263.841 260.287 262.421 256.883 260.066 256.883C259.03 256.883 257.476 255.562 256.613 253.947C255.064 251.051 255.207 249.014 257.925 235.36C258.686 231.541 259.345 215.799 259.389 200.377C259.471 172.799 259.419 172.272 256.174 168.498L252.876 164.662L222.526 164.112L192.176 163.562L189.021 166.954ZM386.433 178.472C388.723 180.35 391.064 181.889 391.637 181.894C393.847 181.909 392.537 184.535 389.902 185.372C388.376 185.857 387.127 187.148 387.127 188.242C387.127 190.553 389.329 190.896 390.631 188.786C391.122 187.992 392.719 187.721 394.182 188.187C396.216 188.832 396.84 188.356 396.84 186.159C396.84 183.117 393.331 178.926 388.71 176.452C383.633 173.732 382.201 175.001 386.433 178.472ZM356.236 181.537C354.929 182.982 353.157 186.183 352.298 188.65C350.134 194.864 353.148 198.247 360.123 197.432C363.415 197.047 364.871 196.255 364.424 195.09C363.98 193.931 365.581 193.037 369.114 192.472C375.083 191.516 378.024 188.809 372.987 188.904C371.225 188.938 367.294 189.853 364.251 190.936C357.581 193.313 356.064 192.186 358.096 186.355C360.127 180.525 359.236 178.22 356.236 181.537ZM364.926 181.901C364.926 182.664 365.551 183.289 366.314 183.289C367.077 183.289 367.702 182.664 367.702 181.901C367.702 181.137 367.077 180.512 366.314 180.512C365.551 180.512 364.926 181.137 364.926 181.901ZM403.205 221.474C403.763 225.293 404.139 229.042 404.041 229.806C402.647 240.706 402.497 249.94 403.713 249.94C404.512 249.94 405.165 249.277 405.165 248.469C405.165 247.661 405.79 247.385 406.553 247.857C408.559 249.097 408.26 256.723 405.787 267.394C404.602 272.507 403.844 278.949 404.104 281.713L404.576 286.736L406.323 282.657C408.934 276.558 411.153 257.489 409.933 251.619C409.346 248.786 409.008 245.637 409.182 244.622C409.357 243.605 408.526 241.284 407.333 239.463C404.393 234.971 404.603 233.551 408.287 233.026C413.016 232.352 411.944 224.161 406.41 218.697L402.19 214.532L403.205 221.474ZM310.812 224.797C310.812 226.265 314.257 227.742 317.517 227.674C319.169 227.638 318.84 227.058 316.362 225.64C312.294 223.313 310.812 223.088 310.812 224.797ZM353.826 233.072C353.826 239.774 356.518 241.89 360.27 238.134C363.386 235.017 362.044 231.265 357.629 230.756C354.613 230.407 353.826 230.886 353.826 233.072ZM326.075 232.886C326.075 233.774 326.594 234.823 327.229 235.216C327.864 235.608 329.16 240.277 330.109 245.588C331.058 250.901 332.703 256.397 333.766 257.8C335.523 260.119 335.7 259.844 335.713 254.8C335.727 249.352 332.424 240.342 328.205 234.314C327.034 232.64 326.075 231.998 326.075 232.886ZM439.238 240.095C438.129 241.889 439.896 245.912 441.387 244.99C443.04 243.968 442.986 238.831 441.324 238.831C440.605 238.831 439.667 239.399 439.238 240.095ZM424.591 245.746C425.736 246.473 426.785 249.118 426.921 251.627C427.72 266.283 431.89 282.676 434.419 281.111C435.118 280.678 435.692 277.784 435.692 274.682C435.692 267.416 437.884 269.006 442.579 279.678C444.454 283.943 446.563 287.431 447.264 287.431C448.013 287.431 448.109 283.855 447.495 278.752C446.924 273.98 446.19 267.887 445.865 265.214C445.54 262.541 444.715 260.157 444.031 259.917C443.345 259.676 443.129 258.584 443.549 257.487C443.97 256.391 443.909 254.436 443.412 253.142C442.632 251.108 442.021 251.317 438.877 254.712L435.243 258.633L432.554 253.245C429.785 247.697 426.556 244.369 423.979 244.406C423.17 244.419 423.446 245.021 424.591 245.746ZM360.159 251.735C360.681 253.104 361.456 253.875 361.884 253.447C362.311 253.021 361.885 251.9 360.936 250.958C359.565 249.597 359.407 249.756 360.159 251.735ZM313.587 251.896C313.587 252.16 314.524 253.154 315.668 254.105C316.869 255.102 317.75 255.237 317.75 254.423C317.75 253.649 316.813 252.654 315.668 252.214C314.524 251.775 313.587 251.632 313.587 251.896ZM324.958 254.8C324.986 257.091 325.297 257.86 325.649 256.509C326.001 255.158 325.978 253.283 325.598 252.343C325.218 251.403 324.93 252.509 324.958 254.8ZM278.639 263.385C279.639 263.786 280.837 263.736 281.297 263.275C281.758 262.814 280.939 262.487 279.477 262.546C277.86 262.613 277.532 262.942 278.639 263.385ZM291.875 264.776C292.996 265.898 302.487 269.28 302.487 268.558C302.487 268.285 300.644 267.109 298.393 265.944C294.218 263.784 290.156 263.056 291.875 264.776ZM455.885 267.665C456.688 268.226 458.768 271.029 460.506 273.892C463.511 278.837 466.218 280.671 466.218 277.759C466.218 275.743 457.84 266.6 456.014 266.623C454.935 266.639 454.894 266.973 455.885 267.665ZM303.874 270.429C303.874 271.042 305.14 272.457 306.685 273.572C308.231 274.687 310.111 277.884 310.863 280.678C311.614 283.471 313.16 286.114 314.296 286.55C317.181 287.658 316.874 285.248 313.325 278.929C310.493 273.885 303.874 267.934 303.874 270.429ZM392.918 283.536C392.115 288.351 390.772 297.289 389.934 303.399C387.209 323.253 384.116 339.149 379.333 357.878C376.751 367.985 374.685 377.045 374.742 378.012C374.979 382.107 383.35 350.164 387.745 328.393C391.938 307.615 396.083 276.49 394.825 275.231C394.578 274.985 393.72 278.722 392.918 283.536ZM480.093 294.373C480.093 295.137 480.992 295.762 482.093 295.762C483.193 295.762 484.478 295.137 484.95 294.373C485.421 293.61 484.521 292.985 482.95 292.985C481.379 292.985 480.093 293.61 480.093 294.373ZM467.31 295.513C465.738 296.137 465.325 297.094 466.091 298.335C466.78 299.45 466.424 301.872 465.213 304.3C462.678 309.384 463.708 313.806 468.793 319.69C473.196 324.781 476.419 332.786 474.537 333.951C472.174 335.412 459.42 326.128 455.357 319.988C451.375 313.973 451.235 313.897 450.387 317.276C449.26 321.767 450.813 327.931 453.613 330.084C454.822 331.015 457.625 331.796 459.839 331.82C462.682 331.852 465.969 333.806 471.007 338.46C478.185 345.092 485.351 349.832 490.5 351.356C493.026 352.103 492.903 352.393 489.112 354.598C485.333 356.796 485.269 356.943 488.418 356.203C490.326 355.755 500.629 353.498 511.313 351.19C521.997 348.881 531.29 346.443 531.964 345.771C533.644 344.093 531.821 339.792 529.927 340.964C529.088 341.482 525.99 340.74 523.045 339.315C519.282 337.495 517.565 335.705 517.275 333.297C516.849 329.761 515.523 329.218 501.947 327.025C495.96 326.058 495.177 324.227 500.213 322.962C502.12 322.483 503.668 321.635 503.651 321.077C503.6 319.392 489.676 311.036 486.92 311.036C485.509 311.036 483.685 309.786 482.868 308.259C482.051 306.732 480.468 305.482 479.351 305.482C476.27 305.482 476.92 302.763 480.298 301.512C483.187 300.443 483.149 300.317 479.043 297.391C474.737 294.324 471.579 293.817 467.31 295.513ZM319.247 303.632C319.187 304.525 318.778 306.4 318.338 307.798C317.579 310.216 317.619 310.22 319.13 307.859C320.006 306.494 320.414 304.62 320.039 303.693C319.547 302.478 319.326 302.462 319.247 303.632ZM271.961 314.508C272.911 315.653 274.236 316.59 274.905 316.59C275.575 316.59 276.123 315.653 276.123 314.508C276.123 313.311 274.872 312.425 273.179 312.425C270.717 312.425 270.518 312.768 271.961 314.508ZM447.519 366.526C447.065 367.26 449.213 369.147 452.294 370.719C458.3 373.786 459.161 373.174 455.732 368.277C453.516 365.111 448.988 364.146 447.519 366.526ZM349.812 369.076C348.967 370.657 348.276 375.704 348.276 380.29C348.276 384.878 347.651 389.017 346.888 389.489C346.125 389.962 345.501 392.393 345.501 394.894C345.501 399.327 343.161 413.791 341.771 417.955C341.388 419.1 340.898 422.537 340.682 425.592C340.29 431.107 336.595 451.888 334.94 457.876C334.306 460.172 334.664 461 336.293 461C338.717 461 339.011 459.993 341.353 443.643C343.729 427.065 343.888 426.633 347.689 426.633C351.373 426.633 351.46 427.015 349.779 435.716C348.202 443.874 351.263 442.768 353.132 434.505C354.339 429.163 355.036 428.313 358.505 427.943C362.415 427.525 362.472 427.615 361.501 432.803C360.206 439.711 358.172 443.417 357.836 439.477C357.704 437.95 357.159 439.825 356.623 443.643C356.088 447.462 354.606 452.93 353.331 455.793C351.097 460.813 351.109 461 353.693 461C355.812 461 357.152 458.659 360.087 449.843C362.128 443.707 363.447 437.771 363.019 436.652C362.013 434.03 363.454 430.235 365.075 431.238C366.428 432.075 365.649 438.951 362.735 451.915C360.882 460.161 361.209 463.384 363.519 459.642C364.624 457.854 365.716 452.351 368.433 434.872C368.945 431.574 369.72 429.233 370.155 429.667C370.589 430.102 372.194 429.363 373.721 428.025C376.381 425.695 376.457 425.702 375.537 428.218C374.642 430.663 371.942 453.126 371.888 458.57C371.875 459.906 372.698 461 373.718 461C374.932 461 375.649 459.003 375.798 455.215C375.923 452.034 376.322 449.133 376.685 448.77C377.048 448.407 378.678 451.166 380.309 454.901C382.866 460.76 383.431 461.312 384.409 458.917C385.033 457.39 385.526 454.89 385.504 453.363C385.472 451.161 385.246 451.304 384.413 454.057L383.363 457.529L382.347 453.363C381.788 451.072 380.409 446.255 379.281 442.66C378.153 439.064 377.474 434.065 377.772 431.552L378.315 426.98L379.421 431.471C380.794 437.046 382.965 436.041 382.965 429.83C382.965 426.279 383.528 425.25 385.393 425.399C388.642 425.657 389.689 428.37 389.805 436.843C389.858 440.741 390.303 447.771 390.793 452.465C391.555 459.756 392.088 461 394.441 461C397.044 461 397.152 460.318 396.389 448.85C395.945 442.168 396.023 433.888 396.561 430.452C397.419 424.975 397.968 424.203 401.006 424.203C404.047 424.203 404.769 425.223 406.894 432.535C408.226 437.117 409.32 442.62 409.323 444.764C409.325 446.908 410.026 451.438 410.881 454.831C412.173 459.968 412.986 461 415.737 461C419.812 461 419.815 461.128 415.512 451.713C413.571 447.467 412.247 443.731 412.568 443.408C412.89 443.088 411.724 438.322 409.979 432.819C406.756 422.666 406.67 420.293 409.629 423.255C412.279 425.907 413.313 425.175 413.187 420.737C413.094 417.48 412.676 416.904 411.26 418.08C408.827 420.1 406.463 418.446 407.542 415.48C408.304 413.389 408.038 413.423 405.392 415.748C400.782 419.799 400.722 417.863 405.249 411.118C410.761 402.903 410.664 399.494 405.068 404.851C402.725 407.094 399.481 411.116 397.857 413.789C393.7 420.632 389.902 422.954 389.902 418.649C389.902 417.504 389.278 416.566 388.515 416.566C387.752 416.566 387.127 417.504 387.127 418.649C387.127 421.594 384.362 421.254 384.308 418.302C384.266 415.987 384.176 415.987 382.421 418.302C380.126 421.326 375.781 421.6 376.912 418.649C377.883 416.118 375.884 415.925 373.331 418.302C372.305 419.257 374.791 413.817 378.852 406.216C382.913 398.614 387.026 388.928 387.99 384.693L389.746 376.992L386.701 380.75C383.556 384.634 379.794 391.564 374.567 403.1C372.906 406.767 371.227 409.449 370.837 409.058C370.448 408.668 371.208 402.349 372.527 395.013C373.847 387.679 374.625 381.376 374.256 381.005C373.887 380.636 373.148 382.663 372.615 385.51C371.988 388.854 371.258 390.06 370.553 388.919C369.806 387.711 369.245 388.29 368.774 390.75C368.395 392.73 368.527 394.349 369.066 394.349C370.328 394.349 365.949 414.968 363.879 418.763C363.012 420.353 361.234 422.54 359.929 423.623C357.731 425.445 357.609 425.1 358.294 418.996C358.702 415.368 358.567 412.401 357.996 412.401C357.423 412.401 355.698 415.305 354.162 418.857C351.632 424.705 351.274 425.014 350.365 422.144C349.602 419.74 349.081 419.429 348.2 420.855C346.315 423.908 344.892 421.011 346.602 417.605C347.464 415.889 348.798 410.888 349.565 406.494C350.331 402.1 351.595 397.315 352.373 395.862C353.984 392.847 354.012 370.515 352.408 367.917C351.645 366.681 350.921 367.005 349.812 369.076ZM502.988 377.687C499.993 379.214 496.821 380.464 495.938 380.464C495.055 380.464 489.723 382.045 484.091 383.978L473.849 387.494L482.004 386.635C495.702 385.189 517.557 378.72 517.557 376.109C517.557 373.899 508.489 374.88 502.988 377.687ZM459.301 382.234C459.283 386.664 458.69 387.7 455.468 388.926C453.372 389.724 450.234 390.105 448.497 389.771C446.76 389.439 445.003 389.709 444.595 390.37C444.187 391.031 444.755 391.572 445.858 391.572C446.96 391.572 449.573 392.46 451.662 393.545C455.51 395.544 459.133 395.085 460.993 392.368C462.461 390.223 462.248 381.523 460.667 379.075C459.668 377.527 459.317 378.338 459.301 382.234ZM9.21267 381.428C8.72564 381.916 8.32602 383.477 8.32602 384.896C8.32602 386.651 6.99675 387.743 4.16337 388.309C-0.156071 389.174 -1.68099 393.333 1.73516 394.928C3.12271 395.575 3.12271 395.9 1.73516 396.547C-0.720804 397.696 -0.522385 402.795 1.9419 401.848C3.00893 401.438 4.34792 401.856 4.91542 402.775C5.64389 403.954 6.71369 403.469 8.54248 401.134C10.9735 398.028 11.2524 397.974 13.0062 400.251C15.5094 403.503 18.9338 403.329 19.8288 399.904C20.5795 397.031 18.8561 396.068 17.3451 398.515C16.8733 399.279 15.9728 399.904 15.3443 399.904C13.632 399.904 12.7024 393.302 14.2037 391.8C15.014 390.989 14.9363 390.145 13.9969 389.564C13.1672 389.051 12.4887 387.143 12.4887 385.324C12.4887 381.909 10.7723 379.867 9.21267 381.428ZM401.468 392.671C391.436 405.926 389.107 410.812 391.623 413.33C393.327 415.033 394.655 413.174 401.389 399.662C405.676 391.06 409.034 383.873 408.851 383.689C408.668 383.506 405.346 387.548 401.468 392.671ZM423.587 385.671C423.081 387.007 420.9 390.903 418.74 394.329C416.578 397.753 414.166 402.947 413.38 405.87C412.593 408.795 411.613 412.24 411.204 413.529C409.948 417.47 416.074 409.485 419.837 402.275C421.747 398.616 423.829 392.836 424.465 389.431C425.646 383.104 425.229 381.321 423.587 385.671ZM471.074 386.018C471.546 386.782 472.206 387.407 472.543 387.407C472.881 387.407 473.155 386.782 473.155 386.018C473.155 385.254 472.494 384.63 471.686 384.63C470.878 384.63 470.602 385.254 471.074 386.018ZM323.401 389.367C321.577 391.568 321.291 394.263 321.658 405.848C321.842 411.634 322.51 414.106 324.053 414.699C326.888 415.787 328.606 413.965 326.167 412.458C324.674 411.534 324.441 408.671 325.098 399.341C325.562 392.778 325.735 387.407 325.484 387.407C325.233 387.407 324.295 388.29 323.401 389.367ZM24.2926 397.111C23.8069 397.897 24.3633 398.13 25.5982 397.657C28.0015 396.734 28.4413 395.738 26.446 395.738C25.7273 395.738 24.7588 396.356 24.2926 397.111ZM329.609 410.459C328.772 414.919 329.362 418.023 330.747 416.451C332.054 414.967 333.002 405.458 331.843 405.458C331.13 405.458 330.124 407.709 329.609 410.459ZM311.091 418.401C310.174 420.937 309.411 424.842 309.394 427.079C309.368 430.681 305.521 449.407 303.068 457.876C302.297 460.536 302.689 461 305.709 461C309.728 461 309.533 461.85 312.288 432.535C313.15 423.37 314.144 415.404 314.497 414.831C314.85 414.257 314.603 413.789 313.948 413.789C313.293 413.789 312.007 415.864 311.091 418.401ZM424.538 417.027C422.411 418.648 422.406 423.509 424.531 423.509C425.467 423.509 427.609 416.375 426.894 415.639C426.77 415.51 425.709 416.134 424.538 417.027ZM332.549 420.656C329.856 423.404 328.401 426.564 327.929 430.684C327.415 435.178 327.615 436.174 328.718 434.617C329.53 433.472 330.204 431.532 330.217 430.307C330.228 429.083 331.799 426.394 333.707 424.335C335.614 422.275 337.175 419.684 337.175 418.577C337.175 415.954 337.144 415.968 332.549 420.656ZM325.033 419.822C324.921 421.365 317.006 453.585 315.514 458.57C314.904 460.611 315.71 461 320.547 461C324.553 461 326.122 460.471 325.7 459.264C325.366 458.31 324.066 457.712 322.809 457.937C321.094 458.242 320.525 457.277 320.525 454.06C320.525 448.425 324.449 429.552 326.781 423.96C328.241 420.463 328.263 419.416 326.885 418.887C325.931 418.52 325.097 418.941 325.033 419.822ZM414.878 420.12C414.878 421.31 415.503 421.898 416.266 421.426C417.029 420.954 417.653 419.981 417.653 419.261C417.653 418.542 417.029 417.955 416.266 417.955C415.503 417.955 414.878 418.93 414.878 420.12ZM398.587 436.006C398.333 450.944 400.462 461 403.876 461C407.145 461 407.147 461.544 403.832 449.425C402.335 443.954 400.582 436.353 399.937 432.535L398.763 425.592L398.587 436.006ZM402.51 429.063C402.467 430.973 403.038 433.472 403.778 434.617C404.888 436.336 405.11 436.216 405.046 433.923C405.004 432.396 404.434 429.896 403.778 428.369C402.686 425.825 402.579 425.883 402.51 429.063ZM303.357 429.063C300.579 435.949 297.024 447.664 297.553 448.193C298.622 449.264 303.824 439.695 304.704 435.04C305.675 429.901 304.723 425.678 303.357 429.063ZM420.424 429.873C420.423 431.336 421.333 436.596 422.446 441.56C423.56 446.524 424.838 452.93 425.288 455.793C425.977 460.186 426.641 461 429.536 461C432.57 461 432.866 460.554 432.092 457.181C431.218 453.374 421.934 428.888 420.947 427.79C420.662 427.472 420.427 428.409 420.424 429.873Z" fill="#0A7273"/>
<path d="M200.889 242.605L200.653 243.083C198.086 239.611 196.377 235.385 196.008 231.151C195.627 226.781 196.512 222.396 198.564 218.488C200.615 214.579 203.753 211.3 207.626 209.02C211.5 206.741 215.955 205.55 220.492 205.582C225.03 205.615 229.469 206.87 233.312 209.205C237.155 211.541 240.25 214.864 242.251 218.802C244.252 222.74 245.079 227.137 244.642 231.501C244.219 235.717 242.367 239.839 239.754 243.269L239.626 242.962C242.264 239.566 243.733 235.689 244.157 231.457C244.587 227.174 243.774 222.859 241.811 218.996C239.849 215.132 236.814 211.874 233.048 209.586C229.282 207.298 224.933 206.069 220.49 206.037C216.046 206.005 211.682 207.171 207.886 209.405C204.091 211.639 201.014 214.853 199.001 218.688C196.988 222.523 196.12 226.826 196.493 231.115C196.862 235.352 198.3 239.176 200.889 242.605Z" fill="#0A7273" stroke="#0A7273" stroke-width="0.5"/>
<path d="M247.769 215.429C228.497 211.704 203.141 213.246 192.872 214.482C189.352 215.362 191.388 215.84 192.847 215.969C217.499 212.611 239.716 215.201 247.743 216.916C252.27 216.674 249.647 215.824 247.769 215.429Z" fill="#0A7273" stroke="#0A7273" stroke-width="0.5"/>
<path d="M246.762 217.622C228.199 214.432 203.789 215.685 193.904 216.71C190.516 217.448 192.478 217.856 193.882 217.968C217.611 215.177 239.008 217.413 246.74 218.88C251.098 218.685 248.57 217.96 246.762 217.622Z" fill="#0A7273" stroke="#0A7273" stroke-width="0.5"/>
<path d="M243.045 219.779C227.202 216.945 206.145 217.75 197.597 218.507C194.651 219.088 196.322 219.446 197.526 219.553C218.06 217.462 236.381 219.53 242.975 220.825C246.734 220.705 244.588 220.078 243.045 219.779Z" fill="#0A7273" stroke="#0A7273" stroke-width="0.5"/>
<path d="M222.025 220.339C222.205 220.726 222.063 221.091 221.828 221.204C221.594 221.316 221.226 221.195 221.047 220.808C220.867 220.421 221.009 220.055 221.244 219.943C221.478 219.83 221.846 219.952 222.025 220.339Z" fill="#0A7273" stroke="#0A7273" stroke-width="0.5"/>
<path d="M226.766 232.136C226.945 232.523 226.803 232.888 226.569 233.001C226.334 233.113 225.967 232.992 225.787 232.605C225.607 232.217 225.749 231.852 225.984 231.74C226.219 231.627 226.586 231.748 226.766 232.136Z" fill="#0A7273" stroke="#0A7273" stroke-width="0.5"/>
<path d="M214.086 229.476C214.265 229.863 214.124 230.228 213.889 230.341C213.654 230.453 213.287 230.332 213.107 229.945C212.928 229.557 213.07 229.192 213.304 229.08C213.539 228.967 213.906 229.088 214.086 229.476Z" fill="#0A7273" stroke="#0A7273" stroke-width="0.5"/>
<path d="M221.041 220.453C220.124 220.362 219.135 220.867 218.268 221.972C217.402 223.074 216.744 224.667 216.43 226.463C216.116 228.258 216.169 230.114 216.574 231.687C216.981 233.266 217.706 234.417 218.577 234.974C219.428 235.518 220.397 235.482 221.336 234.832C222.289 234.173 223.141 232.928 223.71 231.298C224.278 229.672 224.518 227.799 224.383 226.029C224.249 224.256 223.75 222.729 223 221.717" stroke="#0A7273" stroke-width="0.5"/>
<path d="M226.589 231.9C227.092 231.11 227.105 229.984 226.539 228.695C225.975 227.408 224.885 226.084 223.462 224.977C222.039 223.87 220.393 223.066 218.834 222.709C217.268 222.352 215.929 222.477 215.04 223.008C214.17 223.528 213.756 224.423 213.891 225.57C214.028 226.733 214.725 228.072 215.886 229.334C217.045 230.592 218.57 231.668 220.177 232.359C221.788 233.051 223.351 233.302 224.579 233.09" stroke="#0A7273" stroke-width="0.5"/>
<path d="M214.26 231.765C214.77 232.549 215.781 233.009 217.17 232.997C218.557 232.984 220.187 232.497 221.755 231.612C223.323 230.728 224.706 229.516 225.651 228.204C226.6 226.888 227.023 225.591 226.899 224.551C226.777 223.533 226.136 222.79 225.048 222.459C223.944 222.123 222.457 222.237 220.854 222.816C219.256 223.394 217.676 224.386 216.409 225.608C215.141 226.832 214.29 228.189 213.99 229.418" stroke="#0A7273" stroke-width="0.5"/>
<path d="M222.988 230.782C222.552 229.985 221.842 229.434 221.011 229.225C221.41 229.067 221.743 228.773 221.953 228.393C222.162 228.013 222.236 227.571 222.16 227.143C222.085 226.714 221.865 226.326 221.539 226.044C221.213 225.761 220.801 225.603 220.373 225.596C219.944 225.588 219.527 225.732 219.191 226.003C218.855 226.274 218.623 226.655 218.533 227.08C218.442 227.506 218.501 227.95 218.697 228.337C218.893 228.724 219.216 229.029 219.609 229.201C218.773 229.38 218.043 229.907 217.58 230.689C217.567 230.714 217.563 230.743 217.57 230.77C217.578 230.798 217.595 230.821 217.619 230.836C217.643 230.851 217.672 230.856 217.699 230.849C217.727 230.843 217.751 230.826 217.766 230.802C218.314 229.877 219.264 229.336 220.308 229.354C221.351 229.372 222.283 229.946 222.798 230.889C222.807 230.906 222.821 230.92 222.837 230.93C222.853 230.94 222.872 230.946 222.891 230.946C222.91 230.946 222.929 230.942 222.946 230.932C222.971 230.918 222.989 230.894 222.997 230.866C223.005 230.838 223.002 230.807 222.988 230.782ZM218.709 227.447C218.715 227.119 218.816 226.8 219 226.53C219.184 226.261 219.442 226.053 219.742 225.933C220.043 225.812 220.371 225.785 220.686 225.854C221.002 225.924 221.29 226.087 221.514 226.323C221.738 226.558 221.888 226.856 221.946 227.179C222.003 227.502 221.965 227.834 221.836 228.135C221.708 228.436 221.494 228.691 221.223 228.869C220.951 229.046 220.634 229.138 220.312 229.133C219.879 229.125 219.468 228.943 219.167 228.627C218.867 228.311 218.702 227.886 218.709 227.447Z" fill="#0A7273" stroke="#0A7273" stroke-width="0.5"/>
<mask id="path-13-inside-1_199798_41112" fill="white">
<path d="M219.911 256.328C215.441 256.251 211.881 252.505 211.959 247.962C212.037 243.419 215.725 239.799 220.195 239.876C224.665 239.953 228.226 243.699 228.147 248.242C228.069 252.785 224.381 256.405 219.911 256.328ZM220.186 240.371C215.985 240.299 212.52 243.701 212.446 247.971C212.373 252.24 215.719 255.76 219.92 255.833C224.121 255.905 227.586 252.503 227.66 248.233C227.734 243.964 224.388 240.444 220.186 240.371Z"/>
</mask>
<path d="M219.911 256.328C215.441 256.251 211.881 252.505 211.959 247.962C212.037 243.419 215.725 239.799 220.195 239.876C224.665 239.953 228.226 243.699 228.147 248.242C228.069 252.785 224.381 256.405 219.911 256.328ZM220.186 240.371C215.985 240.299 212.52 243.701 212.446 247.971C212.373 252.24 215.719 255.76 219.92 255.833C224.121 255.905 227.586 252.503 227.66 248.233C227.734 243.964 224.388 240.444 220.186 240.371Z" fill="#0A7273" stroke="#0A7273" stroke-width="2" mask="url(#path-13-inside-1_199798_41112)"/>
<path d="M219.403 249.503C219.401 249.604 219.317 249.685 219.214 249.683C219.112 249.682 219.03 249.598 219.032 249.496C219.033 249.395 219.118 249.314 219.221 249.316C219.323 249.318 219.405 249.401 219.403 249.503Z" fill="#0A7273"/>
<path d="M215.443 247.412L215.504 247.413M219.895 251.534L218.935 251.518L217.107 251.486L217.115 251.057L217.117 250.935L217.211 250.844L217.306 250.754L218.018 250.766M219.895 251.534L223.952 251.604L224.324 251.611L224.576 251.37L224.672 251.188L224.685 250.452L224.714 248.767L224.733 247.633M219.895 251.534L219.743 251.348L219.684 251.193L219.691 250.795M224.733 247.633L224.738 247.388M224.733 247.633L224.765 247.572M224.738 247.388L224.744 247.02L224.75 246.683L224.751 246.591L224.691 246.498L224.63 246.436L224.569 246.404L224.135 246.397L223.64 246.388L223.051 246.378L222.896 246.375L222.85 246.375M224.738 247.388L219.751 247.302M222.85 246.375L222.803 246.374L220.077 246.357L219.891 246.354L219.766 246.444L219.763 246.597L219.751 247.302M222.85 246.375L222.876 244.843L222.801 244.719L222.678 244.655L222.275 244.648L215.864 244.538L215.74 244.536L215.615 244.595L215.551 244.686L215.549 244.808L215.504 247.413M215.504 247.413L215.481 248.792M219.639 250.181L218.029 250.153M218.029 250.153L215.737 250.114L215.644 250.082L215.583 250.05L215.522 249.988L215.462 249.895L215.463 249.833L215.481 248.792M218.029 250.153L218.018 250.766M218.018 250.766L219.691 250.795M219.691 250.795L219.721 249.049L219.724 248.865M219.724 248.865L215.481 248.792M219.724 248.865L219.751 247.302M220.228 250.161L221.746 250.187M219.403 249.503C219.401 249.604 219.317 249.685 219.214 249.683C219.112 249.682 219.03 249.598 219.032 249.496C219.033 249.395 219.118 249.314 219.221 249.316C219.323 249.318 219.405 249.401 219.403 249.503Z" stroke="#0A7273" stroke-width="0.5"/>
<path d="M222.61 250.387L224.097 250.412" stroke="#0A7273" stroke-width="0.5"/>
<path d="M220.214 250.959L220.988 250.972" stroke="#0A7273" stroke-width="0.5"/>
<path d="M222.568 251.029L223.374 251.043" stroke="#0A7273" stroke-width="0.5"/>
<path d="M222.558 249.803L221.783 249.789L221.784 249.728L221.786 249.667L221.849 249.606L222.437 249.617L222.592 249.619L222.622 249.681L222.59 249.742L222.558 249.803Z" fill="#0A7273"/>
<path d="M221.942 249.585L221.943 249.499L221.883 249.392L221.612 248.959L222.213 248.264M222.213 248.264L222.758 248.978L222.534 249.404L222.439 249.507L222.437 249.617M222.213 248.264L222.201 248.938L222.046 248.936L222.208 248.938L222.371 248.941M222.437 249.617L222.592 249.619L222.622 249.681L222.59 249.742L222.558 249.803L221.783 249.789L221.784 249.728L221.786 249.667L221.849 249.606L222.437 249.617Z" stroke="#0A7273" stroke-width="0.5"/>
<path d="M218.014 245.618L217.114 247.503" stroke="#0A7273" stroke-width="0.5"/>
<path d="M218.317 246.084L218.805 246.583L218.3 247.065" stroke="#0A7273" stroke-width="0.5"/>
<path d="M216.8 246.027L216.296 246.509L216.783 247.008" stroke="#0A7273" stroke-width="0.5"/>
<path d="M212.191 250.251L197.698 250.001L216.917 205.959L223.926 206.08L242.279 250.77L227.362 250.512" stroke="#0A7273"/>
<path d="M202.836 265.557C202.74 265.556 202.663 265.533 202.605 265.49C202.552 265.447 202.521 265.388 202.511 265.313C202.501 265.238 202.518 265.156 202.561 265.066L204.799 260.146C204.848 260.034 204.91 259.955 204.985 259.908C205.061 259.855 205.144 259.829 205.234 259.83C205.325 259.831 205.405 259.859 205.473 259.913C205.548 259.962 205.611 260.042 205.663 260.155L207.793 265.122C207.835 265.213 207.85 265.299 207.838 265.379C207.832 265.453 207.802 265.512 207.749 265.554C207.695 265.591 207.62 265.608 207.524 265.607C207.417 265.606 207.332 265.579 207.269 265.525C207.205 265.465 207.15 265.382 207.103 265.275L206.55 263.941L206.892 264.136L203.468 264.099L203.814 263.911L203.232 265.233C203.182 265.35 203.128 265.434 203.069 265.487C203.01 265.534 202.932 265.558 202.836 265.557ZM205.209 260.726L203.929 263.664L203.739 263.494L206.634 263.526L206.449 263.692L205.225 260.726L205.209 260.726ZM210.079 265.651C209.764 265.648 209.501 265.586 209.289 265.466C209.082 265.347 208.929 265.172 208.83 264.941C208.732 264.711 208.684 264.423 208.688 264.076L208.71 261.98C208.712 261.857 208.742 261.767 208.801 261.709C208.866 261.646 208.957 261.615 209.074 261.616C209.192 261.617 209.282 261.65 209.345 261.715C209.409 261.774 209.44 261.865 209.438 261.988L209.416 264.084C209.412 264.414 209.476 264.66 209.608 264.822C209.739 264.978 209.949 265.058 210.237 265.061C210.557 265.064 210.817 264.96 211.017 264.749C211.222 264.538 211.326 264.256 211.33 263.904L211.35 262.009C211.352 261.886 211.382 261.796 211.441 261.738C211.506 261.674 211.597 261.643 211.714 261.644C211.832 261.646 211.922 261.679 211.985 261.743C212.049 261.803 212.08 261.894 212.078 262.016L212.043 265.28C212.04 265.531 211.922 265.655 211.687 265.652C211.57 265.651 211.479 265.618 211.416 265.553C211.358 265.489 211.33 265.395 211.331 265.273L211.338 264.577L211.441 264.714C211.331 265.022 211.155 265.257 210.913 265.42C210.677 265.577 210.399 265.654 210.079 265.651ZM213.586 265.673C213.464 265.672 213.371 265.639 213.307 265.574C213.244 265.509 213.213 265.416 213.214 265.293L213.25 262.029C213.251 261.906 213.284 261.816 213.349 261.758C213.413 261.695 213.502 261.664 213.614 261.665C213.726 261.666 213.811 261.699 213.869 261.764C213.932 261.823 213.963 261.914 213.962 262.037L213.955 262.653L213.875 262.652C213.964 262.333 214.126 262.092 214.363 261.929C214.599 261.766 214.896 261.676 215.254 261.659C215.339 261.654 215.408 261.676 215.461 261.725C215.514 261.768 215.542 261.843 215.547 261.95C215.551 262.051 215.526 262.134 215.472 262.197C215.418 262.255 215.335 262.289 215.223 262.299L215.079 262.305C214.726 262.338 214.453 262.45 214.259 262.64C214.07 262.83 213.974 263.093 213.97 263.429L213.95 265.301C213.949 265.424 213.916 265.517 213.851 265.58C213.792 265.643 213.704 265.674 213.586 265.673ZM217.333 265.73C217.066 265.727 216.824 265.671 216.606 265.562C216.394 265.453 216.228 265.307 216.107 265.124C215.992 264.942 215.935 264.738 215.938 264.514C215.941 264.226 216.015 264.001 216.161 263.837C216.307 263.673 216.551 263.558 216.893 263.493C217.235 263.422 217.694 263.389 218.27 263.396L218.646 263.4L218.641 263.864L218.281 263.86C217.87 263.855 217.545 263.87 217.304 263.905C217.069 263.94 216.903 264.005 216.806 264.1C216.709 264.189 216.66 264.317 216.658 264.482C216.656 264.69 216.726 264.862 216.869 264.996C217.016 265.131 217.218 265.2 217.474 265.203C217.677 265.205 217.856 265.159 218.012 265.065C218.168 264.965 218.292 264.833 218.384 264.669C218.477 264.499 218.524 264.305 218.526 264.086L218.536 263.166C218.54 262.852 218.478 262.624 218.352 262.484C218.225 262.339 218.01 262.265 217.706 262.261C217.53 262.259 217.349 262.282 217.161 262.327C216.974 262.373 216.779 262.446 216.575 262.545C216.495 262.582 216.425 262.594 216.367 262.583C216.308 262.566 216.26 262.534 216.224 262.485C216.192 262.432 216.174 262.375 216.169 262.317C216.17 262.253 216.184 262.192 216.211 262.133C216.244 262.075 216.298 262.033 216.373 262.007C216.609 261.892 216.842 261.812 217.071 261.766C217.307 261.716 217.526 261.691 217.728 261.694C218.075 261.697 218.36 261.756 218.582 261.871C218.805 261.98 218.971 262.15 219.081 262.38C219.191 262.605 219.243 262.894 219.24 263.246L219.217 265.358C219.215 265.481 219.185 265.574 219.126 265.637C219.066 265.7 218.981 265.731 218.869 265.73C218.762 265.729 218.677 265.696 218.614 265.631C218.556 265.567 218.527 265.473 218.529 265.35L218.535 264.783L218.607 264.783C218.562 264.98 218.48 265.15 218.361 265.293C218.243 265.435 218.095 265.546 217.918 265.624C217.746 265.697 217.551 265.732 217.333 265.73ZM222.934 265.79C222.374 265.784 221.895 265.662 221.498 265.423C221.1 265.184 220.795 264.847 220.581 264.413C220.372 263.973 220.271 263.457 220.277 262.865C220.282 262.423 220.348 262.026 220.474 261.675C220.601 261.319 220.78 261.017 221.012 260.769C221.244 260.516 221.526 260.324 221.858 260.194C222.196 260.065 222.575 260.002 222.997 260.007C223.316 260.01 223.623 260.059 223.915 260.152C224.213 260.246 224.467 260.377 224.679 260.545C224.763 260.604 224.819 260.672 224.845 260.747C224.87 260.822 224.872 260.894 224.85 260.963C224.834 261.026 224.798 261.082 224.744 261.13C224.696 261.172 224.634 261.195 224.56 261.2C224.485 261.199 224.405 261.169 224.321 261.109C224.136 260.963 223.931 260.857 223.708 260.79C223.49 260.719 223.256 260.681 223.005 260.679C222.595 260.674 222.244 260.758 221.954 260.931C221.67 261.099 221.451 261.347 221.298 261.676C221.151 262 221.074 262.399 221.069 262.874C221.064 263.343 221.132 263.747 221.272 264.084C221.418 264.416 221.631 264.672 221.912 264.851C222.198 265.025 222.547 265.114 222.957 265.118C223.208 265.121 223.446 265.089 223.67 265.022C223.9 264.955 224.112 264.851 224.306 264.709C224.392 264.651 224.469 264.625 224.539 264.631C224.613 264.638 224.674 264.662 224.722 264.705C224.769 264.743 224.801 264.797 224.816 264.867C224.837 264.931 224.836 264.997 224.814 265.067C224.792 265.136 224.743 265.196 224.668 265.249C224.447 265.433 224.184 265.572 223.879 265.664C223.58 265.752 223.265 265.794 222.934 265.79ZM226.132 265.809C226.01 265.807 225.917 265.774 225.853 265.71C225.79 265.645 225.759 265.551 225.76 265.429L225.796 262.165C225.797 262.042 225.83 261.952 225.895 261.894C225.959 261.831 226.048 261.8 226.16 261.801C226.272 261.802 226.357 261.835 226.415 261.9C226.478 261.959 226.509 262.05 226.508 262.173L226.501 262.789L226.421 262.788C226.51 262.469 226.672 262.228 226.909 262.065C227.145 261.902 227.442 261.812 227.8 261.795C227.885 261.79 227.954 261.812 228.007 261.861C228.06 261.904 228.089 261.979 228.093 262.086C228.097 262.187 228.072 262.27 228.018 262.333C227.964 262.391 227.881 262.425 227.769 262.434L227.625 262.441C227.272 262.474 226.999 262.586 226.805 262.776C226.616 262.966 226.52 263.229 226.517 263.565L226.496 265.437C226.495 265.559 226.462 265.652 226.397 265.716C226.338 265.779 226.25 265.81 226.132 265.809ZM229.879 265.865C229.612 265.862 229.37 265.807 229.153 265.698C228.94 265.589 228.774 265.443 228.653 265.26C228.538 265.077 228.481 264.874 228.484 264.65C228.487 264.362 228.561 264.136 228.707 263.973C228.853 263.809 229.097 263.694 229.439 263.628C229.781 263.558 230.24 263.525 230.816 263.531L231.192 263.535L231.187 263.999L230.827 263.996C230.416 263.991 230.091 264.006 229.85 264.041C229.615 264.076 229.449 264.141 229.352 264.236C229.255 264.325 229.206 264.453 229.204 264.618C229.202 264.826 229.272 264.997 229.415 265.132C229.563 265.267 229.764 265.336 230.02 265.339C230.223 265.341 230.402 265.295 230.558 265.201C230.714 265.101 230.838 264.969 230.93 264.805C231.023 264.635 231.07 264.441 231.073 264.222L231.083 263.302C231.086 262.988 231.024 262.76 230.898 262.62C230.771 262.475 230.556 262.401 230.252 262.397C230.076 262.395 229.895 262.417 229.708 262.463C229.52 262.509 229.325 262.582 229.121 262.681C229.041 262.717 228.971 262.73 228.913 262.719C228.854 262.702 228.807 262.67 228.77 262.621C228.738 262.568 228.72 262.511 228.716 262.453C228.716 262.389 228.73 262.327 228.758 262.269C228.79 262.211 228.844 262.169 228.919 262.143C229.155 262.028 229.388 261.948 229.618 261.902C229.853 261.852 230.072 261.827 230.274 261.829C230.621 261.833 230.906 261.892 231.129 262.007C231.351 262.116 231.518 262.286 231.627 262.516C231.737 262.741 231.79 263.03 231.786 263.382L231.763 265.494C231.762 265.616 231.731 265.709 231.672 265.773C231.612 265.836 231.527 265.867 231.415 265.866C231.308 265.865 231.223 265.832 231.16 265.767C231.102 265.703 231.074 265.609 231.075 265.486L231.081 264.918L231.153 264.919C231.108 265.116 231.026 265.286 230.908 265.428C230.789 265.571 230.641 265.682 230.464 265.76C230.292 265.833 230.097 265.868 229.879 265.865ZM233.496 265.889C233.379 265.887 233.289 265.854 233.225 265.79C233.162 265.725 233.131 265.631 233.132 265.509L233.165 262.493L232.685 262.488C232.589 262.487 232.515 262.462 232.462 262.413C232.409 262.359 232.383 262.29 232.384 262.204C232.385 262.114 232.413 262.045 232.466 261.997C232.52 261.95 232.595 261.927 232.691 261.928L233.371 261.935L233.169 262.125L233.172 261.829C233.178 261.312 233.307 260.921 233.561 260.657C233.82 260.388 234.195 260.234 234.686 260.197L234.934 260.184C235.014 260.174 235.078 260.188 235.126 260.226C235.173 260.258 235.205 260.301 235.22 260.355C235.236 260.408 235.235 260.464 235.219 260.523C235.207 260.576 235.183 260.624 235.145 260.666C235.107 260.708 235.059 260.732 235 260.737L234.824 260.743C234.504 260.766 234.271 260.859 234.125 261.023C233.979 261.182 233.905 261.421 233.901 261.741L233.898 262.061L233.795 261.94L234.715 261.95C234.816 261.951 234.893 261.975 234.946 262.024C234.999 262.073 235.025 262.142 235.024 262.233C235.023 262.318 234.996 262.387 234.942 262.44C234.888 262.487 234.81 262.511 234.709 262.509L233.893 262.501L233.86 265.516C233.858 265.767 233.736 265.891 233.496 265.889ZM237.043 265.943C236.729 265.94 236.465 265.881 236.253 265.766C236.046 265.652 235.891 265.488 235.787 265.273C235.688 265.059 235.64 264.797 235.643 264.488L235.664 262.52L235.152 262.514C235.056 262.513 234.982 262.488 234.929 262.44C234.876 262.386 234.851 262.316 234.851 262.231C234.852 262.14 234.88 262.071 234.934 262.024C234.988 261.976 235.062 261.953 235.158 261.954L235.67 261.96L235.68 261.088C235.681 260.965 235.714 260.875 235.779 260.817C235.843 260.754 235.934 260.723 236.052 260.724C236.169 260.725 236.257 260.758 236.315 260.823C236.378 260.882 236.409 260.973 236.408 261.096L236.398 261.968L237.366 261.978C237.468 261.979 237.545 262.004 237.598 262.053C237.65 262.101 237.676 262.171 237.675 262.262C237.674 262.347 237.647 262.416 237.593 262.469C237.539 262.516 237.462 262.539 237.36 262.538L236.392 262.528L236.372 264.432C236.369 264.725 236.427 264.947 236.549 265.098C236.67 265.248 236.871 265.325 237.154 265.328C237.255 265.329 237.341 265.322 237.41 265.307C237.48 265.286 237.541 265.276 237.595 265.277C237.643 265.272 237.683 265.289 237.714 265.326C237.751 265.364 237.769 265.433 237.768 265.535C237.767 265.609 237.753 265.679 237.726 265.742C237.704 265.801 237.658 265.84 237.588 265.861C237.524 265.881 237.439 265.899 237.332 265.914C237.225 265.934 237.129 265.944 237.043 265.943ZM195.546 276.422C195.418 276.421 195.319 276.385 195.251 276.315C195.182 276.245 195.149 276.146 195.15 276.018L195.203 271.178C195.204 271.05 195.24 270.952 195.31 270.883C195.38 270.815 195.479 270.781 195.607 270.783L197.151 270.799C198.073 270.809 198.78 271.06 199.271 271.55C199.767 272.036 200.01 272.734 200 273.646C199.995 274.1 199.927 274.502 199.795 274.852C199.663 275.203 199.473 275.497 199.225 275.734C198.978 275.966 198.674 276.144 198.316 276.268C197.962 276.387 197.554 276.444 197.09 276.439L195.546 276.422ZM195.897 275.794L197.049 275.807C197.411 275.81 197.726 275.769 197.994 275.681C198.262 275.593 198.484 275.459 198.662 275.28C198.846 275.101 198.984 274.875 199.078 274.604C199.171 274.328 199.22 274.006 199.224 273.638C199.232 272.907 199.057 272.359 198.698 271.992C198.345 271.626 197.811 271.439 197.096 271.431L195.944 271.418L195.897 275.794ZM202.825 276.573C202.404 276.569 202.042 276.485 201.74 276.321C201.443 276.153 201.213 275.918 201.051 275.618C200.889 275.312 200.811 274.954 200.815 274.543C200.819 274.138 200.903 273.784 201.066 273.482C201.235 273.18 201.462 272.945 201.746 272.777C202.036 272.61 202.365 272.528 202.733 272.532C202.994 272.535 203.228 272.583 203.435 272.675C203.648 272.763 203.828 272.89 203.975 273.057C204.123 273.224 204.233 273.428 204.305 273.669C204.382 273.904 204.419 274.172 204.416 274.47C204.415 274.556 204.388 274.622 204.334 274.669C204.285 274.711 204.213 274.732 204.117 274.731L201.381 274.701L201.386 274.237L203.938 274.265L203.801 274.376C203.804 274.098 203.764 273.863 203.681 273.67C203.603 273.472 203.484 273.321 203.325 273.218C203.172 273.115 202.978 273.063 202.743 273.06C202.487 273.057 202.268 273.116 202.085 273.237C201.903 273.352 201.762 273.519 201.664 273.736C201.565 273.949 201.515 274.196 201.512 274.479L201.511 274.527C201.506 275.007 201.617 275.371 201.843 275.618C202.07 275.866 202.399 275.992 202.831 275.997C203.002 275.999 203.176 275.98 203.352 275.939C203.534 275.898 203.708 275.823 203.875 275.712C203.955 275.665 204.027 275.645 204.091 275.651C204.161 275.652 204.216 275.673 204.258 275.717C204.301 275.754 204.327 275.803 204.337 275.861C204.347 275.915 204.338 275.973 204.311 276.037C204.284 276.101 204.232 276.156 204.157 276.204C203.98 276.324 203.768 276.418 203.522 276.485C203.281 276.546 203.049 276.576 202.825 276.573ZM206.642 276.614C206.402 276.612 206.16 276.583 205.915 276.527C205.676 276.465 205.45 276.364 205.238 276.223C205.18 276.185 205.138 276.139 205.112 276.086C205.091 276.027 205.084 275.971 205.09 275.918C205.101 275.859 205.126 275.809 205.163 275.766C205.201 275.724 205.247 275.701 205.3 275.696C205.359 275.686 205.42 275.7 205.484 275.738C205.69 275.857 205.89 275.942 206.081 275.992C206.278 276.042 206.472 276.069 206.664 276.071C206.958 276.074 207.179 276.023 207.33 275.918C207.48 275.813 207.557 275.672 207.559 275.496C207.56 275.347 207.511 275.232 207.41 275.151C207.315 275.064 207.164 274.999 206.956 274.954L206.214 274.794C205.884 274.715 205.635 274.59 205.466 274.418C205.303 274.24 205.222 274.015 205.225 273.743C205.228 273.503 205.294 273.296 205.424 273.121C205.559 272.941 205.745 272.805 205.981 272.711C206.216 272.618 206.486 272.573 206.79 272.576C207.025 272.578 207.246 272.613 207.453 272.679C207.666 272.74 207.857 272.833 208.026 272.957C208.09 272.995 208.129 273.044 208.144 273.103C208.165 273.156 208.167 273.212 208.151 273.271C208.139 273.324 208.115 273.369 208.077 273.406C208.039 273.443 207.991 273.466 207.932 273.476C207.874 273.481 207.81 273.464 207.741 273.426C207.587 273.318 207.428 273.241 207.263 273.197C207.104 273.147 206.944 273.122 206.784 273.12C206.496 273.117 206.277 273.17 206.126 273.281C205.981 273.391 205.908 273.537 205.906 273.718C205.904 273.857 205.946 273.972 206.03 274.064C206.12 274.155 206.26 274.224 206.452 274.268L207.194 274.428C207.54 274.507 207.8 274.63 207.974 274.797C208.148 274.959 208.234 275.178 208.231 275.456C208.227 275.818 208.08 276.105 207.79 276.315C207.505 276.52 207.122 276.62 206.642 276.614ZM209.526 276.614C209.414 276.612 209.326 276.577 209.263 276.507C209.2 276.437 209.169 276.34 209.17 276.218L209.205 273.026C209.206 272.898 209.239 272.802 209.304 272.739C209.368 272.67 209.457 272.637 209.569 272.638C209.686 272.639 209.776 272.675 209.84 272.745C209.903 272.81 209.934 272.906 209.932 273.034L209.898 276.226C209.897 276.348 209.864 276.444 209.799 276.513C209.739 276.581 209.648 276.615 209.526 276.614ZM209.578 271.774C209.434 271.772 209.32 271.734 209.235 271.658C209.156 271.577 209.117 271.473 209.119 271.345C209.12 271.206 209.161 271.103 209.242 271.034C209.328 270.961 209.443 270.924 209.587 270.926C209.742 270.928 209.856 270.966 209.93 271.042C210.009 271.112 210.048 271.216 210.047 271.355C210.045 271.483 210.004 271.587 209.923 271.666C209.848 271.74 209.733 271.776 209.578 271.774ZM212.8 278.121C212.512 278.118 212.232 278.083 211.961 278.016C211.695 277.949 211.454 277.848 211.236 277.712C211.167 277.669 211.12 277.618 211.094 277.559C211.073 277.505 211.069 277.449 211.08 277.391C211.096 277.332 211.124 277.279 211.162 277.231C211.205 277.189 211.253 277.16 211.306 277.145C211.365 277.135 211.424 277.149 211.482 277.187C211.715 277.323 211.938 277.416 212.151 277.466C212.364 277.516 212.566 277.543 212.758 277.545C213.137 277.549 213.421 277.453 213.609 277.258C213.803 277.068 213.903 276.786 213.907 276.413L213.916 275.549L213.988 275.55C213.91 275.848 213.739 276.083 213.476 276.256C213.218 276.43 212.919 276.514 212.577 276.511C212.225 276.507 211.92 276.424 211.66 276.261C211.401 276.093 211.2 275.864 211.059 275.574C210.919 275.279 210.85 274.94 210.855 274.556C210.858 274.263 210.901 273.999 210.983 273.765C211.071 273.526 211.191 273.325 211.342 273.161C211.498 272.992 211.684 272.863 211.898 272.775C212.112 272.681 212.353 272.636 212.619 272.639C212.966 272.643 213.266 272.734 213.52 272.913C213.775 273.091 213.937 273.331 214.009 273.63L213.92 273.741L213.927 273.037C213.928 272.914 213.961 272.824 214.026 272.766C214.091 272.703 214.182 272.672 214.299 272.673C214.411 272.674 214.499 272.707 214.562 272.772C214.625 272.831 214.656 272.922 214.655 273.045L214.62 276.325C214.613 276.927 214.453 277.379 214.141 277.68C213.834 277.98 213.387 278.128 212.8 278.121ZM212.744 275.936C212.984 275.939 213.19 275.888 213.361 275.783C213.539 275.673 213.674 275.517 213.766 275.316C213.865 275.109 213.915 274.866 213.918 274.589C213.923 274.168 213.822 273.836 213.617 273.594C213.412 273.346 213.13 273.22 212.773 273.217C212.533 273.214 212.325 273.268 212.147 273.378C211.976 273.483 211.841 273.636 211.742 273.838C211.644 274.039 211.594 274.281 211.59 274.564C211.586 274.98 211.686 275.312 211.892 275.559C212.102 275.807 212.386 275.933 212.744 275.936ZM216.142 276.701C216.03 276.7 215.943 276.667 215.879 276.602C215.816 276.538 215.785 276.444 215.786 276.321L215.822 273.058C215.823 272.935 215.856 272.845 215.921 272.787C215.985 272.723 216.074 272.692 216.186 272.694C216.298 272.695 216.383 272.728 216.441 272.792C216.504 272.852 216.535 272.943 216.534 273.065L216.527 273.721L216.44 273.6C216.555 273.298 216.739 273.07 216.991 272.918C217.249 272.766 217.54 272.692 217.866 272.696C218.18 272.699 218.438 272.758 218.64 272.872C218.841 272.986 218.992 273.159 219.09 273.389C219.189 273.619 219.237 273.911 219.233 274.263L219.21 276.358C219.209 276.481 219.176 276.574 219.111 276.637C219.052 276.701 218.964 276.732 218.846 276.731C218.729 276.729 218.639 276.696 218.575 276.632C218.512 276.567 218.481 276.473 218.482 276.351L218.505 274.295C218.508 273.948 218.444 273.694 218.313 273.533C218.181 273.371 217.969 273.289 217.675 273.286C217.334 273.282 217.058 273.386 216.848 273.597C216.643 273.803 216.539 274.084 216.535 274.441L216.514 276.329C216.512 276.58 216.388 276.704 216.142 276.701ZM224.39 276.807C224.139 276.804 223.897 276.78 223.662 276.735C223.428 276.695 223.208 276.634 223 276.552C222.793 276.469 222.608 276.369 222.444 276.249C222.375 276.201 222.325 276.142 222.294 276.072C222.268 276.002 222.26 275.935 222.272 275.872C222.288 275.802 222.318 275.744 222.362 275.697C222.41 275.649 222.466 275.62 222.531 275.61C222.595 275.6 222.664 275.623 222.738 275.677C222.981 275.845 223.236 275.967 223.502 276.045C223.773 276.123 224.071 276.163 224.397 276.167C224.866 276.172 225.211 276.09 225.431 275.922C225.657 275.754 225.772 275.531 225.775 275.254C225.777 275.024 225.699 274.845 225.54 274.715C225.382 274.58 225.114 274.473 224.736 274.394L223.89 274.209C223.39 274.097 223.016 273.917 222.768 273.669C222.525 273.421 222.406 273.092 222.41 272.681C222.413 272.43 222.466 272.204 222.57 272.003C222.673 271.796 222.819 271.619 223.007 271.471C223.196 271.324 223.416 271.212 223.667 271.134C223.924 271.057 224.207 271.02 224.516 271.024C224.847 271.027 225.156 271.076 225.443 271.17C225.735 271.264 225.998 271.4 226.23 271.578C226.294 271.627 226.336 271.686 226.357 271.756C226.377 271.82 226.379 271.884 226.362 271.948C226.351 272.012 226.321 272.065 226.273 272.107C226.23 272.149 226.173 272.172 226.104 272.177C226.04 272.182 225.968 272.157 225.889 272.103C225.677 271.951 225.46 271.842 225.236 271.775C225.013 271.704 224.768 271.666 224.501 271.664C224.229 271.661 223.992 271.701 223.788 271.784C223.59 271.867 223.434 271.985 223.32 272.139C223.212 272.287 223.157 272.462 223.155 272.665C223.152 272.91 223.224 273.103 223.372 273.243C223.52 273.384 223.77 273.493 224.121 273.571L224.959 273.749C225.491 273.866 225.884 274.044 226.137 274.281C226.396 274.514 226.523 274.824 226.519 275.214C226.516 275.459 226.463 275.68 226.36 275.876C226.262 276.072 226.121 276.241 225.938 276.383C225.756 276.52 225.533 276.627 225.271 276.704C225.009 276.776 224.715 276.81 224.39 276.807ZM228.983 276.856C228.669 276.853 228.405 276.794 228.193 276.68C227.986 276.566 227.831 276.401 227.727 276.187C227.628 275.972 227.58 275.71 227.583 275.401L227.604 273.433L227.092 273.428C226.996 273.427 226.922 273.402 226.869 273.353C226.816 273.299 226.79 273.23 226.791 273.144C226.792 273.054 226.82 272.985 226.874 272.937C226.928 272.89 227.002 272.867 227.098 272.868L227.61 272.873L227.62 272.001C227.621 271.879 227.654 271.788 227.719 271.73C227.783 271.667 227.874 271.636 227.992 271.637C228.109 271.639 228.197 271.672 228.255 271.736C228.318 271.796 228.349 271.887 228.348 272.009L228.338 272.881L229.306 272.892C229.408 272.893 229.485 272.918 229.537 272.966C229.59 273.015 229.616 273.084 229.615 273.175C229.614 273.26 229.587 273.329 229.533 273.382C229.479 273.43 229.402 273.453 229.3 273.452L228.332 273.441L228.312 275.345C228.308 275.638 228.367 275.86 228.488 276.011C228.61 276.162 228.811 276.238 229.094 276.241C229.195 276.243 229.281 276.236 229.35 276.22C229.42 276.2 229.481 276.19 229.535 276.19C229.583 276.185 229.622 276.202 229.654 276.24C229.691 276.277 229.709 276.347 229.708 276.448C229.707 276.523 229.693 276.592 229.666 276.656C229.644 276.714 229.598 276.754 229.528 276.774C229.464 276.795 229.379 276.813 229.272 276.827C229.165 276.848 229.069 276.857 228.983 276.856ZM231.626 276.885C231.312 276.882 231.048 276.82 230.836 276.7C230.63 276.581 230.477 276.406 230.378 276.175C230.279 275.945 230.232 275.656 230.235 275.31L230.258 273.214C230.259 273.091 230.29 273.001 230.349 272.943C230.414 272.88 230.505 272.849 230.622 272.85C230.739 272.851 230.83 272.884 230.893 272.949C230.956 273.008 230.987 273.099 230.986 273.222L230.963 275.318C230.96 275.648 231.024 275.894 231.155 276.056C231.287 276.212 231.497 276.292 231.785 276.295C232.105 276.298 232.365 276.194 232.564 275.983C232.769 275.772 232.874 275.49 232.877 275.138L232.898 273.243C232.899 273.12 232.93 273.03 232.989 272.971C233.054 272.908 233.145 272.877 233.262 272.878C233.379 272.88 233.469 272.913 233.533 272.977C233.596 273.037 233.627 273.128 233.626 273.25L233.591 276.514C233.588 276.765 233.469 276.889 233.234 276.886C233.117 276.885 233.027 276.852 232.964 276.787C232.906 276.723 232.877 276.629 232.879 276.506L232.886 275.811L232.989 275.948C232.879 276.256 232.703 276.491 232.461 276.654C232.225 276.811 231.946 276.888 231.626 276.885ZM236.246 276.935C235.904 276.931 235.604 276.848 235.344 276.685C235.09 276.517 234.893 276.28 234.752 275.975C234.611 275.664 234.543 275.303 234.548 274.892C234.552 274.476 234.625 274.12 234.767 273.823C234.914 273.52 235.117 273.291 235.375 273.133C235.638 272.971 235.943 272.891 236.289 272.895C236.636 272.899 236.934 272.99 237.182 273.169C237.431 273.342 237.597 273.573 237.679 273.862L237.591 273.861L237.616 271.549C237.617 271.427 237.648 271.336 237.707 271.278C237.772 271.215 237.863 271.184 237.98 271.185C238.097 271.187 238.188 271.22 238.251 271.284C238.314 271.344 238.345 271.435 238.344 271.557L238.29 276.565C238.288 276.688 238.255 276.781 238.191 276.844C238.126 276.907 238.035 276.938 237.918 276.937C237.806 276.936 237.718 276.903 237.655 276.838C237.591 276.774 237.56 276.68 237.562 276.557L237.57 275.829L237.656 275.974C237.573 276.272 237.402 276.507 237.144 276.681C236.892 276.854 236.592 276.939 236.246 276.935ZM236.42 276.361C236.654 276.363 236.858 276.31 237.03 276.199C237.207 276.089 237.342 275.928 237.435 275.716C237.533 275.503 237.584 275.24 237.587 274.925C237.592 274.456 237.492 274.098 237.287 273.85C237.082 273.602 236.803 273.477 236.451 273.473C236.222 273.471 236.018 273.524 235.841 273.634C235.669 273.739 235.534 273.898 235.436 274.11C235.338 274.322 235.287 274.586 235.284 274.9C235.278 275.37 235.379 275.731 235.584 275.984C235.794 276.231 236.073 276.357 236.42 276.361ZM239.813 276.942C239.701 276.94 239.613 276.905 239.55 276.835C239.487 276.765 239.456 276.668 239.457 276.546L239.492 273.354C239.493 273.226 239.526 273.13 239.591 273.067C239.656 272.998 239.744 272.965 239.856 272.966C239.973 272.967 240.064 273.003 240.127 273.073C240.19 273.137 240.221 273.234 240.22 273.362L240.185 276.554C240.184 276.676 240.151 276.772 240.086 276.841C240.027 276.909 239.936 276.943 239.813 276.942ZM239.865 272.102C239.721 272.1 239.607 272.062 239.523 271.986C239.444 271.905 239.405 271.801 239.406 271.673C239.408 271.534 239.449 271.431 239.529 271.362C239.616 271.288 239.731 271.252 239.875 271.254C240.029 271.256 240.143 271.294 240.217 271.37C240.297 271.44 240.335 271.544 240.334 271.683C240.333 271.811 240.291 271.914 240.211 271.994C240.135 272.067 240.02 272.104 239.865 272.102ZM243.007 277.008C242.623 277.004 242.291 276.918 242.01 276.749C241.729 276.581 241.513 276.344 241.361 276.038C241.21 275.733 241.136 275.374 241.141 274.964C241.144 274.655 241.19 274.378 241.278 274.133C241.371 273.884 241.502 273.672 241.669 273.497C241.836 273.323 242.035 273.192 242.265 273.104C242.501 273.01 242.763 272.965 243.051 272.968C243.435 272.973 243.767 273.059 244.048 273.227C244.329 273.396 244.545 273.633 244.696 273.938C244.848 274.239 244.921 274.594 244.917 275.005C244.913 275.314 244.865 275.594 244.772 275.843C244.684 276.093 244.556 276.305 244.389 276.479C244.221 276.653 244.02 276.787 243.784 276.881C243.554 276.969 243.295 277.011 243.007 277.008ZM243.013 276.432C243.248 276.435 243.451 276.381 243.623 276.271C243.8 276.161 243.935 275.999 244.028 275.787C244.126 275.575 244.177 275.311 244.181 274.997C244.186 274.527 244.086 274.169 243.88 273.921C243.675 273.674 243.396 273.548 243.044 273.544C242.815 273.542 242.612 273.596 242.435 273.706C242.263 273.811 242.128 273.969 242.029 274.181C241.931 274.394 241.88 274.657 241.877 274.972C241.872 275.441 241.972 275.802 242.177 276.055C242.388 276.303 242.666 276.428 243.013 276.432Z" fill="#0A7273"/>
</g>
<defs>
<clipPath id="clip0_199798_41112">
<rect width="691" height="461" fill="white"/>
</clipPath>
</defs>
</svg>
