<svg width="1062" height="958" viewBox="0 0 1062 958" fill="none" xmlns="http://www.w3.org/2000/svg">
<path d="M283.336 552.854L296.762 539.413L292.811 535.463L275.414 552.854L292.811 570.245L296.762 566.275L283.336 552.854Z" fill="#FF9D00"/>
<path d="M307.062 552.854L320.508 539.413L316.537 535.463L299.16 552.854L316.537 570.245L320.508 566.275L307.062 552.854Z" fill="#FF9D00"/>
<path d="M596.041 141.27L563.725 173.418L531.389 141.27L499.073 173.418L466.757 141.27L438.254 169.626L409.732 141.27L377.416 173.418L345.08 141.27L312.764 173.418L280.447 141.27L248.367 173.182L251.945 176.759L280.447 148.403L312.764 180.551L345.08 148.403L377.416 180.551L409.732 148.403L438.254 176.778L466.757 148.403L499.073 180.551L531.389 148.403L563.725 180.551L596.041 148.403L624.563 176.759L628.121 173.182L596.041 141.27Z" fill="url(#paint0_linear_199520_65987)"/>
<path d="M596.04 83.791L563.724 115.94L531.388 83.791L499.072 115.94L466.756 83.791L441.123 109.298L441.104 116.451L466.756 90.9242L499.072 123.073L531.388 90.9242L563.724 123.073L596.04 90.9242L624.563 119.28L628.12 115.684L596.04 83.791Z" fill="#FF9D00"/>
<path d="M789.347 957.305C787.263 957.305 785.553 955.615 785.553 953.512C785.553 951.429 787.243 949.72 789.347 949.72C791.43 949.72 793.14 951.41 793.14 953.512C793.14 955.615 791.45 957.305 789.347 957.305Z" fill="url(#paint1_linear_199520_65987)"/>
<path d="M717.835 957.305C715.751 957.305 714.041 955.615 714.041 953.512C714.041 951.429 715.732 949.72 717.835 949.72C719.938 949.72 721.629 951.41 721.629 953.512C721.629 955.615 719.918 957.305 717.835 957.305Z" fill="url(#paint2_linear_199520_65987)"/>
<path d="M825.005 957.305C822.921 957.305 821.211 955.615 821.211 953.512C821.211 951.429 822.901 949.72 825.005 949.72C827.088 949.72 828.799 951.41 828.799 953.512C828.799 955.615 827.088 957.305 825.005 957.305Z" fill="url(#paint3_linear_199520_65987)"/>
<path d="M860.663 957.305C858.579 957.305 856.869 955.615 856.869 953.512C856.869 951.429 858.56 949.72 860.663 949.72C862.747 949.72 864.457 951.41 864.457 953.512C864.437 955.615 862.747 957.305 860.663 957.305Z" fill="url(#paint4_linear_199520_65987)"/>
<path d="M896.302 957.305C894.218 957.305 892.508 955.615 892.508 953.512C892.508 951.429 894.198 949.72 896.302 949.72C898.385 949.72 900.095 951.41 900.095 953.512C900.095 955.615 898.385 957.305 896.302 957.305Z" fill="url(#paint5_linear_199520_65987)"/>
<path d="M1003.25 957.305C1001.17 957.305 999.461 955.615 999.461 953.512C999.461 951.429 1001.15 949.72 1003.25 949.72C1005.34 949.72 1007.05 951.41 1007.05 953.512C1007.05 955.615 1005.34 957.305 1003.25 957.305Z" fill="url(#paint6_linear_199520_65987)"/>
<path d="M158.966 65.8096C156.764 65.8096 155.172 67.4013 155.172 69.5825C155.172 71.7834 156.764 73.3751 158.946 73.3751C161.148 73.3751 162.72 71.7834 162.74 69.6022C162.74 67.4013 161.167 65.8096 158.966 65.8096Z" fill="url(#paint7_linear_199520_65987)"/>
<path d="M196.826 65.8103C194.625 65.771 192.974 67.3234 192.934 69.5046C192.895 71.7055 194.468 73.3562 196.63 73.3955C198.831 73.4348 200.463 71.8824 200.502 69.7011C200.561 67.4806 199.008 65.8496 196.826 65.8103Z" fill="url(#paint8_linear_199520_65987)"/>
<path d="M234.548 65.8098C232.347 65.7901 230.735 67.3818 230.715 69.563C230.695 71.7639 232.288 73.3753 234.47 73.3949C236.671 73.4146 238.263 71.8425 238.283 69.6416C238.303 67.4211 236.75 65.8294 234.548 65.8098Z" fill="url(#paint9_linear_199520_65987)"/>
<path d="M64.495 92.2794C66.6966 92.2794 68.2888 90.7073 68.2888 88.5065C68.2888 86.3056 66.7163 84.7139 64.5147 84.7139C62.3131 84.7139 60.7209 86.3056 60.7209 88.4868C60.7012 90.668 62.3131 92.2597 64.495 92.2794Z" fill="url(#paint10_linear_199520_65987)"/>
<path d="M102.216 92.2797C104.417 92.2994 106.029 90.747 106.069 88.5461C106.088 86.3255 104.535 84.7142 102.353 84.6945C100.152 84.6749 98.5204 86.2273 98.5007 88.4085C98.4614 90.6094 100.054 92.2404 102.216 92.2797Z" fill="url(#paint11_linear_199520_65987)"/>
<path d="M140.016 84.6945C137.834 84.7142 136.242 86.3255 136.262 88.5264C136.282 90.7076 137.913 92.2994 140.095 92.2797C142.297 92.2601 143.85 90.6487 143.83 88.4478C143.83 86.2469 142.218 84.6749 140.016 84.6945Z" fill="url(#paint12_linear_199520_65987)"/>
<path d="M177.994 84.694C175.792 84.6351 174.121 86.1678 174.043 88.3294C173.984 90.5303 175.517 92.2006 177.679 92.2792C179.881 92.3382 181.552 90.8054 181.611 88.6438C181.689 86.4036 180.176 84.753 177.994 84.694Z" fill="url(#paint13_linear_199520_65987)"/>
<path d="M215.697 84.6945C213.495 84.6749 211.864 86.2469 211.844 88.4085C211.824 90.6094 213.397 92.2404 215.579 92.26C217.78 92.2797 219.392 90.7076 219.412 88.5264C219.432 86.3255 217.879 84.7142 215.697 84.6945Z" fill="url(#paint14_linear_199520_65987)"/>
<path d="M83.4053 111.164C85.6068 111.145 87.1794 109.553 87.1597 107.352C87.1597 105.151 85.5675 103.579 83.3659 103.579C81.1644 103.579 79.5918 105.19 79.5918 107.391C79.6115 109.573 81.2233 111.164 83.4053 111.164Z" fill="url(#paint15_linear_199520_65987)"/>
<path d="M117.391 107.096C117.273 109.317 118.767 111.027 120.91 111.164C123.111 111.282 124.841 109.789 124.959 107.647C125.077 105.426 123.603 103.717 121.46 103.599C119.219 103.461 117.509 104.955 117.391 107.096Z" fill="url(#paint16_linear_199520_65987)"/>
<path d="M159.105 103.579C156.903 103.52 155.232 105.033 155.174 107.214C155.115 109.415 156.648 111.085 158.81 111.164C161.012 111.223 162.682 109.69 162.741 107.529C162.8 105.288 161.287 103.638 159.105 103.579Z" fill="url(#paint17_linear_199520_65987)"/>
<path d="M196.669 103.578C194.487 103.598 192.915 105.229 192.954 107.43C192.974 109.611 194.605 111.183 196.807 111.163C198.989 111.124 200.541 109.513 200.522 107.312C200.482 105.111 198.871 103.559 196.669 103.578Z" fill="url(#paint18_linear_199520_65987)"/>
<path d="M102.276 130.048C104.478 130.048 106.05 128.476 106.07 126.275C106.07 124.074 104.497 122.482 102.296 122.482C100.094 122.482 98.502 124.074 98.502 126.255C98.502 128.437 100.094 130.048 102.276 130.048Z" fill="url(#paint19_linear_199520_65987)"/>
<path d="M139.978 122.463C137.796 122.502 136.223 124.133 136.262 126.334C136.302 128.515 137.933 130.087 140.135 130.048C142.317 130.009 143.87 128.397 143.83 126.177C143.811 123.976 142.199 122.423 139.978 122.463Z" fill="url(#paint20_linear_199520_65987)"/>
<path d="M177.915 122.463C175.714 122.443 174.082 124.015 174.063 126.177C174.043 128.378 175.616 130.009 177.798 130.029C179.999 130.048 181.611 128.496 181.631 126.295C181.65 124.094 180.097 122.483 177.915 122.463Z" fill="url(#paint21_linear_199520_65987)"/>
<path d="M121.028 148.932C123.23 148.991 124.901 147.459 124.959 145.297C125.018 143.076 123.505 141.426 121.343 141.367C119.141 141.308 117.47 142.841 117.392 145.002C117.313 147.183 118.866 148.854 121.028 148.932Z" fill="url(#paint22_linear_199520_65987)"/>
<path d="M159.045 141.347C156.844 141.308 155.192 142.861 155.153 145.042C155.114 147.243 156.686 148.893 158.849 148.933C161.05 148.972 162.682 147.419 162.721 145.238C162.78 143.018 161.227 141.387 159.045 141.347Z" fill="url(#paint23_linear_199520_65987)"/>
<path d="M139.997 160.232C137.815 160.271 136.243 161.883 136.282 164.084C136.321 166.265 137.953 167.837 140.135 167.798C142.317 167.758 143.87 166.147 143.85 163.946C143.811 161.765 142.199 160.193 139.997 160.232Z" fill="url(#paint24_linear_199520_65987)"/>
<path d="M64.4557 54.5111C66.6573 54.5308 68.2495 52.9587 68.2691 50.7579C68.2888 48.557 66.7162 46.9456 64.5343 46.926C62.3327 46.9063 60.7208 48.498 60.7012 50.6793C60.7012 52.8605 62.2934 54.4915 64.4557 54.5111Z" fill="url(#paint25_linear_199520_65987)"/>
<path d="M102.237 54.5111C104.438 54.5308 106.031 52.9587 106.05 50.7579C106.07 48.557 104.497 46.9456 102.316 46.926C100.114 46.9063 98.5021 48.498 98.4824 50.6793C98.4824 52.8605 100.075 54.4915 102.237 54.5111Z" fill="url(#paint26_linear_199520_65987)"/>
<path d="M140.214 46.9255C138.013 46.8665 136.342 48.3993 136.263 50.5609C136.204 52.7617 137.738 54.4321 139.9 54.5107C142.101 54.5893 143.772 53.0368 143.831 50.8753C143.91 48.6351 142.396 47.0041 140.214 46.9255Z" fill="url(#paint27_linear_199520_65987)"/>
<path d="M177.856 46.9258C175.655 46.9258 174.062 48.5175 174.062 50.6987C174.062 52.8996 175.655 54.4913 177.837 54.511C180.038 54.511 181.63 52.9389 181.63 50.738C181.63 48.5175 180.058 46.9258 177.856 46.9258Z" fill="url(#paint28_linear_199520_65987)"/>
<path d="M215.658 46.926C213.456 46.9063 211.844 48.498 211.824 50.6793C211.805 52.8801 213.397 54.4915 215.579 54.5111C217.78 54.5308 219.373 52.9391 219.392 50.7579C219.412 48.5373 217.859 46.9456 215.658 46.926Z" fill="url(#paint29_linear_199520_65987)"/>
<path d="M45.5847 73.3948C47.7863 73.4145 49.3786 71.8228 49.3982 69.6415C49.4179 67.4406 47.8453 65.8293 45.6634 65.8293C43.4618 65.8096 41.8499 67.4013 41.8303 69.5826C41.8106 71.7442 43.4028 73.3752 45.5847 73.3948Z" fill="url(#paint30_linear_199520_65987)"/>
<path d="M83.2468 73.3954C85.4484 73.474 87.1193 71.9216 87.1782 69.76C87.2372 67.5395 85.7236 65.8888 83.5613 65.8102C81.3597 65.7513 79.6889 67.284 79.6103 69.4456C79.5317 71.6465 81.0846 73.3168 83.2468 73.3954Z" fill="url(#paint31_linear_199520_65987)"/>
<path d="M121.224 65.8098C119.022 65.7901 117.391 67.3622 117.371 69.5434C117.352 71.7443 118.924 73.3753 121.106 73.3949C123.308 73.4146 124.92 71.8425 124.939 69.6613C124.979 67.4408 123.426 65.8294 121.224 65.8098Z" fill="url(#paint32_linear_199520_65987)"/>
<path d="M329.589 751.798V655.568H233.328V751.798V848.028H329.589H425.849V751.798H329.589Z" fill="#FF9D00"/>
<path d="M388.482 889.314H192.029V692.925H292.221V789.154H388.482V889.314ZM195.961 885.384H384.55V793.085H288.29V696.855H195.961V885.384Z" fill="url(#paint33_linear_199520_65987)"/>
<path d="M349.737 656.609H343.879V740.125H349.737V656.609Z" fill="#FFC200"/>
<path d="M364.657 656.59H358.799V740.105H364.657V656.59Z" fill="#FFC200"/>
<path d="M379.557 656.609H373.699V740.125H379.557V656.609Z" fill="#FFC200"/>
<path d="M394.457 656.609H388.6V740.125H394.457V656.609Z" fill="#FFC200"/>
<path d="M409.356 656.59H403.498V740.105H409.356V656.59Z" fill="#FFC200"/>
<path d="M424.079 656.609H418.398V740.125H424.079V656.609Z" fill="#FFC200"/>
<path d="M36.707 244.279V250.921H70.1829V244.279H36.707Z" fill="url(#paint34_linear_199520_65987)"/>
<path d="M36.6914 207.783V214.425H70.1673V207.783H36.6914Z" fill="#FFC200"/>
<path d="M36.6914 171.27V177.912H70.1673V171.27H36.6914Z" fill="#FF9D00"/>
<path d="M737.433 879.292C949.77 879.292 1121.9 707.213 1121.9 494.943C1121.9 282.673 949.77 110.595 737.433 110.595C525.095 110.595 352.961 282.673 352.961 494.943C352.961 707.213 525.095 879.292 737.433 879.292Z" fill="#F9F5EF"/>
<path d="M743.133 200.812C745.847 200.812 748.047 198.612 748.047 195.899C748.047 193.186 745.847 190.986 743.133 190.986C740.419 190.986 738.219 193.186 738.219 195.899C738.219 198.612 740.419 200.812 743.133 200.812Z" fill="#0A7273"/>
<path d="M794.497 205.076C791.844 205.076 789.701 202.934 789.701 200.281C789.701 197.628 791.844 195.486 794.497 195.486C797.151 195.486 799.294 197.628 799.294 200.281C799.294 202.934 797.151 205.076 794.497 205.076Z" fill="#0A7273"/>
<path d="M844.346 218.124C846.93 218.124 849.025 216.03 849.025 213.447C849.025 210.864 846.93 208.771 844.346 208.771C841.763 208.771 839.668 210.864 839.668 213.447C839.668 216.03 841.763 218.124 844.346 218.124Z" fill="#0A7273"/>
<path d="M891.15 239.583C888.634 239.583 886.59 237.539 886.59 235.024C886.59 232.509 888.634 230.465 891.15 230.465C893.666 230.465 895.711 232.509 895.711 235.024C895.73 237.539 893.686 239.583 891.15 239.583Z" fill="#0A7273"/>
<path d="M933.569 268.744C931.112 268.744 929.127 266.76 929.127 264.303C929.127 261.847 931.112 259.862 933.569 259.862C936.027 259.862 938.012 261.847 938.012 264.303C938.012 266.76 936.027 268.744 933.569 268.744Z" fill="#0A7273"/>
<path d="M970.348 304.744C972.747 304.744 974.692 302.8 974.692 300.401C974.692 298.003 972.747 296.059 970.348 296.059C967.949 296.059 966.004 298.003 966.004 300.401C966.004 302.8 967.949 304.744 970.348 304.744Z" fill="#0A7273"/>
<path d="M1000.4 346.483C998.065 346.483 996.178 344.597 996.178 342.258C996.178 339.92 998.065 338.033 1000.4 338.033C1002.74 338.033 1004.63 339.92 1004.63 342.258C1004.63 344.597 1002.74 346.483 1000.4 346.483Z" fill="#0A7273"/>
<path d="M1026.92 389.372C1027.28 387.133 1025.76 385.025 1023.52 384.664C1021.28 384.302 1019.17 385.824 1018.81 388.064C1018.45 390.303 1019.97 392.411 1022.21 392.772C1024.45 393.134 1026.56 391.611 1026.92 389.372Z" fill="#0A7273"/>
<path d="M1036.91 442.221C1034.7 442.221 1032.92 440.433 1032.92 438.232C1032.92 436.031 1034.7 434.243 1036.91 434.243C1039.11 434.243 1040.9 436.031 1040.9 438.232C1040.9 440.433 1039.11 442.221 1036.91 442.221Z" fill="#0A7273"/>
<path d="M1042.23 493.352C1040.09 493.352 1038.36 491.623 1038.36 489.481C1038.36 487.339 1040.09 485.609 1042.23 485.609C1044.38 485.609 1046.11 487.339 1046.11 489.481C1046.11 491.623 1044.38 493.352 1042.23 493.352Z" fill="#0A7273"/>
<path d="M1038.77 544.66C1036.69 544.66 1035.02 542.97 1035.02 540.907C1035.02 538.824 1036.71 537.153 1038.77 537.153C1040.86 537.153 1042.53 538.843 1042.53 540.907C1042.53 542.97 1040.84 544.66 1038.77 544.66Z" fill="#0A7273"/>
<path d="M1026.53 594.593C1024.52 594.593 1022.89 592.962 1022.89 590.958C1022.89 588.953 1024.52 587.322 1026.53 587.322C1028.53 587.322 1030.16 588.953 1030.16 590.958C1030.16 592.962 1028.53 594.593 1026.53 594.593Z" fill="#0A7273"/>
<path d="M1005.81 641.676C1003.86 641.676 1002.29 640.104 1002.29 638.158C1002.29 636.213 1003.86 634.641 1005.81 634.641C1007.76 634.641 1009.33 636.213 1009.33 638.158C1009.33 640.084 1007.76 641.676 1005.81 641.676Z" fill="#0A7273"/>
<path d="M977.287 684.475C975.4 684.475 973.887 682.942 973.887 681.075C973.887 679.189 975.42 677.676 977.287 677.676C979.174 677.676 980.688 679.209 980.688 681.075C980.688 682.942 979.174 684.475 977.287 684.475Z" fill="#0A7273"/>
<path d="M941.845 721.773C940.017 721.773 938.543 720.299 938.543 718.471C938.543 716.644 940.017 715.17 941.845 715.17C943.673 715.17 945.148 716.644 945.148 718.471C945.128 720.299 943.654 721.773 941.845 721.773Z" fill="#0A7273"/>
<path d="M900.526 752.466C898.777 752.466 897.342 751.052 897.342 749.283C897.342 747.514 898.757 746.1 900.526 746.1C902.295 746.1 903.711 747.514 903.711 749.283C903.711 751.052 902.276 752.466 900.526 752.466Z" fill="#0A7273"/>
<path d="M854.529 775.615C852.839 775.615 851.463 774.24 851.463 772.55C851.463 770.86 852.839 769.484 854.529 769.484C856.22 769.484 857.596 770.86 857.596 772.55C857.596 774.24 856.22 775.615 854.529 775.615Z" fill="#0A7273"/>
<path d="M805.21 790.471C803.579 790.471 802.262 789.155 802.262 787.524C802.262 785.893 803.579 784.576 805.21 784.576C806.842 784.576 808.159 785.893 808.159 787.524C808.159 789.155 806.842 790.471 805.21 790.471Z" fill="#0A7273"/>
<path d="M754.042 796.622C752.469 796.622 751.211 795.365 751.211 793.793C751.211 792.221 752.469 790.963 754.042 790.963C755.614 790.963 756.872 792.221 756.872 793.793C756.872 795.365 755.614 796.622 754.042 796.622Z" fill="#0A7273"/>
<path d="M702.56 793.969C701.066 793.969 699.848 792.751 699.848 791.258C699.848 789.764 701.066 788.546 702.56 788.546C704.054 788.546 705.273 789.764 705.273 791.258C705.273 792.751 704.054 793.969 702.56 793.969Z" fill="#0A7273"/>
<path d="M652.278 782.533C650.843 782.533 649.684 781.373 649.684 779.939C649.684 778.504 650.843 777.345 652.278 777.345C653.713 777.345 654.873 778.504 654.873 779.939C654.873 781.373 653.713 782.533 652.278 782.533Z" fill="#0A7273"/>
<path d="M604.688 762.567C603.312 762.567 602.211 761.447 602.211 760.091C602.211 758.716 603.331 757.615 604.688 757.615C606.064 757.615 607.165 758.735 607.165 760.091C607.184 761.467 606.064 762.567 604.688 762.567Z" fill="#0A7273"/>
<path d="M561.246 734.722C559.929 734.722 558.887 733.661 558.887 732.364C558.887 731.067 559.948 730.006 561.246 730.006C562.543 730.006 563.604 731.067 563.604 732.364C563.604 733.661 562.563 734.722 561.246 734.722Z" fill="#0A7273"/>
<path d="M523.171 699.861C524.419 699.861 525.431 698.85 525.431 697.602C525.431 696.354 524.419 695.342 523.171 695.342C521.922 695.342 520.91 696.354 520.91 697.602C520.91 698.85 521.922 699.861 523.171 699.861Z" fill="#0A7273"/>
<path d="M743.133 223.822C745.847 223.822 748.047 221.623 748.047 218.91C748.047 216.197 745.847 213.997 743.133 213.997C740.419 213.997 738.219 216.197 738.219 218.91C738.219 221.623 740.419 223.822 743.133 223.822Z" fill="#0A7273"/>
<path d="M793.888 228.303C791.273 228.303 789.15 226.18 789.15 223.567C789.15 220.953 791.273 218.831 793.888 218.831C796.502 218.831 798.625 220.953 798.625 223.567C798.625 226.18 796.502 228.303 793.888 228.303Z" fill="#0A7273"/>
<path d="M842.912 242.019C845.42 242.019 847.453 239.987 847.453 237.48C847.453 234.973 845.42 232.94 842.912 232.94C840.404 232.94 838.371 234.973 838.371 237.48C838.371 239.987 840.404 242.019 842.912 242.019Z" fill="#0A7273"/>
<path d="M888.516 264.578C886.118 264.578 884.152 262.633 884.152 260.216C884.152 257.819 886.098 255.854 888.516 255.854C890.914 255.854 892.88 257.799 892.88 260.216C892.86 262.633 890.914 264.578 888.516 264.578Z" fill="#0A7273"/>
<path d="M929.148 295.115C926.848 295.115 924.98 293.248 924.98 290.949C924.98 288.65 926.848 286.783 929.148 286.783C931.448 286.783 933.315 288.65 933.315 290.949C933.315 293.248 931.467 295.115 929.148 295.115Z" fill="#0A7273"/>
<path d="M963.488 332.57C961.287 332.57 959.498 330.782 959.498 328.581C959.498 326.38 961.287 324.592 963.488 324.592C965.69 324.592 967.479 326.38 967.479 328.581C967.479 330.782 965.69 332.57 963.488 332.57Z" fill="#0A7273"/>
<path d="M990.36 375.683C988.257 375.683 986.566 373.973 986.566 371.89C986.566 369.788 988.277 368.098 990.36 368.098C992.444 368.098 994.154 369.807 994.154 371.89C994.154 373.973 992.463 375.683 990.36 375.683Z" fill="#0A7273"/>
<path d="M1008.78 422.982C1010.78 422.982 1012.4 421.364 1012.4 419.367C1012.4 417.37 1010.78 415.751 1008.78 415.751C1006.78 415.751 1005.16 417.37 1005.16 419.367C1005.16 421.364 1006.78 422.982 1008.78 422.982Z" fill="#0A7273"/>
<path d="M1018.1 472.895C1016.21 472.895 1014.68 471.362 1014.68 469.476C1014.68 467.589 1016.21 466.057 1018.1 466.057C1019.98 466.057 1021.52 467.589 1021.52 469.476C1021.52 471.362 1019.98 472.895 1018.1 472.895Z" fill="#0A7273"/>
<path d="M1018.09 523.654C1016.31 523.654 1014.85 522.2 1014.85 520.411C1014.85 518.623 1016.31 517.169 1018.09 517.169C1019.88 517.169 1021.34 518.623 1021.34 520.411C1021.34 522.2 1019.88 523.654 1018.09 523.654Z" fill="#0A7273"/>
<path d="M1008.78 573.547C1007.09 573.547 1005.73 572.171 1005.73 570.501C1005.73 568.811 1007.11 567.455 1008.78 567.455C1010.47 567.455 1011.82 568.831 1011.82 570.501C1011.82 572.171 1010.47 573.547 1008.78 573.547Z" fill="#0A7273"/>
<path d="M990.36 620.866C988.768 620.866 987.49 619.589 987.49 617.997C987.49 616.405 988.768 615.128 990.36 615.128C991.952 615.128 993.23 616.405 993.23 617.997C993.23 619.569 991.952 620.866 990.36 620.866Z" fill="#0A7273"/>
<path d="M963.507 663.959C962.033 663.959 960.834 662.761 960.834 661.287C960.834 659.813 962.033 658.614 963.507 658.614C964.982 658.614 966.181 659.813 966.181 661.287C966.181 662.761 964.982 663.959 963.507 663.959Z" fill="#0A7273"/>
<path d="M929.166 701.414C927.79 701.414 926.67 700.294 926.67 698.918C926.67 697.543 927.79 696.423 929.166 696.423C930.542 696.423 931.663 697.543 931.663 698.918C931.643 700.294 930.542 701.414 929.166 701.414Z" fill="#0A7273"/>
<path d="M888.517 731.951C887.239 731.951 886.217 730.909 886.217 729.652C886.217 728.394 887.259 727.353 888.517 727.353C889.794 727.353 890.817 728.394 890.817 729.652C890.817 730.909 889.794 731.951 888.517 731.951Z" fill="#0A7273"/>
<path d="M842.912 754.51C841.733 754.51 840.789 753.567 840.789 752.388C840.789 751.209 841.733 750.266 842.912 750.266C844.091 750.266 845.035 751.209 845.035 752.388C845.035 753.567 844.091 754.51 842.912 754.51Z" fill="#0A7273"/>
<path d="M793.887 768.246C794.962 768.246 795.833 767.375 795.833 766.301C795.833 765.226 794.962 764.355 793.887 764.355C792.813 764.355 791.941 765.226 791.941 766.301C791.941 767.375 792.813 768.246 793.887 768.246Z" fill="#0A7273"/>
<path d="M743.132 772.707C744.098 772.707 744.882 771.924 744.882 770.958C744.882 769.992 744.098 769.209 743.132 769.209C742.166 769.209 741.383 769.992 741.383 770.958C741.383 771.924 742.166 772.707 743.132 772.707Z" fill="#0A7273"/>
<path d="M743.133 250.351C745.847 250.351 748.047 248.151 748.047 245.438C748.047 242.725 745.847 240.525 743.133 240.525C740.419 240.525 738.219 242.725 738.219 245.438C738.219 248.151 740.419 250.351 743.133 250.351Z" fill="#0A7273"/>
<path d="M791.843 254.654C789.366 254.654 787.381 252.649 787.381 250.193C787.381 247.717 789.386 245.732 791.843 245.732C794.3 245.732 796.305 247.737 796.305 250.193C796.325 252.649 794.32 254.654 791.843 254.654Z" fill="#0A7273"/>
<path d="M838.686 268.39C836.465 268.39 834.656 266.582 834.656 264.361C834.656 262.141 836.465 260.333 838.686 260.333C840.907 260.333 842.716 262.141 842.716 264.361C842.716 266.582 840.907 268.39 838.686 268.39Z" fill="#0A7273"/>
<path d="M881.814 291.028C883.79 291.028 885.392 289.427 885.392 287.451C885.392 285.476 883.79 283.875 881.814 283.875C879.838 283.875 878.236 285.476 878.236 287.451C878.236 289.427 879.838 291.028 881.814 291.028Z" fill="#0A7273"/>
<path d="M919.633 321.644C917.904 321.644 916.488 320.229 916.488 318.5C916.488 316.77 917.904 315.355 919.633 315.355C921.363 315.355 922.779 316.77 922.779 318.5C922.779 320.229 921.363 321.644 919.633 321.644Z" fill="#0A7273"/>
<path d="M950.691 359C949.197 359 947.998 357.801 947.998 356.307C947.998 354.814 949.197 353.615 950.691 353.615C952.185 353.615 953.384 354.814 953.384 356.307C953.384 357.801 952.185 359 950.691 359Z" fill="#0A7273"/>
<path d="M973.788 401.681C972.55 401.681 971.527 400.679 971.527 399.421C971.527 398.183 972.53 397.161 973.788 397.161C975.026 397.161 976.048 398.163 976.048 399.421C976.048 400.679 975.026 401.681 973.788 401.681Z" fill="#0A7273"/>
<path d="M987.98 448.057C986.978 448.057 986.172 447.251 986.172 446.249C986.172 445.247 986.978 444.441 987.98 444.441C988.983 444.441 989.789 445.247 989.789 446.249C989.789 447.251 988.983 448.057 987.98 448.057Z" fill="#0A7273"/>
<path d="M992.737 496.3C993.486 496.3 994.094 495.693 994.094 494.944C994.094 494.195 993.486 493.588 992.737 493.588C991.988 493.588 991.381 494.195 991.381 494.944C991.381 495.693 991.988 496.3 992.737 496.3Z" fill="#0A7273"/>
<path d="M518.788 615.147C406.586 615.147 315.299 523.889 315.299 411.703C315.299 299.517 406.586 208.278 518.788 208.278C630.991 208.278 722.297 299.536 722.297 411.703C722.297 523.869 631.01 615.147 518.788 615.147ZM518.788 212.208C408.748 212.208 319.23 301.698 319.23 411.703C319.23 521.708 408.748 611.217 518.788 611.217C628.828 611.217 718.366 521.727 718.366 411.703C718.366 301.698 628.828 212.208 518.788 212.208Z" fill="url(#paint35_linear_199520_65987)"/>
<path d="M518.788 581.878C424.926 581.878 348.578 505.535 348.578 411.722C348.578 317.89 424.946 241.566 518.788 241.566C612.651 241.566 688.998 317.909 688.998 411.722C689.018 505.535 612.651 581.878 518.788 581.878ZM518.788 255.008C432.356 255.008 362.043 325.298 362.043 411.702C362.043 498.107 432.356 568.397 518.788 568.397C605.22 568.397 675.533 498.107 675.533 411.702C675.533 325.298 605.22 255.008 518.788 255.008Z" fill="#FF9D00"/>
<path d="M518.788 548.589C443.286 548.589 381.857 487.181 381.857 411.702C381.857 336.224 443.286 274.815 518.788 274.815C594.291 274.815 655.719 336.224 655.719 411.702C655.719 487.181 594.291 548.589 518.788 548.589ZM518.788 278.746C445.448 278.746 385.789 338.386 385.789 411.702C385.789 485.019 445.448 544.659 518.788 544.659C592.129 544.659 651.788 485.019 651.788 411.702C651.788 338.386 592.129 278.746 518.788 278.746Z" fill="url(#paint36_linear_199520_65987)"/>
<path d="M518.788 515.321C461.645 515.321 415.137 468.847 415.137 411.702C415.137 354.558 461.626 308.084 518.788 308.084C575.951 308.084 622.44 354.558 622.44 411.702C622.44 468.847 575.951 515.321 518.788 515.321ZM518.788 312.034C463.808 312.034 419.068 356.759 419.068 411.722C419.068 466.685 463.808 511.41 518.788 511.41C573.769 511.41 618.508 466.685 618.508 411.722C618.508 356.759 573.789 312.034 518.788 312.034Z" fill="url(#paint37_linear_199520_65987)"/>
<path d="M518.788 482.053C479.985 482.053 448.436 450.494 448.436 411.703C448.436 372.912 480.005 341.373 518.788 341.373C557.591 341.373 589.16 372.932 589.16 411.703C589.16 450.494 557.591 482.053 518.788 482.053ZM518.788 345.303C482.167 345.303 452.367 375.094 452.367 411.703C452.367 448.312 482.167 478.123 518.788 478.123C555.409 478.123 585.229 448.332 585.229 411.703C585.229 375.074 555.429 345.303 518.788 345.303Z" fill="url(#paint38_linear_199520_65987)"/>
<path d="M518.788 448.784C498.345 448.784 481.715 432.159 481.715 411.722C481.715 391.286 498.345 374.661 518.788 374.661C539.231 374.661 555.861 391.286 555.861 411.722C555.881 432.14 539.231 448.784 518.788 448.784ZM518.788 378.572C500.507 378.572 485.646 393.428 485.646 411.703C485.646 429.978 500.507 444.834 518.788 444.834C537.069 444.834 551.93 429.978 551.93 411.703C551.949 393.447 537.069 378.572 518.788 378.572Z" fill="url(#paint39_linear_199520_65987)"/>
<path d="M792.219 790.825C930.473 790.825 1042.55 678.783 1042.55 540.572C1042.55 402.362 930.473 290.32 792.219 290.32C653.964 290.32 541.887 402.362 541.887 540.572C541.887 678.783 653.964 790.825 792.219 790.825Z" fill="url(#paint40_radial_199520_65987)"/>
<path d="M971.337 494.844C971.337 623.716 866.832 728.187 737.919 728.187C609.005 728.187 504.5 623.716 504.5 494.844C504.5 365.972 609.005 261.5 737.919 261.5C866.832 261.5 971.337 365.972 971.337 494.844Z" fill="url(#paint41_linear_199520_65987)" stroke="#E9E3D5"/>
<path d="M710.485 674.264L724.226 660.529L720.176 656.48L702.406 674.264L720.176 692.048L724.226 688L710.485 674.264Z" fill="white"/>
<path d="M734.466 674.264L748.206 660.529L744.157 656.48L726.367 674.264L744.157 692.048L748.206 688L734.466 674.264Z" fill="white"/>
<path d="M758.743 674.264L772.484 660.529L768.434 656.48L750.645 674.264L768.434 692.048L772.484 688L758.743 674.264Z" fill="white"/>
<path d="M764.385 315.24L750.645 328.976L754.694 333.004L772.484 315.24L754.694 297.456L750.645 301.504L764.385 315.24Z" fill="white"/>
<path d="M740.402 315.24L726.662 328.976L730.711 333.004L748.501 315.24L730.711 297.456L726.662 301.504L740.402 315.24Z" fill="white"/>
<path d="M716.147 315.24L702.406 328.976L706.436 333.004L724.226 315.24L706.436 297.456L702.406 301.504L716.147 315.24Z" fill="white"/>
<path d="M1057.73 643.317C1081.72 633.211 1092.97 605.578 1082.86 581.596C1072.75 557.614 1045.11 546.364 1021.12 556.47C997.129 566.575 985.876 594.209 995.985 618.191C1006.09 642.173 1033.74 653.422 1057.73 643.317Z" fill="#FDA521"/>
<path d="M680.586 49.1466L748.717 -18.9629C746.83 -18.5895 744.982 -18.1376 743.135 -17.6463L681.903 43.5657C681.411 45.4129 680.959 47.2601 680.586 49.1466Z" fill="url(#paint42_linear_199520_65987)"/>
<path d="M678.855 66.4585C678.855 66.6354 678.855 66.8319 678.855 67.0087L766.585 -20.6729C766.408 -20.6729 766.211 -20.6729 766.034 -20.6729C764.757 -20.6729 763.499 -20.6336 762.26 -20.5942L678.954 62.6856C678.895 63.9432 678.855 65.2009 678.855 66.4585Z" fill="url(#paint43_linear_199520_65987)"/>
<path d="M680.213 81.8255L781.387 -19.3168C780.169 -19.533 778.93 -19.7295 777.711 -19.8867L679.643 78.1508C679.8 79.3691 679.996 80.6071 680.213 81.8255Z" fill="url(#paint44_linear_199520_65987)"/>
<path d="M683.514 94.6577L794.223 -16.0153C793.161 -16.3886 792.08 -16.7227 790.999 -17.0371L682.492 91.4349C682.826 92.5157 683.161 93.5965 683.514 94.6577Z" fill="url(#paint45_linear_199520_65987)"/>
<path d="M688.329 105.996L805.583 -11.221C804.64 -11.6926 803.677 -12.1642 802.713 -12.6162L686.934 103.127C687.386 104.089 687.838 105.052 688.329 105.996Z" fill="url(#paint46_linear_199520_65987)"/>
<path d="M694.384 116.096L815.687 -5.16832C814.842 -5.75784 813.997 -6.32771 813.132 -6.87793L692.674 113.542C693.224 114.406 693.794 115.251 694.384 116.096Z" fill="url(#paint47_linear_199520_65987)"/>
<path d="M701.54 125.096L824.672 2.00426C823.925 1.33613 823.178 0.668005 822.411 0.0195312L699.555 122.837C700.203 123.583 700.872 124.35 701.54 125.096Z" fill="url(#paint48_linear_199520_65987)"/>
<path d="M709.776 133.015L832.613 10.218C831.964 9.45158 831.296 8.6852 830.628 7.93848L707.496 131.031C708.243 131.699 708.99 132.367 709.776 133.015Z" fill="url(#paint49_linear_199520_65987)"/>
<path d="M719.053 139.873L839.472 19.4931C838.922 18.6284 838.352 17.7835 837.762 16.9385L716.498 138.183C717.343 138.753 718.189 139.323 719.053 139.873Z" fill="url(#paint50_linear_199520_65987)"/>
<path d="M729.491 145.592L845.173 29.9471C844.721 28.9843 844.268 28.0214 843.777 27.0781L726.602 144.216C727.565 144.688 728.528 145.14 729.491 145.592Z" fill="url(#paint51_linear_199520_65987)"/>
<path d="M741.228 150.013L849.616 41.6592C849.302 40.5785 848.948 39.4977 848.594 38.4365L738.004 148.992C739.065 149.365 740.146 149.699 741.228 150.013Z" fill="url(#paint52_linear_199520_65987)"/>
<path d="M754.555 152.843L852.447 54.9824C852.29 53.7444 852.093 52.5064 851.877 51.2881L750.859 152.273C752.078 152.489 753.316 152.686 754.555 152.843Z" fill="url(#paint53_linear_199520_65987)"/>
<path d="M766.033 153.61C767.39 153.61 768.726 153.571 770.043 153.512L853.094 70.4873C853.153 69.1511 853.193 67.8148 853.193 66.4786C853.193 66.3607 853.193 66.2624 853.193 66.1445L765.699 153.61C765.798 153.59 765.915 153.61 766.033 153.61Z" fill="url(#paint54_linear_199520_65987)"/>
<path d="M789.229 150.465L850.068 89.6464C850.579 87.7992 851.031 85.9324 851.424 84.0459L783.627 151.821C785.514 151.428 787.381 150.976 789.229 150.465Z" fill="url(#paint55_linear_199520_65987)"/>
<path d="M841.439 110.162L809.732 141.859C822.863 134.234 833.812 123.289 841.439 110.162Z" fill="url(#paint56_linear_199520_65987)"/>
<path d="M487.809 -36V40.5003H564.333V-36H487.809ZM553.679 29.8496H498.463V-25.3493H553.679V29.8496Z" fill="#FF9D00"/>
<path d="M290.315 46.5723L290.275 84.1838L322.867 65.3977L290.315 46.5723Z" fill="#FFC200"/>
<path d="M335.467 25.6641L335.408 105.132L404.286 65.4568L335.467 25.6641ZM346.22 44.3323L382.723 65.4371L346.2 86.4831L346.22 44.3323Z" fill="#0A7273"/>
<path d="M483.15 843.488L575.617 843.567L529.443 763.49L483.15 843.488ZM504.871 830.971L529.423 788.545L553.916 831.01L504.871 830.971Z" fill="#0A7273"/>
<path d="M657.686 903.404C657.686 859.366 693.383 823.681 737.434 823.681C781.485 823.681 817.183 859.366 817.183 903.404H657.686Z" fill="#FDA521"/>
<mask id="path-135-inside-1_199520_65987" fill="white">
<path d="M611.916 573.644C594.897 552.241 584.393 526.685 581.58 499.844C578.767 473.002 583.758 445.934 595.991 421.676C608.225 397.418 627.218 376.928 650.842 362.503C674.466 348.078 701.786 340.288 729.74 340.008C757.694 339.727 785.176 346.967 809.106 360.914C833.035 374.862 852.466 394.966 865.22 418.974C877.974 442.981 883.546 469.943 881.312 496.835C879.079 523.728 869.127 549.488 852.574 571.228L847.723 567.789C863.614 546.918 873.168 522.188 875.312 496.371C877.456 470.554 872.107 444.671 859.863 421.624C847.62 398.577 828.966 379.277 805.994 365.887C783.021 352.497 756.638 345.547 729.803 345.817C702.967 346.086 676.739 353.564 654.06 367.412C631.382 381.26 613.148 400.93 601.404 424.218C589.659 447.506 584.869 473.491 587.569 499.259C590.269 525.027 600.354 549.56 616.691 570.107L611.916 573.644Z"/>
</mask>
<path d="M611.916 573.644C594.897 552.241 584.393 526.685 581.58 499.844C578.767 473.002 583.758 445.934 595.991 421.676C608.225 397.418 627.218 376.928 650.842 362.503C674.466 348.078 701.786 340.288 729.74 340.008C757.694 339.727 785.176 346.967 809.106 360.914C833.035 374.862 852.466 394.966 865.22 418.974C877.974 442.981 883.546 469.943 881.312 496.835C879.079 523.728 869.127 549.488 852.574 571.228L847.723 567.789C863.614 546.918 873.168 522.188 875.312 496.371C877.456 470.554 872.107 444.671 859.863 421.624C847.62 398.577 828.966 379.277 805.994 365.887C783.021 352.497 756.638 345.547 729.803 345.817C702.967 346.086 676.739 353.564 654.06 367.412C631.382 381.26 613.148 400.93 601.404 424.218C589.659 447.506 584.869 473.491 587.569 499.259C590.269 525.027 600.354 549.56 616.691 570.107L611.916 573.644Z" fill="#E9E3D5" stroke="#E9E3D5" stroke-width="6" mask="url(#path-135-inside-1_199520_65987)"/>
<path d="M902.766 398.587C784.819 377.946 630.315 389.987 567.806 398.587C546.424 404.315 558.897 407.008 567.806 407.638C717.827 384.62 853.621 398.047 902.766 407.638C930.356 405.693 914.262 400.794 902.766 398.587Z" fill="#E9E3D5" stroke="#E9E3D5" stroke-width="3"/>
<path d="M896.605 412.039C783.039 394.574 634.273 404.762 574.086 412.039C553.498 416.886 565.508 419.164 574.086 419.697C718.535 400.22 849.286 411.582 896.605 419.697C923.17 418.051 907.674 413.906 896.605 412.039Z" fill="#E9E3D5" stroke="#E9E3D5" stroke-width="3"/>
<path d="M874.278 425.549C777.337 409.967 648.977 417.077 596.915 422.579C579.008 426.423 589.241 428.43 596.597 428.953C721.63 414.073 833.603 424.733 873.96 431.923C896.874 430.798 883.72 427.205 874.278 425.549Z" fill="#E9E3D5" stroke="#E9E3D5" stroke-width="3"/>
<path d="M741.136 431.154C742.275 433.497 741.451 435.751 740.014 436.469C738.577 437.187 736.312 436.476 735.173 434.133C734.035 431.79 734.859 429.535 736.296 428.817C737.733 428.1 739.998 428.811 741.136 431.154Z" fill="#E9E3D5" stroke="#E9E3D5" stroke-width="3"/>
<path d="M771.295 502.444C772.433 504.787 771.609 507.041 770.172 507.759C768.735 508.477 766.47 507.766 765.331 505.423C764.193 503.08 765.017 500.825 766.454 500.107C767.891 499.39 770.156 500.101 771.295 502.444Z" fill="#E9E3D5" stroke="#E9E3D5" stroke-width="3"/>
<path d="M693.67 487.582C694.808 489.925 693.984 492.179 692.547 492.897C691.11 493.615 688.845 492.903 687.706 490.56C686.568 488.217 687.392 485.963 688.829 485.245C690.266 484.527 692.531 485.239 693.67 487.582Z" fill="#E9E3D5" stroke="#E9E3D5" stroke-width="3"/>
<path d="M735.127 431.933C729.509 431.475 723.523 434.66 718.344 441.476C713.177 448.278 709.334 458.047 707.605 469.009C705.878 479.964 706.396 491.259 709.035 500.79C711.684 510.356 716.226 517.293 721.609 520.595C726.866 523.821 732.785 523.495 738.452 519.44C744.201 515.327 749.266 507.652 752.569 497.672C755.864 487.717 757.13 476.294 756.123 465.535C755.115 454.757 751.909 445.511 747.227 439.432" stroke="#E9E3D5" stroke-width="3"/>
<path d="M770.185 501.051C773.18 496.185 773.134 489.322 769.547 481.534C765.966 473.759 759.18 465.813 750.377 459.22C741.58 452.633 731.453 447.91 721.897 445.906C712.308 443.895 704.144 444.794 698.772 448.125C693.514 451.385 691.076 456.883 692.023 463.855C692.983 470.922 697.376 479.006 704.595 486.563C711.797 494.102 721.216 500.489 731.098 504.526C740.996 508.57 750.563 509.933 758.038 508.513" stroke="#E9E3D5" stroke-width="3"/>
<path d="M694.924 501.517C698.128 506.243 704.351 508.941 712.827 508.717C721.288 508.494 731.184 505.359 740.661 499.81C750.132 494.264 758.447 486.737 764.075 478.655C769.723 470.545 772.171 462.598 771.304 456.274C770.456 450.086 766.459 445.625 759.777 443.721C753.003 441.79 743.937 442.646 734.221 446.338C724.528 450.021 714.99 456.226 707.392 463.798C699.782 471.384 694.729 479.732 693.028 487.248" stroke="#E9E3D5" stroke-width="3"/>
<path d="M748.083 494.608C745.342 489.805 740.95 486.525 735.86 485.343C738.279 484.338 740.278 482.514 741.517 480.18C742.755 477.847 743.156 475.151 742.652 472.551C742.147 469.951 740.767 467.61 738.748 465.927C736.73 464.244 734.197 463.324 731.584 463.324C728.971 463.324 726.438 464.244 724.42 465.927C722.401 467.61 721.021 469.951 720.517 472.551C720.012 475.151 720.413 477.847 721.651 480.18C722.89 482.514 724.889 484.338 727.308 485.343C722.225 486.52 717.826 489.805 715.085 494.608C715.006 494.761 714.988 494.94 715.036 495.107C715.084 495.274 715.193 495.415 715.341 495.502C715.489 495.589 715.665 495.614 715.831 495.573C715.997 495.532 716.141 495.427 716.233 495.28C719.475 489.594 725.217 486.199 731.584 486.199C737.951 486.199 743.693 489.594 746.935 495.28C746.993 495.383 747.077 495.467 747.177 495.526C747.278 495.586 747.392 495.617 747.509 495.617C747.625 495.617 747.74 495.586 747.841 495.526C747.993 495.437 748.104 495.29 748.149 495.118C748.194 494.945 748.171 494.762 748.083 494.608ZM721.631 474.763C721.631 472.767 722.215 470.816 723.308 469.157C724.402 467.497 725.957 466.204 727.775 465.44C729.594 464.676 731.595 464.476 733.526 464.866C735.456 465.255 737.23 466.216 738.622 467.627C740.014 469.039 740.962 470.837 741.346 472.794C741.73 474.751 741.533 476.78 740.779 478.624C740.026 480.468 738.75 482.044 737.114 483.153C735.477 484.262 733.553 484.853 731.584 484.853C728.945 484.85 726.415 483.786 724.55 481.894C722.684 480.003 721.634 477.438 721.631 474.763Z" fill="#E9E3D5" stroke="#E9E3D5" stroke-width="3"/>
<path d="M685.293 614.208H596.861L709.464 344.193H752.227L868.878 614.208H777.861" stroke="#E9E3D5" stroke-width="3"/>
<mask id="path-147-inside-2_199520_65987" fill="white">
<path d="M731.554 650.385C704.279 650.385 682.167 627.967 682.167 600.314C682.167 572.661 704.279 550.243 731.554 550.243C758.83 550.243 780.941 572.661 780.941 600.314C780.941 627.967 758.83 650.385 731.554 650.385ZM731.554 553.257C705.92 553.257 685.14 574.325 685.14 600.314C685.14 626.302 705.92 647.37 731.554 647.37C757.188 647.37 777.968 626.302 777.968 600.314C777.968 574.325 757.188 553.257 731.554 553.257Z"/>
</mask>
<path d="M731.554 650.385C704.279 650.385 682.167 627.967 682.167 600.314C682.167 572.661 704.279 550.243 731.554 550.243C758.83 550.243 780.941 572.661 780.941 600.314C780.941 627.967 758.83 650.385 731.554 650.385ZM731.554 553.257C705.92 553.257 685.14 574.325 685.14 600.314C685.14 626.302 705.92 647.37 731.554 647.37C757.188 647.37 777.968 626.302 777.968 600.314C777.968 574.325 757.188 553.257 731.554 553.257Z" fill="#E9E3D5" stroke="#E9E3D5" stroke-width="6" mask="url(#path-147-inside-2_199520_65987)"/>
<path d="M727.751 608.917C727.751 609.535 727.243 610.036 726.617 610.036C725.99 610.036 725.483 609.535 725.483 608.917C725.483 608.299 725.99 607.798 726.617 607.798C727.243 607.798 727.751 608.299 727.751 608.917Z" fill="#E9E3D5"/>
<path d="M703.371 596.607H703.749M730.963 621.227H725.105H713.954V618.616V617.87L714.521 617.31L715.088 616.751H719.435M730.963 621.227H755.721H757.989L759.501 619.735L760.068 618.616V614.14V603.881V596.98M730.963 621.227L730.019 620.108L729.641 619.175V616.751M760.068 596.98V595.488M760.068 596.98L760.257 596.607M760.068 595.488V593.25V591.199V590.639L759.69 590.079L759.312 589.706L758.934 589.52H756.288H753.264H749.673H748.728H748.445M760.068 595.488H729.641M748.445 589.52H748.162L731.53 589.706H730.397L729.641 590.266V591.199V595.488M748.445 589.52V580.194L747.973 579.448L747.217 579.075H744.76H705.639H704.883L704.127 579.448L703.749 580.008V580.754V596.607M703.749 596.607V605M729.263 613.021H719.435M719.435 613.021H705.45L704.883 612.834L704.505 612.648L704.127 612.274L703.749 611.715V611.342V605M719.435 613.021V616.751M719.435 616.751H729.641M729.641 616.751V606.12V605M729.641 605H703.749M729.641 605V595.488M732.853 612.834H742.114M727.751 608.917C727.751 609.535 727.243 610.036 726.617 610.036C725.99 610.036 725.483 609.535 725.483 608.917C725.483 608.299 725.99 607.798 726.617 607.798C727.243 607.798 727.751 608.299 727.751 608.917Z" stroke="#E9E3D5" stroke-width="3"/>
<path d="M747.408 613.958H756.48" stroke="#E9E3D5" stroke-width="3"/>
<path d="M732.85 617.69H737.574" stroke="#E9E3D5" stroke-width="3"/>
<path d="M747.217 617.883H752.131" stroke="#E9E3D5" stroke-width="3"/>
<path d="M747.021 610.417H742.296V610.044V609.671L742.674 609.298H746.265H747.21L747.399 609.671L747.21 610.044L747.021 610.417Z" fill="#E9E3D5"/>
<path d="M743.241 609.155V608.631L742.863 607.992L741.162 605.381L744.753 601.091M744.753 601.091L748.155 605.381L746.832 607.992L746.265 608.631L746.265 609.298M744.753 601.091V605.194H743.808H744.799H745.79M746.265 609.298H747.21L747.399 609.671L747.21 610.044L747.021 610.417H742.296V610.044V609.671L742.674 609.298H746.265Z" stroke="#E9E3D5" stroke-width="3"/>
<path d="M718.87 585.432L713.578 596.995" stroke="#E9E3D5" stroke-width="3"/>
<path d="M720.766 588.223L723.789 591.207L720.766 594.191" stroke="#E9E3D5" stroke-width="3"/>
<path d="M711.502 588.039L708.478 591.023L711.502 594.007" stroke="#E9E3D5" stroke-width="3"/>
<defs>
<linearGradient id="paint0_linear_199520_65987" x1="227.444" y1="137.193" x2="236.078" y2="224.976" gradientUnits="userSpaceOnUse">
<stop stop-color="#033043"/>
<stop offset="0.5" stop-color="#0A7273"/>
<stop offset="1" stop-color="#FDA521"/>
</linearGradient>
<linearGradient id="paint1_linear_199520_65987" x1="785.135" y1="948.933" x2="793.681" y2="957.924" gradientUnits="userSpaceOnUse">
<stop stop-color="#033043"/>
<stop offset="0.5" stop-color="#0A7273"/>
<stop offset="1" stop-color="#FDA521"/>
</linearGradient>
<linearGradient id="paint2_linear_199520_65987" x1="713.623" y1="948.933" x2="722.169" y2="957.924" gradientUnits="userSpaceOnUse">
<stop stop-color="#033043"/>
<stop offset="0.5" stop-color="#0A7273"/>
<stop offset="1" stop-color="#FDA521"/>
</linearGradient>
<linearGradient id="paint3_linear_199520_65987" x1="820.793" y1="948.933" x2="829.339" y2="957.924" gradientUnits="userSpaceOnUse">
<stop stop-color="#033043"/>
<stop offset="0.5" stop-color="#0A7273"/>
<stop offset="1" stop-color="#FDA521"/>
</linearGradient>
<linearGradient id="paint4_linear_199520_65987" x1="856.451" y1="948.933" x2="864.997" y2="957.924" gradientUnits="userSpaceOnUse">
<stop stop-color="#033043"/>
<stop offset="0.5" stop-color="#0A7273"/>
<stop offset="1" stop-color="#FDA521"/>
</linearGradient>
<linearGradient id="paint5_linear_199520_65987" x1="892.09" y1="948.933" x2="900.636" y2="957.924" gradientUnits="userSpaceOnUse">
<stop stop-color="#033043"/>
<stop offset="0.5" stop-color="#0A7273"/>
<stop offset="1" stop-color="#FDA521"/>
</linearGradient>
<linearGradient id="paint6_linear_199520_65987" x1="999.043" y1="948.933" x2="1007.59" y2="957.924" gradientUnits="userSpaceOnUse">
<stop stop-color="#033043"/>
<stop offset="0.5" stop-color="#0A7273"/>
<stop offset="1" stop-color="#FDA521"/>
</linearGradient>
<linearGradient id="paint7_linear_199520_65987" x1="154.755" y1="65.0245" x2="163.279" y2="73.9927" gradientUnits="userSpaceOnUse">
<stop stop-color="#033043"/>
<stop offset="0.5" stop-color="#0A7273"/>
<stop offset="1" stop-color="#FDA521"/>
</linearGradient>
<linearGradient id="paint8_linear_199520_65987" x1="192.516" y1="65.0223" x2="201.065" y2="73.9943" gradientUnits="userSpaceOnUse">
<stop stop-color="#033043"/>
<stop offset="0.5" stop-color="#0A7273"/>
<stop offset="1" stop-color="#FDA521"/>
</linearGradient>
<linearGradient id="paint9_linear_199520_65987" x1="230.298" y1="65.0225" x2="238.846" y2="73.9922" gradientUnits="userSpaceOnUse">
<stop stop-color="#033043"/>
<stop offset="0.5" stop-color="#0A7273"/>
<stop offset="1" stop-color="#FDA521"/>
</linearGradient>
<linearGradient id="paint10_linear_199520_65987" x1="60.3037" y1="83.9288" x2="68.8278" y2="92.8972" gradientUnits="userSpaceOnUse">
<stop stop-color="#033043"/>
<stop offset="0.5" stop-color="#0A7273"/>
<stop offset="1" stop-color="#FDA521"/>
</linearGradient>
<linearGradient id="paint11_linear_199520_65987" x1="98.083" y1="83.9072" x2="106.631" y2="92.8775" gradientUnits="userSpaceOnUse">
<stop stop-color="#033043"/>
<stop offset="0.5" stop-color="#0A7273"/>
<stop offset="1" stop-color="#FDA521"/>
</linearGradient>
<linearGradient id="paint12_linear_199520_65987" x1="135.845" y1="83.9072" x2="144.392" y2="92.8769" gradientUnits="userSpaceOnUse">
<stop stop-color="#033043"/>
<stop offset="0.5" stop-color="#0A7273"/>
<stop offset="1" stop-color="#FDA521"/>
</linearGradient>
<linearGradient id="paint13_linear_199520_65987" x1="173.624" y1="83.905" x2="182.175" y2="92.8796" gradientUnits="userSpaceOnUse">
<stop stop-color="#033043"/>
<stop offset="0.5" stop-color="#0A7273"/>
<stop offset="1" stop-color="#FDA521"/>
</linearGradient>
<linearGradient id="paint14_linear_199520_65987" x1="211.427" y1="83.9093" x2="219.951" y2="92.8778" gradientUnits="userSpaceOnUse">
<stop stop-color="#033043"/>
<stop offset="0.5" stop-color="#0A7273"/>
<stop offset="1" stop-color="#FDA521"/>
</linearGradient>
<linearGradient id="paint15_linear_199520_65987" x1="79.1748" y1="102.792" x2="87.7222" y2="111.762" gradientUnits="userSpaceOnUse">
<stop stop-color="#033043"/>
<stop offset="0.5" stop-color="#0A7273"/>
<stop offset="1" stop-color="#FDA521"/>
</linearGradient>
<linearGradient id="paint16_linear_199520_65987" x1="116.967" y1="102.803" x2="125.509" y2="111.787" gradientUnits="userSpaceOnUse">
<stop stop-color="#033043"/>
<stop offset="0.5" stop-color="#0A7273"/>
<stop offset="1" stop-color="#FDA521"/>
</linearGradient>
<linearGradient id="paint17_linear_199520_65987" x1="154.755" y1="102.79" x2="163.306" y2="111.763" gradientUnits="userSpaceOnUse">
<stop stop-color="#033043"/>
<stop offset="0.5" stop-color="#0A7273"/>
<stop offset="1" stop-color="#FDA521"/>
</linearGradient>
<linearGradient id="paint18_linear_199520_65987" x1="192.536" y1="102.791" x2="201.084" y2="111.761" gradientUnits="userSpaceOnUse">
<stop stop-color="#033043"/>
<stop offset="0.5" stop-color="#0A7273"/>
<stop offset="1" stop-color="#FDA521"/>
</linearGradient>
<linearGradient id="paint19_linear_199520_65987" x1="98.085" y1="121.697" x2="106.609" y2="130.666" gradientUnits="userSpaceOnUse">
<stop stop-color="#033043"/>
<stop offset="0.5" stop-color="#0A7273"/>
<stop offset="1" stop-color="#FDA521"/>
</linearGradient>
<linearGradient id="paint20_linear_199520_65987" x1="135.845" y1="121.675" x2="144.394" y2="130.646" gradientUnits="userSpaceOnUse">
<stop stop-color="#033043"/>
<stop offset="0.5" stop-color="#0A7273"/>
<stop offset="1" stop-color="#FDA521"/>
</linearGradient>
<linearGradient id="paint21_linear_199520_65987" x1="173.646" y1="121.678" x2="182.17" y2="130.646" gradientUnits="userSpaceOnUse">
<stop stop-color="#033043"/>
<stop offset="0.5" stop-color="#0A7273"/>
<stop offset="1" stop-color="#FDA521"/>
</linearGradient>
<linearGradient id="paint22_linear_199520_65987" x1="116.971" y1="140.58" x2="125.499" y2="149.553" gradientUnits="userSpaceOnUse">
<stop stop-color="#033043"/>
<stop offset="0.5" stop-color="#0A7273"/>
<stop offset="1" stop-color="#FDA521"/>
</linearGradient>
<linearGradient id="paint23_linear_199520_65987" x1="154.735" y1="140.559" x2="163.284" y2="149.531" gradientUnits="userSpaceOnUse">
<stop stop-color="#033043"/>
<stop offset="0.5" stop-color="#0A7273"/>
<stop offset="1" stop-color="#FDA521"/>
</linearGradient>
<linearGradient id="paint24_linear_199520_65987" x1="135.864" y1="159.446" x2="144.39" y2="168.415" gradientUnits="userSpaceOnUse">
<stop stop-color="#033043"/>
<stop offset="0.5" stop-color="#0A7273"/>
<stop offset="1" stop-color="#FDA521"/>
</linearGradient>
<linearGradient id="paint25_linear_199520_65987" x1="60.2842" y1="46.1387" x2="68.832" y2="55.1082" gradientUnits="userSpaceOnUse">
<stop stop-color="#033043"/>
<stop offset="0.5" stop-color="#0A7273"/>
<stop offset="1" stop-color="#FDA521"/>
</linearGradient>
<linearGradient id="paint26_linear_199520_65987" x1="98.0654" y1="46.1387" x2="106.613" y2="55.1082" gradientUnits="userSpaceOnUse">
<stop stop-color="#033043"/>
<stop offset="0.5" stop-color="#0A7273"/>
<stop offset="1" stop-color="#FDA521"/>
</linearGradient>
<linearGradient id="paint27_linear_199520_65987" x1="135.844" y1="46.1363" x2="144.397" y2="55.111" gradientUnits="userSpaceOnUse">
<stop stop-color="#033043"/>
<stop offset="0.5" stop-color="#0A7273"/>
<stop offset="1" stop-color="#FDA521"/>
</linearGradient>
<linearGradient id="paint28_linear_199520_65987" x1="173.646" y1="46.1387" x2="182.193" y2="55.108" gradientUnits="userSpaceOnUse">
<stop stop-color="#033043"/>
<stop offset="0.5" stop-color="#0A7273"/>
<stop offset="1" stop-color="#FDA521"/>
</linearGradient>
<linearGradient id="paint29_linear_199520_65987" x1="211.407" y1="46.1387" x2="219.955" y2="55.1084" gradientUnits="userSpaceOnUse">
<stop stop-color="#033043"/>
<stop offset="0.5" stop-color="#0A7273"/>
<stop offset="1" stop-color="#FDA521"/>
</linearGradient>
<linearGradient id="paint30_linear_199520_65987" x1="41.4131" y1="65.044" x2="49.9376" y2="74.0126" gradientUnits="userSpaceOnUse">
<stop stop-color="#033043"/>
<stop offset="0.5" stop-color="#0A7273"/>
<stop offset="1" stop-color="#FDA521"/>
</linearGradient>
<linearGradient id="paint31_linear_199520_65987" x1="79.1902" y1="65.0211" x2="87.7426" y2="73.9957" gradientUnits="userSpaceOnUse">
<stop stop-color="#033043"/>
<stop offset="0.5" stop-color="#0A7273"/>
<stop offset="1" stop-color="#FDA521"/>
</linearGradient>
<linearGradient id="paint32_linear_199520_65987" x1="116.954" y1="65.0225" x2="125.502" y2="73.9928" gradientUnits="userSpaceOnUse">
<stop stop-color="#033043"/>
<stop offset="0.5" stop-color="#0A7273"/>
<stop offset="1" stop-color="#FDA521"/>
</linearGradient>
<linearGradient id="paint33_linear_199520_65987" x1="181.205" y1="672.546" x2="402.478" y2="905.345" gradientUnits="userSpaceOnUse">
<stop stop-color="#033043"/>
<stop offset="0.5" stop-color="#0A7273"/>
<stop offset="1" stop-color="#FDA521"/>
</linearGradient>
<linearGradient id="paint34_linear_199520_65987" x1="33.2334" y1="251.287" x2="36.3853" y2="236.183" gradientUnits="userSpaceOnUse">
<stop stop-color="#033043"/>
<stop offset="0.5" stop-color="#0A7273"/>
<stop offset="1" stop-color="#FDA521"/>
</linearGradient>
<linearGradient id="paint35_linear_199520_65987" x1="292.875" y1="166.06" x2="751.295" y2="648.358" gradientUnits="userSpaceOnUse">
<stop stop-color="#033043"/>
<stop offset="0.5" stop-color="#0A7273"/>
<stop offset="1" stop-color="#FDA521"/>
</linearGradient>
<linearGradient id="paint36_linear_199520_65987" x1="366.769" y1="246.407" x2="675.231" y2="570.937" gradientUnits="userSpaceOnUse">
<stop stop-color="#033043"/>
<stop offset="0.5" stop-color="#0A7273"/>
<stop offset="1" stop-color="#FDA521"/>
</linearGradient>
<linearGradient id="paint37_linear_199520_65987" x1="403.715" y1="286.58" x2="637.209" y2="532.237" gradientUnits="userSpaceOnUse">
<stop stop-color="#033043"/>
<stop offset="0.5" stop-color="#0A7273"/>
<stop offset="1" stop-color="#FDA521"/>
</linearGradient>
<linearGradient id="paint38_linear_199520_65987" x1="440.682" y1="326.775" x2="599.186" y2="493.536" gradientUnits="userSpaceOnUse">
<stop stop-color="#033043"/>
<stop offset="0.5" stop-color="#0A7273"/>
<stop offset="1" stop-color="#FDA521"/>
</linearGradient>
<linearGradient id="paint39_linear_199520_65987" x1="477.63" y1="366.97" x2="561.144" y2="454.834" gradientUnits="userSpaceOnUse">
<stop stop-color="#033043"/>
<stop offset="0.5" stop-color="#0A7273"/>
<stop offset="1" stop-color="#FDA521"/>
</linearGradient>
<radialGradient id="paint40_radial_199520_65987" cx="0" cy="0" r="1" gradientUnits="userSpaceOnUse" gradientTransform="translate(792.223 540.577) scale(250.337 250.257)">
<stop/>
<stop offset="1" stop-color="white"/>
</radialGradient>
<linearGradient id="paint41_linear_199520_65987" x1="478.224" y1="212.47" x2="1005.17" y2="766.863" gradientUnits="userSpaceOnUse">
<stop stop-color="#033043"/>
<stop offset="0.5" stop-color="#0A7273"/>
<stop offset="1" stop-color="#FDA521"/>
</linearGradient>
<linearGradient id="paint42_linear_199520_65987" x1="676.832" y1="-26.0303" x2="753.571" y2="54.7061" gradientUnits="userSpaceOnUse">
<stop stop-color="#033043"/>
<stop offset="0.5" stop-color="#0A7273"/>
<stop offset="1" stop-color="#FDA521"/>
</linearGradient>
<linearGradient id="paint43_linear_199520_65987" x1="674.022" y1="-29.7711" x2="772.812" y2="74.1881" gradientUnits="userSpaceOnUse">
<stop stop-color="#033043"/>
<stop offset="0.5" stop-color="#0A7273"/>
<stop offset="1" stop-color="#FDA521"/>
</linearGradient>
<linearGradient id="paint44_linear_199520_65987" x1="674.037" y1="-30.4409" x2="788.636" y2="90.128" gradientUnits="userSpaceOnUse">
<stop stop-color="#033043"/>
<stop offset="0.5" stop-color="#0A7273"/>
<stop offset="1" stop-color="#FDA521"/>
</linearGradient>
<linearGradient id="paint45_linear_199520_65987" x1="676.336" y1="-28.6271" x2="802.183" y2="103.775" gradientUnits="userSpaceOnUse">
<stop stop-color="#033043"/>
<stop offset="0.5" stop-color="#0A7273"/>
<stop offset="1" stop-color="#FDA521"/>
</linearGradient>
<linearGradient id="paint46_linear_199520_65987" x1="680.396" y1="-24.924" x2="814.037" y2="115.678" gradientUnits="userSpaceOnUse">
<stop stop-color="#033043"/>
<stop offset="0.5" stop-color="#0A7273"/>
<stop offset="1" stop-color="#FDA521"/>
</linearGradient>
<linearGradient id="paint47_linear_199520_65987" x1="685.896" y1="-19.6383" x2="824.452" y2="126.134" gradientUnits="userSpaceOnUse">
<stop stop-color="#033043"/>
<stop offset="0.5" stop-color="#0A7273"/>
<stop offset="1" stop-color="#FDA521"/>
</linearGradient>
<linearGradient id="paint48_linear_199520_65987" x1="692.661" y1="-12.9591" x2="833.586" y2="135.306" gradientUnits="userSpaceOnUse">
<stop stop-color="#033043"/>
<stop offset="0.5" stop-color="#0A7273"/>
<stop offset="1" stop-color="#FDA521"/>
</linearGradient>
<linearGradient id="paint49_linear_199520_65987" x1="700.603" y1="-5.04012" x2="841.527" y2="143.225" gradientUnits="userSpaceOnUse">
<stop stop-color="#033043"/>
<stop offset="0.5" stop-color="#0A7273"/>
<stop offset="1" stop-color="#FDA521"/>
</linearGradient>
<linearGradient id="paint50_linear_199520_65987" x1="709.723" y1="4.18214" x2="848.234" y2="149.908" gradientUnits="userSpaceOnUse">
<stop stop-color="#033043"/>
<stop offset="0.5" stop-color="#0A7273"/>
<stop offset="1" stop-color="#FDA521"/>
</linearGradient>
<linearGradient id="paint51_linear_199520_65987" x1="720.069" y1="14.7806" x2="853.597" y2="155.288" gradientUnits="userSpaceOnUse">
<stop stop-color="#033043"/>
<stop offset="0.5" stop-color="#0A7273"/>
<stop offset="1" stop-color="#FDA521"/>
</linearGradient>
<linearGradient id="paint52_linear_199520_65987" x1="731.854" y1="26.8588" x2="857.569" y2="159.121" gradientUnits="userSpaceOnUse">
<stop stop-color="#033043"/>
<stop offset="0.5" stop-color="#0A7273"/>
<stop offset="1" stop-color="#FDA521"/>
</linearGradient>
<linearGradient id="paint53_linear_199520_65987" x1="745.262" y1="40.7502" x2="859.685" y2="161.133" gradientUnits="userSpaceOnUse">
<stop stop-color="#033043"/>
<stop offset="0.5" stop-color="#0A7273"/>
<stop offset="1" stop-color="#FDA521"/>
</linearGradient>
<linearGradient id="paint54_linear_199520_65987" x1="760.879" y1="57.0687" x2="859.426" y2="160.75" gradientUnits="userSpaceOnUse">
<stop stop-color="#033043"/>
<stop offset="0.5" stop-color="#0A7273"/>
<stop offset="1" stop-color="#FDA521"/>
</linearGradient>
<linearGradient id="paint55_linear_199520_65987" x1="779.892" y1="77.0132" x2="856.254" y2="157.354" gradientUnits="userSpaceOnUse">
<stop stop-color="#033043"/>
<stop offset="0.5" stop-color="#0A7273"/>
<stop offset="1" stop-color="#FDA521"/>
</linearGradient>
<linearGradient id="paint56_linear_199520_65987" x1="807.985" y1="106.873" x2="843.698" y2="144.446" gradientUnits="userSpaceOnUse">
<stop stop-color="#033043"/>
<stop offset="0.5" stop-color="#0A7273"/>
<stop offset="1" stop-color="#FDA521"/>
</linearGradient>
</defs>
</svg>
