<svg width="1122" height="994" viewBox="0 0 1122 994" fill="none" xmlns="http://www.w3.org/2000/svg">
<path d="M283.041 588.854L296.467 575.413L292.516 571.463L275.119 588.854L292.516 606.245L296.467 602.275L283.041 588.854Z" fill="#FF7B00"/>
<path d="M306.767 588.854L320.213 575.413L316.242 571.463L298.865 588.854L316.242 606.245L320.213 602.275L306.767 588.854Z" fill="#FF7B00"/>
<path d="M595.746 177.27L563.43 209.418L531.094 177.27L498.778 209.418L466.462 177.27L437.959 205.626L409.437 177.27L377.121 209.418L344.785 177.27L312.469 209.418L280.153 177.27L248.072 209.182L251.65 212.759L280.153 184.403L312.469 216.551L344.785 184.403L377.121 216.551L409.437 184.403L437.959 212.778L466.462 184.403L498.778 216.551L531.094 184.403L563.43 216.551L595.746 184.403L624.268 212.759L627.826 209.182L595.746 177.27Z" fill="url(#paint0_linear_199663_55977)"/>
<path d="M595.745 119.791L563.429 151.94L531.093 119.791L498.777 151.94L466.461 119.791L440.828 145.298L440.809 152.451L466.461 126.924L498.777 159.073L531.093 126.924L563.429 159.073L595.745 126.924L624.268 155.28L627.826 151.684L595.745 119.791Z" fill="#FF7B00"/>
<path d="M789.052 993.305C786.968 993.305 785.258 991.615 785.258 989.512C785.258 987.429 786.948 985.72 789.052 985.72C791.135 985.72 792.845 987.41 792.845 989.512C792.845 991.615 791.155 993.305 789.052 993.305Z" fill="url(#paint1_linear_199663_55977)"/>
<path d="M717.54 993.305C715.456 993.305 713.746 991.615 713.746 989.512C713.746 987.429 715.437 985.72 717.54 985.72C719.643 985.72 721.334 987.41 721.334 989.512C721.334 991.615 719.624 993.305 717.54 993.305Z" fill="url(#paint2_linear_199663_55977)"/>
<path d="M824.71 993.305C822.626 993.305 820.916 991.615 820.916 989.512C820.916 987.429 822.607 985.72 824.71 985.72C826.794 985.72 828.504 987.41 828.504 989.512C828.504 991.615 826.794 993.305 824.71 993.305Z" fill="url(#paint3_linear_199663_55977)"/>
<path d="M860.368 993.305C858.284 993.305 856.574 991.615 856.574 989.512C856.574 987.429 858.265 985.72 860.368 985.72C862.452 985.72 864.162 987.41 864.162 989.512C864.142 991.615 862.452 993.305 860.368 993.305Z" fill="url(#paint4_linear_199663_55977)"/>
<path d="M896.007 993.305C893.923 993.305 892.213 991.615 892.213 989.512C892.213 987.429 893.903 985.72 896.007 985.72C898.09 985.72 899.8 987.41 899.8 989.512C899.8 991.615 898.09 993.305 896.007 993.305Z" fill="url(#paint5_linear_199663_55977)"/>
<path d="M1002.96 993.305C1000.88 993.305 999.166 991.615 999.166 989.512C999.166 987.429 1000.86 985.72 1002.96 985.72C1005.04 985.72 1006.75 987.41 1006.75 989.512C1006.75 991.615 1005.04 993.305 1002.96 993.305Z" fill="url(#paint6_linear_199663_55977)"/>
<path d="M158.671 101.81C156.469 101.81 154.877 103.401 154.877 105.583C154.877 107.783 156.469 109.375 158.651 109.375C160.853 109.375 162.425 107.783 162.445 105.602C162.445 103.401 160.872 101.81 158.671 101.81Z" fill="url(#paint7_linear_199663_55977)"/>
<path d="M196.531 101.81C194.33 101.771 192.679 103.323 192.639 105.505C192.6 107.706 194.173 109.356 196.335 109.395C198.536 109.435 200.168 107.882 200.207 105.701C200.266 103.481 198.713 101.85 196.531 101.81Z" fill="url(#paint8_linear_199663_55977)"/>
<path d="M234.253 101.81C232.052 101.79 230.44 103.382 230.42 105.563C230.4 107.764 231.993 109.375 234.175 109.395C236.376 109.415 237.968 107.843 237.988 105.642C238.008 103.421 236.455 101.829 234.253 101.81Z" fill="url(#paint9_linear_199663_55977)"/>
<path d="M64.2001 128.279C66.4017 128.279 67.9939 126.707 67.9939 124.506C67.9939 122.306 66.4214 120.714 64.2198 120.714C62.0182 120.714 60.426 122.306 60.426 124.487C60.4063 126.668 62.0182 128.26 64.2001 128.279Z" fill="url(#paint10_linear_199663_55977)"/>
<path d="M101.921 128.28C104.123 128.299 105.734 126.747 105.774 124.546C105.793 122.326 104.24 120.714 102.059 120.695C99.857 120.675 98.2254 122.227 98.2058 124.409C98.1665 126.609 99.7587 128.24 101.921 128.28Z" fill="url(#paint11_linear_199663_55977)"/>
<path d="M139.721 120.695C137.54 120.714 135.947 122.326 135.967 124.526C135.987 126.708 137.618 128.299 139.8 128.28C142.002 128.26 143.555 126.649 143.535 124.448C143.535 122.247 141.923 120.675 139.721 120.695Z" fill="url(#paint12_linear_199663_55977)"/>
<path d="M177.699 120.694C175.497 120.635 173.826 122.168 173.748 124.329C173.689 126.53 175.222 128.201 177.384 128.279C179.586 128.338 181.257 126.805 181.316 124.644C181.394 122.404 179.881 120.753 177.699 120.694Z" fill="url(#paint13_linear_199663_55977)"/>
<path d="M215.402 120.695C213.2 120.675 211.569 122.247 211.549 124.409C211.529 126.609 213.102 128.24 215.284 128.26C217.485 128.28 219.097 126.708 219.117 124.526C219.137 122.326 217.584 120.714 215.402 120.695Z" fill="url(#paint14_linear_199663_55977)"/>
<path d="M83.1103 147.164C85.3119 147.145 86.8845 145.553 86.8648 143.352C86.8648 141.151 85.2726 139.579 83.071 139.579C80.8694 139.579 79.2969 141.19 79.2969 143.391C79.3165 145.573 80.9284 147.164 83.1103 147.164Z" fill="url(#paint15_linear_199663_55977)"/>
<path d="M117.096 143.096C116.978 145.317 118.472 147.027 120.615 147.164C122.817 147.282 124.546 145.789 124.664 143.647C124.782 141.426 123.308 139.717 121.165 139.599C118.924 139.461 117.214 140.955 117.096 143.096Z" fill="url(#paint16_linear_199663_55977)"/>
<path d="M158.81 139.579C156.608 139.52 154.938 141.033 154.879 143.214C154.82 145.415 156.353 147.085 158.515 147.164C160.717 147.223 162.388 145.69 162.447 143.529C162.506 141.288 160.992 139.638 158.81 139.579Z" fill="url(#paint17_linear_199663_55977)"/>
<path d="M196.374 139.578C194.192 139.598 192.62 141.229 192.659 143.43C192.679 145.611 194.31 147.183 196.512 147.163C198.694 147.124 200.247 145.513 200.227 143.312C200.188 141.111 198.576 139.559 196.374 139.578Z" fill="url(#paint18_linear_199663_55977)"/>
<path d="M101.981 166.048C104.183 166.048 105.755 164.476 105.775 162.275C105.775 160.074 104.202 158.482 102.001 158.482C99.7993 158.482 98.207 160.074 98.207 162.255C98.207 164.437 99.7992 166.048 101.981 166.048Z" fill="url(#paint19_linear_199663_55977)"/>
<path d="M139.683 158.463C137.501 158.502 135.928 160.133 135.968 162.334C136.007 164.515 137.638 166.087 139.84 166.048C142.022 166.009 143.575 164.397 143.535 162.177C143.516 159.976 141.904 158.423 139.683 158.463Z" fill="url(#paint20_linear_199663_55977)"/>
<path d="M177.621 158.463C175.419 158.443 173.787 160.015 173.768 162.177C173.748 164.378 175.321 166.009 177.503 166.029C179.704 166.048 181.316 164.496 181.336 162.295C181.355 160.094 179.802 158.483 177.621 158.463Z" fill="url(#paint21_linear_199663_55977)"/>
<path d="M120.733 184.932C122.935 184.991 124.606 183.459 124.665 181.297C124.724 179.076 123.21 177.426 121.048 177.367C118.846 177.308 117.175 178.841 117.097 181.002C117.018 183.183 118.571 184.854 120.733 184.932Z" fill="url(#paint22_linear_199663_55977)"/>
<path d="M158.75 177.347C156.549 177.308 154.897 178.861 154.858 181.042C154.819 183.243 156.391 184.893 158.554 184.933C160.755 184.972 162.387 183.419 162.426 181.238C162.485 179.018 160.932 177.387 158.75 177.347Z" fill="url(#paint23_linear_199663_55977)"/>
<path d="M139.702 196.232C137.52 196.271 135.948 197.883 135.987 200.084C136.026 202.265 137.658 203.837 139.84 203.798C142.022 203.758 143.575 202.147 143.555 199.946C143.516 197.765 141.904 196.193 139.702 196.232Z" fill="url(#paint24_linear_199663_55977)"/>
<path d="M64.1607 90.5111C66.3623 90.5308 67.9545 88.9587 67.9742 86.7579C67.9939 84.557 66.4213 82.9456 64.2394 82.926C62.0378 82.9063 60.4259 84.498 60.4062 86.6793C60.4062 88.8605 61.9985 90.4915 64.1607 90.5111Z" fill="url(#paint25_linear_199663_55977)"/>
<path d="M101.942 90.5111C104.144 90.5308 105.736 88.9587 105.755 86.7579C105.775 84.557 104.203 82.9456 102.021 82.926C99.819 82.9063 98.2072 84.498 98.1875 86.6793C98.1875 88.8605 99.7797 90.4915 101.942 90.5111Z" fill="url(#paint26_linear_199663_55977)"/>
<path d="M139.92 82.9255C137.718 82.8665 136.047 84.3993 135.968 86.5609C135.909 88.7617 137.443 90.4321 139.605 90.5107C141.807 90.5893 143.477 89.0368 143.536 86.8753C143.615 84.6351 142.101 83.0041 139.92 82.9255Z" fill="url(#paint27_linear_199663_55977)"/>
<path d="M177.561 82.9258C175.36 82.9258 173.768 84.5175 173.768 86.6987C173.768 88.8996 175.36 90.4913 177.542 90.511C179.743 90.511 181.336 88.9389 181.336 86.738C181.336 84.5175 179.763 82.9258 177.561 82.9258Z" fill="url(#paint28_linear_199663_55977)"/>
<path d="M215.363 82.926C213.161 82.9063 211.549 84.498 211.529 86.6793C211.51 88.8801 213.102 90.4915 215.284 90.5111C217.486 90.5308 219.078 88.9391 219.097 86.7579C219.117 84.5373 217.564 82.9456 215.363 82.926Z" fill="url(#paint29_linear_199663_55977)"/>
<path d="M45.2898 109.395C47.4914 109.414 49.0836 107.823 49.1033 105.642C49.1229 103.441 47.5504 101.829 45.3685 101.829C43.1669 101.81 41.555 103.401 41.5353 105.583C41.5157 107.744 43.1079 109.375 45.2898 109.395Z" fill="url(#paint30_linear_199663_55977)"/>
<path d="M82.9519 109.395C85.1535 109.474 86.8243 107.922 86.8833 105.76C86.9423 103.539 85.4287 101.889 83.2664 101.81C81.0648 101.751 79.394 103.284 79.3154 105.446C79.2367 107.647 80.7896 109.317 82.9519 109.395Z" fill="url(#paint31_linear_199663_55977)"/>
<path d="M120.929 101.81C118.728 101.79 117.096 103.362 117.076 105.543C117.057 107.744 118.629 109.375 120.811 109.395C123.013 109.415 124.625 107.843 124.644 105.661C124.684 103.441 123.131 101.829 120.929 101.81Z" fill="url(#paint32_linear_199663_55977)"/>
<path d="M329.294 787.798V691.568H233.033V787.798V884.028H329.294H425.554V787.798H329.294Z" fill="#FF7B00"/>
<path d="M388.187 925.314H191.734V728.925H291.926V825.154H388.187V925.314ZM195.666 921.384H384.255V829.085H287.995V732.855H195.666V921.384Z" fill="url(#paint33_linear_199663_55977)"/>
<path d="M349.442 692.609H343.584V776.125H349.442V692.609Z" fill="#FFC200"/>
<path d="M364.362 692.59H358.504V776.105H364.362V692.59Z" fill="#FFC200"/>
<path d="M379.262 692.609H373.404V776.125H379.262V692.609Z" fill="#FFC200"/>
<path d="M394.162 692.609H388.305V776.125H394.162V692.609Z" fill="#FFC200"/>
<path d="M409.061 692.59H403.203V776.105H409.061V692.59Z" fill="#FFC200"/>
<path d="M423.784 692.609H418.104V776.125H423.784V692.609Z" fill="#FFC200"/>
<path d="M36.4121 280.279V286.921H69.888V280.279H36.4121Z" fill="url(#paint34_linear_199663_55977)"/>
<path d="M36.3965 243.783V250.425H69.8724V243.783H36.3965Z" fill="#FFC200"/>
<path d="M36.3965 207.27V213.912H69.8724V207.27H36.3965Z" fill="#FF7B00"/>
<path d="M737.138 915.292C949.476 915.292 1121.61 743.213 1121.61 530.943C1121.61 318.673 949.476 146.595 737.138 146.595C524.8 146.595 352.666 318.673 352.666 530.943C352.666 743.213 524.8 915.292 737.138 915.292Z" fill="#F9F5EF"/>
<path d="M742.838 236.812C745.552 236.812 747.752 234.612 747.752 231.899C747.752 229.186 745.552 226.986 742.838 226.986C740.124 226.986 737.924 229.186 737.924 231.899C737.924 234.612 740.124 236.812 742.838 236.812Z" fill="#0A7273"/>
<path d="M794.203 241.076C791.549 241.076 789.406 238.934 789.406 236.281C789.406 233.628 791.549 231.486 794.203 231.486C796.856 231.486 798.999 233.628 798.999 236.281C798.999 238.934 796.856 241.076 794.203 241.076Z" fill="#0A7273"/>
<path d="M844.051 254.124C846.635 254.124 848.73 252.03 848.73 249.447C848.73 246.864 846.635 244.771 844.051 244.771C841.468 244.771 839.373 246.864 839.373 249.447C839.373 252.03 841.468 254.124 844.051 254.124Z" fill="#0A7273"/>
<path d="M890.855 275.583C888.339 275.583 886.295 273.539 886.295 271.024C886.295 268.509 888.339 266.465 890.855 266.465C893.371 266.465 895.416 268.509 895.416 271.024C895.435 273.539 893.391 275.583 890.855 275.583Z" fill="#0A7273"/>
<path d="M933.274 304.744C930.817 304.744 928.832 302.76 928.832 300.303C928.832 297.847 930.817 295.862 933.274 295.862C935.732 295.862 937.717 297.847 937.717 300.303C937.717 302.76 935.732 304.744 933.274 304.744Z" fill="#0A7273"/>
<path d="M970.053 340.744C972.452 340.744 974.397 338.8 974.397 336.401C974.397 334.003 972.452 332.059 970.053 332.059C967.654 332.059 965.709 334.003 965.709 336.401C965.709 338.8 967.654 340.744 970.053 340.744Z" fill="#0A7273"/>
<path d="M1000.11 382.483C997.77 382.483 995.883 380.597 995.883 378.258C995.883 375.92 997.77 374.033 1000.11 374.033C1002.45 374.033 1004.34 375.92 1004.34 378.258C1004.34 380.597 1002.45 382.483 1000.11 382.483Z" fill="#0A7273"/>
<path d="M1026.62 425.372C1026.98 423.133 1025.46 421.025 1023.22 420.664C1020.98 420.302 1018.87 421.824 1018.51 424.064C1018.15 426.303 1019.67 428.411 1021.91 428.772C1024.15 429.134 1026.26 427.611 1026.62 425.372Z" fill="#0A7273"/>
<path d="M1036.61 478.221C1034.41 478.221 1032.62 476.433 1032.62 474.232C1032.62 472.031 1034.41 470.243 1036.61 470.243C1038.81 470.243 1040.6 472.031 1040.6 474.232C1040.6 476.433 1038.81 478.221 1036.61 478.221Z" fill="#0A7273"/>
<path d="M1041.94 529.352C1039.8 529.352 1038.07 527.623 1038.07 525.481C1038.07 523.339 1039.8 521.609 1041.94 521.609C1044.08 521.609 1045.81 523.339 1045.81 525.481C1045.81 527.623 1044.08 529.352 1041.94 529.352Z" fill="#0A7273"/>
<path d="M1038.48 580.66C1036.4 580.66 1034.72 578.97 1034.72 576.907C1034.72 574.824 1036.42 573.153 1038.48 573.153C1040.56 573.153 1042.23 574.843 1042.23 576.907C1042.23 578.97 1040.54 580.66 1038.48 580.66Z" fill="#0A7273"/>
<path d="M1026.23 630.593C1024.23 630.593 1022.6 628.962 1022.6 626.958C1022.6 624.953 1024.23 623.322 1026.23 623.322C1028.24 623.322 1029.87 624.953 1029.87 626.958C1029.87 628.962 1028.24 630.593 1026.23 630.593Z" fill="#0A7273"/>
<path d="M1005.51 677.676C1003.57 677.676 1002 676.104 1002 674.158C1002 672.213 1003.57 670.641 1005.51 670.641C1007.46 670.641 1009.03 672.213 1009.03 674.158C1009.03 676.084 1007.46 677.676 1005.51 677.676Z" fill="#0A7273"/>
<path d="M976.992 720.475C975.105 720.475 973.592 718.942 973.592 717.075C973.592 715.189 975.125 713.676 976.992 713.676C978.88 713.676 980.393 715.209 980.393 717.075C980.393 718.942 978.88 720.475 976.992 720.475Z" fill="#0A7273"/>
<path d="M941.55 757.773C939.722 757.773 938.248 756.299 938.248 754.471C938.248 752.644 939.722 751.17 941.55 751.17C943.379 751.17 944.853 752.644 944.853 754.471C944.833 756.299 943.359 757.773 941.55 757.773Z" fill="#0A7273"/>
<path d="M900.231 788.466C898.482 788.466 897.047 787.052 897.047 785.283C897.047 783.514 898.462 782.1 900.231 782.1C902 782.1 903.416 783.514 903.416 785.283C903.416 787.052 901.981 788.466 900.231 788.466Z" fill="#0A7273"/>
<path d="M854.234 811.615C852.544 811.615 851.168 810.24 851.168 808.55C851.168 806.86 852.544 805.484 854.234 805.484C855.925 805.484 857.301 806.86 857.301 808.55C857.301 810.24 855.925 811.615 854.234 811.615Z" fill="#0A7273"/>
<path d="M804.915 826.471C803.284 826.471 801.967 825.155 801.967 823.524C801.967 821.893 803.284 820.576 804.915 820.576C806.547 820.576 807.864 821.893 807.864 823.524C807.864 825.155 806.547 826.471 804.915 826.471Z" fill="#0A7273"/>
<path d="M753.747 832.622C752.174 832.622 750.916 831.365 750.916 829.793C750.916 828.221 752.174 826.963 753.747 826.963C755.319 826.963 756.577 828.221 756.577 829.793C756.577 831.365 755.319 832.622 753.747 832.622Z" fill="#0A7273"/>
<path d="M702.265 829.969C700.771 829.969 699.553 828.751 699.553 827.258C699.553 825.764 700.771 824.546 702.265 824.546C703.759 824.546 704.978 825.764 704.978 827.258C704.978 828.751 703.759 829.969 702.265 829.969Z" fill="#0A7273"/>
<path d="M651.983 818.533C650.548 818.533 649.389 817.373 649.389 815.939C649.389 814.504 650.548 813.345 651.983 813.345C653.418 813.345 654.578 814.504 654.578 815.939C654.578 817.373 653.418 818.533 651.983 818.533Z" fill="#0A7273"/>
<path d="M604.393 798.567C603.017 798.567 601.916 797.447 601.916 796.091C601.916 794.716 603.036 793.615 604.393 793.615C605.769 793.615 606.87 794.735 606.87 796.091C606.889 797.467 605.769 798.567 604.393 798.567Z" fill="#0A7273"/>
<path d="M560.951 770.722C559.634 770.722 558.592 769.661 558.592 768.364C558.592 767.067 559.653 766.006 560.951 766.006C562.248 766.006 563.309 767.067 563.309 768.364C563.309 769.661 562.268 770.722 560.951 770.722Z" fill="#0A7273"/>
<path d="M522.876 735.861C524.124 735.861 525.136 734.85 525.136 733.602C525.136 732.354 524.124 731.342 522.876 731.342C521.627 731.342 520.615 732.354 520.615 733.602C520.615 734.85 521.627 735.861 522.876 735.861Z" fill="#0A7273"/>
<path d="M742.838 259.822C745.552 259.822 747.752 257.623 747.752 254.91C747.752 252.197 745.552 249.997 742.838 249.997C740.124 249.997 737.924 252.197 737.924 254.91C737.924 257.623 740.124 259.822 742.838 259.822Z" fill="#0A7273"/>
<path d="M793.593 264.303C790.978 264.303 788.855 262.18 788.855 259.567C788.855 256.953 790.978 254.831 793.593 254.831C796.207 254.831 798.33 256.953 798.33 259.567C798.33 262.18 796.207 264.303 793.593 264.303Z" fill="#0A7273"/>
<path d="M842.617 278.019C845.125 278.019 847.158 275.987 847.158 273.48C847.158 270.973 845.125 268.94 842.617 268.94C840.109 268.94 838.076 270.973 838.076 273.48C838.076 275.987 840.109 278.019 842.617 278.019Z" fill="#0A7273"/>
<path d="M888.221 300.578C885.823 300.578 883.857 298.633 883.857 296.216C883.857 293.819 885.803 291.854 888.221 291.854C890.619 291.854 892.585 293.799 892.585 296.216C892.565 298.633 890.619 300.578 888.221 300.578Z" fill="#0A7273"/>
<path d="M928.853 331.115C926.553 331.115 924.686 329.248 924.686 326.949C924.686 324.65 926.553 322.783 928.853 322.783C931.153 322.783 933.02 324.65 933.02 326.949C933.02 329.248 931.172 331.115 928.853 331.115Z" fill="#0A7273"/>
<path d="M963.193 368.57C960.992 368.57 959.203 366.782 959.203 364.581C959.203 362.38 960.992 360.592 963.193 360.592C965.395 360.592 967.184 362.38 967.184 364.581C967.184 366.782 965.395 368.57 963.193 368.57Z" fill="#0A7273"/>
<path d="M990.065 411.683C987.962 411.683 986.271 409.973 986.271 407.89C986.271 405.788 987.982 404.098 990.065 404.098C992.149 404.098 993.859 405.807 993.859 407.89C993.859 409.973 992.169 411.683 990.065 411.683Z" fill="#0A7273"/>
<path d="M1008.48 458.982C1010.48 458.982 1012.1 457.364 1012.1 455.367C1012.1 453.37 1010.48 451.751 1008.48 451.751C1006.49 451.751 1004.87 453.37 1004.87 455.367C1004.87 457.364 1006.49 458.982 1008.48 458.982Z" fill="#0A7273"/>
<path d="M1017.8 508.895C1015.91 508.895 1014.38 507.362 1014.38 505.476C1014.38 503.589 1015.91 502.057 1017.8 502.057C1019.69 502.057 1021.22 503.589 1021.22 505.476C1021.22 507.362 1019.69 508.895 1017.8 508.895Z" fill="#0A7273"/>
<path d="M1017.8 559.654C1016.01 559.654 1014.56 558.2 1014.56 556.411C1014.56 554.623 1016.01 553.169 1017.8 553.169C1019.59 553.169 1021.04 554.623 1021.04 556.411C1021.04 558.2 1019.59 559.654 1017.8 559.654Z" fill="#0A7273"/>
<path d="M1008.48 609.547C1006.79 609.547 1005.44 608.171 1005.44 606.501C1005.44 604.811 1006.81 603.455 1008.48 603.455C1010.17 603.455 1011.53 604.831 1011.53 606.501C1011.53 608.171 1010.17 609.547 1008.48 609.547Z" fill="#0A7273"/>
<path d="M990.065 656.866C988.473 656.866 987.195 655.589 987.195 653.997C987.195 652.405 988.473 651.128 990.065 651.128C991.657 651.128 992.935 652.405 992.935 653.997C992.935 655.569 991.657 656.866 990.065 656.866Z" fill="#0A7273"/>
<path d="M963.212 699.959C961.738 699.959 960.539 698.761 960.539 697.287C960.539 695.813 961.738 694.614 963.212 694.614C964.687 694.614 965.886 695.813 965.886 697.287C965.886 698.761 964.687 699.959 963.212 699.959Z" fill="#0A7273"/>
<path d="M928.871 737.414C927.495 737.414 926.375 736.294 926.375 734.918C926.375 733.543 927.495 732.423 928.871 732.423C930.247 732.423 931.368 733.543 931.368 734.918C931.348 736.294 930.247 737.414 928.871 737.414Z" fill="#0A7273"/>
<path d="M888.222 767.951C886.944 767.951 885.922 766.909 885.922 765.652C885.922 764.394 886.964 763.353 888.222 763.353C889.499 763.353 890.522 764.394 890.522 765.652C890.522 766.909 889.499 767.951 888.222 767.951Z" fill="#0A7273"/>
<path d="M842.617 790.51C841.438 790.51 840.494 789.567 840.494 788.388C840.494 787.209 841.438 786.266 842.617 786.266C843.796 786.266 844.74 787.209 844.74 788.388C844.74 789.567 843.796 790.51 842.617 790.51Z" fill="#0A7273"/>
<path d="M793.593 804.246C794.667 804.246 795.539 803.375 795.539 802.301C795.539 801.226 794.667 800.355 793.593 800.355C792.518 800.355 791.646 801.226 791.646 802.301C791.646 803.375 792.518 804.246 793.593 804.246Z" fill="#0A7273"/>
<path d="M742.837 808.707C743.804 808.707 744.587 807.924 744.587 806.958C744.587 805.992 743.804 805.209 742.837 805.209C741.871 805.209 741.088 805.992 741.088 806.958C741.088 807.924 741.871 808.707 742.837 808.707Z" fill="#0A7273"/>
<path d="M742.838 286.351C745.552 286.351 747.752 284.151 747.752 281.438C747.752 278.725 745.552 276.525 742.838 276.525C740.124 276.525 737.924 278.725 737.924 281.438C737.924 284.151 740.124 286.351 742.838 286.351Z" fill="#0A7273"/>
<path d="M791.548 290.654C789.071 290.654 787.086 288.649 787.086 286.193C787.086 283.717 789.091 281.732 791.548 281.732C794.005 281.732 796.01 283.737 796.01 286.193C796.03 288.649 794.025 290.654 791.548 290.654Z" fill="#0A7273"/>
<path d="M838.391 304.39C836.17 304.39 834.361 302.582 834.361 300.361C834.361 298.141 836.17 296.333 838.391 296.333C840.612 296.333 842.421 298.141 842.421 300.361C842.421 302.582 840.612 304.39 838.391 304.39Z" fill="#0A7273"/>
<path d="M881.519 327.028C883.495 327.028 885.097 325.427 885.097 323.451C885.097 321.476 883.495 319.875 881.519 319.875C879.543 319.875 877.941 321.476 877.941 323.451C877.941 325.427 879.543 327.028 881.519 327.028Z" fill="#0A7273"/>
<path d="M919.338 357.644C917.609 357.644 916.193 356.229 916.193 354.5C916.193 352.77 917.609 351.355 919.338 351.355C921.068 351.355 922.484 352.77 922.484 354.5C922.484 356.229 921.068 357.644 919.338 357.644Z" fill="#0A7273"/>
<path d="M950.396 395C948.902 395 947.703 393.801 947.703 392.307C947.703 390.814 948.902 389.615 950.396 389.615C951.89 389.615 953.089 390.814 953.089 392.307C953.089 393.801 951.89 395 950.396 395Z" fill="#0A7273"/>
<path d="M973.493 437.681C972.255 437.681 971.232 436.679 971.232 435.421C971.232 434.183 972.235 433.161 973.493 433.161C974.731 433.161 975.754 434.163 975.754 435.421C975.754 436.679 974.731 437.681 973.493 437.681Z" fill="#0A7273"/>
<path d="M987.685 484.057C986.683 484.057 985.877 483.251 985.877 482.249C985.877 481.247 986.683 480.441 987.685 480.441C988.688 480.441 989.494 481.247 989.494 482.249C989.494 483.251 988.688 484.057 987.685 484.057Z" fill="#0A7273"/>
<path d="M992.442 532.3C993.191 532.3 993.799 531.693 993.799 530.944C993.799 530.195 993.191 529.588 992.442 529.588C991.693 529.588 991.086 530.195 991.086 530.944C991.086 531.693 991.693 532.3 992.442 532.3Z" fill="#0A7273"/>
<path d="M518.493 651.147C406.291 651.147 315.004 559.889 315.004 447.703C315.004 335.517 406.291 244.278 518.493 244.278C630.696 244.278 722.003 335.536 722.003 447.703C722.003 559.869 630.715 651.147 518.493 651.147ZM518.493 248.208C408.453 248.208 318.935 337.698 318.935 447.703C318.935 557.708 408.453 647.217 518.493 647.217C628.533 647.217 718.071 557.727 718.071 447.703C718.071 337.698 628.533 248.208 518.493 248.208Z" fill="url(#paint35_linear_199663_55977)"/>
<path d="M518.493 617.878C424.631 617.878 348.283 541.535 348.283 447.722C348.283 353.89 424.651 277.566 518.493 277.566C612.356 277.566 688.704 353.909 688.704 447.722C688.723 541.535 612.356 617.878 518.493 617.878ZM518.493 291.008C432.061 291.008 361.748 361.298 361.748 447.702C361.748 534.107 432.061 604.397 518.493 604.397C604.925 604.397 675.238 534.107 675.238 447.702C675.238 361.298 604.925 291.008 518.493 291.008Z" fill="#FF7B00"/>
<path d="M518.493 584.589C442.991 584.589 381.562 523.181 381.562 447.702C381.562 372.224 442.991 310.815 518.493 310.815C593.996 310.815 655.424 372.224 655.424 447.702C655.424 523.181 593.996 584.589 518.493 584.589ZM518.493 314.746C445.153 314.746 385.494 374.386 385.494 447.702C385.494 521.019 445.153 580.659 518.493 580.659C591.834 580.659 651.493 521.019 651.493 447.702C651.493 374.386 591.834 314.746 518.493 314.746Z" fill="url(#paint36_linear_199663_55977)"/>
<path d="M518.493 551.321C461.35 551.321 414.842 504.847 414.842 447.702C414.842 390.558 461.331 344.084 518.493 344.084C575.656 344.084 622.145 390.558 622.145 447.702C622.145 504.847 575.656 551.321 518.493 551.321ZM518.493 348.034C463.513 348.034 418.773 392.759 418.773 447.722C418.773 502.685 463.513 547.41 518.493 547.41C573.474 547.41 618.213 502.685 618.213 447.722C618.213 392.759 573.494 348.034 518.493 348.034Z" fill="url(#paint37_linear_199663_55977)"/>
<path d="M518.493 518.053C479.69 518.053 448.141 486.494 448.141 447.703C448.141 408.912 479.71 377.373 518.493 377.373C557.296 377.373 588.865 408.932 588.865 447.703C588.865 486.494 557.296 518.053 518.493 518.053ZM518.493 381.303C481.872 381.303 452.072 411.094 452.072 447.703C452.072 484.312 481.872 514.123 518.493 514.123C555.114 514.123 584.934 484.332 584.934 447.703C584.934 411.074 555.134 381.303 518.493 381.303Z" fill="url(#paint38_linear_199663_55977)"/>
<path d="M518.493 484.784C498.05 484.784 481.42 468.159 481.42 447.722C481.42 427.286 498.05 410.661 518.493 410.661C538.936 410.661 555.566 427.286 555.566 447.722C555.586 468.14 538.936 484.784 518.493 484.784ZM518.493 414.572C500.212 414.572 485.351 429.428 485.351 447.703C485.351 465.978 500.212 480.834 518.493 480.834C536.774 480.834 551.635 465.978 551.635 447.703C551.654 429.447 536.774 414.572 518.493 414.572Z" fill="url(#paint39_linear_199663_55977)"/>
<path d="M791.924 826.825C930.179 826.825 1042.26 714.783 1042.26 576.572C1042.26 438.362 930.179 326.32 791.924 326.32C653.669 326.32 541.592 438.362 541.592 576.572C541.592 714.783 653.669 826.825 791.924 826.825Z" fill="url(#paint40_radial_199663_55977)"/>
<path d="M737.624 764.687C866.813 764.687 971.542 659.992 971.542 530.844C971.542 401.695 866.813 297 737.624 297C608.434 297 503.705 401.695 503.705 530.844C503.705 659.992 608.434 764.687 737.624 764.687Z" fill="url(#paint41_linear_199663_55977)"/>
<path d="M710.19 710.264L723.931 696.529L719.881 692.48L702.111 710.264L719.881 728.048L723.931 724L710.19 710.264Z" fill="white"/>
<path d="M734.173 710.264L747.913 696.529L743.864 692.48L726.074 710.264L743.864 728.048L747.913 724L734.173 710.264Z" fill="white"/>
<path d="M758.448 710.264L772.189 696.529L768.139 692.48L750.35 710.264L768.139 728.048L772.189 724L758.448 710.264Z" fill="white"/>
<path d="M764.09 351.24L750.35 364.976L754.399 369.004L772.189 351.24L754.399 333.456L750.35 337.504L764.09 351.24Z" fill="white"/>
<path d="M740.107 351.24L726.367 364.976L730.417 369.004L748.206 351.24L730.417 333.456L726.367 337.504L740.107 351.24Z" fill="white"/>
<path d="M715.852 351.24L702.111 364.976L706.141 369.004L723.931 351.24L706.141 333.456L702.111 337.504L715.852 351.24Z" fill="white"/>
<path d="M1057.43 679.317C1081.42 669.211 1092.67 641.578 1082.56 617.596C1072.46 593.614 1044.81 582.364 1020.82 592.47C996.834 602.575 985.581 630.209 995.69 654.191C1005.8 678.173 1033.44 689.422 1057.43 679.317Z" fill="#FF7B00"/>
<path d="M680.291 85.1466L748.422 17.0371C746.535 17.4105 744.687 17.8624 742.84 18.3537L681.608 79.5657C681.117 81.4129 680.664 83.2601 680.291 85.1466Z" fill="url(#paint42_linear_199663_55977)"/>
<path d="M678.561 102.459C678.561 102.635 678.561 102.832 678.561 103.009L766.29 15.3271C766.113 15.3271 765.916 15.3271 765.739 15.3271C764.462 15.3271 763.204 15.3664 761.965 15.4058L678.659 98.6856C678.6 99.9432 678.561 101.201 678.561 102.459Z" fill="url(#paint43_linear_199663_55977)"/>
<path d="M679.918 117.825L781.092 16.6832C779.874 16.467 778.635 16.2705 777.417 16.1133L679.348 114.151C679.505 115.369 679.701 116.607 679.918 117.825Z" fill="url(#paint44_linear_199663_55977)"/>
<path d="M683.219 130.658L793.928 19.9847C792.866 19.6114 791.785 19.2773 790.704 18.9629L682.197 127.435C682.531 128.516 682.866 129.597 683.219 130.658Z" fill="url(#paint45_linear_199663_55977)"/>
<path d="M688.034 141.996L805.288 24.779C804.345 24.3074 803.382 23.8358 802.419 23.3838L686.639 139.127C687.091 140.089 687.543 141.052 688.034 141.996Z" fill="url(#paint46_linear_199663_55977)"/>
<path d="M694.089 152.096L815.393 30.8317C814.547 30.2422 813.702 29.6723 812.837 29.1221L692.379 149.542C692.929 150.406 693.499 151.251 694.089 152.096Z" fill="url(#paint47_linear_199663_55977)"/>
<path d="M701.245 161.096L824.377 38.0043C823.63 37.3361 822.883 36.668 822.116 36.0195L699.26 158.837C699.908 159.583 700.577 160.35 701.245 161.096Z" fill="url(#paint48_linear_199663_55977)"/>
<path d="M709.481 169.015L832.318 46.218C831.669 45.4516 831.001 44.6852 830.333 43.9385L707.201 167.031C707.948 167.699 708.695 168.367 709.481 169.015Z" fill="url(#paint49_linear_199663_55977)"/>
<path d="M718.759 175.873L839.177 55.4931C838.627 54.6284 838.057 53.7835 837.467 52.9385L716.203 174.183C717.048 174.753 717.894 175.323 718.759 175.873Z" fill="url(#paint50_linear_199663_55977)"/>
<path d="M729.196 181.592L844.878 65.9471C844.426 64.9843 843.974 64.0214 843.482 63.0781L726.307 180.216C727.27 180.688 728.233 181.14 729.196 181.592Z" fill="url(#paint51_linear_199663_55977)"/>
<path d="M740.933 186.013L849.322 77.6592C849.007 76.5785 848.653 75.4977 848.299 74.4365L737.709 184.992C738.77 185.365 739.852 185.699 740.933 186.013Z" fill="url(#paint52_linear_199663_55977)"/>
<path d="M754.26 188.843L852.152 90.9824C851.995 89.7444 851.798 88.5064 851.582 87.2881L750.564 188.273C751.783 188.489 753.022 188.686 754.26 188.843Z" fill="url(#paint53_linear_199663_55977)"/>
<path d="M765.738 189.61C767.095 189.61 768.431 189.571 769.748 189.512L852.799 106.487C852.858 105.151 852.898 103.815 852.898 102.479C852.898 102.361 852.898 102.262 852.898 102.145L765.404 189.61C765.503 189.59 765.621 189.61 765.738 189.61Z" fill="url(#paint54_linear_199663_55977)"/>
<path d="M788.934 186.465L849.773 125.646C850.284 123.799 850.736 121.932 851.129 120.046L783.332 187.821C785.219 187.428 787.087 186.976 788.934 186.465Z" fill="url(#paint55_linear_199663_55977)"/>
<path d="M841.144 146.162L809.438 177.859C822.568 170.234 833.517 159.289 841.144 146.162Z" fill="url(#paint56_linear_199663_55977)"/>
<path d="M487.514 0V76.5003H564.038V0H487.514ZM553.384 65.8496H498.168V10.6507H553.384V65.8496Z" fill="#FF7B00"/>
<path d="M290.02 82.5723L289.98 120.184L322.572 101.398L290.02 82.5723Z" fill="#FFC200"/>
<path d="M335.172 61.6641L335.113 141.132L403.991 101.457L335.172 61.6641ZM345.925 80.3323L382.428 101.437L345.905 122.483L345.925 80.3323Z" fill="#0A7273"/>
<path d="M482.855 879.488L575.322 879.567L529.148 799.49L482.855 879.488ZM504.576 866.971L529.128 824.545L553.621 867.01L504.576 866.971Z" fill="#0A7273"/>
<path d="M657.391 939.404C657.391 895.366 693.088 859.681 737.139 859.681C781.191 859.681 816.888 895.366 816.888 939.404H657.391Z" fill="#FF7B00"/>
<mask id="path-135-inside-1_199663_55977" fill="white">
<path d="M611.621 609.644C594.602 588.241 584.098 562.685 581.285 535.844C578.472 509.002 583.463 481.934 595.696 457.676C607.93 433.418 626.923 412.928 650.547 398.503C674.171 384.078 701.491 376.288 729.445 376.008C757.399 375.727 784.881 382.967 808.811 396.914C832.74 410.862 852.171 430.966 864.925 454.974C877.679 478.981 883.251 505.943 881.017 532.835C878.784 559.728 868.832 585.488 852.279 607.228L847.428 603.789C863.32 582.918 872.873 558.188 875.017 532.371C877.161 506.554 871.812 480.671 859.568 457.624C847.325 434.577 828.671 415.277 805.699 401.887C782.726 388.497 756.343 381.547 729.508 381.817C702.672 382.086 676.444 389.564 653.766 403.412C631.087 417.26 612.853 436.93 601.109 460.218C589.365 483.506 584.574 509.491 587.274 535.259C589.974 561.027 600.059 585.56 616.396 606.107L611.621 609.644Z"/>
</mask>
<path d="M611.621 609.644C594.602 588.241 584.098 562.685 581.285 535.844C578.472 509.002 583.463 481.934 595.696 457.676C607.93 433.418 626.923 412.928 650.547 398.503C674.171 384.078 701.491 376.288 729.445 376.008C757.399 375.727 784.881 382.967 808.811 396.914C832.74 410.862 852.171 430.966 864.925 454.974C877.679 478.981 883.251 505.943 881.017 532.835C878.784 559.728 868.832 585.488 852.279 607.228L847.428 603.789C863.32 582.918 872.873 558.188 875.017 532.371C877.161 506.554 871.812 480.671 859.568 457.624C847.325 434.577 828.671 415.277 805.699 401.887C782.726 388.497 756.343 381.547 729.508 381.817C702.672 382.086 676.444 389.564 653.766 403.412C631.087 417.26 612.853 436.93 601.109 460.218C589.365 483.506 584.574 509.491 587.274 535.259C589.974 561.027 600.059 585.56 616.396 606.107L611.621 609.644Z" fill="#E9E3D5" stroke="#E9E3D5" stroke-width="6" mask="url(#path-135-inside-1_199663_55977)"/>
<path d="M902.471 434.587C784.524 413.946 630.02 425.987 567.511 434.587C546.129 440.315 558.602 443.008 567.511 443.638C717.532 420.62 853.327 434.047 902.471 443.638C930.061 441.693 913.967 436.794 902.471 434.587Z" fill="#E9E3D5" stroke="#E9E3D5" stroke-width="3"/>
<path d="M896.31 448.039C782.744 430.574 633.978 440.762 573.792 448.039C553.204 452.886 565.213 455.164 573.792 455.697C718.24 436.22 848.991 447.582 896.31 455.697C922.875 454.051 907.379 449.906 896.31 448.039Z" fill="#E9E3D5" stroke="#E9E3D5" stroke-width="3"/>
<path d="M873.983 461.549C777.043 445.967 648.682 453.077 596.62 458.579C578.713 462.423 588.946 464.43 596.302 464.953C721.335 450.073 833.308 460.733 873.665 467.923C896.58 466.798 883.425 463.205 873.983 461.549Z" fill="#E9E3D5" stroke="#E9E3D5" stroke-width="3"/>
<path d="M740.842 467.154C741.98 469.497 741.156 471.751 739.719 472.469C738.282 473.187 736.017 472.476 734.878 470.133C733.74 467.79 734.564 465.535 736.001 464.817C737.438 464.1 739.703 464.811 740.842 467.154Z" fill="#E9E3D5" stroke="#E9E3D5" stroke-width="3"/>
<path d="M771 538.444C772.138 540.787 771.314 543.041 769.877 543.759C768.44 544.477 766.175 543.766 765.036 541.423C763.898 539.08 764.722 536.825 766.159 536.107C767.596 535.39 769.861 536.101 771 538.444Z" fill="#E9E3D5" stroke="#E9E3D5" stroke-width="3"/>
<path d="M693.375 523.582C694.513 525.925 693.689 528.179 692.252 528.897C690.815 529.615 688.55 528.903 687.411 526.56C686.273 524.217 687.097 521.963 688.534 521.245C689.971 520.527 692.236 521.239 693.375 523.582Z" fill="#E9E3D5" stroke="#E9E3D5" stroke-width="3"/>
<path d="M734.833 467.933C729.214 467.475 723.228 470.66 718.049 477.476C712.882 484.278 709.039 494.047 707.31 505.009C705.583 515.964 706.101 527.259 708.74 536.79C711.389 546.356 715.931 553.293 721.314 556.595C726.571 559.821 732.49 559.495 738.157 555.44C743.906 551.327 748.971 543.652 752.275 533.672C755.569 523.717 756.835 512.294 755.828 501.535C754.82 490.757 751.614 481.511 746.932 475.432" stroke="#E9E3D5" stroke-width="3"/>
<path d="M769.89 537.051C772.885 532.185 772.839 525.322 769.252 517.534C765.671 509.759 758.885 501.813 750.082 495.22C741.285 488.633 731.158 483.91 721.602 481.906C712.013 479.895 703.849 480.794 698.477 484.125C693.219 487.385 690.781 492.883 691.728 499.855C692.688 506.922 697.081 515.006 704.3 522.563C711.502 530.102 720.921 536.489 730.803 540.526C740.701 544.57 750.268 545.933 757.743 544.513" stroke="#E9E3D5" stroke-width="3"/>
<path d="M694.629 537.517C697.833 542.243 704.056 544.941 712.532 544.717C720.993 544.494 730.889 541.359 740.366 535.81C749.837 530.264 758.152 522.737 763.78 514.655C769.429 506.545 771.876 498.598 771.009 492.274C770.161 486.086 766.165 481.625 759.482 479.721C752.708 477.79 743.643 478.646 733.926 482.338C724.233 486.021 714.695 492.226 707.097 499.798C699.487 507.384 694.434 515.732 692.733 523.248" stroke="#E9E3D5" stroke-width="3"/>
<path d="M747.788 530.608C745.047 525.805 740.655 522.525 735.566 521.343C737.984 520.338 739.983 518.514 741.222 516.18C742.46 513.847 742.861 511.151 742.357 508.551C741.852 505.951 740.472 503.61 738.453 501.927C736.435 500.244 733.903 499.324 731.289 499.324C728.676 499.324 726.143 500.244 724.125 501.927C722.106 503.61 720.727 505.951 720.222 508.551C719.717 511.151 720.118 513.847 721.356 516.18C722.595 518.514 724.594 520.338 727.013 521.343C721.93 522.52 717.531 525.805 714.79 530.608C714.711 530.761 714.693 530.94 714.741 531.107C714.789 531.274 714.898 531.415 715.046 531.502C715.194 531.589 715.37 531.614 715.536 531.573C715.702 531.532 715.847 531.427 715.938 531.28C719.18 525.594 724.923 522.199 731.289 522.199C737.656 522.199 743.399 525.594 746.64 531.28C746.698 531.383 746.782 531.467 746.882 531.526C746.983 531.586 747.097 531.617 747.214 531.617C747.33 531.617 747.445 531.586 747.546 531.526C747.698 531.437 747.809 531.29 747.854 531.118C747.899 530.945 747.876 530.762 747.788 530.608ZM721.336 510.763C721.336 508.767 721.92 506.816 723.014 505.157C724.107 503.497 725.662 502.204 727.48 501.44C729.299 500.676 731.3 500.476 733.231 500.866C735.162 501.255 736.935 502.216 738.327 503.627C739.719 505.039 740.667 506.837 741.051 508.794C741.435 510.751 741.238 512.78 740.484 514.624C739.731 516.468 738.455 518.044 736.819 519.153C735.182 520.262 733.258 520.853 731.289 520.853C728.65 520.85 726.121 519.786 724.255 517.894C722.389 516.003 721.339 513.438 721.336 510.763Z" fill="#E9E3D5" stroke="#E9E3D5" stroke-width="3"/>
<path d="M684.998 650.208H596.566L709.169 380.193H751.932L868.584 650.208H777.566" stroke="#E9E3D5" stroke-width="3"/>
<mask id="path-147-inside-2_199663_55977" fill="white">
<path d="M731.259 686.385C703.984 686.385 681.872 663.967 681.872 636.314C681.872 608.661 703.984 586.243 731.259 586.243C758.535 586.243 780.646 608.661 780.646 636.314C780.646 663.967 758.535 686.385 731.259 686.385ZM731.259 589.257C705.626 589.257 684.845 610.325 684.845 636.314C684.845 662.302 705.626 683.37 731.259 683.37C756.893 683.37 777.673 662.302 777.673 636.314C777.673 610.325 756.893 589.257 731.259 589.257Z"/>
</mask>
<path d="M731.259 686.385C703.984 686.385 681.872 663.967 681.872 636.314C681.872 608.661 703.984 586.243 731.259 586.243C758.535 586.243 780.646 608.661 780.646 636.314C780.646 663.967 758.535 686.385 731.259 686.385ZM731.259 589.257C705.626 589.257 684.845 610.325 684.845 636.314C684.845 662.302 705.626 683.37 731.259 683.37C756.893 683.37 777.673 662.302 777.673 636.314C777.673 610.325 756.893 589.257 731.259 589.257Z" fill="#E9E3D5" stroke="#E9E3D5" stroke-width="6" mask="url(#path-147-inside-2_199663_55977)"/>
<path d="M727.456 644.917C727.456 645.535 726.948 646.036 726.322 646.036C725.696 646.036 725.188 645.535 725.188 644.917C725.188 644.299 725.696 643.798 726.322 643.798C726.948 643.798 727.456 644.299 727.456 644.917Z" fill="#E9E3D5"/>
<path d="M703.076 632.607H703.454M730.669 657.227H724.81H713.66V654.616V653.87L714.227 653.31L714.793 652.751H719.14M730.669 657.227H755.426H757.694L759.206 655.735L759.773 654.616V650.14V639.881V632.98M730.669 657.227L729.724 656.108L729.346 655.175V652.751M759.773 632.98V631.488M759.773 632.98L759.962 632.607M759.773 631.488V629.25V627.199V626.639L759.395 626.079L759.017 625.706L758.639 625.52H755.993H752.969H749.378H748.434H748.15M759.773 631.488H729.346M748.15 625.52H747.867L731.236 625.706H730.102L729.346 626.266V627.199V631.488M748.15 625.52V616.194L747.678 615.448L746.922 615.075H744.465H705.344H704.588L703.832 615.448L703.454 616.008V616.754V632.607M703.454 632.607V641M728.968 649.021H719.14M719.14 649.021H705.155L704.588 648.834L704.21 648.648L703.832 648.274L703.454 647.715V647.342V641M719.14 649.021V652.751M719.14 652.751H729.346M729.346 652.751V642.12V641M729.346 641H703.454M729.346 641V631.488M732.558 648.834H741.819M727.456 644.917C727.456 645.535 726.948 646.036 726.322 646.036C725.696 646.036 725.188 645.535 725.188 644.917C725.188 644.299 725.696 643.798 726.322 643.798C726.948 643.798 727.456 644.299 727.456 644.917Z" stroke="#E9E3D5" stroke-width="3"/>
<path d="M747.113 649.958H756.185" stroke="#E9E3D5" stroke-width="3"/>
<path d="M732.555 653.69H737.279" stroke="#E9E3D5" stroke-width="3"/>
<path d="M746.922 653.883H751.836" stroke="#E9E3D5" stroke-width="3"/>
<path d="M746.726 646.417H742.001V646.044V645.671L742.379 645.298H745.97H746.915L747.104 645.671L746.915 646.044L746.726 646.417Z" fill="#E9E3D5"/>
<path d="M742.946 645.155V644.631L742.568 643.992L740.867 641.381L744.458 637.091M744.458 637.091L747.86 641.381L746.537 643.992L745.97 644.631L745.97 645.298M744.458 637.091V641.194H743.513H744.504H745.495M745.97 645.298H746.915L747.104 645.671L746.915 646.044L746.726 646.417H742.001V646.044V645.671L742.379 645.298H745.97Z" stroke="#E9E3D5" stroke-width="3"/>
<path d="M718.575 621.432L713.283 632.995" stroke="#E9E3D5" stroke-width="3"/>
<path d="M720.471 624.223L723.495 627.207L720.471 630.191" stroke="#E9E3D5" stroke-width="3"/>
<path d="M711.207 624.039L708.183 627.023L711.207 630.007" stroke="#E9E3D5" stroke-width="3"/>
<defs>
<linearGradient id="paint0_linear_199663_55977" x1="227.149" y1="173.193" x2="235.783" y2="260.976" gradientUnits="userSpaceOnUse">
<stop stop-color="#033043"/>
<stop offset="0.5" stop-color="#0A7273"/>
<stop offset="1" stop-color="#FF7B00"/>
</linearGradient>
<linearGradient id="paint1_linear_199663_55977" x1="784.84" y1="984.933" x2="793.386" y2="993.924" gradientUnits="userSpaceOnUse">
<stop stop-color="#033043"/>
<stop offset="0.5" stop-color="#0A7273"/>
<stop offset="1" stop-color="#FF7B00"/>
</linearGradient>
<linearGradient id="paint2_linear_199663_55977" x1="713.328" y1="984.933" x2="721.874" y2="993.924" gradientUnits="userSpaceOnUse">
<stop stop-color="#033043"/>
<stop offset="0.5" stop-color="#0A7273"/>
<stop offset="1" stop-color="#FF7B00"/>
</linearGradient>
<linearGradient id="paint3_linear_199663_55977" x1="820.498" y1="984.933" x2="829.044" y2="993.924" gradientUnits="userSpaceOnUse">
<stop stop-color="#033043"/>
<stop offset="0.5" stop-color="#0A7273"/>
<stop offset="1" stop-color="#FF7B00"/>
</linearGradient>
<linearGradient id="paint4_linear_199663_55977" x1="856.156" y1="984.933" x2="864.702" y2="993.924" gradientUnits="userSpaceOnUse">
<stop stop-color="#033043"/>
<stop offset="0.5" stop-color="#0A7273"/>
<stop offset="1" stop-color="#FF7B00"/>
</linearGradient>
<linearGradient id="paint5_linear_199663_55977" x1="891.795" y1="984.933" x2="900.341" y2="993.924" gradientUnits="userSpaceOnUse">
<stop stop-color="#033043"/>
<stop offset="0.5" stop-color="#0A7273"/>
<stop offset="1" stop-color="#FF7B00"/>
</linearGradient>
<linearGradient id="paint6_linear_199663_55977" x1="998.748" y1="984.933" x2="1007.29" y2="993.924" gradientUnits="userSpaceOnUse">
<stop stop-color="#033043"/>
<stop offset="0.5" stop-color="#0A7273"/>
<stop offset="1" stop-color="#FF7B00"/>
</linearGradient>
<linearGradient id="paint7_linear_199663_55977" x1="154.46" y1="101.025" x2="162.984" y2="109.993" gradientUnits="userSpaceOnUse">
<stop stop-color="#033043"/>
<stop offset="0.5" stop-color="#0A7273"/>
<stop offset="1" stop-color="#FF7B00"/>
</linearGradient>
<linearGradient id="paint8_linear_199663_55977" x1="192.222" y1="101.022" x2="200.771" y2="109.994" gradientUnits="userSpaceOnUse">
<stop stop-color="#033043"/>
<stop offset="0.5" stop-color="#0A7273"/>
<stop offset="1" stop-color="#FF7B00"/>
</linearGradient>
<linearGradient id="paint9_linear_199663_55977" x1="230.003" y1="101.022" x2="238.551" y2="109.992" gradientUnits="userSpaceOnUse">
<stop stop-color="#033043"/>
<stop offset="0.5" stop-color="#0A7273"/>
<stop offset="1" stop-color="#FF7B00"/>
</linearGradient>
<linearGradient id="paint10_linear_199663_55977" x1="60.0088" y1="119.929" x2="68.5329" y2="128.897" gradientUnits="userSpaceOnUse">
<stop stop-color="#033043"/>
<stop offset="0.5" stop-color="#0A7273"/>
<stop offset="1" stop-color="#FF7B00"/>
</linearGradient>
<linearGradient id="paint11_linear_199663_55977" x1="97.7881" y1="119.907" x2="106.336" y2="128.878" gradientUnits="userSpaceOnUse">
<stop stop-color="#033043"/>
<stop offset="0.5" stop-color="#0A7273"/>
<stop offset="1" stop-color="#FF7B00"/>
</linearGradient>
<linearGradient id="paint12_linear_199663_55977" x1="135.55" y1="119.907" x2="144.098" y2="128.877" gradientUnits="userSpaceOnUse">
<stop stop-color="#033043"/>
<stop offset="0.5" stop-color="#0A7273"/>
<stop offset="1" stop-color="#FF7B00"/>
</linearGradient>
<linearGradient id="paint13_linear_199663_55977" x1="173.329" y1="119.905" x2="181.88" y2="128.88" gradientUnits="userSpaceOnUse">
<stop stop-color="#033043"/>
<stop offset="0.5" stop-color="#0A7273"/>
<stop offset="1" stop-color="#FF7B00"/>
</linearGradient>
<linearGradient id="paint14_linear_199663_55977" x1="211.132" y1="119.909" x2="219.656" y2="128.878" gradientUnits="userSpaceOnUse">
<stop stop-color="#033043"/>
<stop offset="0.5" stop-color="#0A7273"/>
<stop offset="1" stop-color="#FF7B00"/>
</linearGradient>
<linearGradient id="paint15_linear_199663_55977" x1="78.8799" y1="138.792" x2="87.4272" y2="147.762" gradientUnits="userSpaceOnUse">
<stop stop-color="#033043"/>
<stop offset="0.5" stop-color="#0A7273"/>
<stop offset="1" stop-color="#FF7B00"/>
</linearGradient>
<linearGradient id="paint16_linear_199663_55977" x1="116.672" y1="138.803" x2="125.214" y2="147.787" gradientUnits="userSpaceOnUse">
<stop stop-color="#033043"/>
<stop offset="0.5" stop-color="#0A7273"/>
<stop offset="1" stop-color="#FF7B00"/>
</linearGradient>
<linearGradient id="paint17_linear_199663_55977" x1="154.46" y1="138.79" x2="163.011" y2="147.763" gradientUnits="userSpaceOnUse">
<stop stop-color="#033043"/>
<stop offset="0.5" stop-color="#0A7273"/>
<stop offset="1" stop-color="#FF7B00"/>
</linearGradient>
<linearGradient id="paint18_linear_199663_55977" x1="192.241" y1="138.791" x2="200.789" y2="147.761" gradientUnits="userSpaceOnUse">
<stop stop-color="#033043"/>
<stop offset="0.5" stop-color="#0A7273"/>
<stop offset="1" stop-color="#FF7B00"/>
</linearGradient>
<linearGradient id="paint19_linear_199663_55977" x1="97.7901" y1="157.697" x2="106.314" y2="166.666" gradientUnits="userSpaceOnUse">
<stop stop-color="#033043"/>
<stop offset="0.5" stop-color="#0A7273"/>
<stop offset="1" stop-color="#FF7B00"/>
</linearGradient>
<linearGradient id="paint20_linear_199663_55977" x1="135.55" y1="157.675" x2="144.099" y2="166.646" gradientUnits="userSpaceOnUse">
<stop stop-color="#033043"/>
<stop offset="0.5" stop-color="#0A7273"/>
<stop offset="1" stop-color="#FF7B00"/>
</linearGradient>
<linearGradient id="paint21_linear_199663_55977" x1="173.351" y1="157.678" x2="181.875" y2="166.646" gradientUnits="userSpaceOnUse">
<stop stop-color="#033043"/>
<stop offset="0.5" stop-color="#0A7273"/>
<stop offset="1" stop-color="#FF7B00"/>
</linearGradient>
<linearGradient id="paint22_linear_199663_55977" x1="116.677" y1="176.58" x2="125.204" y2="185.553" gradientUnits="userSpaceOnUse">
<stop stop-color="#033043"/>
<stop offset="0.5" stop-color="#0A7273"/>
<stop offset="1" stop-color="#FF7B00"/>
</linearGradient>
<linearGradient id="paint23_linear_199663_55977" x1="154.44" y1="176.559" x2="162.989" y2="185.531" gradientUnits="userSpaceOnUse">
<stop stop-color="#033043"/>
<stop offset="0.5" stop-color="#0A7273"/>
<stop offset="1" stop-color="#FF7B00"/>
</linearGradient>
<linearGradient id="paint24_linear_199663_55977" x1="135.569" y1="195.446" x2="144.095" y2="204.415" gradientUnits="userSpaceOnUse">
<stop stop-color="#033043"/>
<stop offset="0.5" stop-color="#0A7273"/>
<stop offset="1" stop-color="#FF7B00"/>
</linearGradient>
<linearGradient id="paint25_linear_199663_55977" x1="59.9893" y1="82.1387" x2="68.537" y2="91.1082" gradientUnits="userSpaceOnUse">
<stop stop-color="#033043"/>
<stop offset="0.5" stop-color="#0A7273"/>
<stop offset="1" stop-color="#FF7B00"/>
</linearGradient>
<linearGradient id="paint26_linear_199663_55977" x1="97.7705" y1="82.1387" x2="106.318" y2="91.1082" gradientUnits="userSpaceOnUse">
<stop stop-color="#033043"/>
<stop offset="0.5" stop-color="#0A7273"/>
<stop offset="1" stop-color="#FF7B00"/>
</linearGradient>
<linearGradient id="paint27_linear_199663_55977" x1="135.55" y1="82.1363" x2="144.102" y2="91.111" gradientUnits="userSpaceOnUse">
<stop stop-color="#033043"/>
<stop offset="0.5" stop-color="#0A7273"/>
<stop offset="1" stop-color="#FF7B00"/>
</linearGradient>
<linearGradient id="paint28_linear_199663_55977" x1="173.351" y1="82.1387" x2="181.898" y2="91.108" gradientUnits="userSpaceOnUse">
<stop stop-color="#033043"/>
<stop offset="0.5" stop-color="#0A7273"/>
<stop offset="1" stop-color="#FF7B00"/>
</linearGradient>
<linearGradient id="paint29_linear_199663_55977" x1="211.112" y1="82.1387" x2="219.66" y2="91.1084" gradientUnits="userSpaceOnUse">
<stop stop-color="#033043"/>
<stop offset="0.5" stop-color="#0A7273"/>
<stop offset="1" stop-color="#FF7B00"/>
</linearGradient>
<linearGradient id="paint30_linear_199663_55977" x1="41.1182" y1="101.044" x2="49.6427" y2="110.013" gradientUnits="userSpaceOnUse">
<stop stop-color="#033043"/>
<stop offset="0.5" stop-color="#0A7273"/>
<stop offset="1" stop-color="#FF7B00"/>
</linearGradient>
<linearGradient id="paint31_linear_199663_55977" x1="78.8953" y1="101.021" x2="87.4477" y2="109.996" gradientUnits="userSpaceOnUse">
<stop stop-color="#033043"/>
<stop offset="0.5" stop-color="#0A7273"/>
<stop offset="1" stop-color="#FF7B00"/>
</linearGradient>
<linearGradient id="paint32_linear_199663_55977" x1="116.659" y1="101.022" x2="125.207" y2="109.993" gradientUnits="userSpaceOnUse">
<stop stop-color="#033043"/>
<stop offset="0.5" stop-color="#0A7273"/>
<stop offset="1" stop-color="#FF7B00"/>
</linearGradient>
<linearGradient id="paint33_linear_199663_55977" x1="180.911" y1="708.546" x2="402.183" y2="941.345" gradientUnits="userSpaceOnUse">
<stop stop-color="#033043"/>
<stop offset="0.5" stop-color="#0A7273"/>
<stop offset="1" stop-color="#FF7B00"/>
</linearGradient>
<linearGradient id="paint34_linear_199663_55977" x1="32.9385" y1="287.287" x2="36.0904" y2="272.183" gradientUnits="userSpaceOnUse">
<stop stop-color="#033043"/>
<stop offset="0.5" stop-color="#0A7273"/>
<stop offset="1" stop-color="#FF7B00"/>
</linearGradient>
<linearGradient id="paint35_linear_199663_55977" x1="292.58" y1="202.06" x2="751" y2="684.358" gradientUnits="userSpaceOnUse">
<stop stop-color="#033043"/>
<stop offset="0.5" stop-color="#0A7273"/>
<stop offset="1" stop-color="#FF7B00"/>
</linearGradient>
<linearGradient id="paint36_linear_199663_55977" x1="366.474" y1="282.407" x2="674.936" y2="606.937" gradientUnits="userSpaceOnUse">
<stop stop-color="#033043"/>
<stop offset="0.5" stop-color="#0A7273"/>
<stop offset="1" stop-color="#FF7B00"/>
</linearGradient>
<linearGradient id="paint37_linear_199663_55977" x1="403.42" y1="322.58" x2="636.914" y2="568.237" gradientUnits="userSpaceOnUse">
<stop stop-color="#033043"/>
<stop offset="0.5" stop-color="#0A7273"/>
<stop offset="1" stop-color="#FF7B00"/>
</linearGradient>
<linearGradient id="paint38_linear_199663_55977" x1="440.387" y1="362.775" x2="598.891" y2="529.536" gradientUnits="userSpaceOnUse">
<stop stop-color="#033043"/>
<stop offset="0.5" stop-color="#0A7273"/>
<stop offset="1" stop-color="#FF7B00"/>
</linearGradient>
<linearGradient id="paint39_linear_199663_55977" x1="477.335" y1="402.97" x2="560.849" y2="490.834" gradientUnits="userSpaceOnUse">
<stop stop-color="#033043"/>
<stop offset="0.5" stop-color="#0A7273"/>
<stop offset="1" stop-color="#FF7B00"/>
</linearGradient>
<radialGradient id="paint40_radial_199663_55977" cx="0" cy="0" r="1" gradientUnits="userSpaceOnUse" gradientTransform="translate(791.928 576.577) scale(250.337 250.257)">
<stop/>
<stop offset="1" stop-color="white"/>
</radialGradient>
<linearGradient id="paint41_linear_199663_55977" x1="477.929" y1="248.47" x2="1004.87" y2="802.863" gradientUnits="userSpaceOnUse">
<stop stop-color="#033043"/>
<stop offset="0.5" stop-color="#0A7273"/>
<stop offset="1" stop-color="#FF7B00"/>
</linearGradient>
<linearGradient id="paint42_linear_199663_55977" x1="676.537" y1="9.96974" x2="753.276" y2="90.7061" gradientUnits="userSpaceOnUse">
<stop stop-color="#033043"/>
<stop offset="0.5" stop-color="#0A7273"/>
<stop offset="1" stop-color="#FF7B00"/>
</linearGradient>
<linearGradient id="paint43_linear_199663_55977" x1="673.727" y1="6.22888" x2="772.517" y2="110.188" gradientUnits="userSpaceOnUse">
<stop stop-color="#033043"/>
<stop offset="0.5" stop-color="#0A7273"/>
<stop offset="1" stop-color="#FF7B00"/>
</linearGradient>
<linearGradient id="paint44_linear_199663_55977" x1="673.742" y1="5.55912" x2="788.341" y2="126.128" gradientUnits="userSpaceOnUse">
<stop stop-color="#033043"/>
<stop offset="0.5" stop-color="#0A7273"/>
<stop offset="1" stop-color="#FF7B00"/>
</linearGradient>
<linearGradient id="paint45_linear_199663_55977" x1="676.041" y1="7.37289" x2="801.888" y2="139.775" gradientUnits="userSpaceOnUse">
<stop stop-color="#033043"/>
<stop offset="0.5" stop-color="#0A7273"/>
<stop offset="1" stop-color="#FF7B00"/>
</linearGradient>
<linearGradient id="paint46_linear_199663_55977" x1="680.101" y1="11.076" x2="813.742" y2="151.678" gradientUnits="userSpaceOnUse">
<stop stop-color="#033043"/>
<stop offset="0.5" stop-color="#0A7273"/>
<stop offset="1" stop-color="#FF7B00"/>
</linearGradient>
<linearGradient id="paint47_linear_199663_55977" x1="685.601" y1="16.3617" x2="824.157" y2="162.134" gradientUnits="userSpaceOnUse">
<stop stop-color="#033043"/>
<stop offset="0.5" stop-color="#0A7273"/>
<stop offset="1" stop-color="#FF7B00"/>
</linearGradient>
<linearGradient id="paint48_linear_199663_55977" x1="692.366" y1="23.0409" x2="833.291" y2="171.306" gradientUnits="userSpaceOnUse">
<stop stop-color="#033043"/>
<stop offset="0.5" stop-color="#0A7273"/>
<stop offset="1" stop-color="#FF7B00"/>
</linearGradient>
<linearGradient id="paint49_linear_199663_55977" x1="700.308" y1="30.9599" x2="841.232" y2="179.225" gradientUnits="userSpaceOnUse">
<stop stop-color="#033043"/>
<stop offset="0.5" stop-color="#0A7273"/>
<stop offset="1" stop-color="#FF7B00"/>
</linearGradient>
<linearGradient id="paint50_linear_199663_55977" x1="709.428" y1="40.1821" x2="847.939" y2="185.908" gradientUnits="userSpaceOnUse">
<stop stop-color="#033043"/>
<stop offset="0.5" stop-color="#0A7273"/>
<stop offset="1" stop-color="#FF7B00"/>
</linearGradient>
<linearGradient id="paint51_linear_199663_55977" x1="719.774" y1="50.7806" x2="853.302" y2="191.288" gradientUnits="userSpaceOnUse">
<stop stop-color="#033043"/>
<stop offset="0.5" stop-color="#0A7273"/>
<stop offset="1" stop-color="#FF7B00"/>
</linearGradient>
<linearGradient id="paint52_linear_199663_55977" x1="731.56" y1="62.8588" x2="857.274" y2="195.121" gradientUnits="userSpaceOnUse">
<stop stop-color="#033043"/>
<stop offset="0.5" stop-color="#0A7273"/>
<stop offset="1" stop-color="#FF7B00"/>
</linearGradient>
<linearGradient id="paint53_linear_199663_55977" x1="744.967" y1="76.7502" x2="859.39" y2="197.133" gradientUnits="userSpaceOnUse">
<stop stop-color="#033043"/>
<stop offset="0.5" stop-color="#0A7273"/>
<stop offset="1" stop-color="#FF7B00"/>
</linearGradient>
<linearGradient id="paint54_linear_199663_55977" x1="760.584" y1="93.0687" x2="859.131" y2="196.75" gradientUnits="userSpaceOnUse">
<stop stop-color="#033043"/>
<stop offset="0.5" stop-color="#0A7273"/>
<stop offset="1" stop-color="#FF7B00"/>
</linearGradient>
<linearGradient id="paint55_linear_199663_55977" x1="779.597" y1="113.013" x2="855.959" y2="193.354" gradientUnits="userSpaceOnUse">
<stop stop-color="#033043"/>
<stop offset="0.5" stop-color="#0A7273"/>
<stop offset="1" stop-color="#FF7B00"/>
</linearGradient>
<linearGradient id="paint56_linear_199663_55977" x1="807.691" y1="142.873" x2="843.403" y2="180.446" gradientUnits="userSpaceOnUse">
<stop stop-color="#033043"/>
<stop offset="0.5" stop-color="#0A7273"/>
<stop offset="1" stop-color="#FF7B00"/>
</linearGradient>
</defs>
</svg>
