<svg width="99" height="84" viewBox="0 0 99 84" fill="none" xmlns="http://www.w3.org/2000/svg">
<path d="M18.3523 61.8299L17.8229 62.9502C13.3977 57.2553 10.3909 50.2409 9.65181 43.1706C8.89853 35.9647 10.2349 28.6979 13.5116 22.1847C16.7883 15.6715 21.8762 10.1688 28.2059 6.29443C34.5357 2.42003 41.8567 0.327483 49.348 0.252111C56.8392 0.176738 64.2037 2.12153 70.6155 5.86778C77.0272 9.61399 82.2324 15.0132 85.6485 21.4592C89.0645 27.9051 90.5568 35.1434 89.9586 42.3629C89.3727 49.4343 86.3601 56.3815 82.0571 62.1598L81.6893 61.3171C85.9474 55.6653 88.2615 49.2519 88.8393 42.2787C89.4213 35.2539 87.9692 28.2115 84.6462 21.9413C81.3233 15.6711 76.2613 10.4214 70.0287 6.7799C63.7963 3.13842 56.6392 1.24872 49.3598 1.32196C42.0804 1.3952 34.9655 3.4285 28.8126 7.19464C22.6596 10.9608 17.7115 16.3113 14.5241 22.647C11.3366 28.9829 10.0361 36.053 10.7691 43.0646C11.4965 50.0236 13.9777 56.2698 18.3523 61.8299Z" fill="#033043" stroke="#033043" stroke-width="0.5"/>
<path d="M94.4844 15.8319C62.6871 10.2538 21.0345 13.5077 4.18284 15.8319C-1.58159 17.3798 1.78099 18.1074 4.18284 18.2778C44.6268 12.0572 81.2355 15.6859 94.4844 18.2778C101.922 17.7521 97.5835 16.4282 94.4844 15.8319Z" fill="#033043" stroke="#033043" stroke-width="0.5"/>
<path d="M92.891 19.4674C62.2748 14.7475 22.1692 17.5008 5.94352 19.4674C0.393207 20.7772 3.63089 21.3929 5.94352 21.537C44.8853 16.2735 80.1342 19.3439 92.891 21.537C100.053 21.0922 95.8751 19.972 92.891 19.4674Z" fill="#033043" stroke="#033043" stroke-width="0.5"/>
<path d="M86.8409 23.1191C60.7067 18.9082 26.1021 20.8294 12.0666 22.3164C7.23912 23.3552 9.99799 23.8976 11.9809 24.0389C45.6886 20.0177 75.8752 22.8985 86.7551 24.8415C92.9325 24.5375 89.3862 23.5665 86.8409 23.1191Z" fill="#033043" stroke="#033043" stroke-width="0.5"/>
<path d="M52.434 24.5658C52.767 25.2527 52.546 25.9682 52.0609 26.2111C51.5759 26.454 50.8829 26.1961 50.55 25.5092C50.217 24.8224 50.438 24.1069 50.9231 23.864C51.4081 23.6211 52.1011 23.879 52.434 24.5658Z" fill="#033043" stroke="#033043" stroke-width="0.5"/>
<path d="M60.5649 43.8295C60.8979 44.5163 60.6768 45.2319 60.1918 45.4748C59.7067 45.7176 59.0138 45.4597 58.6808 44.7729C58.3479 44.0861 58.5689 43.3705 59.0539 43.1277C59.539 42.8848 60.2319 43.1427 60.5649 43.8295Z" fill="#033043" stroke="#033043" stroke-width="0.5"/>
<path d="M39.6391 39.8139C39.9721 40.5007 39.7511 41.2163 39.266 41.4591C38.781 41.702 38.088 41.4441 37.755 40.7573C37.4221 40.0705 37.6431 39.3549 38.1282 39.112C38.6132 38.8692 39.3062 39.1271 39.6391 39.8139Z" fill="#033043" stroke="#033043" stroke-width="0.5"/>
<path d="M50.6889 24.6903C49.1026 24.5608 47.4434 25.4639 46.0293 27.3298C44.6171 29.1933 43.5735 31.8591 43.1045 34.8403C42.6357 37.8202 42.7757 40.8953 43.4937 43.4946C44.2133 46.1 45.4544 48.0171 46.9518 48.9381C48.4282 49.8463 50.0907 49.7474 51.6627 48.6201C53.2483 47.4829 54.6288 45.3754 55.5253 42.6599C56.4205 39.9486 56.7639 36.8399 56.4906 33.9115C56.217 30.98 55.3462 28.4502 54.0606 26.7768" stroke="#033043" stroke-width="0.5"/>
<path d="M60.2587 43.6061C61.1032 42.2304 61.0753 40.3159 60.0955 38.1834C59.1167 36.053 57.2677 33.8865 54.8791 32.0935C52.4916 30.3013 49.7412 29.0146 47.1408 28.468C44.5349 27.9202 42.2894 28.1586 40.7951 29.0873C39.3199 30.0042 38.6414 31.5538 38.904 33.4919C39.1688 35.4458 40.3756 37.6597 42.3354 39.7161C44.2923 41.7696 46.85 43.5079 49.5335 44.6069C52.2198 45.707 54.8297 46.0839 56.8824 45.6929" stroke="#033043" stroke-width="0.5"/>
<path d="M39.7118 43.7384C40.6154 45.0744 42.3535 45.813 44.6686 45.7518C46.9813 45.6905 49.6741 44.833 52.2455 43.3235C54.8158 41.8147 57.075 39.7658 58.6066 37.5612C60.1416 35.3519 60.8233 33.1644 60.5822 31.4014C60.3443 29.6608 59.2175 28.4099 57.3644 27.8806C55.4961 27.347 53.017 27.5873 50.3791 28.5921C47.7451 29.5954 45.1555 31.2843 43.0924 33.3458C41.0271 35.4093 39.6447 37.6906 39.1777 39.7594" stroke="#033043" stroke-width="0.5"/>
<path d="M54.17 41.7823C53.4312 40.4842 52.247 39.598 50.875 39.2785C51.527 39.007 52.066 38.5139 52.3999 37.8834C52.7338 37.2529 52.8419 36.5241 52.7058 35.8216C52.5697 35.119 52.1978 34.4863 51.6536 34.0315C51.1094 33.5768 50.4267 33.3281 49.7221 33.3281C49.0176 33.3281 48.3349 33.5768 47.7907 34.0315C47.2465 34.4863 46.8746 35.119 46.7385 35.8216C46.6024 36.5241 46.7105 37.2529 47.0444 37.8834C47.3783 38.5139 47.9173 39.007 48.5693 39.2785C47.199 39.5966 46.0131 40.4842 45.2743 41.7823C45.2529 41.8238 45.2481 41.8721 45.261 41.9172C45.2738 41.9622 45.3033 42.0004 45.3433 42.0239C45.3832 42.0474 45.4305 42.0543 45.4753 42.0431C45.5202 42.0319 45.559 42.0036 45.5837 41.964C46.4576 40.4274 48.0058 39.5098 49.7221 39.5098C51.4385 39.5098 52.9867 40.4274 53.8605 41.964C53.8762 41.9917 53.8988 42.0146 53.9259 42.0305C53.9531 42.0465 53.9839 42.0549 54.0153 42.0549C54.0467 42.055 54.0776 42.0466 54.1047 42.0304C54.1457 42.0063 54.1756 41.9666 54.1879 41.9201C54.2001 41.8735 54.1937 41.824 54.17 41.7823ZM47.0389 36.4193C47.0389 35.8799 47.1963 35.3527 47.4911 34.9043C47.786 34.4558 48.205 34.1063 48.6953 33.8999C49.1856 33.6935 49.7251 33.6395 50.2456 33.7447C50.7661 33.85 51.2442 34.1097 51.6195 34.491C51.9947 34.8724 52.2503 35.3583 52.3538 35.8873C52.4573 36.4163 52.4042 36.9645 52.2011 37.4628C51.998 37.9611 51.6541 38.387 51.2129 38.6866C50.7716 38.9863 50.2528 39.1462 49.7221 39.1462C49.0108 39.1454 48.3288 38.8578 47.8257 38.3466C47.3227 37.8354 47.0398 37.1422 47.0389 36.4193Z" fill="#033043" stroke="#033043" stroke-width="0.5"/>
<mask id="path-12-inside-1_199764_36741" fill="white">
<path d="M49.8342 83.8789C42.481 83.8789 36.52 77.8207 36.52 70.3476C36.52 62.8745 42.481 56.8164 49.8342 56.8164C57.1875 56.8164 63.1484 62.8745 63.1484 70.3476C63.1484 77.8207 57.1875 83.8789 49.8342 83.8789ZM49.8342 57.631C42.9236 57.631 37.3215 63.3244 37.3215 70.3476C37.3215 77.3709 42.9236 83.0643 49.8342 83.0643C56.7448 83.0643 62.3469 77.3709 62.3469 70.3476C62.3469 63.3244 56.7448 57.631 49.8342 57.631Z"/>
</mask>
<path d="M49.8342 83.8789C42.481 83.8789 36.52 77.8207 36.52 70.3476C36.52 62.8745 42.481 56.8164 49.8342 56.8164C57.1875 56.8164 63.1484 62.8745 63.1484 70.3476C63.1484 77.8207 57.1875 83.8789 49.8342 83.8789ZM49.8342 57.631C42.9236 57.631 37.3215 63.3244 37.3215 70.3476C37.3215 77.3709 42.9236 83.0643 49.8342 83.0643C56.7448 83.0643 62.3469 77.3709 62.3469 70.3476C62.3469 63.3244 56.7448 57.631 49.8342 57.631Z" fill="#033043" stroke="#033043" stroke-width="2" mask="url(#path-12-inside-1_199764_36741)"/>
<path d="M48.8069 72.672C48.8069 72.839 48.67 72.9744 48.5012 72.9744C48.3323 72.9744 48.1955 72.839 48.1955 72.672C48.1955 72.505 48.3323 72.3696 48.5012 72.3696C48.67 72.3696 48.8069 72.505 48.8069 72.672Z" fill="#033043"/>
<path d="M42.2344 69.3454H42.3363M49.673 75.9987H48.0936H45.0875V75.293V75.0914L45.2404 74.9402L45.3932 74.789H46.5651M49.673 75.9987H56.3474H56.9588L57.3664 75.5954L57.5192 75.293V74.0833V71.3111V69.4462M49.673 75.9987L49.4182 75.6962L49.3163 75.4442V74.789M57.5192 69.4462V69.0429M57.5192 69.4462L57.5702 69.3454M57.5192 69.0429V68.4381V67.8837V67.7325L57.4173 67.5812L57.3154 67.4804L57.2135 67.43H56.5002H55.685H54.717H54.4622H54.3858M57.5192 69.0429H49.3163M54.3858 67.43H54.3094L49.8258 67.4804H49.5201L49.3163 67.6316V67.8837V69.0429M54.3858 67.43V64.9098L54.2584 64.7082L54.0546 64.6074H53.3923H42.8458H42.642L42.4382 64.7082L42.3363 64.8594V65.0611V69.3454M42.3363 69.3454V71.6135M49.2144 73.7809H46.5651M46.5651 73.7809H42.7948L42.642 73.7305L42.5401 73.6801L42.4382 73.5793L42.3363 73.4281V73.3273V71.6135M46.5651 73.7809V74.789M46.5651 74.789H49.3163M49.3163 74.789V71.916V71.6135M49.3163 71.6135H42.3363M49.3163 71.6135V69.0429M50.1825 73.7305H52.679M48.8069 72.672C48.8069 72.839 48.67 72.9744 48.5012 72.9744C48.3323 72.9744 48.1955 72.839 48.1955 72.672C48.1955 72.505 48.3323 72.3696 48.5012 72.3696C48.67 72.3696 48.8069 72.505 48.8069 72.672Z" stroke="#033043" stroke-width="0.5"/>
<path d="M54.1055 74.0332H56.551" stroke="#033043" stroke-width="0.5"/>
<path d="M50.1816 75.043H51.4554" stroke="#033043" stroke-width="0.5"/>
<path d="M54.0547 75.0938H55.3794" stroke="#033043" stroke-width="0.5"/>
<path d="M54.0013 73.0769H52.7276V72.9761V72.8753L52.8295 72.7745H53.7975H54.0523L54.1032 72.8753L54.0523 72.9761L54.0013 73.0769Z" fill="#033043"/>
<path d="M52.9823 72.736V72.5944L52.8804 72.4216L52.4219 71.7159L53.3899 70.5566M53.3899 70.5566L54.307 71.7159L53.9504 72.4216L53.7975 72.5944V72.7745M53.3899 70.5566V71.6655H53.1352H53.4024H53.6696M53.7975 72.7745H54.0523L54.1032 72.8753L54.0523 72.9761L54.0013 73.0769H52.7276V72.9761V72.8753L52.8295 72.7745H53.7975Z" stroke="#033043" stroke-width="0.5"/>
<path d="M46.4129 66.3242L44.9863 69.4492" stroke="#033043" stroke-width="0.5"/>
<path d="M46.9238 67.0801L47.739 67.8865L46.9238 68.693" stroke="#033043" stroke-width="0.5"/>
<path d="M44.4277 67.0293L43.6125 67.8358L44.4277 68.6422" stroke="#033043" stroke-width="0.5"/>
<path d="M36.9652 74.1023H13.125L43.4814 1.13281L55.01 1.13281L86.4579 74.1023H61.9206" stroke="#033043"/>
</svg>
