<svg width="296" height="296" viewBox="0 0 296 296" fill="none" xmlns="http://www.w3.org/2000/svg">
<path d="M278.832 141.074C275.907 165.819 264.624 194.59 242.045 207.81C207.946 227.784 210.799 258.503 144.247 271.864C134.542 273.86 124.648 274.793 114.741 274.647C109.892 274.563 105.054 274.167 100.255 273.463C57.9627 267.282 29.4934 237.883 19.0505 202.423C5.32793 155.696 32.7553 125.161 50.9474 106.75C69.1396 88.3383 82.4537 30.9735 147.775 17.3575C157.741 15.2384 167.917 14.2731 178.103 14.4804C201.345 15.0724 226.694 22.6796 244.235 38.6103C245.558 39.7943 246.84 41.0316 248.083 42.3221C272.462 67.3223 282.822 107.336 278.832 141.074Z" fill="#0A7273"/>
<path opacity="0.7" d="M278.832 141.074C275.907 165.819 264.624 194.59 242.045 207.81C207.946 227.784 210.799 258.503 144.247 271.864C134.542 273.86 124.648 274.793 114.741 274.647C109.892 274.563 105.054 274.167 100.255 273.463C57.9627 267.282 29.4934 237.883 19.0505 202.423C5.32793 155.696 32.7553 125.161 50.9474 106.75C69.1396 88.3383 82.4537 30.9735 147.775 17.3575C157.741 15.2384 167.917 14.2731 178.103 14.4804C201.345 15.0724 226.694 22.6796 244.235 38.6103C245.558 39.7943 246.84 41.0316 248.083 42.3221C272.462 67.3223 282.822 107.336 278.832 141.074Z" fill="white"/>
<path d="M283.568 167.79H274.564C274.485 167.79 274.41 167.759 274.354 167.704C274.299 167.648 274.268 167.573 274.268 167.494C274.268 167.416 274.299 167.341 274.354 167.285C274.41 167.23 274.485 167.198 274.564 167.198H283.568C283.646 167.198 283.722 167.23 283.777 167.285C283.833 167.341 283.864 167.416 283.864 167.494C283.862 167.573 283.831 167.647 283.776 167.702C283.72 167.757 283.646 167.789 283.568 167.79Z" fill="#263238"/>
<path d="M270.544 167.79H13.379C13.3005 167.79 13.2252 167.759 13.1697 167.704C13.1142 167.648 13.083 167.573 13.083 167.494C13.083 167.416 13.1142 167.341 13.1697 167.285C13.2252 167.23 13.3005 167.198 13.379 167.198H270.544C270.622 167.198 270.698 167.23 270.753 167.285C270.809 167.341 270.84 167.416 270.84 167.494C270.838 167.573 270.807 167.647 270.751 167.702C270.696 167.757 270.622 167.789 270.544 167.79Z" fill="#263238"/>
<path d="M68.0265 53.28H230.88C232.136 53.28 233.34 53.779 234.229 54.6672C235.117 55.5553 235.616 56.76 235.616 58.016V171.331H63.3438V58.016C63.3437 56.7691 63.8353 55.5725 64.712 54.6859C65.5887 53.7992 66.7797 53.2941 68.0265 53.28Z" fill="#263238"/>
<path d="M235.616 171.627H63.3439C63.2653 171.627 63.1901 171.595 63.1345 171.54C63.079 171.484 63.0479 171.409 63.0479 171.331V58.0159C63.0479 56.6861 63.5761 55.4107 64.5165 54.4703C65.4568 53.53 66.7322 53.0017 68.0621 53.0017H230.88C232.21 53.0017 233.486 53.5298 234.428 54.47C235.369 55.4102 235.898 56.6855 235.9 58.0159V171.331C235.9 171.407 235.871 171.481 235.818 171.536C235.765 171.591 235.692 171.624 235.616 171.627ZM63.6162 171.035H235.296V58.0159C235.298 57.4344 235.185 56.8583 234.964 56.3205C234.743 55.7826 234.418 55.2936 234.008 54.8813C233.597 54.469 233.11 54.1415 232.574 53.9175C232.037 53.6936 231.461 53.5775 230.88 53.5759H68.0266C67.4446 53.5767 66.8684 53.6922 66.3311 53.9159C65.7937 54.1395 65.3057 54.4668 64.895 54.8792C64.4843 55.2916 64.1589 55.7809 63.9374 56.3191C63.716 56.8573 63.6028 57.4339 63.6043 58.0159L63.6162 171.035Z" fill="#263238"/>
<path d="M261.445 223.521H37.4614L63.3081 171.331H235.604L261.445 223.521Z" fill="white"/>
<path d="M261.445 223.817H37.4616C37.4107 223.817 37.3608 223.803 37.3164 223.778C37.272 223.754 37.2344 223.718 37.207 223.675C37.1821 223.632 37.1689 223.583 37.1689 223.533C37.1689 223.483 37.1821 223.434 37.207 223.391L63.0537 171.2C63.0781 171.151 63.1161 171.109 63.1632 171.079C63.2103 171.05 63.2647 171.035 63.3201 171.035H235.616C235.67 171.035 235.724 171.051 235.77 171.08C235.816 171.109 235.853 171.151 235.876 171.2L261.723 223.391C261.748 223.434 261.761 223.483 261.761 223.533C261.761 223.583 261.748 223.632 261.723 223.675C261.694 223.722 261.653 223.76 261.604 223.785C261.555 223.81 261.5 223.821 261.445 223.817ZM37.9352 223.225H260.971L235.42 171.627H63.4918L37.9352 223.225Z" fill="#263238"/>
<path d="M225.422 62.752H74V162.113H225.422V62.752Z" fill="#064445"/>
<path d="M225.167 162.279H73.7394C73.6609 162.279 73.5856 162.248 73.5301 162.192C73.4745 162.137 73.4434 162.061 73.4434 161.983V62.6275C73.4434 62.549 73.4745 62.4737 73.5301 62.4182C73.5856 62.3627 73.6609 62.3315 73.7394 62.3315H225.167C225.246 62.3315 225.321 62.3627 225.376 62.4182C225.432 62.4737 225.463 62.549 225.463 62.6275V161.983C225.463 162.061 225.432 162.137 225.376 162.192C225.321 162.248 225.246 162.279 225.167 162.279ZM74.0354 161.687H224.871V62.9235H74.0354V161.687Z" fill="#263238"/>
<path d="M142.263 187.853L142.565 181.495H133.46L132.856 187.853H142.263Z" fill="#263238"/>
<path d="M142.269 188.149H132.856C132.815 188.149 132.775 188.14 132.737 188.124C132.7 188.108 132.666 188.084 132.637 188.055C132.61 188.023 132.59 187.986 132.578 187.947C132.566 187.907 132.562 187.865 132.566 187.824L133.158 181.466C133.166 181.392 133.2 181.325 133.255 181.275C133.31 181.226 133.381 181.199 133.454 181.199H142.559C142.599 181.198 142.639 181.206 142.675 181.221C142.712 181.236 142.745 181.259 142.772 181.288C142.801 181.316 142.824 181.351 142.838 181.388C142.852 181.426 142.858 181.467 142.855 181.507L142.553 187.865C142.551 187.94 142.52 188.01 142.467 188.063C142.414 188.116 142.344 188.146 142.269 188.149ZM133.182 187.557H141.985L142.257 181.791H133.733L133.182 187.557Z" fill="white"/>
<path d="M161.083 187.853L160.769 181.495H151.67L151.676 187.853H161.083Z" fill="#263238"/>
<path d="M161.083 188.149H151.676C151.598 188.149 151.522 188.118 151.467 188.063C151.411 188.007 151.38 187.932 151.38 187.853V181.495C151.378 181.456 151.385 181.417 151.399 181.38C151.414 181.343 151.435 181.31 151.463 181.282C151.491 181.254 151.524 181.233 151.561 181.218C151.598 181.204 151.637 181.198 151.676 181.199H160.781C160.856 181.199 160.928 181.228 160.982 181.28C161.036 181.332 161.068 181.403 161.071 181.477L161.385 187.836C161.388 187.876 161.382 187.916 161.368 187.954C161.353 187.992 161.331 188.026 161.302 188.055C161.275 188.085 161.241 188.11 161.203 188.126C161.165 188.142 161.124 188.15 161.083 188.149ZM151.972 187.557H160.769L160.491 181.791H151.966L151.972 187.557Z" fill="white"/>
<path d="M210.083 194.65H219.815L217.53 187.854H208.123L210.083 194.65Z" fill="#263238"/>
<path d="M219.815 194.946H210.083C210.019 194.947 209.956 194.926 209.904 194.888C209.853 194.849 209.816 194.794 209.799 194.732L207.839 187.936C207.828 187.892 207.826 187.846 207.834 187.801C207.842 187.756 207.86 187.713 207.887 187.676C207.914 187.639 207.95 187.609 207.991 187.588C208.032 187.567 208.077 187.557 208.123 187.557H217.53C217.593 187.557 217.653 187.577 217.704 187.613C217.755 187.649 217.794 187.7 217.815 187.759L220.1 194.555C220.113 194.6 220.117 194.649 220.11 194.696C220.103 194.743 220.085 194.788 220.058 194.827C220.03 194.865 219.993 194.895 219.951 194.916C219.909 194.936 219.862 194.946 219.815 194.946ZM210.308 194.354H219.407L217.317 188.149H208.514L210.308 194.354Z" fill="white"/>
<path d="M132.857 187.853L133.46 181.495H124.355L123.45 187.853H132.857Z" fill="#263238"/>
<path d="M132.856 188.149H123.449C123.407 188.149 123.365 188.14 123.326 188.122C123.288 188.105 123.253 188.08 123.225 188.049C123.197 188.016 123.177 187.978 123.166 187.938C123.154 187.897 123.152 187.854 123.159 187.812L124.065 181.454C124.074 181.383 124.108 181.318 124.162 181.271C124.215 181.224 124.284 181.199 124.355 181.199H133.46C133.501 181.199 133.542 181.208 133.579 181.224C133.617 181.24 133.651 181.264 133.679 181.294C133.708 181.324 133.729 181.359 133.742 181.398C133.756 181.437 133.76 181.478 133.756 181.519L133.164 187.883C133.157 187.958 133.121 188.028 133.063 188.077C133.006 188.127 132.932 188.153 132.856 188.149ZM123.793 187.557H132.608L133.152 181.791H124.616L123.793 187.557Z" fill="white"/>
<path d="M114.043 187.853L115.256 181.495H106.151L104.636 187.853H114.043Z" fill="#263238"/>
<path d="M114.042 188.149H104.636C104.59 188.15 104.545 188.14 104.504 188.12C104.463 188.101 104.427 188.072 104.399 188.037C104.371 188.001 104.353 187.96 104.343 187.916C104.334 187.872 104.335 187.826 104.345 187.782L105.861 181.424C105.877 181.36 105.914 181.302 105.967 181.261C106.02 181.221 106.084 181.199 106.151 181.199H115.256C115.299 181.199 115.342 181.208 115.381 181.227C115.42 181.245 115.454 181.272 115.481 181.306C115.509 181.339 115.529 181.378 115.541 181.42C115.552 181.462 115.554 181.506 115.546 181.549L114.333 187.907C114.321 187.975 114.286 188.037 114.232 188.082C114.179 188.126 114.112 188.15 114.042 188.149ZM105.009 187.557H113.8L114.895 181.791H106.382L105.009 187.557Z" fill="white"/>
<path d="M198.716 187.853L197.189 181.495H188.084L189.309 187.853H198.716Z" fill="#263238"/>
<path d="M198.717 188.149H189.31C189.24 188.15 189.173 188.126 189.12 188.082C189.066 188.037 189.031 187.975 189.02 187.907L187.794 181.549C187.785 181.506 187.786 181.462 187.797 181.419C187.807 181.377 187.827 181.338 187.855 181.304C187.883 181.27 187.918 181.244 187.958 181.225C187.997 181.207 188.041 181.198 188.084 181.199H197.189C197.255 181.198 197.32 181.22 197.372 181.261C197.424 181.302 197.46 181.36 197.473 181.424L199.007 187.782C199.017 187.826 199.016 187.872 199.006 187.916C198.996 187.96 198.976 188.002 198.947 188.037C198.92 188.072 198.885 188.101 198.845 188.12C198.805 188.14 198.761 188.15 198.717 188.149ZM189.552 187.557H198.32L196.935 181.791H188.439L189.552 187.557Z" fill="white"/>
<path d="M208.123 187.853L206.288 181.495H197.189L198.716 187.853H208.123Z" fill="#263238"/>
<path d="M208.123 188.149H198.717C198.65 188.149 198.586 188.127 198.533 188.086C198.481 188.045 198.443 187.989 198.427 187.924L196.899 181.56C196.89 181.518 196.89 181.473 196.899 181.43C196.908 181.387 196.926 181.347 196.952 181.312C196.981 181.276 197.017 181.248 197.058 181.228C197.099 181.209 197.144 181.199 197.189 181.199H206.288C206.353 181.198 206.417 181.218 206.469 181.257C206.522 181.295 206.56 181.35 206.578 181.412L208.384 187.77C208.397 187.815 208.399 187.861 208.391 187.906C208.383 187.952 208.364 187.994 208.337 188.031C208.311 188.064 208.279 188.092 208.243 188.113C208.206 188.133 208.165 188.146 208.123 188.149ZM198.947 187.557H207.733L206.069 181.791H197.562L198.947 187.557Z" fill="white"/>
<path d="M104.636 187.853L106.151 181.495H97.0465L95.2231 187.853H104.636Z" fill="#263238"/>
<path d="M104.636 188.149H95.2231C95.1772 188.149 95.132 188.138 95.091 188.117C95.05 188.097 95.0142 188.067 94.9863 188.031C94.9599 187.994 94.942 187.951 94.9338 187.906C94.9256 187.861 94.9273 187.815 94.9389 187.77L96.7623 181.412C96.7793 181.35 96.8165 181.296 96.8679 181.257C96.9194 181.219 96.9821 181.198 97.0464 181.199H106.151C106.196 181.2 106.239 181.21 106.279 181.23C106.319 181.249 106.354 181.277 106.382 181.312C106.409 181.346 106.428 181.387 106.438 181.43C106.447 181.473 106.446 181.518 106.436 181.56L104.92 187.918C104.906 187.984 104.871 188.042 104.819 188.084C104.767 188.126 104.703 188.149 104.636 188.149ZM95.6197 187.557H104.399L105.773 181.791H97.2714L95.6197 187.557Z" fill="white"/>
<path d="M170.49 187.853L169.874 181.495H160.769L161.083 187.853H170.49Z" fill="#263238"/>
<path d="M170.496 188.149H161.083C161.006 188.149 160.933 188.12 160.878 188.067C160.823 188.014 160.79 187.942 160.787 187.865L160.479 181.507C160.477 181.467 160.482 181.427 160.495 181.39C160.508 181.352 160.529 181.318 160.556 181.288C160.585 181.259 160.619 181.237 160.657 181.221C160.694 181.206 160.735 181.199 160.775 181.199H169.904C169.978 181.198 170.05 181.224 170.105 181.274C170.16 181.323 170.194 181.392 170.2 181.466L170.792 187.824C170.795 187.865 170.79 187.906 170.776 187.945C170.763 187.984 170.742 188.02 170.714 188.051C170.686 188.081 170.653 188.106 170.615 188.123C170.578 188.14 170.537 188.149 170.496 188.149ZM161.373 187.557H170.17L169.614 181.791H161.083L161.373 187.557Z" fill="white"/>
<path d="M217.53 187.853L215.393 181.495H206.288L208.123 187.853H217.53Z" fill="#263238"/>
<path d="M217.53 188.149H208.123C208.059 188.149 207.997 188.129 207.946 188.09C207.895 188.052 207.857 187.998 207.839 187.936L206.016 181.572C206.005 181.529 206.005 181.483 206.014 181.439C206.023 181.395 206.042 181.354 206.069 181.318C206.096 181.282 206.131 181.253 206.171 181.233C206.211 181.212 206.255 181.201 206.3 181.199H215.405C215.468 181.198 215.529 181.218 215.58 181.254C215.631 181.29 215.669 181.341 215.689 181.401L217.826 187.759C217.84 187.803 217.843 187.85 217.836 187.897C217.829 187.943 217.811 187.987 217.785 188.025C217.756 188.065 217.717 188.097 217.673 188.119C217.629 188.141 217.58 188.151 217.53 188.149ZM208.348 187.557H217.122L215.18 181.791H206.685L208.348 187.557Z" fill="white"/>
<path d="M189.309 187.853L188.084 181.495H178.979L179.897 187.853H189.309Z" fill="#263238"/>
<path d="M189.309 188.149H179.897C179.826 188.149 179.758 188.123 179.704 188.076C179.651 188.029 179.616 187.965 179.607 187.895L178.689 181.537C178.682 181.495 178.684 181.452 178.696 181.411C178.707 181.37 178.728 181.332 178.755 181.3C178.783 181.268 178.817 181.242 178.856 181.225C178.895 181.207 178.937 181.199 178.979 181.199H188.084C188.152 181.199 188.218 181.223 188.271 181.266C188.324 181.309 188.36 181.369 188.374 181.436L189.6 187.794C189.607 187.837 189.606 187.881 189.595 187.923C189.584 187.965 189.564 188.005 189.536 188.038C189.509 188.072 189.474 188.1 189.435 188.119C189.396 188.138 189.353 188.148 189.309 188.149ZM180.157 187.557H188.948L187.841 181.791H179.322L180.157 187.557Z" fill="white"/>
<path d="M179.897 187.853L178.979 181.495H169.874L170.49 187.853H179.897Z" fill="#263238"/>
<path d="M179.897 188.149H170.496C170.423 188.148 170.352 188.121 170.298 188.072C170.243 188.023 170.209 187.956 170.2 187.883L169.608 181.519C169.603 181.478 169.606 181.437 169.618 181.399C169.631 181.36 169.651 181.324 169.679 181.294C169.707 181.264 169.741 181.241 169.779 181.224C169.817 181.208 169.857 181.2 169.898 181.199H179.003C179.074 181.199 179.142 181.225 179.196 181.27C179.25 181.315 179.286 181.378 179.299 181.448L180.217 187.812C180.223 187.854 180.22 187.897 180.208 187.938C180.195 187.979 180.174 188.017 180.145 188.049C180.114 188.083 180.076 188.11 180.033 188.127C179.99 188.145 179.943 188.152 179.897 188.149ZM170.762 187.557H179.559L178.725 181.791H170.2L170.762 187.557Z" fill="white"/>
<path d="M151.676 187.853L151.67 181.495H142.565L142.263 187.853H151.676Z" fill="#263238"/>
<path d="M151.676 188.149H142.269C142.228 188.149 142.188 188.14 142.15 188.124C142.113 188.108 142.079 188.084 142.05 188.055C142.023 188.025 142.003 187.991 141.989 187.953C141.976 187.915 141.971 187.875 141.973 187.836L142.269 181.477C142.274 181.402 142.307 181.331 142.362 181.28C142.417 181.228 142.49 181.199 142.565 181.199H151.67C151.749 181.199 151.824 181.23 151.88 181.286C151.935 181.341 151.966 181.417 151.966 181.495V187.853C151.965 187.931 151.933 188.006 151.877 188.061C151.852 188.088 151.821 188.11 151.786 188.126C151.751 188.141 151.714 188.149 151.676 188.149ZM142.577 187.557H151.38V181.791H142.849L142.577 187.557Z" fill="white"/>
<path d="M85.8163 187.854H76.4094L73.8105 194.65H83.543L85.8163 187.854Z" fill="#263238"/>
<path d="M83.5426 194.946H73.8101C73.7628 194.945 73.7161 194.934 73.6739 194.912C73.6318 194.891 73.5953 194.86 73.5674 194.821C73.5415 194.78 73.5249 194.734 73.5188 194.686C73.5126 194.638 73.5171 194.589 73.5319 194.543L76.1308 187.747C76.1531 187.691 76.1915 187.643 76.2411 187.61C76.2906 187.576 76.3491 187.558 76.409 187.557H85.8396C85.8869 187.558 85.9334 187.57 85.9755 187.591C86.0176 187.613 86.0541 187.644 86.0823 187.682C86.1094 187.72 86.1272 187.764 86.1344 187.81C86.1416 187.856 86.1379 187.904 86.1237 187.948L83.8268 194.768C83.8029 194.823 83.763 194.869 83.7123 194.901C83.6615 194.933 83.6024 194.948 83.5426 194.946ZM74.2423 194.354H83.3295L85.4074 188.149H76.6103L74.2423 194.354Z" fill="white"/>
<path d="M87.9413 181.495H78.8364L76.4092 187.853H85.8161L87.9413 181.495Z" fill="#263238"/>
<path d="M85.8398 188.149H76.4093C76.3612 188.15 76.3138 188.138 76.2715 188.115C76.2291 188.092 76.1931 188.059 76.1666 188.019C76.1381 187.981 76.1199 187.935 76.1137 187.888C76.1075 187.84 76.1135 187.792 76.131 187.747L78.5642 181.389C78.584 181.333 78.6209 181.284 78.6698 181.25C78.7187 181.216 78.777 181.198 78.8365 181.199H87.9414C87.9885 181.198 88.0353 181.208 88.0777 181.228C88.1201 181.249 88.1569 181.279 88.1848 181.317C88.2128 181.355 88.2311 181.399 88.2382 181.446C88.2453 181.492 88.241 181.54 88.2256 181.584L86.1003 187.948C86.081 188.003 86.0462 188.052 85.9999 188.087C85.9537 188.123 85.8981 188.145 85.8398 188.149ZM76.8651 187.557H85.6267L87.5566 181.791H79.0437L76.8651 187.557Z" fill="white"/>
<path d="M95.2228 187.853L97.0461 181.495H87.9412L85.8159 187.853H95.2228Z" fill="#263238"/>
<path d="M95.2229 188.149H85.8397C85.7929 188.149 85.7468 188.138 85.7053 188.116C85.6638 188.094 85.6279 188.063 85.6008 188.025C85.5736 187.987 85.5559 187.943 85.5491 187.897C85.5422 187.85 85.5465 187.803 85.5615 187.759L87.6867 181.401C87.7056 181.342 87.7428 181.29 87.7929 181.254C87.8429 181.218 87.9032 181.199 87.965 181.199H97.0699C97.116 181.199 97.1615 181.209 97.2026 181.23C97.2438 181.25 97.2795 181.281 97.3067 181.318C97.3334 181.354 97.3515 181.395 97.3597 181.439C97.3679 181.484 97.366 181.529 97.3541 181.572L95.5307 187.936C95.5119 188.002 95.4709 188.059 95.4148 188.098C95.3587 188.136 95.2909 188.155 95.2229 188.149ZM86.2304 187.557H95.0039L96.6555 181.791H88.1544L86.2304 187.557Z" fill="white"/>
<path d="M71.0277 201.937L68.0381 209.769H78.4928L81.1094 201.937H71.0277Z" fill="#263238"/>
<path d="M78.493 210.065H68.0383C67.9897 210.064 67.942 210.051 67.8989 210.029C67.8558 210.006 67.8185 209.974 67.7897 209.935C67.7632 209.895 67.7466 209.85 67.7415 209.803C67.7363 209.755 67.7427 209.707 67.7601 209.663L70.7497 201.831C70.772 201.775 70.8104 201.727 70.8599 201.693C70.9095 201.66 70.968 201.642 71.0279 201.641H81.0919C81.1392 201.642 81.1857 201.653 81.2278 201.675C81.2699 201.696 81.3064 201.727 81.3346 201.765C81.3621 201.803 81.3797 201.848 81.3859 201.894C81.3921 201.941 81.3867 201.988 81.3702 202.032L78.7594 209.858C78.7414 209.916 78.7063 209.966 78.6587 210.003C78.611 210.04 78.5533 210.062 78.493 210.065ZM68.4646 209.473H78.2799L80.7012 202.233H71.2292L68.4646 209.473Z" fill="white"/>
<path d="M83.5427 194.649H73.8102L71.0278 201.937H81.1096L83.5427 194.649Z" fill="#263238"/>
<path d="M81.1038 202.233H71.0398C70.9915 202.233 70.944 202.222 70.9012 202.2C70.8583 202.177 70.8216 202.145 70.7942 202.105C70.7668 202.066 70.7495 202.02 70.7438 201.972C70.7381 201.924 70.7442 201.875 70.7615 201.83L73.544 194.543C73.5663 194.487 73.6047 194.44 73.6542 194.406C73.7038 194.372 73.7622 194.354 73.8222 194.354H83.5547C83.602 194.354 83.6485 194.366 83.6905 194.387C83.7326 194.409 83.7692 194.44 83.7974 194.478C83.8241 194.516 83.8416 194.56 83.8488 194.606C83.856 194.652 83.8526 194.7 83.8388 194.744L81.3998 202.032C81.3792 202.093 81.3391 202.146 81.2857 202.182C81.2322 202.219 81.1683 202.236 81.1038 202.233ZM71.4483 201.641H80.9203L83.158 194.946H73.9998L71.4483 201.641Z" fill="white"/>
<path d="M81.1098 201.937L78.4932 209.769H88.9479L91.1916 201.937H81.1098Z" fill="#263238"/>
<path d="M88.9537 210.065H78.493C78.4462 210.065 78.4001 210.053 78.3586 210.032C78.3171 210.01 78.2813 209.979 78.2541 209.941C78.2269 209.903 78.2092 209.859 78.2024 209.812C78.1956 209.766 78.1998 209.719 78.2148 209.674L80.8314 201.872C80.8511 201.814 80.8885 201.763 80.9384 201.727C80.9882 201.691 81.0481 201.671 81.1097 201.671H91.1737C91.2195 201.671 91.2647 201.682 91.3057 201.703C91.3468 201.723 91.3826 201.753 91.4105 201.789C91.438 201.826 91.4567 201.868 91.4649 201.914C91.4731 201.959 91.4707 202.005 91.4578 202.05L89.2201 209.876C89.1985 209.93 89.162 209.976 89.1147 210.01C89.0675 210.043 89.0116 210.063 88.9537 210.065ZM78.8897 209.473H88.711L90.783 202.233H81.311L78.8897 209.473Z" fill="white"/>
<path d="M123.449 187.853L124.355 181.495H115.256L114.042 187.853H123.449Z" fill="#263238"/>
<path d="M123.449 188.149H114.043C113.999 188.149 113.956 188.139 113.916 188.12C113.876 188.102 113.841 188.076 113.812 188.043C113.785 188.008 113.766 187.968 113.756 187.925C113.745 187.882 113.744 187.837 113.752 187.794L114.936 181.436C114.951 181.369 114.989 181.308 115.043 181.265C115.097 181.222 115.164 181.199 115.232 181.199H124.332C124.374 181.199 124.416 181.208 124.455 181.225C124.494 181.242 124.529 181.268 124.557 181.3C124.585 181.332 124.606 181.37 124.618 181.411C124.63 181.451 124.633 181.494 124.628 181.537L123.728 187.895C123.717 187.962 123.684 188.025 123.633 188.071C123.583 188.117 123.518 188.145 123.449 188.149ZM114.398 187.557H123.195L124.018 181.791H115.499L114.398 187.557Z" fill="white"/>
<path d="M122.479 194.65L123.449 187.854H114.043L112.746 194.65H122.479Z" fill="#263238"/>
<path d="M122.479 194.946H112.746C112.703 194.946 112.659 194.938 112.62 194.919C112.58 194.901 112.545 194.874 112.517 194.841C112.489 194.807 112.469 194.768 112.459 194.726C112.448 194.683 112.447 194.639 112.456 194.596L113.753 187.794C113.765 187.727 113.801 187.666 113.855 187.623C113.908 187.579 113.974 187.556 114.043 187.557H123.45C123.492 187.557 123.534 187.566 123.573 187.583C123.612 187.601 123.647 187.626 123.675 187.658C123.702 187.691 123.722 187.728 123.735 187.769C123.747 187.81 123.751 187.853 123.746 187.895L122.775 194.691C122.764 194.762 122.728 194.826 122.674 194.873C122.619 194.919 122.55 194.945 122.479 194.946ZM113.102 194.354H122.224L123.136 188.149H114.315L113.102 194.354Z" fill="white"/>
<path d="M112.746 194.65L114.043 187.854H104.636L103.014 194.65H112.746Z" fill="#263238"/>
<path d="M112.746 194.945H103.008C102.962 194.946 102.917 194.936 102.876 194.916C102.835 194.897 102.799 194.868 102.771 194.833C102.745 194.798 102.726 194.757 102.717 194.714C102.708 194.672 102.708 194.627 102.718 194.584L104.34 187.782C104.356 187.718 104.393 187.66 104.446 187.619C104.498 187.579 104.563 187.557 104.63 187.557H114.037C114.08 187.556 114.123 187.565 114.162 187.583C114.201 187.602 114.235 187.629 114.262 187.664C114.29 187.697 114.311 187.736 114.322 187.778C114.334 187.82 114.335 187.864 114.327 187.907L113.03 194.709C113.018 194.775 112.983 194.835 112.931 194.878C112.879 194.921 112.814 194.945 112.746 194.945ZM103.386 194.353H112.48L113.664 188.149H104.866L103.386 194.353Z" fill="white"/>
<path d="M132.211 194.65L132.856 187.854H123.449L122.479 194.65H132.211Z" fill="#263238"/>
<path d="M132.211 194.946H122.479C122.436 194.946 122.394 194.937 122.355 194.92C122.317 194.902 122.282 194.877 122.255 194.845C122.227 194.812 122.207 194.775 122.195 194.734C122.184 194.693 122.182 194.65 122.188 194.608L123.136 187.812C123.144 187.741 123.179 187.676 123.232 187.629C123.286 187.582 123.355 187.557 123.426 187.557H132.833C132.874 187.557 132.914 187.566 132.952 187.582C132.99 187.598 133.024 187.622 133.052 187.652C133.08 187.683 133.101 187.72 133.114 187.76C133.127 187.799 133.132 187.841 133.129 187.883L132.483 194.679C132.478 194.749 132.447 194.814 132.397 194.863C132.347 194.912 132.281 194.941 132.211 194.946ZM122.822 194.354H131.945L132.537 188.149H123.728L122.822 194.354Z" fill="white"/>
<path d="M95.2231 187.854H85.8163L83.543 194.65H93.2814L95.2231 187.854Z" fill="#263238"/>
<path d="M93.2812 194.946H83.5428C83.4967 194.947 83.451 194.936 83.4098 194.916C83.3685 194.895 83.3329 194.865 83.306 194.827C83.2781 194.789 83.2597 194.746 83.2525 194.699C83.2453 194.653 83.2494 194.605 83.2646 194.561L85.5379 187.759C85.5583 187.701 85.5959 187.651 85.6456 187.615C85.6953 187.579 85.7548 187.559 85.8161 187.557H95.223C95.2691 187.556 95.3148 187.567 95.356 187.587C95.3973 187.608 95.4329 187.638 95.4598 187.676C95.4892 187.712 95.509 187.754 95.5172 187.8C95.5255 187.846 95.5221 187.892 95.5071 187.936L93.5654 194.732C93.5474 194.794 93.5101 194.848 93.4588 194.886C93.4076 194.925 93.3453 194.946 93.2812 194.946ZM83.9572 194.354H93.0563L94.8323 188.149H86.0292L83.9572 194.354Z" fill="white"/>
<path d="M212.185 201.937H222.266L219.815 194.649H210.083L212.185 201.937Z" fill="#263238"/>
<path d="M222.266 202.233H212.202C212.138 202.233 212.076 202.212 212.025 202.174C211.973 202.135 211.936 202.081 211.918 202.02L209.816 194.732C209.805 194.688 209.803 194.642 209.811 194.597C209.819 194.552 209.837 194.509 209.864 194.472C209.892 194.436 209.928 194.406 209.969 194.386C210.01 194.365 210.055 194.354 210.101 194.354H219.833C219.895 194.354 219.956 194.373 220.007 194.409C220.058 194.445 220.096 194.496 220.117 194.555L222.544 201.872C222.56 201.916 222.564 201.964 222.557 202.01C222.55 202.057 222.531 202.101 222.503 202.138C222.474 202.172 222.438 202.199 222.396 202.215C222.355 202.232 222.31 202.238 222.266 202.233ZM212.403 201.641H221.875L219.632 194.946H210.473L212.403 201.641Z" fill="white"/>
<path d="M103.014 194.65L104.636 187.854H95.223L93.2812 194.65H103.014Z" fill="#263238"/>
<path d="M103.008 194.946H93.2814C93.2353 194.946 93.1896 194.936 93.1484 194.916C93.1071 194.895 93.0715 194.865 93.0446 194.827C93.0157 194.792 92.9962 194.751 92.9879 194.706C92.9796 194.661 92.9828 194.616 92.9972 194.573L94.939 187.77C94.9569 187.709 94.9943 187.655 95.0455 187.617C95.0968 187.578 95.1591 187.557 95.2231 187.557H104.636C104.68 187.558 104.724 187.568 104.764 187.588C104.804 187.607 104.839 187.635 104.867 187.67C104.894 187.705 104.913 187.745 104.922 187.788C104.931 187.831 104.931 187.876 104.92 187.918L103.298 194.721C103.283 194.786 103.246 194.844 103.193 194.885C103.14 194.926 103.075 194.947 103.008 194.946ZM93.6662 194.354H102.771L104.251 188.149H95.4481L93.6662 194.354Z" fill="white"/>
<path d="M83.543 194.649L81.1099 201.937H91.1916L93.2814 194.649H83.543Z" fill="#263238"/>
<path d="M91.1676 202.233H81.1036C81.056 202.234 81.009 202.223 80.9667 202.201C80.9244 202.18 80.888 202.148 80.8609 202.109C80.8334 202.071 80.8158 202.026 80.8096 201.98C80.8034 201.934 80.8088 201.886 80.8253 201.842L83.2585 194.561C83.2771 194.501 83.3141 194.449 83.3641 194.412C83.414 194.375 83.4744 194.354 83.5367 194.354H93.2751C93.3207 194.355 93.3653 194.366 93.4058 194.387C93.4463 194.408 93.4815 194.438 93.5089 194.474C93.5362 194.511 93.555 194.553 93.5637 194.598C93.5724 194.642 93.5709 194.688 93.5593 194.732L91.4695 202.02C91.4508 202.084 91.4108 202.141 91.3559 202.179C91.301 202.218 91.2346 202.237 91.1676 202.233ZM81.4943 201.641H90.9663L92.8844 194.946H83.7557L81.4943 201.641Z" fill="white"/>
<path d="M190.618 194.65L189.309 187.854H179.896L180.879 194.65H190.618Z" fill="#263238"/>
<path d="M190.624 194.946H180.88C180.81 194.945 180.742 194.92 180.689 194.874C180.636 194.829 180.601 194.766 180.589 194.697L179.607 187.895C179.6 187.853 179.603 187.809 179.616 187.768C179.628 187.728 179.649 187.69 179.678 187.658C179.705 187.626 179.738 187.601 179.776 187.583C179.814 187.566 179.855 187.557 179.897 187.557H189.31C189.378 187.557 189.444 187.581 189.497 187.624C189.55 187.667 189.586 187.727 189.6 187.794L190.908 194.596C190.916 194.639 190.914 194.683 190.903 194.725C190.892 194.766 190.872 194.805 190.845 194.839C190.817 194.872 190.782 194.899 190.743 194.917C190.704 194.936 190.661 194.945 190.618 194.946H190.624ZM181.152 194.354H190.269L189.085 188.149H180.264L181.152 194.354Z" fill="white"/>
<path d="M180.879 194.65L179.897 187.854H170.49L171.147 194.65H180.879Z" fill="#263238"/>
<path d="M180.879 194.946H171.147C171.073 194.946 171.002 194.919 170.947 194.87C170.893 194.82 170.858 194.752 170.851 194.679L170.194 187.883C170.189 187.799 170.217 187.717 170.271 187.652C170.299 187.623 170.333 187.599 170.371 187.583C170.408 187.566 170.449 187.558 170.49 187.557H179.897C179.968 187.558 180.037 187.584 180.091 187.63C180.146 187.677 180.182 187.741 180.193 187.812L181.152 194.608C181.158 194.65 181.155 194.693 181.142 194.734C181.13 194.775 181.109 194.813 181.081 194.845C181.053 194.877 181.018 194.902 180.98 194.92C180.941 194.937 180.898 194.946 180.856 194.946H180.879ZM171.407 194.354H180.56L179.66 188.149H170.815L171.407 194.354Z" fill="white"/>
<path d="M210.083 194.65L208.123 187.854H198.716L200.35 194.65H210.083Z" fill="#263238"/>
<path d="M210.083 194.946H200.35C200.284 194.946 200.219 194.924 200.166 194.883C200.113 194.843 200.076 194.785 200.06 194.721L198.426 187.924C198.416 187.88 198.417 187.834 198.427 187.79C198.437 187.746 198.457 187.705 198.485 187.67C198.513 187.635 198.548 187.606 198.588 187.587C198.628 187.567 198.672 187.557 198.716 187.557H208.123C208.187 187.557 208.249 187.578 208.301 187.617C208.352 187.655 208.389 187.709 208.407 187.77L210.367 194.573C210.379 194.616 210.381 194.661 210.372 194.705C210.364 194.749 210.346 194.791 210.319 194.827C210.292 194.864 210.257 194.894 210.215 194.915C210.174 194.936 210.129 194.946 210.083 194.946ZM200.581 194.354H209.692L207.916 188.149H199.089L200.581 194.354Z" fill="white"/>
<path d="M151.682 194.65L151.676 187.854H142.263L141.95 194.65H151.682Z" fill="#263238"/>
<path d="M151.682 194.946H141.949C141.909 194.946 141.869 194.939 141.831 194.923C141.793 194.908 141.759 194.885 141.73 194.857C141.703 194.827 141.683 194.793 141.67 194.755C141.656 194.717 141.651 194.678 141.653 194.638L141.973 187.836C141.978 187.76 142.011 187.689 142.066 187.638C142.121 187.586 142.194 187.557 142.269 187.557H151.676C151.755 187.557 151.83 187.589 151.885 187.644C151.941 187.7 151.972 187.775 151.972 187.853V194.65C151.973 194.689 151.965 194.729 151.95 194.765C151.934 194.802 151.912 194.835 151.883 194.863C151.829 194.915 151.757 194.944 151.682 194.946ZM142.257 194.354H151.386V188.149H142.547L142.257 194.354Z" fill="white"/>
<path d="M171.147 194.65L170.49 187.854H161.083L161.415 194.65H171.147Z" fill="#263238"/>
<path d="M171.147 194.946H161.415C161.339 194.946 161.266 194.917 161.211 194.865C161.156 194.814 161.123 194.743 161.119 194.667L160.787 187.865C160.785 187.825 160.791 187.785 160.805 187.747C160.819 187.709 160.841 187.675 160.87 187.646C160.897 187.617 160.93 187.595 160.967 187.579C161.004 187.564 161.043 187.557 161.083 187.557H170.496C170.57 187.557 170.641 187.584 170.695 187.633C170.75 187.683 170.785 187.751 170.792 187.824L171.449 194.626C171.453 194.667 171.449 194.708 171.435 194.747C171.422 194.786 171.4 194.821 171.372 194.851C171.343 194.881 171.308 194.906 171.27 194.922C171.231 194.938 171.189 194.946 171.147 194.946ZM161.675 194.354H170.798L170.206 188.149H161.391L161.675 194.354Z" fill="white"/>
<path d="M161.415 194.65L161.083 187.854H151.676L151.682 194.65H161.415Z" fill="#263238"/>
<path d="M161.415 194.946H151.682C151.604 194.946 151.528 194.914 151.473 194.859C151.417 194.803 151.386 194.728 151.386 194.65V187.853C151.387 187.775 151.416 187.699 151.469 187.64C151.527 187.586 151.603 187.557 151.682 187.557H161.083C161.159 187.557 161.231 187.586 161.286 187.638C161.341 187.689 161.375 187.76 161.379 187.836L161.711 194.638C161.714 194.678 161.708 194.719 161.693 194.756C161.679 194.794 161.657 194.828 161.628 194.857C161.6 194.886 161.567 194.908 161.531 194.924C161.494 194.939 161.454 194.946 161.415 194.946ZM151.978 194.354H161.107L160.799 188.149H151.972L151.978 194.354Z" fill="white"/>
<path d="M141.949 194.65L142.263 187.854H132.856L132.211 194.65H141.949Z" fill="#263238"/>
<path d="M141.949 194.946H132.211C132.17 194.945 132.129 194.937 132.092 194.92C132.054 194.904 132.02 194.88 131.992 194.851C131.964 194.821 131.944 194.785 131.931 194.746C131.919 194.707 131.916 194.666 131.921 194.626L132.566 187.824C132.572 187.751 132.605 187.683 132.659 187.634C132.713 187.584 132.783 187.557 132.856 187.557H142.269C142.309 187.556 142.349 187.564 142.385 187.579C142.422 187.595 142.455 187.618 142.483 187.647C142.51 187.676 142.531 187.71 142.544 187.748C142.557 187.786 142.562 187.826 142.559 187.865L142.245 194.667C142.239 194.742 142.206 194.812 142.151 194.864C142.096 194.915 142.024 194.944 141.949 194.946ZM132.537 194.354H141.665L141.955 188.149H133.129L132.537 194.354Z" fill="white"/>
<path d="M171.147 194.649L171.851 201.937H181.933L180.879 194.649H171.147Z" fill="#263238"/>
<path d="M181.933 202.233H171.869C171.796 202.233 171.725 202.206 171.67 202.157C171.615 202.108 171.581 202.04 171.573 201.967L170.869 194.679C170.866 194.638 170.872 194.598 170.885 194.559C170.898 194.52 170.919 194.485 170.946 194.454C170.973 194.423 171.007 194.398 171.045 194.381C171.082 194.363 171.123 194.354 171.165 194.354H180.897C180.969 194.354 181.038 194.38 181.092 194.427C181.146 194.473 181.182 194.537 181.193 194.608L182.229 201.872C182.236 201.914 182.233 201.957 182.22 201.998C182.208 202.039 182.187 202.077 182.158 202.109C182.133 202.145 182.099 202.176 182.06 202.197C182.021 202.219 181.978 202.231 181.933 202.233ZM172.124 201.641H181.596L180.625 194.946H171.473L172.124 201.641Z" fill="white"/>
<path d="M180.879 194.649L181.933 201.937H192.021L190.618 194.649H180.879Z" fill="#263238"/>
<path d="M192.015 202.233H181.951C181.88 202.234 181.811 202.208 181.757 202.161C181.704 202.114 181.67 202.049 181.661 201.978L180.607 194.697C180.6 194.655 180.603 194.611 180.616 194.57C180.628 194.529 180.649 194.492 180.678 194.46C180.705 194.428 180.738 194.401 180.776 194.383C180.814 194.364 180.855 194.354 180.897 194.354H190.624C190.693 194.354 190.76 194.378 190.813 194.423C190.866 194.467 190.901 194.528 190.914 194.596L192.311 201.872C192.318 201.915 192.316 201.958 192.305 202C192.294 202.042 192.273 202.081 192.246 202.115C192.219 202.151 192.184 202.18 192.144 202.2C192.104 202.221 192.06 202.232 192.015 202.233ZM182.194 201.641H191.666L190.375 194.946H181.223L182.194 201.641Z" fill="white"/>
<path d="M93.2812 194.649L91.1914 201.937H101.273L103.014 194.649H93.2812Z" fill="#263238"/>
<path d="M101.273 202.233H91.1679C91.1219 202.234 91.0764 202.223 91.0352 202.202C90.994 202.182 90.9584 202.152 90.9311 202.115C90.9044 202.077 90.8862 202.035 90.878 201.99C90.8698 201.945 90.8718 201.898 90.8838 201.854L92.9735 194.573C92.9895 194.509 93.0261 194.454 93.0777 194.414C93.1292 194.374 93.1926 194.353 93.2577 194.354H103.008C103.053 194.354 103.097 194.365 103.137 194.384C103.176 194.404 103.211 194.433 103.239 194.468C103.266 194.504 103.285 194.545 103.294 194.588C103.304 194.632 103.303 194.677 103.292 194.721L101.558 202.008C101.542 202.072 101.505 202.128 101.454 202.169C101.402 202.21 101.339 202.232 101.273 202.233ZM91.5823 201.641H101.054L102.647 194.946H93.5004L91.5823 201.641Z" fill="white"/>
<path d="M190.618 194.649L192.021 201.937H202.102L200.35 194.649H190.618Z" fill="#263238"/>
<path d="M202.103 202.233H192.039C191.971 202.232 191.905 202.208 191.853 202.165C191.8 202.122 191.763 202.063 191.749 201.996L190.328 194.709C190.319 194.666 190.32 194.623 190.33 194.581C190.34 194.539 190.36 194.499 190.387 194.466C190.415 194.431 190.45 194.403 190.49 194.384C190.53 194.365 190.574 194.354 190.618 194.354H200.35C200.417 194.353 200.482 194.376 200.534 194.418C200.585 194.461 200.621 194.519 200.635 194.584L202.411 201.872C202.421 201.915 202.422 201.959 202.413 202.002C202.403 202.045 202.385 202.086 202.357 202.121C202.327 202.158 202.288 202.188 202.244 202.208C202.199 202.227 202.151 202.236 202.103 202.233ZM192.264 201.641H201.736L200.096 194.946H190.973L192.264 201.641Z" fill="white"/>
<path d="M151.682 194.649L151.688 201.937H161.77L161.415 194.649H151.682Z" fill="#263238"/>
<path d="M161.77 202.233H151.706C151.627 202.233 151.552 202.202 151.496 202.146C151.441 202.091 151.41 202.016 151.41 201.937V194.65C151.409 194.572 151.439 194.498 151.493 194.442C151.55 194.388 151.626 194.356 151.706 194.354H161.438C161.515 194.353 161.588 194.383 161.643 194.436C161.699 194.489 161.731 194.561 161.734 194.638L162.089 201.925C162.092 201.966 162.086 202.006 162.072 202.044C162.057 202.081 162.035 202.116 162.006 202.144C161.977 202.176 161.94 202.201 161.898 202.216C161.857 202.232 161.813 202.238 161.77 202.233ZM151.984 201.641H161.456L161.124 194.946H151.978L151.984 201.641Z" fill="white"/>
<path d="M200.35 194.649L202.102 201.937H212.184L210.083 194.649H200.35Z" fill="#263238"/>
<path d="M212.184 202.233H202.12C202.054 202.234 201.989 202.212 201.936 202.171C201.883 202.13 201.846 202.073 201.83 202.008L200.054 194.721C200.044 194.676 200.044 194.631 200.055 194.587C200.065 194.543 200.085 194.501 200.113 194.466C200.14 194.43 200.175 194.402 200.215 194.382C200.255 194.363 200.3 194.353 200.344 194.354H210.077C210.141 194.354 210.204 194.376 210.256 194.415C210.307 194.455 210.344 194.51 210.361 194.573L212.468 201.872C212.48 201.916 212.482 201.962 212.473 202.007C212.465 202.052 212.447 202.095 212.421 202.132C212.391 202.166 212.355 202.192 212.314 202.209C212.273 202.227 212.229 202.235 212.184 202.233ZM202.333 201.641H211.805L209.875 194.946H200.723L202.333 201.641Z" fill="white"/>
<path d="M161.415 194.649L161.77 201.937H171.852L171.147 194.649H161.415Z" fill="#263238"/>
<path d="M171.852 202.233H161.788C161.712 202.233 161.639 202.204 161.584 202.153C161.529 202.101 161.496 202.03 161.492 201.955L161.136 194.667C161.134 194.627 161.139 194.586 161.154 194.549C161.168 194.511 161.19 194.477 161.219 194.448C161.246 194.418 161.279 194.394 161.316 194.378C161.352 194.362 161.392 194.353 161.432 194.354H171.147C171.222 194.353 171.294 194.381 171.349 194.432C171.403 194.482 171.437 194.552 171.443 194.626L172.148 201.907C172.151 201.949 172.146 201.991 172.133 202.031C172.12 202.071 172.099 202.107 172.071 202.138C172.043 202.168 172.009 202.192 171.971 202.208C171.933 202.225 171.893 202.233 171.852 202.233ZM162.054 201.641H171.526L170.881 194.946H161.728L162.054 201.641Z" fill="white"/>
<path d="M112.746 194.649L111.355 201.937H121.437L122.479 194.649H112.746Z" fill="#263238"/>
<path d="M121.443 202.233H111.379C111.336 202.234 111.293 202.224 111.254 202.206C111.215 202.187 111.181 202.16 111.154 202.127C111.126 202.093 111.105 202.054 111.094 202.012C111.083 201.97 111.081 201.927 111.089 201.884L112.48 194.596C112.491 194.528 112.527 194.466 112.58 194.421C112.633 194.377 112.7 194.353 112.77 194.354H122.502C122.545 194.354 122.586 194.364 122.625 194.381C122.663 194.399 122.698 194.425 122.725 194.456C122.753 194.488 122.774 194.526 122.787 194.566C122.799 194.606 122.803 194.649 122.798 194.691L121.756 201.979C121.746 202.053 121.708 202.12 121.65 202.168C121.591 202.215 121.517 202.238 121.443 202.233ZM111.716 201.641H121.188L122.147 194.946H112.989L111.716 201.641Z" fill="white"/>
<path d="M103.014 194.649L101.273 201.937H111.355L112.746 194.649H103.014Z" fill="#263238"/>
<path d="M111.355 202.233H101.291C101.247 202.232 101.203 202.222 101.163 202.203C101.123 202.183 101.088 202.155 101.06 202.121C101.033 202.086 101.014 202.045 101.005 202.002C100.996 201.959 100.996 201.915 101.007 201.872L102.742 194.584C102.756 194.519 102.793 194.46 102.846 194.418C102.899 194.376 102.964 194.353 103.032 194.354H112.764C112.808 194.353 112.851 194.363 112.89 194.383C112.929 194.402 112.963 194.431 112.989 194.466C113.018 194.499 113.039 194.537 113.051 194.58C113.062 194.622 113.063 194.666 113.054 194.709L111.669 201.996C111.654 202.067 111.613 202.129 111.556 202.173C111.498 202.216 111.427 202.238 111.355 202.233ZM101.652 201.641H111.124L112.397 194.946H103.245L101.652 201.641Z" fill="white"/>
<path d="M141.949 194.649L141.606 201.937H151.688L151.682 194.649H141.949Z" fill="#263238"/>
<path d="M151.688 202.233H141.624C141.584 202.234 141.545 202.227 141.508 202.211C141.471 202.196 141.438 202.173 141.411 202.144C141.382 202.116 141.359 202.082 141.345 202.044C141.331 202.006 141.325 201.966 141.328 201.925L141.671 194.638C141.674 194.561 141.707 194.489 141.762 194.436C141.817 194.383 141.891 194.353 141.967 194.354H151.7C151.778 194.355 151.852 194.387 151.907 194.442C151.963 194.497 151.994 194.571 151.996 194.65V201.937C151.996 202.017 151.964 202.094 151.907 202.15C151.878 202.178 151.844 202.2 151.806 202.214C151.768 202.228 151.728 202.235 151.688 202.233ZM141.914 201.641H151.386V194.946H142.228L141.914 201.641Z" fill="white"/>
<path d="M132.211 194.649L131.524 201.937H141.606L141.95 194.649H132.211Z" fill="#263238"/>
<path d="M141.606 202.233H131.542C131.501 202.233 131.461 202.225 131.423 202.208C131.385 202.192 131.351 202.168 131.323 202.138C131.295 202.108 131.274 202.073 131.261 202.034C131.247 201.995 131.243 201.954 131.246 201.913L131.939 194.626C131.945 194.553 131.978 194.484 132.031 194.434C132.085 194.383 132.156 194.355 132.229 194.354H141.967C142.048 194.356 142.125 194.39 142.181 194.448C142.234 194.508 142.264 194.587 142.263 194.667L141.92 201.955C141.914 202.033 141.878 202.105 141.819 202.157C141.761 202.209 141.685 202.236 141.606 202.233ZM131.85 201.641H141.322L141.636 194.946H132.484L131.85 201.641Z" fill="white"/>
<path d="M122.478 194.649L121.437 201.937H131.524L132.211 194.649H122.478Z" fill="#263238"/>
<path d="M131.525 202.233H121.461C121.418 202.233 121.376 202.225 121.337 202.207C121.298 202.19 121.263 202.164 121.235 202.132C121.207 202.1 121.186 202.062 121.174 202.022C121.162 201.981 121.159 201.938 121.165 201.896L122.206 194.608C122.216 194.538 122.251 194.474 122.304 194.427C122.358 194.38 122.426 194.354 122.497 194.354H132.229C132.271 194.353 132.312 194.362 132.35 194.379C132.388 194.397 132.421 194.422 132.448 194.454C132.477 194.483 132.5 194.519 132.513 194.558C132.526 194.597 132.53 194.638 132.525 194.679L131.832 201.967C131.826 202.043 131.791 202.113 131.733 202.163C131.675 202.213 131.601 202.238 131.525 202.233ZM121.78 201.641H131.252L131.886 194.946H122.739L121.78 201.641Z" fill="white"/>
<path d="M200.35 194.65L198.716 187.854H189.31L190.618 194.65H200.35Z" fill="#263238"/>
<path d="M200.35 194.946H190.624C190.555 194.947 190.488 194.924 190.435 194.88C190.382 194.837 190.346 194.776 190.334 194.709L189.025 187.907C189.017 187.864 189.018 187.821 189.029 187.779C189.039 187.737 189.058 187.698 189.085 187.664C189.113 187.63 189.148 187.603 189.188 187.585C189.228 187.566 189.271 187.557 189.315 187.557H198.722C198.789 187.558 198.853 187.58 198.905 187.621C198.958 187.661 198.995 187.718 199.012 187.782L200.64 194.584C200.652 194.627 200.654 194.672 200.645 194.715C200.635 194.759 200.615 194.799 200.587 194.833C200.559 194.869 200.523 194.898 200.482 194.918C200.441 194.937 200.396 194.947 200.35 194.946ZM190.878 194.354H199.989L198.497 188.149H189.665L190.878 194.354Z" fill="white"/>
<path d="M87.9414 181.495L90.1199 174.983H81.3287L78.8364 181.495H87.9414Z" fill="#263238"/>
<path d="M87.9416 181.791H78.8366C78.7889 181.791 78.742 181.778 78.7 181.756C78.6579 181.733 78.622 181.701 78.5953 181.661C78.5685 181.622 78.5517 181.576 78.5463 181.529C78.5409 181.481 78.5471 181.433 78.5643 181.389L81.0507 174.877C81.072 174.822 81.1093 174.774 81.1578 174.74C81.2064 174.706 81.2639 174.688 81.323 174.687H90.1201C90.1669 174.688 90.213 174.699 90.2545 174.721C90.2961 174.742 90.3319 174.773 90.359 174.812C90.3862 174.85 90.4039 174.894 90.4108 174.94C90.4176 174.986 90.4134 175.034 90.3984 175.078L88.2257 181.59C88.2057 181.649 88.1674 181.701 88.1164 181.737C88.0653 181.773 88.0041 181.792 87.9416 181.791ZM79.2688 181.199H87.7285L89.7057 175.279H81.5302L79.2688 181.199Z" fill="white"/>
<path d="M78.8364 181.495H70.436L67.7246 187.853H76.4093L78.8364 181.495Z" fill="#263238"/>
<path d="M76.4093 188.149H67.7246C67.6753 188.148 67.627 188.135 67.5837 188.112C67.5404 188.088 67.5035 188.054 67.476 188.013C67.4527 187.97 67.4404 187.923 67.4404 187.874C67.4404 187.825 67.4527 187.778 67.476 187.735L70.1873 181.377C70.211 181.324 70.2493 181.28 70.2975 181.248C70.3458 181.217 70.402 181.2 70.4596 181.199H78.8601C78.9083 181.199 78.9558 181.211 78.999 181.232C79.0421 181.254 79.0797 181.285 79.1088 181.324C79.1306 181.366 79.1419 181.412 79.1419 181.46C79.1419 181.507 79.1306 181.554 79.1088 181.596L76.6816 187.96C76.6596 188.015 76.6221 188.062 76.5738 188.095C76.5254 188.129 76.4682 188.148 76.4093 188.149ZM68.1745 187.557H76.208L78.4102 181.791H70.6313L68.1745 187.557Z" fill="white"/>
<path d="M81.3288 174.983H73.2125L70.436 181.495H78.8365L81.3288 174.983Z" fill="#263238"/>
<path d="M78.8364 181.791H70.4477C70.3982 181.791 70.3495 181.779 70.3061 181.755C70.2626 181.731 70.2259 181.697 70.1991 181.655C70.1758 181.613 70.1636 181.565 70.1636 181.516C70.1636 181.467 70.1758 181.42 70.1991 181.377L72.9756 174.865C72.9974 174.811 73.0351 174.765 73.0838 174.733C73.1325 174.702 73.1898 174.686 73.2479 174.687H81.3583C81.4072 174.687 81.4554 174.699 81.4987 174.722C81.542 174.745 81.5792 174.777 81.607 174.818C81.6335 174.857 81.65 174.903 81.6551 174.95C81.6603 174.998 81.6539 175.046 81.6365 175.09L79.1501 181.602C79.1267 181.664 79.083 181.717 79.0261 181.751C78.9692 181.785 78.9024 181.8 78.8364 181.791ZM70.8858 181.199H78.6351L80.8965 175.279H73.4077L70.8858 181.199Z" fill="white"/>
<path d="M76.4092 187.854H67.7245L64.8237 194.65H73.8103L76.4092 187.854Z" fill="#263238"/>
<path d="M73.8104 194.946H64.8238C64.7753 194.945 64.7277 194.933 64.685 194.91C64.6423 194.887 64.6059 194.854 64.579 194.814C64.5521 194.773 64.5355 194.727 64.5307 194.679C64.526 194.631 64.5331 194.582 64.5515 194.537L67.4523 187.735C67.476 187.682 67.5143 187.638 67.5625 187.606C67.6108 187.575 67.667 187.558 67.7246 187.557H76.4093C76.4573 187.557 76.5047 187.569 76.5471 187.592C76.5894 187.615 76.6255 187.647 76.652 187.688C76.681 187.726 76.6995 187.771 76.7057 187.819C76.7119 187.867 76.7056 187.915 76.6875 187.96L74.0886 194.768C74.0651 194.822 74.0261 194.867 73.9766 194.899C73.927 194.931 73.8692 194.947 73.8104 194.946ZM65.2737 194.354H73.6091L75.9771 188.149H67.92L65.2737 194.354Z" fill="white"/>
<path d="M73.8103 194.649H64.8238L61.7217 201.937H71.0279L73.8103 194.649Z" fill="#263238"/>
<path d="M71.0395 202.233H61.7215C61.6724 202.234 61.6239 202.223 61.5804 202.201C61.5368 202.178 61.4997 202.145 61.4725 202.104C61.4453 202.063 61.4289 202.016 61.4248 201.967C61.4207 201.918 61.4291 201.869 61.4491 201.825L64.5275 194.537C64.5497 194.483 64.5874 194.437 64.6359 194.404C64.6844 194.371 64.7414 194.354 64.7999 194.354H73.7864C73.8342 194.355 73.881 194.367 73.9231 194.389C73.9651 194.412 74.0012 194.444 74.0284 194.484C74.0556 194.523 74.073 194.568 74.0793 194.616C74.0856 194.663 74.0806 194.711 74.0647 194.756L71.2823 202.044C71.2625 202.094 71.2296 202.138 71.1869 202.172C71.1442 202.205 71.0933 202.226 71.0395 202.233ZM62.1595 201.641H70.8146L73.4075 194.946H65.0189L62.1595 201.641Z" fill="white"/>
<path d="M71.0279 201.937H61.7217L58.3828 209.769H68.0383L71.0279 201.937Z" fill="#263238"/>
<path d="M68.0383 210.065H58.3828C58.3335 210.064 58.2852 210.051 58.2419 210.028C58.1986 210.004 58.1617 209.97 58.1342 209.929C58.1109 209.886 58.0986 209.839 58.0986 209.79C58.0986 209.741 58.1109 209.694 58.1342 209.651L61.473 201.825C61.4953 201.771 61.533 201.724 61.5814 201.692C61.6299 201.659 61.6869 201.641 61.7454 201.641H71.0398C71.0879 201.641 71.1352 201.653 71.1776 201.676C71.2199 201.698 71.256 201.731 71.2825 201.771C71.3087 201.811 71.3255 201.856 71.3316 201.903C71.3378 201.951 71.3331 201.999 71.318 202.044L68.3225 209.87C68.3023 209.929 68.2637 209.979 68.2126 210.014C68.1614 210.05 68.1004 210.067 68.0383 210.065ZM58.8327 209.473H67.8311L70.5958 202.233H61.917L58.8327 209.473Z" fill="white"/>
<path d="M226.943 187.854L229.548 194.65H238.161L235.26 187.854H226.943Z" fill="#263238"/>
<path d="M238.161 194.946H229.554C229.493 194.947 229.434 194.929 229.384 194.895C229.335 194.861 229.296 194.813 229.276 194.756L226.665 187.96C226.647 187.916 226.641 187.868 226.646 187.82C226.651 187.773 226.668 187.727 226.694 187.688C226.721 187.648 226.757 187.615 226.8 187.593C226.842 187.57 226.889 187.558 226.937 187.557H235.261C235.319 187.556 235.376 187.573 235.424 187.604C235.473 187.636 235.511 187.682 235.533 187.735L238.434 194.537C238.457 194.58 238.469 194.628 238.469 194.676C238.469 194.725 238.457 194.773 238.434 194.815C238.404 194.859 238.363 194.894 238.315 194.917C238.267 194.94 238.214 194.95 238.161 194.946ZM229.755 194.354H237.712L235.065 188.149H227.369L229.755 194.354Z" fill="white"/>
<path d="M232.348 201.937H241.269L238.161 194.649H229.548L232.348 201.937Z" fill="#263238"/>
<path d="M241.269 202.233H232.348C232.288 202.233 232.229 202.215 232.18 202.181C232.13 202.147 232.092 202.099 232.069 202.044L229.275 194.768C229.258 194.723 229.252 194.674 229.257 194.627C229.263 194.579 229.28 194.533 229.308 194.493C229.335 194.453 229.372 194.421 229.415 194.399C229.458 194.377 229.505 194.365 229.553 194.365H238.161C238.22 194.366 238.277 194.383 238.325 194.416C238.374 194.449 238.411 194.495 238.433 194.549L241.536 201.825C241.554 201.87 241.561 201.918 241.556 201.966C241.552 202.015 241.535 202.061 241.508 202.101C241.481 202.142 241.445 202.175 241.402 202.198C241.359 202.221 241.312 202.233 241.263 202.233H241.269ZM232.549 201.641H240.837L237.984 194.946H229.98L232.549 201.641Z" fill="white"/>
<path d="M235.355 209.769H244.603L241.27 201.937H232.348L235.355 209.769Z" fill="#263238"/>
<path d="M244.602 210.065H235.355C235.295 210.066 235.236 210.048 235.187 210.014C235.137 209.98 235.099 209.932 235.077 209.876L232.064 202.044C232.048 201.999 232.043 201.95 232.049 201.903C232.055 201.856 232.073 201.811 232.1 201.771C232.127 201.732 232.163 201.7 232.205 201.677C232.247 201.654 232.294 201.642 232.342 201.641H241.263C241.322 201.641 241.379 201.659 241.427 201.692C241.476 201.724 241.513 201.771 241.536 201.825L244.869 209.651C244.892 209.694 244.904 209.741 244.904 209.79C244.904 209.839 244.892 209.886 244.869 209.929C244.84 209.973 244.801 210.009 244.754 210.033C244.707 210.057 244.655 210.068 244.602 210.065ZM235.556 209.473H244.158L241.074 202.233H232.786L235.556 209.473Z" fill="white"/>
<path d="M160.769 181.495L160.455 174.983H151.664L151.67 181.495H160.769Z" fill="#263238"/>
<path d="M160.775 181.791H151.67C151.592 181.791 151.516 181.76 151.461 181.705C151.405 181.649 151.374 181.574 151.374 181.495V174.983C151.374 174.906 151.403 174.832 151.457 174.776C151.484 174.747 151.518 174.725 151.554 174.71C151.591 174.694 151.63 174.687 151.67 174.687H160.432C160.508 174.687 160.582 174.717 160.637 174.77C160.692 174.823 160.725 174.895 160.728 174.971L161.041 181.483C161.044 181.523 161.039 181.563 161.025 181.601C161.012 181.638 160.991 181.673 160.964 181.702C160.914 181.753 160.847 181.785 160.775 181.791ZM151.966 181.199H160.461L160.171 175.279H151.96L151.966 181.199Z" fill="white"/>
<path d="M226.943 187.853H235.261L232.549 181.495H224.498L226.943 187.853Z" fill="#263238"/>
<path d="M235.261 188.149H226.937C226.878 188.149 226.821 188.13 226.772 188.096C226.723 188.063 226.686 188.015 226.665 187.96L224.226 181.596C224.208 181.552 224.202 181.504 224.207 181.457C224.213 181.409 224.23 181.364 224.256 181.325C224.283 181.286 224.32 181.254 224.362 181.232C224.404 181.21 224.451 181.199 224.498 181.199H232.555C232.613 181.2 232.669 181.217 232.717 181.248C232.766 181.28 232.804 181.324 232.828 181.377L235.533 187.735C235.556 187.778 235.569 187.825 235.569 187.874C235.569 187.923 235.556 187.97 235.533 188.013C235.504 188.058 235.464 188.095 235.416 188.119C235.368 188.143 235.314 188.153 235.261 188.149ZM227.144 187.557H234.84L232.384 181.791H224.96L227.144 187.557Z" fill="white"/>
<path d="M222.266 201.937H232.348L229.548 194.649H219.815L222.266 201.937Z" fill="#263238"/>
<path d="M232.348 202.233H222.284C222.221 202.234 222.16 202.215 222.109 202.179C222.058 202.142 222.02 202.091 222 202.032L219.537 194.768C219.522 194.724 219.518 194.676 219.525 194.63C219.531 194.584 219.549 194.54 219.576 194.501C219.604 194.463 219.639 194.432 219.681 194.411C219.722 194.389 219.768 194.378 219.815 194.377H229.554C229.613 194.378 229.67 194.396 229.719 194.43C229.767 194.464 229.805 194.511 229.826 194.567L232.656 201.83C232.672 201.876 232.678 201.926 232.672 201.974C232.665 202.022 232.648 202.068 232.62 202.109C232.59 202.151 232.548 202.185 232.501 202.207C232.453 202.229 232.4 202.238 232.348 202.233ZM222.479 201.641H231.916L229.346 194.946H220.224L222.479 201.641Z" fill="white"/>
<path d="M97.0464 181.495L98.9112 174.983H90.12L87.9414 181.495H97.0464Z" fill="#263238"/>
<path d="M97.0462 181.791H87.9413C87.8945 181.791 87.8484 181.779 87.8069 181.758C87.7653 181.736 87.7295 181.705 87.7023 181.667C87.6752 181.629 87.6575 181.585 87.6506 181.538C87.6438 181.492 87.648 181.445 87.663 181.401L89.8357 174.889C89.8564 174.83 89.8949 174.779 89.9458 174.743C89.9967 174.707 90.0575 174.687 90.1198 174.687H98.911C98.9569 174.688 99.0021 174.699 99.0431 174.719C99.0841 174.74 99.1199 174.769 99.1478 174.806C99.1742 174.843 99.1921 174.886 99.2003 174.931C99.2085 174.976 99.2068 175.022 99.1952 175.066L97.3304 181.578C97.3125 181.64 97.2751 181.694 97.2238 181.732C97.1726 181.77 97.1103 181.791 97.0462 181.791ZM88.3557 181.199H96.8213L98.5144 175.279H90.3329L88.3557 181.199Z" fill="white"/>
<path d="M215.393 181.495L217.53 187.853H226.943L224.498 181.495H215.393Z" fill="#263238"/>
<path d="M226.937 188.149H217.53C217.469 188.148 217.409 188.128 217.36 188.092C217.31 188.056 217.272 188.006 217.252 187.948L215.115 181.59C215.1 181.545 215.095 181.496 215.103 181.449C215.11 181.401 215.128 181.357 215.156 181.318C215.183 181.28 215.219 181.25 215.26 181.229C215.301 181.209 215.347 181.198 215.393 181.199H224.498C224.558 181.199 224.617 181.217 224.667 181.251C224.716 181.284 224.754 181.333 224.776 181.389L227.215 187.747C227.233 187.791 227.239 187.839 227.234 187.887C227.229 187.934 227.212 187.979 227.186 188.019C227.158 188.059 227.121 188.092 227.077 188.115C227.034 188.138 226.986 188.149 226.937 188.149ZM217.743 187.557H226.511L224.297 181.791H215.807L217.743 187.557Z" fill="white"/>
<path d="M232.549 181.495L229.779 174.983H222L224.498 181.495H232.549Z" fill="#263238"/>
<path d="M232.555 181.791H224.498C224.439 181.791 224.381 181.773 224.332 181.739C224.283 181.705 224.246 181.657 224.226 181.602L221.721 175.09C221.705 175.045 221.699 174.997 221.706 174.949C221.712 174.902 221.729 174.857 221.757 174.817C221.783 174.777 221.819 174.744 221.862 174.722C221.904 174.699 221.952 174.687 222 174.687H229.778C229.836 174.688 229.892 174.705 229.941 174.736C229.989 174.768 230.027 174.812 230.051 174.865L232.827 181.377C232.846 181.422 232.853 181.471 232.848 181.52C232.843 181.568 232.826 181.615 232.798 181.655C232.771 181.696 232.736 181.73 232.693 181.753C232.651 181.777 232.603 181.79 232.555 181.791ZM224.705 181.199H232.105L229.583 175.279H222.432L224.705 181.199Z" fill="white"/>
<path d="M224.498 181.495L222 174.983H213.208L215.393 181.495H224.498Z" fill="#263238"/>
<path d="M224.498 181.791H215.393C215.332 181.79 215.272 181.77 215.222 181.734C215.173 181.698 215.135 181.648 215.115 181.59L212.924 175.078C212.911 175.033 212.907 174.986 212.914 174.94C212.921 174.894 212.939 174.85 212.966 174.812C212.994 174.774 213.03 174.743 213.073 174.721C213.115 174.7 213.161 174.688 213.208 174.687H222C222.06 174.688 222.118 174.706 222.168 174.74C222.217 174.773 222.256 174.821 222.278 174.877L224.776 181.389C224.792 181.434 224.797 181.482 224.791 181.529C224.784 181.577 224.767 181.622 224.74 181.661C224.713 181.7 224.677 181.733 224.635 181.755C224.592 181.778 224.546 181.79 224.498 181.791ZM215.618 181.199H224.078L221.81 175.279H213.617L215.618 181.199Z" fill="white"/>
<path d="M192.021 201.937L193.525 209.769H203.979L202.103 201.937H192.021Z" fill="#263238"/>
<path d="M203.979 210.065H193.525C193.455 210.066 193.388 210.042 193.335 209.998C193.281 209.953 193.246 209.891 193.235 209.823L191.725 201.996C191.718 201.953 191.72 201.908 191.731 201.865C191.742 201.822 191.762 201.782 191.79 201.748C191.818 201.715 191.852 201.689 191.891 201.67C191.93 201.652 191.972 201.642 192.015 201.641H202.079C202.146 201.641 202.21 201.664 202.262 201.706C202.314 201.748 202.35 201.807 202.363 201.872L204.246 209.698C204.256 209.742 204.257 209.788 204.248 209.832C204.239 209.876 204.22 209.917 204.193 209.953C204.167 209.985 204.134 210.012 204.098 210.031C204.061 210.051 204.021 210.062 203.979 210.065ZM193.767 209.473H203.606L201.872 202.233H192.4L193.767 209.473Z" fill="white"/>
<path d="M224.895 209.769H235.355L232.348 201.937H222.266L224.895 209.769Z" fill="#263238"/>
<path d="M235.355 210.065H224.895C224.834 210.064 224.774 210.044 224.724 210.008C224.675 209.972 224.637 209.922 224.617 209.864L222 202.032C221.986 201.987 221.983 201.94 221.99 201.894C221.997 201.848 222.015 201.804 222.041 201.765C222.07 201.727 222.106 201.696 222.148 201.675C222.19 201.653 222.237 201.642 222.284 201.641H232.348C232.408 201.642 232.467 201.66 232.516 201.693C232.566 201.727 232.604 201.775 232.626 201.831L235.616 209.663C235.638 209.705 235.649 209.752 235.649 209.799C235.649 209.846 235.638 209.893 235.616 209.935C235.587 209.977 235.548 210.01 235.502 210.033C235.457 210.056 235.406 210.067 235.355 210.065ZM225.108 209.473H234.923L232.147 202.233H222.675L225.108 209.473Z" fill="white"/>
<path d="M215.393 181.495L213.209 174.983H204.417L206.288 181.495H215.393Z" fill="#263238"/>
<path d="M215.393 181.791H206.288C206.224 181.79 206.161 181.768 206.11 181.729C206.059 181.689 206.022 181.634 206.004 181.572L204.133 175.06C204.119 175.016 204.116 174.97 204.124 174.924C204.132 174.879 204.152 174.836 204.181 174.8C204.209 174.763 204.244 174.734 204.285 174.713C204.327 174.693 204.372 174.682 204.418 174.681H213.209C213.27 174.683 213.33 174.703 213.379 174.739C213.429 174.775 213.467 174.825 213.487 174.883L215.677 181.395C215.691 181.439 215.695 181.486 215.687 181.533C215.68 181.579 215.663 181.623 215.636 181.661C215.609 181.7 215.573 181.733 215.53 181.755C215.488 181.778 215.441 181.79 215.393 181.791ZM206.513 181.199H214.985L212.996 175.279H204.832L206.513 181.199Z" fill="white"/>
<path d="M212.185 201.937L214.44 209.769H224.895L222.266 201.937H212.185Z" fill="#263238"/>
<path d="M224.895 210.065H214.44C214.375 210.065 214.312 210.043 214.261 210.004C214.21 209.964 214.173 209.909 214.156 209.846L211.9 202.02C211.886 201.976 211.883 201.929 211.891 201.884C211.899 201.838 211.919 201.796 211.948 201.76C211.976 201.723 212.012 201.693 212.053 201.673C212.094 201.652 212.139 201.642 212.185 201.641H222.249C222.31 201.642 222.369 201.662 222.419 201.698C222.469 201.734 222.506 201.785 222.527 201.842L225.161 209.675C225.175 209.719 225.178 209.766 225.171 209.813C225.164 209.859 225.147 209.903 225.12 209.941C225.094 209.977 225.06 210.006 225.021 210.028C224.982 210.049 224.939 210.062 224.895 210.065ZM214.659 209.473H224.486L222.053 202.233H212.581L214.659 209.473Z" fill="white"/>
<path d="M202.103 201.937L203.979 209.769H214.44L212.184 201.937H202.103Z" fill="#263238"/>
<path d="M214.44 210.065H203.979C203.913 210.065 203.848 210.042 203.796 210C203.745 209.958 203.709 209.9 203.695 209.834L201.813 202.008C201.802 201.964 201.801 201.919 201.811 201.875C201.82 201.831 201.839 201.789 201.866 201.754C201.895 201.718 201.931 201.69 201.972 201.67C202.013 201.651 202.057 201.641 202.103 201.641H212.167C212.231 201.641 212.293 201.662 212.344 201.7C212.396 201.739 212.433 201.793 212.451 201.854L214.707 209.686C214.718 209.731 214.72 209.777 214.712 209.822C214.704 209.867 214.686 209.91 214.659 209.947C214.632 209.98 214.599 210.008 214.562 210.028C214.524 210.049 214.483 210.061 214.44 210.065ZM204.216 209.473H214.043L211.936 202.233H202.464L204.216 209.473Z" fill="white"/>
<path d="M219.815 194.65H229.548L226.943 187.854H217.53L219.815 194.65Z" fill="#263238"/>
<path d="M229.554 194.946H219.815C219.753 194.946 219.693 194.927 219.643 194.89C219.593 194.854 219.556 194.803 219.537 194.744L217.264 187.948C217.249 187.904 217.244 187.856 217.251 187.81C217.258 187.764 217.276 187.72 217.303 187.682C217.33 187.644 217.366 187.612 217.407 187.591C217.449 187.569 217.495 187.558 217.542 187.557H226.949C227.009 187.557 227.068 187.575 227.117 187.609C227.167 187.643 227.205 187.691 227.227 187.747L229.838 194.543C229.856 194.587 229.864 194.636 229.859 194.684C229.854 194.732 229.838 194.778 229.811 194.818C229.784 194.858 229.747 194.891 229.704 194.913C229.661 194.935 229.614 194.946 229.565 194.946H229.554ZM220.028 194.354H229.104L226.736 188.149H217.944L220.028 194.354Z" fill="white"/>
<path d="M133.46 181.495L134.076 174.983H125.285L124.355 181.495H133.46Z" fill="#263238"/>
<path d="M133.46 181.791H124.355C124.313 181.79 124.272 181.781 124.234 181.762C124.196 181.744 124.163 181.717 124.136 181.685C124.108 181.654 124.087 181.617 124.074 181.577C124.062 181.537 124.059 181.495 124.065 181.454L124.995 174.942C125.003 174.871 125.038 174.806 125.091 174.759C125.145 174.712 125.214 174.687 125.285 174.687H134.076C134.117 174.687 134.157 174.696 134.195 174.712C134.233 174.728 134.267 174.752 134.295 174.782C134.324 174.812 134.346 174.849 134.359 174.889C134.373 174.929 134.377 174.971 134.372 175.013L133.78 181.525C133.772 181.602 133.735 181.674 133.675 181.724C133.615 181.774 133.538 181.798 133.46 181.791ZM124.699 181.199H133.2L133.756 175.279H125.545L124.699 181.199Z" fill="white"/>
<path d="M206.288 181.495L204.417 174.983H195.626L197.189 181.495H206.288Z" fill="#263238"/>
<path d="M206.288 181.791H197.189C197.122 181.792 197.056 181.769 197.004 181.727C196.951 181.685 196.914 181.626 196.899 181.56L195.336 175.048C195.326 175.005 195.325 174.959 195.334 174.915C195.343 174.871 195.362 174.83 195.389 174.794C195.418 174.759 195.454 174.73 195.495 174.711C195.536 174.691 195.581 174.681 195.626 174.681H204.417C204.482 174.681 204.544 174.702 204.595 174.741C204.646 174.779 204.684 174.833 204.702 174.895L206.578 181.407C206.59 181.451 206.591 181.498 206.582 181.543C206.573 181.588 206.554 181.63 206.526 181.667C206.498 181.704 206.462 181.733 206.421 181.754C206.38 181.774 206.334 181.785 206.288 181.785V181.791ZM197.408 181.199H205.897L204.193 175.279H195.999L197.408 181.199Z" fill="white"/>
<path d="M124.355 181.495L125.285 174.983H116.494L115.256 181.495H124.355Z" fill="#263238"/>
<path d="M124.355 181.791H115.256C115.212 181.791 115.168 181.78 115.128 181.761C115.088 181.741 115.053 181.713 115.025 181.679C114.999 181.645 114.979 181.606 114.968 181.564C114.957 181.522 114.954 181.479 114.96 181.436L116.203 174.924C116.215 174.856 116.25 174.794 116.303 174.749C116.357 174.704 116.424 174.681 116.494 174.681H125.285C125.327 174.681 125.37 174.689 125.408 174.707C125.447 174.724 125.482 174.75 125.51 174.782C125.538 174.814 125.559 174.852 125.572 174.893C125.584 174.933 125.587 174.977 125.581 175.019L124.651 181.531C124.641 181.603 124.606 181.668 124.552 181.716C124.497 181.764 124.428 181.791 124.355 181.791ZM115.611 181.199H124.101L124.947 175.279H116.736L115.611 181.199Z" fill="white"/>
<path d="M151.67 181.495L151.664 174.983H142.873L142.565 181.495H151.67Z" fill="#263238"/>
<path d="M151.67 181.791H142.565C142.525 181.791 142.485 181.783 142.449 181.767C142.412 181.75 142.379 181.727 142.352 181.697C142.323 181.668 142.301 181.634 142.287 181.596C142.272 181.558 142.266 181.518 142.269 181.478L142.577 174.966C142.58 174.889 142.613 174.817 142.668 174.764C142.723 174.711 142.797 174.681 142.873 174.681H151.664C151.743 174.681 151.818 174.713 151.874 174.768C151.929 174.824 151.96 174.899 151.96 174.977V181.489C151.959 181.567 151.927 181.642 151.872 181.697C151.817 181.752 151.742 181.784 151.664 181.785L151.67 181.791ZM142.873 181.199H151.374V175.279H143.151L142.873 181.199Z" fill="white"/>
<path d="M115.256 181.495L116.494 174.983H107.702L106.151 181.495H115.256Z" fill="#263238"/>
<path d="M115.256 181.791H106.151C106.106 181.792 106.061 181.782 106.02 181.762C105.979 181.743 105.943 181.714 105.914 181.679C105.888 181.642 105.87 181.601 105.861 181.557C105.852 181.513 105.852 181.468 105.861 181.424L107.412 174.912C107.429 174.848 107.467 174.791 107.519 174.751C107.572 174.71 107.636 174.688 107.702 174.687H116.494C116.537 174.688 116.58 174.698 116.62 174.716C116.66 174.734 116.695 174.761 116.724 174.794C116.751 174.828 116.77 174.867 116.78 174.909C116.79 174.951 116.792 174.994 116.784 175.037L115.546 181.549C115.534 181.616 115.498 181.678 115.445 181.722C115.392 181.767 115.325 181.791 115.256 181.791ZM106.524 181.199H115.008L116.138 175.279H107.933L106.524 181.199Z" fill="white"/>
<path d="M106.151 181.495L107.702 174.983H98.9112L97.0464 181.495H106.151Z" fill="#263238"/>
<path d="M106.151 181.791H97.0463C97.0004 181.791 96.9553 181.78 96.9142 181.759C96.8732 181.739 96.8374 181.709 96.8095 181.673C96.7831 181.636 96.7652 181.593 96.757 181.548C96.7488 181.503 96.7506 181.457 96.7622 181.412L98.627 174.9C98.6449 174.839 98.6823 174.785 98.7335 174.746C98.7848 174.708 98.8471 174.687 98.9111 174.687H107.702C107.747 174.687 107.791 174.697 107.831 174.717C107.871 174.736 107.906 174.765 107.933 174.8C107.962 174.835 107.982 174.876 107.992 174.92C108.002 174.964 108.002 175.01 107.992 175.054L106.435 181.566C106.421 181.631 106.384 181.688 106.333 181.729C106.281 181.77 106.217 181.792 106.151 181.791ZM97.437 181.199H105.914L107.329 175.279H99.1302L97.437 181.199Z" fill="white"/>
<path d="M142.565 181.495L142.873 174.983H134.076L133.46 181.495H142.565Z" fill="#263238"/>
<path d="M142.565 181.791H133.46C133.419 181.791 133.378 181.782 133.34 181.764C133.302 181.747 133.269 181.722 133.241 181.691C133.214 181.66 133.193 181.624 133.18 181.586C133.167 181.547 133.162 181.506 133.164 181.466L133.786 174.954C133.793 174.881 133.827 174.814 133.88 174.765C133.934 174.716 134.003 174.688 134.076 174.687H142.873C142.954 174.69 143.03 174.724 143.086 174.782C143.14 174.84 143.17 174.916 143.169 174.995L142.861 181.507C142.858 181.584 142.826 181.656 142.77 181.709C142.715 181.762 142.642 181.791 142.565 181.791ZM133.786 181.199H142.281L142.559 175.279H134.348L133.786 181.199Z" fill="white"/>
<path d="M197.189 181.495L195.626 174.983H186.829L188.084 181.495H197.189Z" fill="#263238"/>
<path d="M197.189 181.791H188.084C188.015 181.792 187.947 181.768 187.894 181.724C187.841 181.679 187.805 181.617 187.794 181.549L186.539 175.037C186.531 174.994 186.533 174.95 186.544 174.908C186.555 174.865 186.575 174.826 186.602 174.792C186.63 174.759 186.664 174.731 186.703 174.712C186.743 174.693 186.785 174.682 186.829 174.681H195.626C195.692 174.681 195.756 174.703 195.808 174.744C195.859 174.785 195.896 174.842 195.91 174.906L197.473 181.418C197.484 181.462 197.485 181.507 197.475 181.551C197.466 181.594 197.447 181.635 197.42 181.671C197.393 181.706 197.358 181.735 197.318 181.754C197.278 181.774 197.234 181.785 197.189 181.785V181.791ZM188.309 181.199H196.792L195.372 175.279H187.19L188.309 181.199Z" fill="white"/>
<path d="M188.084 181.495L186.829 174.983H178.038L178.979 181.495H188.084Z" fill="#263238"/>
<path d="M188.084 181.791H178.979C178.908 181.791 178.84 181.764 178.787 181.718C178.734 181.671 178.699 181.607 178.689 181.537L177.748 175.025C177.742 174.983 177.744 174.94 177.756 174.9C177.767 174.859 177.786 174.821 177.813 174.788C177.841 174.757 177.876 174.731 177.915 174.714C177.954 174.697 177.995 174.688 178.038 174.687H186.829C186.899 174.687 186.966 174.711 187.02 174.756C187.074 174.8 187.111 174.862 187.125 174.93L188.374 181.442C188.383 181.485 188.382 181.529 188.371 181.571C188.359 181.613 188.338 181.652 188.309 181.685C188.282 181.719 188.248 181.746 188.209 181.765C188.17 181.783 188.127 181.792 188.084 181.791ZM179.234 181.199H187.723L186.586 175.279H178.381L179.234 181.199Z" fill="white"/>
<path d="M169.874 181.495L169.247 174.983H160.456L160.769 181.495H169.874Z" fill="#263238"/>
<path d="M169.904 181.791H160.775C160.699 181.791 160.625 181.762 160.57 181.709C160.515 181.656 160.482 181.584 160.479 181.507L160.16 174.995C160.156 174.955 160.162 174.914 160.176 174.876C160.191 174.838 160.213 174.804 160.242 174.776C160.269 174.746 160.302 174.722 160.339 174.706C160.376 174.69 160.415 174.681 160.456 174.681H169.247C169.32 174.682 169.391 174.71 169.445 174.759C169.499 174.808 169.534 174.875 169.543 174.948L170.17 181.46C170.174 181.501 170.168 181.542 170.155 181.581C170.142 181.62 170.12 181.656 170.093 181.687C170.065 181.717 170.031 181.742 169.994 181.759C169.956 181.776 169.916 181.785 169.874 181.785L169.904 181.791ZM161.083 181.199H169.549L168.957 175.279H160.763L161.083 181.199Z" fill="white"/>
<path d="M192.021 201.937H181.933H171.851H161.77H151.688H141.606H131.524H121.437H111.355H101.273H91.1914L88.9478 209.769H99.4084H109.863H120.324H130.778H141.239H151.694H162.154H172.609H183.064H193.525L192.021 201.937Z" fill="#263238"/>
<path d="M193.525 210.065H88.9537C88.9078 210.065 88.8627 210.054 88.8216 210.033C88.7806 210.013 88.7448 209.983 88.7169 209.947C88.688 209.911 88.6685 209.868 88.6602 209.823C88.652 209.777 88.6552 209.73 88.6695 209.686L90.9073 201.872C90.9252 201.811 90.9626 201.757 91.0139 201.718C91.0651 201.68 91.1274 201.659 91.1915 201.659H192.015C192.085 201.659 192.152 201.683 192.206 201.727C192.26 201.772 192.297 201.833 192.311 201.902L193.815 209.728C193.824 209.77 193.823 209.814 193.813 209.856C193.802 209.898 193.783 209.937 193.755 209.971C193.726 210.002 193.69 210.027 193.65 210.043C193.61 210.059 193.568 210.067 193.525 210.065ZM89.3326 209.473H193.163L191.772 202.233H91.4164L89.3326 209.473Z" fill="white"/>
<path d="M178.979 181.495L178.038 174.983H169.247L169.874 181.495H178.979Z" fill="#263238"/>
<path d="M178.979 181.791H169.904C169.83 181.79 169.76 181.762 169.706 181.711C169.652 181.661 169.619 181.592 169.614 181.519L168.98 175.007C168.977 174.966 168.983 174.925 168.996 174.887C169.009 174.848 169.03 174.813 169.057 174.782C169.084 174.75 169.118 174.725 169.155 174.707C169.193 174.69 169.235 174.681 169.276 174.681H178.067C178.139 174.682 178.208 174.708 178.262 174.754C178.316 174.801 178.352 174.865 178.363 174.936L179.305 181.448C179.31 181.49 179.306 181.533 179.294 181.574C179.282 181.615 179.261 181.652 179.234 181.685C179.203 181.721 179.163 181.75 179.119 181.769C179.075 181.787 179.027 181.795 178.979 181.791ZM170.146 181.199H178.636L177.783 175.279H169.572L170.146 181.199Z" fill="white"/>
<path d="M261.545 223.521H37.4614V226.701H261.545V223.521Z" fill="#263238"/>
<path d="M261.545 226.996H37.4615C37.383 226.996 37.3077 226.965 37.2522 226.91C37.1967 226.854 37.1655 226.779 37.1655 226.7V223.521C37.1655 223.443 37.1967 223.368 37.2522 223.312C37.3077 223.257 37.383 223.225 37.4615 223.225H261.545C261.624 223.225 261.699 223.257 261.755 223.312C261.81 223.368 261.841 223.443 261.841 223.521V226.7C261.841 226.779 261.81 226.854 261.755 226.91C261.699 226.965 261.624 226.996 261.545 226.996ZM37.7694 226.404H261.249V223.817H37.7575L37.7694 226.404Z" fill="#263238"/>
<mask id="path-175-inside-1_199687_40482" fill="white">
<path d="M123.275 121.686C119.629 117.101 117.379 111.626 116.776 105.876C116.174 100.125 117.243 94.3266 119.864 89.1297C122.485 83.9328 126.554 79.5432 131.615 76.4529C136.675 73.3626 142.528 71.6939 148.517 71.6338C154.506 71.5737 160.393 73.1246 165.52 76.1126C170.646 79.1006 174.809 83.4076 177.541 88.5508C180.273 93.694 181.467 99.47 180.989 105.231C180.51 110.992 178.378 116.511 174.832 121.169L173.793 120.432C177.197 115.96 179.244 110.663 179.703 105.132C180.163 99.601 179.017 94.056 176.394 89.1186C173.771 84.1812 169.774 80.0464 164.853 77.1779C159.932 74.3094 154.279 72.8205 148.53 72.8782C142.781 72.9359 137.163 74.5379 132.304 77.5046C127.445 80.4713 123.539 84.6853 121.023 89.6744C118.507 94.6634 117.481 100.23 118.059 105.75C118.638 111.271 120.798 116.527 124.298 120.928L123.275 121.686Z"/>
</mask>
<path d="M123.275 121.686C119.629 117.101 117.379 111.626 116.776 105.876C116.174 100.125 117.243 94.3266 119.864 89.1297C122.485 83.9328 126.554 79.5432 131.615 76.4529C136.675 73.3626 142.528 71.6939 148.517 71.6338C154.506 71.5737 160.393 73.1246 165.52 76.1126C170.646 79.1006 174.809 83.4076 177.541 88.5508C180.273 93.694 181.467 99.47 180.989 105.231C180.51 110.992 178.378 116.511 174.832 121.169L173.793 120.432C177.197 115.96 179.244 110.663 179.703 105.132C180.163 99.601 179.017 94.056 176.394 89.1186C173.771 84.1812 169.774 80.0464 164.853 77.1779C159.932 74.3094 154.279 72.8205 148.53 72.8782C142.781 72.9359 137.163 74.5379 132.304 77.5046C127.445 80.4713 123.539 84.6853 121.023 89.6744C118.507 94.6634 117.481 100.23 118.059 105.75C118.638 111.271 120.798 116.527 124.298 120.928L123.275 121.686Z" fill="#FF7B00" fill-opacity="0.6" stroke="#FF7B00" stroke-opacity="0.8" stroke-width="2" mask="url(#path-175-inside-1_199687_40482)"/>
<path d="M185.584 84.1833C160.316 79.7613 127.217 82.3408 113.825 84.1833C109.244 85.4103 111.917 85.9872 113.825 86.1223C145.964 81.1909 175.056 84.0675 185.584 86.1223C191.495 85.7055 188.047 84.656 185.584 84.1833Z" fill="#FF7B00" fill-opacity="0.6" stroke="#FF7B00" stroke-opacity="0.8"/>
<path d="M184.264 87.065C159.934 83.3233 128.064 85.506 115.17 87.065C110.76 88.1033 113.332 88.5914 115.17 88.7056C146.116 84.533 174.127 86.967 184.264 88.7056C189.955 88.353 186.635 87.465 184.264 87.065Z" fill="#FF7B00" fill-opacity="0.6" stroke="#FF7B00" stroke-opacity="0.8"/>
<path d="M179.481 89.9595C158.714 86.6213 131.215 88.1444 120.061 89.3232C116.225 90.1467 118.417 90.5766 119.993 90.6886C146.779 87.5009 170.768 89.7846 179.413 91.3249C184.322 91.0839 181.504 90.3142 179.481 89.9595Z" fill="#FF7B00" fill-opacity="0.6" stroke="#FF7B00" stroke-opacity="0.8"/>
<ellipse cx="1.03537" cy="1.23263" rx="1.03537" ry="1.23263" transform="matrix(0.894602 -0.446865 0.437088 0.899419 148.854 90.8333)" fill="#FF7B00" fill-opacity="0.6"/>
<path d="M150.798 91.24C151.013 91.6806 150.834 92.041 150.64 92.1382C150.445 92.2354 150.055 92.1591 149.841 91.7185C149.626 91.2779 149.805 90.9175 149.999 90.8203C150.194 90.7231 150.584 90.7994 150.798 91.24Z" stroke="#FF7B00" stroke-opacity="0.8"/>
<ellipse cx="1.03537" cy="1.23263" rx="1.03537" ry="1.23263" transform="matrix(0.894602 -0.446865 0.437088 0.899419 155.315 106.106)" fill="#FF7B00" fill-opacity="0.6"/>
<path d="M157.259 106.513C157.473 106.953 157.295 107.314 157.101 107.411C156.906 107.508 156.516 107.432 156.302 106.991C156.087 106.551 156.266 106.19 156.46 106.093C156.655 105.996 157.045 106.072 157.259 106.513Z" stroke="#FF7B00" stroke-opacity="0.8"/>
<ellipse cx="1.03537" cy="1.23263" rx="1.03537" ry="1.23263" transform="matrix(0.894602 -0.446865 0.437088 0.899419 138.686 102.922)" fill="#FF7B00" fill-opacity="0.6"/>
<path d="M140.629 103.329C140.844 103.769 140.665 104.13 140.471 104.227C140.276 104.324 139.886 104.248 139.672 103.807C139.458 103.367 139.636 103.006 139.83 102.909C140.025 102.812 140.415 102.888 140.629 103.329Z" stroke="#FF7B00" stroke-opacity="0.8"/>
<path d="M149.657 91.505C148.536 91.4138 147.306 92.0467 146.217 93.4797C145.132 94.908 144.318 96.971 143.951 99.2981C143.584 101.623 143.695 104.016 144.253 106.031C144.814 108.057 145.768 109.494 146.868 110.169C147.925 110.818 149.116 110.761 150.279 109.928C151.469 109.077 152.537 107.471 153.238 105.354C153.936 103.245 154.204 100.823 153.991 98.5418C153.777 96.2546 153.097 94.3098 152.121 93.0423" stroke="#FF7B00" stroke-opacity="0.8"/>
<path d="M157.031 106.039C157.629 105.066 157.637 103.664 156.884 102.028C156.132 100.396 154.701 98.7161 152.833 97.3171C150.967 95.9196 148.821 94.9199 146.802 94.4964C144.771 94.0707 143.074 94.2683 141.976 94.9492C140.916 95.6064 140.418 96.7107 140.613 98.1422C140.811 99.6055 141.727 101.304 143.258 102.906C144.782 104.502 146.779 105.857 148.874 106.712C150.973 107.57 152.988 107.852 154.546 107.556" stroke="#FF7B00" stroke-opacity="0.8"/>
<path d="M141.205 106.132C141.845 107.077 143.109 107.644 144.89 107.597C146.666 107.55 148.757 106.891 150.768 105.713C152.777 104.536 154.538 102.941 155.728 101.233C156.924 99.5161 157.423 97.8596 157.245 96.5671C157.075 95.3199 156.275 94.4163 154.903 94.0253C153.5 93.6257 151.599 93.7983 149.539 94.5812C147.486 95.3612 145.464 96.6763 143.854 98.2814C142.239 99.8907 141.18 101.65 140.825 103.217" stroke="#FF7B00" stroke-opacity="0.8"/>
<path d="M152.447 104.754C151.86 103.725 150.919 103.023 149.828 102.769C150.346 102.554 150.775 102.163 151.04 101.663C151.305 101.164 151.391 100.586 151.283 100.029C151.175 99.472 150.879 98.9704 150.447 98.6099C150.014 98.2493 149.472 98.0522 148.912 98.0522C148.352 98.0522 147.81 98.2493 147.377 98.6099C146.945 98.9704 146.649 99.472 146.541 100.029C146.433 100.586 146.519 101.164 146.784 101.663C147.05 102.163 147.478 102.554 147.996 102.769C146.907 103.022 145.965 103.725 145.378 104.754C145.361 104.787 145.357 104.825 145.367 104.861C145.377 104.897 145.401 104.927 145.432 104.946C145.464 104.964 145.502 104.97 145.537 104.961C145.573 104.952 145.604 104.93 145.623 104.898C146.318 103.68 147.548 102.953 148.912 102.953C150.276 102.953 151.506 103.68 152.201 104.898C152.213 104.92 152.231 104.938 152.253 104.951C152.274 104.964 152.299 104.97 152.324 104.97C152.349 104.97 152.373 104.964 152.395 104.951C152.427 104.932 152.451 104.9 152.461 104.863C152.471 104.827 152.465 104.787 152.447 104.754ZM146.78 100.503C146.78 100.075 146.905 99.6572 147.139 99.3017C147.373 98.9462 147.706 98.6691 148.096 98.5055C148.486 98.3419 148.914 98.2991 149.328 98.3825C149.742 98.4659 150.122 98.6718 150.42 98.9741C150.718 99.2765 150.921 99.6616 151.003 100.081C151.086 100.5 151.043 100.935 150.882 101.33C150.721 101.725 150.447 102.063 150.097 102.3C149.746 102.538 149.334 102.664 148.912 102.664C148.347 102.664 147.805 102.436 147.405 102.031C147.005 101.625 146.78 101.076 146.78 100.503Z" fill="#FF7B00" fill-opacity="0.6" stroke="#FF7B00" stroke-opacity="0.8"/>
<path d="M138.994 130.376H120.049L144.172 72.5303H153.334L178.324 130.376H158.825" stroke="#FF7B00" stroke-opacity="0.8"/>
<mask id="path-190-inside-2_199687_40482" fill="white">
<path d="M148.906 138.126C143.063 138.126 138.326 133.324 138.326 127.399C138.326 121.475 143.063 116.673 148.906 116.673C154.749 116.673 159.486 121.475 159.486 127.399C159.486 133.324 154.749 138.126 148.906 138.126ZM148.906 117.318C143.414 117.318 138.963 121.832 138.963 127.399C138.963 132.967 143.414 137.48 148.906 137.48C154.398 137.48 158.849 132.967 158.849 127.399C158.849 121.832 154.398 117.318 148.906 117.318Z"/>
</mask>
<path d="M148.906 138.126C143.063 138.126 138.326 133.324 138.326 127.399C138.326 121.475 143.063 116.673 148.906 116.673C154.749 116.673 159.486 121.475 159.486 127.399C159.486 133.324 154.749 138.126 148.906 138.126ZM148.906 117.318C143.414 117.318 138.963 121.832 138.963 127.399C138.963 132.967 143.414 137.48 148.906 137.48C154.398 137.48 158.849 132.967 158.849 127.399C158.849 121.832 154.398 117.318 148.906 117.318Z" fill="#FF7B00" fill-opacity="0.6" stroke="#FF7B00" stroke-opacity="0.8" stroke-width="2" mask="url(#path-190-inside-2_199687_40482)"/>
<path d="M148.091 129.242C148.091 129.375 147.982 129.482 147.848 129.482C147.713 129.482 147.605 129.375 147.605 129.242C147.605 129.11 147.713 129.003 147.848 129.003C147.982 129.003 148.091 129.11 148.091 129.242Z" fill="#FF7B00" fill-opacity="0.6"/>
<path d="M142.868 126.605H142.949M148.779 131.879H147.524H145.135V131.32V131.16L145.256 131.04L145.378 130.92H146.309M148.779 131.879H154.083H154.569L154.892 131.56L155.014 131.32V130.361V128.163V126.685M148.779 131.879L148.576 131.64L148.495 131.44V130.92M155.014 126.685V126.365M155.014 126.685L155.054 126.605M155.014 126.365V125.886V125.446V125.326L154.933 125.207L154.852 125.127L154.771 125.087H154.204H153.556H152.787H152.585H152.524M155.014 126.365H148.495M152.524 125.087H152.463L148.9 125.127H148.657L148.495 125.247V125.446V126.365M152.524 125.087V123.089L152.423 122.929L152.261 122.849H151.734H143.354H143.192L143.03 122.929L142.949 123.049V123.209V126.605M142.949 126.605V128.403M148.414 130.121H146.309M146.309 130.121H143.313L143.192 130.081L143.111 130.041L143.03 129.961L142.949 129.842V129.762V128.403M146.309 130.121V130.92M146.309 130.92H148.495M148.495 130.92V128.643V128.403M148.495 128.403H142.949M148.495 128.403V126.365M149.184 130.081H151.168M148.091 129.242C148.091 129.375 147.982 129.482 147.848 129.482C147.713 129.482 147.605 129.375 147.605 129.242C147.605 129.11 147.713 129.003 147.848 129.003C147.982 129.003 148.091 129.11 148.091 129.242Z" stroke="#FF7B00" stroke-opacity="0.8"/>
<path d="M152.301 130.322H154.245" stroke="#FF7B00" stroke-opacity="0.8"/>
<path d="M149.183 131.122H150.195" stroke="#FF7B00" stroke-opacity="0.8"/>
<path d="M152.261 131.163H153.313" stroke="#FF7B00" stroke-opacity="0.8"/>
<path d="M152.218 129.563H151.206V129.483V129.403L151.287 129.324H152.057H152.259L152.299 129.403L152.259 129.483L152.218 129.563Z" fill="#FF7B00" fill-opacity="0.6"/>
<path d="M151.409 129.293V129.181L151.328 129.044L150.963 128.484L151.733 127.565M151.733 127.565L152.461 128.484L152.178 129.044L152.057 129.181V129.324M151.733 127.565V128.444H151.53H151.743H151.955M152.057 129.324H152.259L152.299 129.403L152.259 129.483L152.218 129.563H151.206V129.483V129.403L151.287 129.324H152.057Z" stroke="#FF7B00" stroke-opacity="0.8"/>
<path d="M146.187 124.211L145.054 126.688" stroke="#FF7B00" stroke-opacity="0.8"/>
<path d="M146.594 124.809L147.242 125.448L146.594 126.087" stroke="#FF7B00" stroke-opacity="0.8"/>
<path d="M144.609 124.769L143.962 125.409L144.609 126.048" stroke="#FF7B00" stroke-opacity="0.8"/>
<path d="M81.868 154.14H78.22L77.548 156H76.396L79.42 147.684H80.68L83.692 156H82.54L81.868 154.14ZM81.556 153.252L80.044 149.028L78.532 153.252H81.556ZM90.8419 149.424V156H89.7499V155.028C89.5419 155.364 89.2499 155.628 88.8739 155.82C88.5059 156.004 88.0979 156.096 87.6499 156.096C87.1379 156.096 86.6779 155.992 86.2699 155.784C85.8619 155.568 85.5379 155.248 85.2979 154.824C85.0659 154.4 84.9499 153.884 84.9499 153.276V149.424H86.0299V153.132C86.0299 153.78 86.1939 154.28 86.5219 154.632C86.8499 154.976 87.2979 155.148 87.8659 155.148C88.4499 155.148 88.9099 154.968 89.2459 154.608C89.5819 154.248 89.7499 153.724 89.7499 153.036V149.424H90.8419ZM93.7777 150.492C93.9697 150.116 94.2417 149.824 94.5937 149.616C94.9537 149.408 95.3897 149.304 95.9017 149.304V150.432H95.6137C94.3897 150.432 93.7777 151.096 93.7777 152.424V156H92.6857V149.424H93.7777V150.492ZM96.7543 152.688C96.7543 152.016 96.8903 151.428 97.1623 150.924C97.4343 150.412 97.8063 150.016 98.2783 149.736C98.7583 149.456 99.2903 149.316 99.8743 149.316C100.45 149.316 100.95 149.44 101.374 149.688C101.798 149.936 102.114 150.248 102.322 150.624V149.424H103.426V156H102.322V154.776C102.106 155.16 101.782 155.48 101.35 155.736C100.926 155.984 100.43 156.108 99.8623 156.108C99.2783 156.108 98.7503 155.964 98.2783 155.676C97.8063 155.388 97.4343 154.984 97.1623 154.464C96.8903 153.944 96.7543 153.352 96.7543 152.688ZM102.322 152.7C102.322 152.204 102.222 151.772 102.022 151.404C101.822 151.036 101.55 150.756 101.206 150.564C100.87 150.364 100.498 150.264 100.09 150.264C99.6823 150.264 99.3103 150.36 98.9743 150.552C98.6383 150.744 98.3703 151.024 98.1703 151.392C97.9703 151.76 97.8703 152.192 97.8703 152.688C97.8703 153.192 97.9703 153.632 98.1703 154.008C98.3703 154.376 98.6383 154.66 98.9743 154.86C99.3103 155.052 99.6823 155.148 100.09 155.148C100.498 155.148 100.87 155.052 101.206 154.86C101.55 154.66 101.822 154.376 102.022 154.008C102.222 153.632 102.322 153.196 102.322 152.7ZM104.864 151.812C104.864 150.996 105.048 150.264 105.416 149.616C105.784 148.96 106.284 148.448 106.916 148.08C107.556 147.712 108.264 147.528 109.04 147.528C109.952 147.528 110.748 147.748 111.428 148.188C112.108 148.628 112.604 149.252 112.916 150.06H111.608C111.376 149.556 111.04 149.168 110.6 148.896C110.168 148.624 109.648 148.488 109.04 148.488C108.456 148.488 107.932 148.624 107.468 148.896C107.004 149.168 106.64 149.556 106.376 150.06C106.112 150.556 105.98 151.14 105.98 151.812C105.98 152.476 106.112 153.06 106.376 153.564C106.64 154.06 107.004 154.444 107.468 154.716C107.932 154.988 108.456 155.124 109.04 155.124C109.648 155.124 110.168 154.992 110.6 154.728C111.04 154.456 111.376 154.068 111.608 153.564H112.916C112.604 154.364 112.108 154.984 111.428 155.424C110.748 155.856 109.952 156.072 109.04 156.072C108.264 156.072 107.556 155.892 106.916 155.532C106.284 155.164 105.784 154.656 105.416 154.008C105.048 153.36 104.864 152.628 104.864 151.812ZM115.633 150.492C115.825 150.116 116.097 149.824 116.449 149.616C116.809 149.408 117.245 149.304 117.757 149.304V150.432H117.469C116.245 150.432 115.633 151.096 115.633 152.424V156H114.541V149.424H115.633V150.492ZM118.61 152.688C118.61 152.016 118.746 151.428 119.018 150.924C119.29 150.412 119.662 150.016 120.134 149.736C120.614 149.456 121.146 149.316 121.73 149.316C122.306 149.316 122.806 149.44 123.23 149.688C123.654 149.936 123.97 150.248 124.178 150.624V149.424H125.282V156H124.178V154.776C123.962 155.16 123.638 155.48 123.206 155.736C122.782 155.984 122.286 156.108 121.718 156.108C121.134 156.108 120.606 155.964 120.134 155.676C119.662 155.388 119.29 154.984 119.018 154.464C118.746 153.944 118.61 153.352 118.61 152.688ZM124.178 152.7C124.178 152.204 124.078 151.772 123.878 151.404C123.678 151.036 123.406 150.756 123.062 150.564C122.726 150.364 122.354 150.264 121.946 150.264C121.538 150.264 121.166 150.36 120.83 150.552C120.494 150.744 120.226 151.024 120.026 151.392C119.826 151.76 119.726 152.192 119.726 152.688C119.726 153.192 119.826 153.632 120.026 154.008C120.226 154.376 120.494 154.66 120.83 154.86C121.166 155.052 121.538 155.148 121.946 155.148C122.354 155.148 122.726 155.052 123.062 154.86C123.406 154.66 123.678 154.376 123.878 154.008C124.078 153.632 124.178 153.196 124.178 152.7ZM129.803 150.324H128.423V156H127.331V150.324H126.479V149.424H127.331V148.956C127.331 148.22 127.519 147.684 127.895 147.348C128.279 147.004 128.891 146.832 129.731 146.832V147.744C129.251 147.744 128.911 147.84 128.711 148.032C128.519 148.216 128.423 148.524 128.423 148.956V149.424H129.803V150.324ZM132.408 150.324V154.2C132.408 154.52 132.476 154.748 132.612 154.884C132.748 155.012 132.984 155.076 133.32 155.076H134.124V156H133.14C132.532 156 132.076 155.86 131.772 155.58C131.468 155.3 131.316 154.84 131.316 154.2V150.324H130.464V149.424H131.316V147.768H132.408V149.424H134.124V150.324H132.408ZM141.251 147.636C142.163 147.636 142.951 147.808 143.615 148.152C144.287 148.488 144.799 148.972 145.151 149.604C145.511 150.236 145.691 150.98 145.691 151.836C145.691 152.692 145.511 153.436 145.151 154.068C144.799 154.692 144.287 155.172 143.615 155.508C142.951 155.836 142.163 156 141.251 156H138.647V147.636H141.251ZM141.251 155.1C142.331 155.1 143.155 154.816 143.723 154.248C144.291 153.672 144.575 152.868 144.575 151.836C144.575 150.796 144.287 149.984 143.711 149.4C143.143 148.816 142.323 148.524 141.251 148.524H139.739V155.1H141.251ZM153.131 152.46C153.131 152.668 153.119 152.888 153.095 153.12H147.839C147.879 153.768 148.099 154.276 148.499 154.644C148.907 155.004 149.399 155.184 149.975 155.184C150.447 155.184 150.839 155.076 151.151 154.86C151.471 154.636 151.695 154.34 151.823 153.972H152.999C152.823 154.604 152.471 155.12 151.943 155.52C151.415 155.912 150.759 156.108 149.975 156.108C149.351 156.108 148.791 155.968 148.295 155.688C147.807 155.408 147.423 155.012 147.143 154.5C146.863 153.98 146.723 153.38 146.723 152.7C146.723 152.02 146.859 151.424 147.131 150.912C147.403 150.4 147.783 150.008 148.271 149.736C148.767 149.456 149.335 149.316 149.975 149.316C150.599 149.316 151.151 149.452 151.631 149.724C152.111 149.996 152.479 150.372 152.735 150.852C152.999 151.324 153.131 151.86 153.131 152.46ZM152.003 152.232C152.003 151.816 151.911 151.46 151.727 151.164C151.543 150.86 151.291 150.632 150.971 150.48C150.659 150.32 150.311 150.24 149.927 150.24C149.375 150.24 148.903 150.416 148.511 150.768C148.127 151.12 147.907 151.608 147.851 152.232H152.003ZM156.9 156.108C156.396 156.108 155.944 156.024 155.544 155.856C155.144 155.68 154.828 155.44 154.596 155.136C154.364 154.824 154.236 154.468 154.212 154.068H155.34C155.372 154.396 155.524 154.664 155.796 154.872C156.076 155.08 156.44 155.184 156.888 155.184C157.304 155.184 157.632 155.092 157.872 154.908C158.112 154.724 158.232 154.492 158.232 154.212C158.232 153.924 158.104 153.712 157.848 153.576C157.592 153.432 157.196 153.292 156.66 153.156C156.172 153.028 155.772 152.9 155.46 152.772C155.156 152.636 154.892 152.44 154.668 152.184C154.452 151.92 154.344 151.576 154.344 151.152C154.344 150.816 154.444 150.508 154.644 150.228C154.844 149.948 155.128 149.728 155.496 149.568C155.864 149.4 156.284 149.316 156.756 149.316C157.484 149.316 158.072 149.5 158.52 149.868C158.968 150.236 159.208 150.74 159.24 151.38H158.148C158.124 151.036 157.984 150.76 157.728 150.552C157.48 150.344 157.144 150.24 156.72 150.24C156.328 150.24 156.016 150.324 155.784 150.492C155.552 150.66 155.436 150.88 155.436 151.152C155.436 151.368 155.504 151.548 155.64 151.692C155.784 151.828 155.96 151.94 156.168 152.028C156.384 152.108 156.68 152.2 157.056 152.304C157.528 152.432 157.912 152.56 158.208 152.688C158.504 152.808 158.756 152.992 158.964 153.24C159.18 153.488 159.292 153.812 159.3 154.212C159.3 154.572 159.2 154.896 159 155.184C158.8 155.472 158.516 155.7 158.148 155.868C157.788 156.028 157.372 156.108 156.9 156.108ZM161.406 148.356C161.198 148.356 161.022 148.284 160.878 148.14C160.734 147.996 160.662 147.82 160.662 147.612C160.662 147.404 160.734 147.228 160.878 147.084C161.022 146.94 161.198 146.868 161.406 146.868C161.606 146.868 161.774 146.94 161.91 147.084C162.054 147.228 162.126 147.404 162.126 147.612C162.126 147.82 162.054 147.996 161.91 148.14C161.774 148.284 161.606 148.356 161.406 148.356ZM161.934 149.424V156H160.842V149.424H161.934ZM166.507 149.316C167.075 149.316 167.571 149.44 167.995 149.688C168.427 149.936 168.747 150.248 168.955 150.624V149.424H170.059V156.144C170.059 156.744 169.931 157.276 169.675 157.74C169.419 158.212 169.051 158.58 168.571 158.844C168.099 159.108 167.547 159.24 166.915 159.24C166.051 159.24 165.331 159.036 164.755 158.628C164.179 158.22 163.839 157.664 163.735 156.96H164.815C164.935 157.36 165.183 157.68 165.559 157.92C165.935 158.168 166.387 158.292 166.915 158.292C167.515 158.292 168.003 158.104 168.379 157.728C168.763 157.352 168.955 156.824 168.955 156.144V154.764C168.739 155.148 168.419 155.468 167.995 155.724C167.571 155.98 167.075 156.108 166.507 156.108C165.923 156.108 165.391 155.964 164.911 155.676C164.439 155.388 164.067 154.984 163.795 154.464C163.523 153.944 163.387 153.352 163.387 152.688C163.387 152.016 163.523 151.428 163.795 150.924C164.067 150.412 164.439 150.016 164.911 149.736C165.391 149.456 165.923 149.316 166.507 149.316ZM168.955 152.7C168.955 152.204 168.855 151.772 168.655 151.404C168.455 151.036 168.183 150.756 167.839 150.564C167.503 150.364 167.131 150.264 166.723 150.264C166.315 150.264 165.943 150.36 165.607 150.552C165.271 150.744 165.003 151.024 164.803 151.392C164.603 151.76 164.503 152.192 164.503 152.688C164.503 153.192 164.603 153.632 164.803 154.008C165.003 154.376 165.271 154.66 165.607 154.86C165.943 155.052 166.315 155.148 166.723 155.148C167.131 155.148 167.503 155.052 167.839 154.86C168.183 154.66 168.455 154.376 168.655 154.008C168.855 153.632 168.955 153.196 168.955 152.7ZM175.108 149.304C175.908 149.304 176.556 149.548 177.052 150.036C177.548 150.516 177.796 151.212 177.796 152.124V156H176.716V152.28C176.716 151.624 176.552 151.124 176.224 150.78C175.896 150.428 175.448 150.252 174.88 150.252C174.304 150.252 173.844 150.432 173.5 150.792C173.164 151.152 172.996 151.676 172.996 152.364V156H171.904V149.424H172.996V150.36C173.212 150.024 173.504 149.764 173.872 149.58C174.248 149.396 174.66 149.304 175.108 149.304ZM185.431 156.084C184.879 156.084 184.383 155.988 183.943 155.796C183.511 155.596 183.171 155.324 182.923 154.98C182.675 154.628 182.547 154.224 182.539 153.768H183.703C183.743 154.16 183.903 154.492 184.183 154.764C184.471 155.028 184.887 155.16 185.431 155.16C185.951 155.16 186.359 155.032 186.655 154.776C186.959 154.512 187.111 154.176 187.111 153.768C187.111 153.448 187.023 153.188 186.847 152.988C186.671 152.788 186.451 152.636 186.187 152.532C185.923 152.428 185.567 152.316 185.119 152.196C184.567 152.052 184.123 151.908 183.787 151.764C183.459 151.62 183.175 151.396 182.935 151.092C182.703 150.78 182.587 150.364 182.587 149.844C182.587 149.388 182.703 148.984 182.935 148.632C183.167 148.28 183.491 148.008 183.907 147.816C184.331 147.624 184.815 147.528 185.359 147.528C186.143 147.528 186.783 147.724 187.279 148.116C187.783 148.508 188.067 149.028 188.131 149.676H186.931C186.891 149.356 186.723 149.076 186.427 148.836C186.131 148.588 185.739 148.464 185.251 148.464C184.795 148.464 184.423 148.584 184.135 148.824C183.847 149.056 183.703 149.384 183.703 149.808C183.703 150.112 183.787 150.36 183.955 150.552C184.131 150.744 184.343 150.892 184.591 150.996C184.847 151.092 185.203 151.204 185.659 151.332C186.211 151.484 186.655 151.636 186.991 151.788C187.327 151.932 187.615 152.16 187.855 152.472C188.095 152.776 188.215 153.192 188.215 153.72C188.215 154.128 188.107 154.512 187.891 154.872C187.675 155.232 187.355 155.524 186.931 155.748C186.507 155.972 186.007 156.084 185.431 156.084ZM191.154 150.324V154.2C191.154 154.52 191.222 154.748 191.358 154.884C191.494 155.012 191.73 155.076 192.066 155.076H192.87V156H191.886C191.278 156 190.822 155.86 190.518 155.58C190.214 155.3 190.062 154.84 190.062 154.2V150.324H189.21V149.424H190.062V147.768H191.154V149.424H192.87V150.324H191.154ZM200.026 149.424V156H198.934V155.028C198.726 155.364 198.434 155.628 198.058 155.82C197.69 156.004 197.282 156.096 196.834 156.096C196.322 156.096 195.862 155.992 195.454 155.784C195.046 155.568 194.722 155.248 194.482 154.824C194.25 154.4 194.134 153.884 194.134 153.276V149.424H195.214V153.132C195.214 153.78 195.378 154.28 195.706 154.632C196.034 154.976 196.482 155.148 197.05 155.148C197.634 155.148 198.094 154.968 198.43 154.608C198.766 154.248 198.934 153.724 198.934 153.036V149.424H200.026ZM201.461 152.688C201.461 152.016 201.597 151.428 201.869 150.924C202.141 150.412 202.513 150.016 202.985 149.736C203.465 149.456 204.001 149.316 204.593 149.316C205.105 149.316 205.581 149.436 206.021 149.676C206.461 149.908 206.797 150.216 207.029 150.6V147.12H208.133V156H207.029V154.764C206.813 155.156 206.493 155.48 206.069 155.736C205.645 155.984 205.149 156.108 204.581 156.108C203.997 156.108 203.465 155.964 202.985 155.676C202.513 155.388 202.141 154.984 201.869 154.464C201.597 153.944 201.461 153.352 201.461 152.688ZM207.029 152.7C207.029 152.204 206.929 151.772 206.729 151.404C206.529 151.036 206.257 150.756 205.913 150.564C205.577 150.364 205.205 150.264 204.797 150.264C204.389 150.264 204.017 150.36 203.681 150.552C203.345 150.744 203.077 151.024 202.877 151.392C202.677 151.76 202.577 152.192 202.577 152.688C202.577 153.192 202.677 153.632 202.877 154.008C203.077 154.376 203.345 154.66 203.681 154.86C204.017 155.052 204.389 155.148 204.797 155.148C205.205 155.148 205.577 155.052 205.913 154.86C206.257 154.66 206.529 154.376 206.729 154.008C206.929 153.632 207.029 153.196 207.029 152.7ZM210.543 148.356C210.335 148.356 210.159 148.284 210.015 148.14C209.871 147.996 209.799 147.82 209.799 147.612C209.799 147.404 209.871 147.228 210.015 147.084C210.159 146.94 210.335 146.868 210.543 146.868C210.743 146.868 210.911 146.94 211.047 147.084C211.191 147.228 211.263 147.404 211.263 147.612C211.263 147.82 211.191 147.996 211.047 148.14C210.911 148.284 210.743 148.356 210.543 148.356ZM211.071 149.424V156H209.979V149.424H211.071ZM215.8 156.108C215.184 156.108 214.624 155.968 214.12 155.688C213.624 155.408 213.232 155.012 212.944 154.5C212.664 153.98 212.524 153.38 212.524 152.7C212.524 152.028 212.668 151.436 212.956 150.924C213.252 150.404 213.652 150.008 214.156 149.736C214.66 149.456 215.224 149.316 215.848 149.316C216.472 149.316 217.036 149.456 217.54 149.736C218.044 150.008 218.44 150.4 218.728 150.912C219.024 151.424 219.172 152.02 219.172 152.7C219.172 153.38 219.02 153.98 218.716 154.5C218.42 155.012 218.016 155.408 217.504 155.688C216.992 155.968 216.424 156.108 215.8 156.108ZM215.8 155.148C216.192 155.148 216.56 155.056 216.904 154.872C217.248 154.688 217.524 154.412 217.732 154.044C217.948 153.676 218.056 153.228 218.056 152.7C218.056 152.172 217.952 151.724 217.744 151.356C217.536 150.988 217.264 150.716 216.928 150.54C216.592 150.356 216.228 150.264 215.836 150.264C215.436 150.264 215.068 150.356 214.732 150.54C214.404 150.716 214.14 150.988 213.94 151.356C213.74 151.724 213.64 152.172 213.64 152.7C213.64 153.236 213.736 153.688 213.928 154.056C214.128 154.424 214.392 154.7 214.72 154.884C215.048 155.06 215.408 155.148 215.8 155.148Z" fill="#FF7B00" fill-opacity="0.8"/>
</svg>
