<svg width="575" height="593" viewBox="0 0 575 593" fill="none" xmlns="http://www.w3.org/2000/svg">
<path d="M288.124 10.0222C290.666 10.4741 293.093 8.78009 293.545 6.23852C293.997 3.69694 292.302 1.27023 289.76 0.818294C287.217 0.366363 284.79 2.06035 284.338 4.60193C283.886 7.1435 285.581 9.57022 288.124 10.0222Z" fill="#0A7273"/>
<path d="M335.527 22.5697C333.041 22.1278 331.391 19.7646 331.832 17.2796C332.274 14.7945 334.638 13.1449 337.124 13.5867C339.61 14.0286 341.26 16.3918 340.818 18.8769C340.377 21.3619 338.013 23.0116 335.527 22.5697Z" fill="#0A7273"/>
<path d="M380.051 43.0934C382.472 43.5236 384.783 41.9109 385.213 39.4913C385.643 37.0717 384.029 34.7615 381.609 34.3313C379.189 33.901 376.878 35.5137 376.448 37.9333C376.018 40.3529 377.631 42.6631 380.051 43.0934Z" fill="#0A7273"/>
<path d="M420.322 70.9881C417.965 70.5691 416.39 68.3143 416.809 65.9581C417.228 63.6019 419.483 62.0279 421.84 62.4469C424.197 62.8658 425.772 65.1206 425.353 67.4768C424.953 69.8363 422.697 71.4103 420.322 70.9881Z" fill="#0A7273"/>
<path d="M455.202 105.368C452.9 104.959 451.371 102.769 451.78 100.468C452.189 98.1673 454.379 96.6387 456.681 97.0478C458.983 97.457 460.512 99.6468 460.103 101.948C459.694 104.249 457.504 105.777 455.202 105.368Z" fill="#0A7273"/>
<path d="M483.658 145.216C485.906 145.615 488.051 144.118 488.451 141.871C488.85 139.624 487.352 137.479 485.105 137.079C482.857 136.68 480.711 138.177 480.312 140.424C479.913 142.671 481.411 144.816 483.658 145.216Z" fill="#0A7273"/>
<path d="M504.864 189.318C502.673 188.929 501.22 186.847 501.609 184.657C501.998 182.466 504.08 181.013 506.271 181.403C508.463 181.792 509.916 183.874 509.527 186.064C509.137 188.255 507.056 189.708 504.864 189.318Z" fill="#0A7273"/>
<path d="M522.559 233.909C523.271 231.872 522.195 229.644 520.157 228.932C518.119 228.221 515.89 229.296 515.179 231.333C514.467 233.37 515.543 235.599 517.581 236.31C519.619 237.022 521.848 235.947 522.559 233.909Z" fill="#0A7273"/>
<path d="M523.117 285.078C521.054 284.712 519.676 282.739 520.043 280.677C520.409 278.616 522.383 277.238 524.445 277.605C526.507 277.971 527.885 279.944 527.519 282.006C527.152 284.068 525.179 285.445 523.117 285.078Z" fill="#0A7273"/>
<path d="M488.022 426.084C486.144 425.75 484.887 423.95 485.221 422.073C485.555 420.195 487.354 418.939 489.233 419.273C491.111 419.607 492.368 421.406 492.034 423.284C491.7 425.162 489.9 426.418 488.022 426.084Z" fill="#0A7273"/>
<path d="M460.775 466.739C458.952 466.415 457.741 464.68 458.065 462.858C458.389 461.036 460.123 459.825 461.946 460.149C463.769 460.473 464.981 462.207 464.657 464.03C464.336 465.834 462.598 467.063 460.775 466.739Z" fill="#0A7273"/>
<path d="M426.928 502.082C425.161 501.768 423.998 500.08 424.309 498.331C424.623 496.564 426.311 495.402 428.061 495.713C429.828 496.027 430.991 497.715 430.68 499.464C430.369 501.212 428.696 502.396 426.928 502.082Z" fill="#0A7273"/>
<path d="M387.519 531.117C385.807 530.813 384.671 529.187 384.976 527.475C385.28 525.763 386.906 524.628 388.619 524.932C390.331 525.237 391.467 526.863 391.163 528.575C390.84 530.283 389.214 531.418 387.519 531.117Z" fill="#0A7273"/>
<path d="M343.702 552.99C342.063 552.699 340.955 551.135 341.249 549.478C341.544 547.821 343.105 546.732 344.762 547.026C346.42 547.321 347.51 548.882 347.215 550.539C346.921 552.195 345.341 553.282 343.702 552.99Z" fill="#0A7273"/>
<path d="M296.76 567.015C295.176 566.733 294.116 565.215 294.398 563.632C294.679 562.049 296.197 560.99 297.781 561.271C299.364 561.553 300.424 563.071 300.143 564.654C299.861 566.237 298.343 567.296 296.76 567.015Z" fill="#0A7273"/>
<path d="M248.087 572.719C246.559 572.447 245.544 570.995 245.816 569.467C246.087 567.939 247.54 566.925 249.069 567.197C250.597 567.468 251.611 568.921 251.34 570.449C251.068 571.977 249.615 572.991 248.087 572.719Z" fill="#0A7273"/>
<path d="M199.133 569.961C197.66 569.699 196.691 568.311 196.953 566.839C197.214 565.366 198.602 564.397 200.075 564.659C201.548 564.921 202.518 566.309 202.256 567.781C201.994 569.254 200.606 570.223 199.133 569.961Z" fill="#0A7273"/>
<path d="M151.349 558.903C149.949 558.655 149.011 557.31 149.259 555.911C149.508 554.512 150.853 553.574 152.252 553.823C153.651 554.072 154.59 555.416 154.342 556.815C154.093 558.214 152.748 559.152 151.349 558.903Z" fill="#0A7273"/>
<path d="M284.292 31.5778C286.834 32.0297 289.261 30.3358 289.713 27.7942C290.165 25.2526 288.47 22.8259 285.928 22.374C283.385 21.922 280.958 23.616 280.506 26.1576C280.054 28.6992 281.749 31.1259 284.292 31.5778Z" fill="#0A7273"/>
<path d="M331.089 44.2263C328.64 43.791 327.005 41.4494 327.44 39.0012C327.875 36.553 330.217 34.9184 332.666 35.3538C335.115 35.7891 336.75 38.1307 336.315 40.5789C335.88 43.0271 333.538 44.6616 331.089 44.2263Z" fill="#0A7273"/>
<path d="M374.73 65.2385C377.079 65.6561 379.322 64.0908 379.739 61.7424C380.157 59.394 378.591 57.1517 376.242 56.7341C373.893 56.3165 371.65 57.8818 371.232 60.2302C370.815 62.5786 372.381 64.8209 374.73 65.2385Z" fill="#0A7273"/>
<path d="M413.692 93.9636C411.445 93.5643 409.928 91.4146 410.33 89.1505C410.729 86.9047 412.88 85.388 415.144 85.7906C417.391 86.1899 418.908 88.3396 418.506 90.6038C418.085 92.8646 415.938 94.363 413.692 93.9636Z" fill="#0A7273"/>
<path d="M446.669 129.335C444.514 128.952 443.076 126.893 443.459 124.739C443.841 122.585 445.902 121.147 448.056 121.53C450.21 121.913 451.649 123.973 451.266 126.127C450.883 128.28 448.841 129.721 446.669 129.335Z" fill="#0A7273"/>
<path d="M472.601 170.139C470.539 169.772 469.161 167.799 469.527 165.738C469.894 163.676 471.867 162.299 473.929 162.665C475.992 163.032 477.37 165.005 477.003 167.067C476.637 169.128 474.663 170.506 472.601 170.139Z" fill="#0A7273"/>
<path d="M490.594 214.999C488.623 214.649 487.324 212.766 487.671 210.815C488.021 208.845 489.905 207.547 491.857 207.894C493.808 208.241 495.126 210.127 494.779 212.078C494.432 214.03 492.564 215.35 490.594 214.999Z" fill="#0A7273"/>
<path d="M499.969 262.374C501.84 262.706 503.627 261.46 503.959 259.589C504.292 257.719 503.044 255.932 501.173 255.6C499.302 255.267 497.516 256.514 497.183 258.385C496.851 260.255 498.098 262.041 499.969 262.374Z" fill="#0A7273"/>
<path d="M500.388 310.681C498.62 310.367 497.439 308.676 497.753 306.909C498.067 305.141 499.759 303.961 501.526 304.275C503.294 304.589 504.475 306.28 504.161 308.048C503.847 309.815 502.155 310.995 500.388 310.681Z" fill="#0A7273"/>
<path d="M491.935 358.228C490.259 357.93 489.139 356.326 489.437 354.651C489.734 352.975 491.339 351.855 493.015 352.153C494.69 352.451 495.811 354.056 495.513 355.731C495.215 357.406 493.611 358.526 491.935 358.228Z" fill="#0A7273"/>
<path d="M474.898 403.414C473.315 403.132 472.273 401.618 472.551 400.053C472.833 398.47 474.348 397.429 475.913 397.708C477.496 397.989 478.538 399.503 478.26 401.068C477.981 402.633 476.482 403.695 474.898 403.414Z" fill="#0A7273"/>
<path d="M449.766 444.673C448.275 444.408 447.29 442.998 447.555 441.507C447.821 440.016 449.23 439.033 450.722 439.298C452.213 439.563 453.197 440.972 452.932 442.463C452.671 443.936 451.258 444.938 449.766 444.673Z" fill="#0A7273"/>
<path d="M417.438 480.57C416.057 480.324 415.134 479.002 415.379 477.621C415.625 476.241 416.947 475.317 418.328 475.563C419.71 475.808 420.633 477.131 420.388 478.511C420.142 479.892 418.819 480.815 417.438 480.57Z" fill="#0A7273"/>
<path d="M379.033 509.936C377.744 509.707 376.881 508.472 377.11 507.183C377.339 505.894 378.575 505.032 379.864 505.261C381.153 505.49 382.016 506.726 381.787 508.014C381.539 509.3 380.322 510.166 379.033 509.936Z" fill="#0A7273"/>
<path d="M335.867 531.773C334.67 531.561 333.886 530.415 334.096 529.237C334.305 528.059 335.454 527.256 336.633 527.466C337.83 527.679 338.614 528.825 338.404 530.003C338.195 531.181 337.064 531.986 335.867 531.773Z" fill="#0A7273"/>
<path d="M289.391 545.311C288.286 545.115 287.56 544.074 287.756 542.97C287.952 541.865 288.993 541.139 290.098 541.335C291.203 541.531 291.93 542.572 291.733 543.677C291.537 544.781 290.496 545.507 289.391 545.311Z" fill="#0A7273"/>
<path d="M241.181 550.015C242.188 550.194 243.149 549.523 243.328 548.517C243.507 547.51 242.836 546.549 241.829 546.37C240.822 546.191 239.861 546.862 239.682 547.869C239.503 548.875 240.174 549.836 241.181 550.015Z" fill="#0A7273"/>
<path d="M192.894 545.742C193.799 545.903 194.663 545.3 194.824 544.395C194.985 543.49 194.382 542.627 193.477 542.466C192.572 542.305 191.708 542.908 191.547 543.813C191.386 544.717 191.989 545.581 192.894 545.742Z" fill="#0A7273"/>
<path d="M279.874 56.4279C282.416 56.8798 284.843 55.1859 285.295 52.6443C285.747 50.1027 284.052 47.676 281.51 47.2241C278.967 46.7721 276.54 48.4661 276.088 51.0077C275.636 53.5493 277.331 55.976 279.874 56.4279Z" fill="#0A7273"/>
<path d="M324.786 68.5699C322.466 68.1574 320.94 65.9492 321.349 63.6483C321.761 61.3289 323.97 59.8036 326.272 60.2127C328.573 60.6219 330.118 62.8333 329.709 65.1343C329.318 67.4385 327.106 68.9823 324.786 68.5699Z" fill="#0A7273"/>
<path d="M366.379 89.2372C364.298 88.8673 362.905 86.8727 363.275 84.7926C363.644 82.7126 365.639 81.3202 367.72 81.6901C369.801 82.0599 371.194 84.0546 370.824 86.1346C370.454 88.2147 368.459 89.6071 366.379 89.2372Z" fill="#0A7273"/>
<path d="M403.008 117.624C404.859 117.953 406.626 116.72 406.955 114.87C407.284 113.02 406.05 111.253 404.199 110.924C402.348 110.595 400.581 111.828 400.252 113.678C399.923 115.529 401.157 117.295 403.008 117.624Z" fill="#0A7273"/>
<path d="M433.339 152.601C431.718 152.313 430.628 150.752 430.916 149.132C431.204 147.512 432.765 146.423 434.386 146.711C436.006 146.999 437.096 148.56 436.808 150.18C436.52 151.8 434.959 152.889 433.339 152.601Z" fill="#0A7273"/>
<path d="M456.212 192.766C454.813 192.517 453.889 191.194 454.138 189.795C454.386 188.396 455.709 187.473 457.109 187.722C458.508 187.971 459.432 189.293 459.183 190.692C458.934 192.091 457.612 193.014 456.212 192.766Z" fill="#0A7273"/>
<path d="M470.74 236.593C469.58 236.387 468.789 235.278 468.999 234.1C469.205 232.94 470.314 232.15 471.493 232.359C472.653 232.566 473.443 233.675 473.234 234.853C473.024 236.031 471.9 236.799 470.74 236.593Z" fill="#0A7273"/>
<path d="M476.313 282.399C475.374 282.232 474.753 281.343 474.92 280.404C475.087 279.465 475.976 278.845 476.915 279.012C477.854 279.179 478.475 280.067 478.308 281.006C478.141 281.945 477.252 282.566 476.313 282.399Z" fill="#0A7273"/>
<path d="M472.735 328.382C473.437 328.507 474.107 328.039 474.231 327.338C474.356 326.636 473.888 325.966 473.187 325.842C472.485 325.717 471.815 326.184 471.69 326.886C471.566 327.587 472.033 328.257 472.735 328.382Z" fill="#0A7273"/>
<path d="M205.971 499.68C92.4004 499.68 0 407.28 0 293.689C0 180.099 92.4004 87.7183 205.971 87.7183C319.541 87.7183 411.962 180.119 411.962 293.689C411.962 407.26 319.561 499.68 205.971 499.68ZM205.971 91.6976C94.589 91.6976 3.97934 182.307 3.97934 293.689C3.97934 405.071 94.589 495.701 205.971 495.701C317.353 495.701 407.982 405.091 407.982 293.689C407.982 182.307 317.353 91.6976 205.971 91.6976Z" fill="url(#paint0_linear_199672_37362)"/>
<path d="M205.981 466.002C110.965 466.002 33.6777 388.696 33.6777 293.699C33.6777 198.682 110.984 121.396 205.981 121.396C300.998 121.396 378.284 198.702 378.284 293.699C378.304 388.696 300.998 466.002 205.981 466.002ZM205.981 135.006C118.486 135.006 47.3084 206.184 47.3084 293.679C47.3084 381.174 118.486 452.352 205.981 452.352C293.476 452.352 364.654 381.174 364.654 293.679C364.654 206.184 293.476 135.006 205.981 135.006Z" fill="#FF9D00"/>
<path d="M516.188 457.34C540.343 451.868 555.485 427.856 550.009 403.708C544.533 379.56 520.512 364.419 496.357 369.891C472.203 375.363 457.06 399.374 462.536 423.523C468.012 447.671 492.033 462.811 516.188 457.34Z" fill="#FF7B00"/>
<path d="M58.8019 407.263L35.2285 404.02L31.9824 427.616L55.5558 430.859L58.8019 407.263Z" fill="url(#paint1_linear_199672_37362)"/>
<path d="M54.3089 129.228L45.4258 138.092V129.228H54.3089Z" fill="url(#paint2_linear_199672_37362)"/>
<path d="M70.7511 129.228L45.4258 154.545V145.68L61.8834 129.228H70.7511Z" fill="#0A7273"/>
<path d="M119.985 129.228L45.4258 203.748V195.021L111.241 129.228H119.985Z" fill="#0A7273"/>
<path d="M103.666 129.228L45.4258 187.434V178.569L94.7986 129.228H103.666Z" fill="#0A7273"/>
<path d="M87.2087 129.228L45.4258 170.997V162.117L78.341 129.228H87.2087Z" fill="#0A7273"/>
<mask id="path-55-inside-1_199672_37362" fill="white">
<path d="M116.554 349.576C104.441 334.341 96.9636 316.151 94.9615 297.045C92.9594 277.939 96.5115 258.672 105.219 241.405C113.927 224.138 127.447 209.553 144.262 199.286C161.078 189.018 180.524 183.473 200.422 183.274C220.319 183.074 239.881 188.227 256.914 198.155C273.947 208.083 287.778 222.393 296.856 239.482C305.935 256.57 309.901 275.761 308.311 294.903C306.721 314.045 299.638 332.382 287.855 347.857L284.402 345.408C295.714 330.552 302.514 312.949 304.04 294.573C305.566 276.197 301.759 257.773 293.044 241.368C284.329 224.963 271.051 211.225 254.699 201.694C238.347 192.164 219.568 187.217 200.466 187.408C181.365 187.6 162.696 192.923 146.553 202.78C130.41 212.637 117.432 226.638 109.072 243.215C100.712 259.791 97.3025 278.287 99.2245 296.629C101.147 314.971 108.324 332.433 119.954 347.059L116.554 349.576Z"/>
</mask>
<path d="M116.554 349.576C104.441 334.341 96.9636 316.151 94.9615 297.045C92.9594 277.939 96.5115 258.672 105.219 241.405C113.927 224.138 127.447 209.553 144.262 199.286C161.078 189.018 180.524 183.473 200.422 183.274C220.319 183.074 239.881 188.227 256.914 198.155C273.947 208.083 287.778 222.393 296.856 239.482C305.935 256.57 309.901 275.761 308.311 294.903C306.721 314.045 299.638 332.382 287.855 347.857L284.402 345.408C295.714 330.552 302.514 312.949 304.04 294.573C305.566 276.197 301.759 257.773 293.044 241.368C284.329 224.963 271.051 211.225 254.699 201.694C238.347 192.164 219.568 187.217 200.466 187.408C181.365 187.6 162.696 192.923 146.553 202.78C130.41 212.637 117.432 226.638 109.072 243.215C100.712 259.791 97.3025 278.287 99.2245 296.629C101.147 314.971 108.324 332.433 119.954 347.059L116.554 349.576Z" fill="url(#paint3_linear_199672_37362)" stroke="url(#paint4_linear_199672_37362)" stroke-width="2" mask="url(#path-55-inside-1_199672_37362)"/>
<path d="M323.582 224.97C239.627 210.278 129.651 218.848 85.1576 224.97C69.9377 229.047 78.816 230.964 85.1576 231.413C191.942 215.028 288.601 224.586 323.582 231.413C343.221 230.028 331.765 226.541 323.582 224.97Z" fill="url(#paint5_linear_199672_37362)" stroke="url(#paint6_linear_199672_37362)"/>
<path d="M319.196 234.545C238.359 222.113 132.468 229.365 89.6267 234.545C74.9721 237.995 83.5206 239.616 89.6267 239.996C192.445 226.132 285.514 234.22 319.196 239.996C338.105 238.825 327.074 235.874 319.196 234.545Z" fill="url(#paint7_linear_199672_37362)" stroke="url(#paint8_linear_199672_37362)"/>
<path d="M303.304 244.162C234.302 233.071 142.935 238.131 105.877 242.048C93.1306 244.784 100.415 246.212 105.65 246.585C194.649 235.993 274.352 243.581 303.078 248.699C319.388 247.898 310.025 245.34 303.304 244.162Z" fill="url(#paint9_linear_199672_37362)" stroke="url(#paint10_linear_199672_37362)"/>
<path d="M209.043 247.898C209.948 249.761 209.367 251.755 207.984 252.446C206.601 253.136 204.688 252.388 203.782 250.526C202.877 248.663 203.458 246.669 204.841 245.978C206.224 245.287 208.138 246.035 209.043 247.898Z" fill="url(#paint11_linear_199672_37362)" stroke="url(#paint12_linear_199672_37362)"/>
<path d="M230.51 298.643C231.415 300.505 230.834 302.5 229.451 303.19C228.068 303.881 226.154 303.133 225.249 301.27C224.344 299.408 224.925 297.413 226.308 296.723C227.69 296.032 229.604 296.78 230.51 298.643Z" fill="url(#paint13_linear_199672_37362)" stroke="url(#paint14_linear_199672_37362)"/>
<path d="M175.256 288.063C176.161 289.926 175.58 291.92 174.197 292.611C172.814 293.302 170.9 292.554 169.995 290.691C169.09 288.828 169.671 286.834 171.054 286.143C172.437 285.453 174.35 286.201 175.256 288.063Z" fill="url(#paint15_linear_199672_37362)" stroke="url(#paint16_linear_199672_37362)"/>
<path d="M204.302 248.14C200.038 247.792 195.61 250.215 191.858 255.154C188.11 260.088 185.347 267.136 184.106 275.007C182.865 282.875 183.235 290.998 185.137 297.868C187.043 304.751 190.336 309.844 194.338 312.299C198.298 314.729 202.758 314.458 206.954 311.456C211.178 308.434 214.838 302.849 217.211 295.678C219.581 288.516 220.49 280.306 219.767 272.572C219.042 264.831 216.737 258.136 213.318 253.697" stroke="url(#paint17_linear_199672_37362)"/>
<path d="M229.692 298.208C231.959 294.523 231.87 289.419 229.27 283.773C226.671 278.131 221.769 272.405 215.447 267.671C209.126 262.938 201.843 259.538 194.952 258.093C188.05 256.645 182.075 257.269 178.083 259.744C174.129 262.196 172.316 266.342 173.017 271.502C173.722 276.694 176.931 282.555 182.12 287.987C187.303 293.412 194.075 298.004 201.181 300.907C208.292 303.812 215.215 304.813 220.673 303.776" stroke="url(#paint18_linear_199672_37362)"/>
<path d="M175.177 298.56C177.603 302.139 182.254 304.094 188.398 303.932C194.537 303.77 201.673 301.5 208.479 297.514C215.283 293.53 221.266 288.118 225.325 282.29C229.391 276.452 231.213 270.65 230.569 265.951C229.931 261.297 226.906 257.956 221.96 256.546C216.984 255.128 210.402 255.771 203.418 258.425C196.442 261.075 189.585 265.536 184.123 270.982C178.655 276.431 174.985 282.466 173.743 287.954" stroke="url(#paint19_linear_199672_37362)"/>
<path d="M213.479 293.318C211.528 289.899 208.402 287.565 204.779 286.724C206.5 286.009 207.923 284.71 208.805 283.049C209.687 281.388 209.972 279.469 209.613 277.618C209.254 275.768 208.272 274.101 206.835 272.904C205.398 271.706 203.595 271.051 201.735 271.051C199.875 271.051 198.072 271.706 196.635 272.904C195.199 274.101 194.217 275.768 193.857 277.618C193.498 279.469 193.783 281.388 194.665 283.049C195.547 284.71 196.97 286.009 198.691 286.724C195.073 287.562 191.942 289.899 189.991 293.318C189.935 293.428 189.922 293.555 189.956 293.674C189.99 293.792 190.068 293.893 190.173 293.955C190.279 294.017 190.404 294.035 190.522 294.005C190.64 293.976 190.743 293.901 190.808 293.797C193.116 289.75 197.203 287.333 201.735 287.333C206.267 287.333 210.355 289.75 212.662 293.797C212.703 293.87 212.763 293.93 212.834 293.972C212.906 294.014 212.987 294.037 213.07 294.037C213.153 294.037 213.235 294.015 213.306 293.972C213.415 293.908 213.494 293.804 213.526 293.681C213.558 293.559 213.541 293.428 213.479 293.318ZM194.651 279.193C194.651 277.772 195.066 276.383 195.845 275.202C196.623 274.021 197.729 273.1 199.024 272.557C200.318 272.013 201.743 271.871 203.117 272.148C204.491 272.425 205.754 273.109 206.745 274.114C207.735 275.118 208.41 276.398 208.683 277.791C208.957 279.185 208.817 280.629 208.28 281.941C207.744 283.254 206.836 284.376 205.671 285.165C204.506 285.954 203.136 286.375 201.735 286.375C199.857 286.373 198.056 285.616 196.728 284.269C195.4 282.923 194.653 281.097 194.651 279.193Z" fill="url(#paint20_linear_199672_37362)" stroke="url(#paint21_linear_199672_37362)"/>
<path d="M168.783 378.449H105.838L185.988 186.252H216.428L299.46 378.449H234.674" stroke="url(#paint22_linear_199672_37362)"/>
<mask id="path-67-inside-2_199672_37362" fill="white">
<path d="M201.717 404.199C182.302 404.199 166.564 388.242 166.564 368.559C166.564 348.875 182.302 332.918 201.717 332.918C221.132 332.918 236.871 348.875 236.871 368.559C236.871 388.242 221.132 404.199 201.717 404.199ZM201.717 335.064C183.471 335.064 168.68 350.06 168.68 368.559C168.68 387.057 183.471 402.054 201.717 402.054C219.963 402.054 234.755 387.057 234.755 368.559C234.755 350.06 219.963 335.064 201.717 335.064Z"/>
</mask>
<path d="M201.717 404.199C182.302 404.199 166.564 388.242 166.564 368.559C166.564 348.875 182.302 332.918 201.717 332.918C221.132 332.918 236.871 348.875 236.871 368.559C236.871 388.242 221.132 404.199 201.717 404.199ZM201.717 335.064C183.471 335.064 168.68 350.06 168.68 368.559C168.68 387.057 183.471 402.054 201.717 402.054C219.963 402.054 234.755 387.057 234.755 368.559C234.755 350.06 219.963 335.064 201.717 335.064Z" fill="url(#paint23_linear_199672_37362)" stroke="url(#paint24_linear_199672_37362)" stroke-width="2" mask="url(#path-67-inside-2_199672_37362)"/>
<path d="M199.006 374.682C199.006 375.122 198.644 375.479 198.199 375.479C197.753 375.479 197.391 375.122 197.391 374.682C197.391 374.242 197.753 373.885 198.199 373.885C198.644 373.885 199.006 374.242 199.006 374.682Z" fill="url(#paint25_linear_199672_37362)"/>
<path d="M181.652 365.92H181.921M201.293 383.444H197.122H189.186V381.586V381.054L189.589 380.656L189.993 380.258H193.087M201.293 383.444H218.915H220.529L221.606 382.382L222.009 381.586V378.399V371.098V366.185M201.293 383.444L200.62 382.648L200.351 381.984V380.258M222.009 366.185V365.123M222.009 366.185L222.144 365.92M222.009 365.123V363.53V362.07V361.672L221.74 361.273L221.471 361.008L221.202 360.875H219.319H217.166H214.61H213.938H213.736M222.009 365.123H200.351M213.736 360.875H213.534L201.696 361.008H200.889L200.351 361.406V362.07V365.123M213.736 360.875V354.237L213.4 353.706L212.862 353.44H211.113H183.267H182.729L182.19 353.706L181.921 354.104V354.635V365.92M181.921 365.92V371.894M200.082 377.603H193.087M193.087 377.603H183.132L182.729 377.47L182.459 377.337L182.19 377.072L181.921 376.673V376.408V371.894M193.087 377.603V380.258M193.087 380.258H200.351M200.351 380.258V372.691V371.894M200.351 371.894H181.921M200.351 371.894V365.123M202.638 377.47H209.229M199.006 374.682C199.006 375.122 198.644 375.479 198.199 375.479C197.753 375.479 197.391 375.122 197.391 374.682C197.391 374.242 197.753 373.885 198.199 373.885C198.644 373.885 199.006 374.242 199.006 374.682Z" stroke="url(#paint26_linear_199672_37362)"/>
<path d="M212.998 378.269H219.455" stroke="url(#paint27_linear_199672_37362)"/>
<path d="M202.635 380.927H205.998" stroke="url(#paint28_linear_199672_37362)"/>
<path d="M212.863 381.063H216.361" stroke="url(#paint29_linear_199672_37362)"/>
<path d="M212.723 375.749H209.36V375.483V375.218L209.629 374.952H212.185H212.857L212.992 375.218L212.857 375.483L212.723 375.749Z" fill="url(#paint30_linear_199672_37362)"/>
<path d="M210.032 374.851V374.478L209.763 374.023L208.553 372.164L211.109 369.111M211.109 369.111L213.53 372.164L212.588 374.023L212.185 374.478V374.952M211.109 369.111V372.032H210.436H211.142H211.847M212.185 374.952H212.857L212.992 375.218L212.857 375.483L212.723 375.749L209.36 375.749V375.483V375.218L209.629 374.952L212.185 374.952Z" stroke="url(#paint31_linear_199672_37362)"/>
<path d="M192.683 357.965L188.916 366.196" stroke="url(#paint32_linear_199672_37362)"/>
<path d="M194.033 359.952L196.186 362.076L194.033 364.2" stroke="url(#paint33_linear_199672_37362)"/>
<path d="M187.441 359.82L185.289 361.944L187.441 364.069" stroke="url(#paint34_linear_199672_37362)"/>
<defs>
<linearGradient id="paint0_linear_199672_37362" x1="-22.6976" y1="44.9711" x2="441.468" y2="533.159" gradientUnits="userSpaceOnUse">
<stop stop-color="#033043"/>
<stop offset="0.5" stop-color="#0A7273"/>
<stop offset="1" stop-color="#FF7B00"/>
</linearGradient>
<linearGradient id="paint1_linear_199672_37362" x1="47.0152" y1="405.641" x2="43.7691" y2="429.238" gradientUnits="userSpaceOnUse">
<stop stop-color="#09686C"/>
<stop offset="1" stop-color="#0D7272"/>
</linearGradient>
<linearGradient id="paint2_linear_199672_37362" x1="44.9364" y1="128.308" x2="54.9235" y2="138.833" gradientUnits="userSpaceOnUse">
<stop stop-color="#033043"/>
<stop offset="0.5" stop-color="#0A7273"/>
<stop offset="1" stop-color="#FF7B00"/>
</linearGradient>
<linearGradient id="paint3_linear_199672_37362" x1="82.6143" y1="161.815" x2="315.002" y2="415.076" gradientUnits="userSpaceOnUse">
<stop stop-color="#033043"/>
<stop offset="0.5" stop-color="#0A7273"/>
<stop offset="1" stop-color="#FF7B00"/>
</linearGradient>
<linearGradient id="paint4_linear_199672_37362" x1="82.6143" y1="161.815" x2="315.002" y2="415.076" gradientUnits="userSpaceOnUse">
<stop stop-color="#033043"/>
<stop offset="0.5" stop-color="#0A7273"/>
<stop offset="1" stop-color="#FF7B00"/>
</linearGradient>
<linearGradient id="paint5_linear_199672_37362" x1="62.5571" y1="215.348" x2="64.3157" y2="248.093" gradientUnits="userSpaceOnUse">
<stop stop-color="#033043"/>
<stop offset="0.5" stop-color="#0A7273"/>
<stop offset="1" stop-color="#FF7B00"/>
</linearGradient>
<linearGradient id="paint6_linear_199672_37362" x1="62.5571" y1="215.348" x2="64.3157" y2="248.093" gradientUnits="userSpaceOnUse">
<stop stop-color="#033043"/>
<stop offset="0.5" stop-color="#0A7273"/>
<stop offset="1" stop-color="#FF7B00"/>
</linearGradient>
<linearGradient id="paint7_linear_199672_37362" x1="67.8657" y1="226.403" x2="69.1742" y2="254.129" gradientUnits="userSpaceOnUse">
<stop stop-color="#033043"/>
<stop offset="0.5" stop-color="#0A7273"/>
<stop offset="1" stop-color="#FF7B00"/>
</linearGradient>
<linearGradient id="paint8_linear_199672_37362" x1="67.8657" y1="226.403" x2="69.1742" y2="254.129" gradientUnits="userSpaceOnUse">
<stop stop-color="#033043"/>
<stop offset="0.5" stop-color="#0A7273"/>
<stop offset="1" stop-color="#FF7B00"/>
</linearGradient>
<linearGradient id="paint9_linear_199672_37362" x1="87.5005" y1="235.071" x2="88.305" y2="258.129" gradientUnits="userSpaceOnUse">
<stop stop-color="#033043"/>
<stop offset="0.5" stop-color="#0A7273"/>
<stop offset="1" stop-color="#FF7B00"/>
</linearGradient>
<linearGradient id="paint10_linear_199672_37362" x1="87.5005" y1="235.071" x2="88.305" y2="258.129" gradientUnits="userSpaceOnUse">
<stop stop-color="#033043"/>
<stop offset="0.5" stop-color="#0A7273"/>
<stop offset="1" stop-color="#FF7B00"/>
</linearGradient>
<linearGradient id="paint11_linear_199672_37362" x1="200.834" y1="246.47" x2="212.575" y2="249.675" gradientUnits="userSpaceOnUse">
<stop stop-color="#033043"/>
<stop offset="0.5" stop-color="#0A7273"/>
<stop offset="1" stop-color="#FF7B00"/>
</linearGradient>
<linearGradient id="paint12_linear_199672_37362" x1="200.834" y1="246.47" x2="212.575" y2="249.675" gradientUnits="userSpaceOnUse">
<stop stop-color="#033043"/>
<stop offset="0.5" stop-color="#0A7273"/>
<stop offset="1" stop-color="#FF7B00"/>
</linearGradient>
<linearGradient id="paint13_linear_199672_37362" x1="222.301" y1="297.215" x2="234.041" y2="300.419" gradientUnits="userSpaceOnUse">
<stop stop-color="#033043"/>
<stop offset="0.5" stop-color="#0A7273"/>
<stop offset="1" stop-color="#FF7B00"/>
</linearGradient>
<linearGradient id="paint14_linear_199672_37362" x1="222.301" y1="297.215" x2="234.041" y2="300.419" gradientUnits="userSpaceOnUse">
<stop stop-color="#033043"/>
<stop offset="0.5" stop-color="#0A7273"/>
<stop offset="1" stop-color="#FF7B00"/>
</linearGradient>
<linearGradient id="paint15_linear_199672_37362" x1="167.047" y1="286.636" x2="178.788" y2="289.84" gradientUnits="userSpaceOnUse">
<stop stop-color="#033043"/>
<stop offset="0.5" stop-color="#0A7273"/>
<stop offset="1" stop-color="#FF7B00"/>
</linearGradient>
<linearGradient id="paint16_linear_199672_37362" x1="167.047" y1="286.636" x2="178.788" y2="289.84" gradientUnits="userSpaceOnUse">
<stop stop-color="#033043"/>
<stop offset="0.5" stop-color="#0A7273"/>
<stop offset="1" stop-color="#FF7B00"/>
</linearGradient>
<linearGradient id="paint17_linear_199672_37362" x1="221.252" y1="319.911" x2="158.375" y2="279.842" gradientUnits="userSpaceOnUse">
<stop stop-color="#033043"/>
<stop offset="0.5" stop-color="#0A7273"/>
<stop offset="1" stop-color="#FF7B00"/>
</linearGradient>
<linearGradient id="paint18_linear_199672_37362" x1="159.035" y1="280.479" x2="223.931" y2="243.87" gradientUnits="userSpaceOnUse">
<stop stop-color="#033043"/>
<stop offset="0.5" stop-color="#0A7273"/>
<stop offset="1" stop-color="#FF7B00"/>
</linearGradient>
<linearGradient id="paint19_linear_199672_37362" x1="219.426" y1="239.966" x2="227.704" y2="314.785" gradientUnits="userSpaceOnUse">
<stop stop-color="#033043"/>
<stop offset="0.5" stop-color="#0A7273"/>
<stop offset="1" stop-color="#FF7B00"/>
</linearGradient>
<linearGradient id="paint20_linear_199672_37362" x1="188.637" y1="268.666" x2="214.492" y2="296.591" gradientUnits="userSpaceOnUse">
<stop stop-color="#033043"/>
<stop offset="0.5" stop-color="#0A7273"/>
<stop offset="1" stop-color="#FF7B00"/>
</linearGradient>
<linearGradient id="paint21_linear_199672_37362" x1="188.637" y1="268.666" x2="214.492" y2="296.591" gradientUnits="userSpaceOnUse">
<stop stop-color="#033043"/>
<stop offset="0.5" stop-color="#0A7273"/>
<stop offset="1" stop-color="#FF7B00"/>
</linearGradient>
<linearGradient id="paint22_linear_199672_37362" x1="95.17" y1="166.309" x2="311.636" y2="395.666" gradientUnits="userSpaceOnUse">
<stop stop-color="#033043"/>
<stop offset="0.5" stop-color="#0A7273"/>
<stop offset="1" stop-color="#FF7B00"/>
</linearGradient>
<linearGradient id="paint23_linear_199672_37362" x1="244.167" y1="328.991" x2="159.763" y2="408.146" gradientUnits="userSpaceOnUse">
<stop stop-color="#033043"/>
<stop offset="0.5" stop-color="#0A7273"/>
<stop offset="1" stop-color="#FF7B00"/>
</linearGradient>
<linearGradient id="paint24_linear_199672_37362" x1="244.167" y1="328.991" x2="159.763" y2="408.146" gradientUnits="userSpaceOnUse">
<stop stop-color="#033043"/>
<stop offset="0.5" stop-color="#0A7273"/>
<stop offset="1" stop-color="#FF7B00"/>
</linearGradient>
<linearGradient id="paint25_linear_199672_37362" x1="179.421" y1="350.327" x2="211.296" y2="395.569" gradientUnits="userSpaceOnUse">
<stop stop-color="#033043"/>
<stop offset="0.5" stop-color="#0A7273"/>
<stop offset="1" stop-color="#FF7B00"/>
</linearGradient>
<linearGradient id="paint26_linear_199672_37362" x1="179.421" y1="350.327" x2="211.296" y2="395.569" gradientUnits="userSpaceOnUse">
<stop stop-color="#033043"/>
<stop offset="0.5" stop-color="#0A7273"/>
<stop offset="1" stop-color="#FF7B00"/>
</linearGradient>
<linearGradient id="paint27_linear_199672_37362" x1="212.642" y1="378.165" x2="212.967" y2="380.374" gradientUnits="userSpaceOnUse">
<stop stop-color="#033043"/>
<stop offset="0.5" stop-color="#0A7273"/>
<stop offset="1" stop-color="#FF7B00"/>
</linearGradient>
<linearGradient id="paint28_linear_199672_37362" x1="202.449" y1="380.823" x2="203.04" y2="382.913" gradientUnits="userSpaceOnUse">
<stop stop-color="#033043"/>
<stop offset="0.5" stop-color="#0A7273"/>
<stop offset="1" stop-color="#FF7B00"/>
</linearGradient>
<linearGradient id="paint29_linear_199672_37362" x1="212.671" y1="380.96" x2="213.242" y2="383.061" gradientUnits="userSpaceOnUse">
<stop stop-color="#033043"/>
<stop offset="0.5" stop-color="#0A7273"/>
<stop offset="1" stop-color="#FF7B00"/>
</linearGradient>
<linearGradient id="paint30_linear_199672_37362" x1="208.279" y1="368.422" x2="215.561" y2="374.165" gradientUnits="userSpaceOnUse">
<stop stop-color="#033043"/>
<stop offset="0.5" stop-color="#0A7273"/>
<stop offset="1" stop-color="#FF7B00"/>
</linearGradient>
<linearGradient id="paint31_linear_199672_37362" x1="208.279" y1="368.422" x2="215.561" y2="374.165" gradientUnits="userSpaceOnUse">
<stop stop-color="#033043"/>
<stop offset="0.5" stop-color="#0A7273"/>
<stop offset="1" stop-color="#FF7B00"/>
</linearGradient>
<linearGradient id="paint32_linear_199672_37362" x1="188.708" y1="357.111" x2="195.966" y2="360.604" gradientUnits="userSpaceOnUse">
<stop stop-color="#033043"/>
<stop offset="0.5" stop-color="#0A7273"/>
<stop offset="1" stop-color="#FF7B00"/>
</linearGradient>
<linearGradient id="paint33_linear_199672_37362" x1="193.915" y1="359.511" x2="197.893" y2="361.631" gradientUnits="userSpaceOnUse">
<stop stop-color="#033043"/>
<stop offset="0.5" stop-color="#0A7273"/>
<stop offset="1" stop-color="#FF7B00"/>
</linearGradient>
<linearGradient id="paint34_linear_199672_37362" x1="187.56" y1="359.379" x2="183.582" y2="361.499" gradientUnits="userSpaceOnUse">
<stop stop-color="#033043"/>
<stop offset="0.5" stop-color="#0A7273"/>
<stop offset="1" stop-color="#FF7B00"/>
</linearGradient>
</defs>
</svg>
