<svg width="307" height="307" viewBox="0 0 307 307" fill="none" xmlns="http://www.w3.org/2000/svg">
<path d="M124.831 171.577L124.613 172.037C120.766 166.971 118.162 160.798 117.511 154.583C116.831 148.098 118.036 141.558 120.992 135.696C123.948 129.833 128.538 124.878 134.25 121.389C139.962 117.9 146.57 116.015 153.332 115.947C160.095 115.879 166.742 117.631 172.528 121.005C178.314 124.379 183.01 129.24 186.092 135.043C189.173 140.845 190.519 147.359 189.98 153.857C189.465 160.059 186.866 166.165 183.128 171.298L183.047 171.112C186.89 165.972 188.98 160.148 189.505 153.826C190.039 147.4 188.708 140.958 185.662 135.223C182.617 129.489 177.978 124.689 172.269 121.36C166.56 118.032 160.004 116.305 153.338 116.371C146.671 116.438 140.154 118.297 134.518 121.739C128.881 125.182 124.347 130.074 121.426 135.869C118.504 141.663 117.312 148.131 117.984 154.544C118.645 160.853 120.886 166.524 124.831 171.577Z" fill="#033043" stroke="#105D5E"/>
<path d="M194.366 129.81C165.457 124.749 127.588 127.701 112.267 129.81C107.026 131.214 110.083 131.874 112.267 132.029C149.037 126.385 182.32 129.677 194.366 132.029C201.128 131.552 197.183 130.351 194.366 129.81Z" fill="#033043" stroke="#105D5E"/>
<path d="M192.916 133.108C165.081 128.825 128.618 131.323 113.866 133.108C108.82 134.296 111.764 134.854 113.866 134.985C149.271 130.21 181.318 132.995 192.916 134.985C199.427 134.582 195.629 133.565 192.916 133.108Z" fill="#033043" stroke="#105D5E"/>
<path d="M187.417 136.42C163.656 132.6 132.195 134.343 119.435 135.692C115.046 136.634 117.554 137.126 119.357 137.254C150.002 133.606 177.447 136.22 187.339 137.983C192.955 137.707 189.731 136.826 187.417 136.42Z" fill="#033043" stroke="#105D5E"/>
<path d="M155.89 137.854C156.147 138.383 155.944 138.845 155.676 138.979C155.407 139.113 154.922 138.995 154.665 138.466C154.408 137.937 154.611 137.475 154.88 137.341C155.148 137.207 155.633 137.325 155.89 137.854Z" fill="#033043" stroke="#105D5E"/>
<path d="M163.283 155.332C163.54 155.861 163.336 156.323 163.068 156.457C162.8 156.591 162.315 156.473 162.058 155.944C161.801 155.415 162.004 154.953 162.272 154.819C162.541 154.685 163.026 154.803 163.283 155.332Z" fill="#033043" stroke="#105D5E"/>
<path d="M144.257 151.689C144.514 152.218 144.311 152.68 144.043 152.814C143.775 152.948 143.289 152.83 143.032 152.301C142.775 151.772 142.979 151.31 143.247 151.176C143.515 151.042 144 151.16 144.257 151.689Z" fill="#033043" stroke="#105D5E"/>
<path d="M154.524 138.117C153.209 138.01 151.781 138.754 150.527 140.405C149.277 142.052 148.341 144.425 147.92 147.097C147.499 149.766 147.626 152.516 148.267 154.833C148.912 157.161 150.011 158.825 151.29 159.611C152.528 160.371 153.921 160.3 155.273 159.333C156.651 158.346 157.88 156.493 158.684 154.061C159.486 151.638 159.794 148.856 159.549 146.236C159.304 143.609 158.523 141.369 157.396 139.904" stroke="#105D5E"/>
<path d="M163.017 154.861C163.719 153.719 163.721 152.088 162.853 150.202C161.987 148.321 160.34 146.389 158.196 144.783C156.053 143.178 153.589 142.029 151.267 141.542C148.935 141.052 146.972 141.277 145.695 142.069C144.455 142.838 143.876 144.131 144.102 145.795C144.332 147.49 145.389 149.447 147.147 151.287C148.899 153.122 151.192 154.677 153.597 155.66C156.008 156.646 158.327 156.973 160.127 156.63" stroke="#105D5E"/>
<path d="M144.791 154.97C145.542 156.078 147.016 156.732 149.068 156.678C151.115 156.624 153.519 155.864 155.827 154.512C158.134 153.161 160.157 151.328 161.524 149.364C162.898 147.391 163.479 145.476 163.273 143.972C163.073 142.513 162.136 141.457 160.542 141.003C158.918 140.54 156.726 140.742 154.36 141.641C152.002 142.538 149.68 144.048 147.831 145.892C145.977 147.74 144.756 149.766 144.346 151.576" stroke="#105D5E"/>
<path d="M157.712 153.352C157.04 152.174 155.963 151.37 154.716 151.08C155.309 150.834 155.799 150.386 156.102 149.814C156.406 149.242 156.504 148.581 156.38 147.944C156.257 147.306 155.919 146.732 155.424 146.32C154.929 145.907 154.308 145.682 153.668 145.682C153.027 145.682 152.407 145.907 151.912 146.32C151.417 146.732 151.079 147.306 150.955 147.944C150.831 148.581 150.93 149.242 151.233 149.814C151.537 150.386 152.027 150.834 152.62 151.08C151.374 151.369 150.296 152.174 149.624 153.352C149.605 153.389 149.6 153.433 149.612 153.474C149.624 153.515 149.65 153.55 149.687 153.571C149.723 153.592 149.766 153.598 149.807 153.588C149.848 153.578 149.883 153.553 149.905 153.517C150.7 152.123 152.107 151.29 153.668 151.29C155.228 151.29 156.636 152.123 157.43 153.517C157.445 153.542 157.465 153.562 157.49 153.577C157.514 153.591 157.542 153.599 157.571 153.599C157.6 153.599 157.628 153.591 157.652 153.577C157.69 153.555 157.717 153.519 157.728 153.477C157.739 153.434 157.733 153.39 157.712 153.352ZM151.228 148.486C151.228 147.997 151.371 147.518 151.639 147.112C151.908 146.705 152.289 146.388 152.734 146.2C153.18 146.013 153.671 145.964 154.144 146.06C154.617 146.155 155.052 146.391 155.393 146.737C155.734 147.083 155.966 147.524 156.06 148.003C156.155 148.483 156.106 148.981 155.922 149.433C155.737 149.885 155.424 150.271 155.023 150.543C154.622 150.815 154.15 150.96 153.668 150.96C153.021 150.959 152.401 150.698 151.944 150.235C151.486 149.771 151.229 149.142 151.228 148.486Z" fill="#033043" stroke="#105D5E"/>
<path d="M142.071 182.675H120.396L147.995 116.473H158.477L187.068 182.675H164.76" stroke="#105D5E"/>
<mask id="path-13-inside-1_199671_37324" fill="white">
<path d="M153.77 191.545C147.085 191.545 141.665 186.049 141.665 179.269C141.665 172.489 147.085 166.993 153.77 166.993C160.455 166.993 165.875 172.489 165.875 179.269C165.875 186.049 160.455 191.545 153.77 191.545ZM153.77 167.732C147.487 167.732 142.394 172.897 142.394 179.269C142.394 185.641 147.487 190.806 153.77 190.806C160.053 190.806 165.146 185.641 165.146 179.269C165.146 172.897 160.053 167.732 153.77 167.732Z"/>
</mask>
<path d="M153.77 191.545C147.085 191.545 141.665 186.049 141.665 179.269C141.665 172.489 147.085 166.993 153.77 166.993C160.455 166.993 165.875 172.489 165.875 179.269C165.875 186.049 160.455 191.545 153.77 191.545ZM153.77 167.732C147.487 167.732 142.394 172.897 142.394 179.269C142.394 185.641 147.487 190.806 153.77 190.806C160.053 190.806 165.146 185.641 165.146 179.269C165.146 172.897 160.053 167.732 153.77 167.732Z" fill="#033043" stroke="#105D5E" stroke-width="2" mask="url(#path-13-inside-1_199671_37324)"/>
<path d="M152.837 181.378C152.837 181.53 152.712 181.653 152.559 181.653C152.405 181.653 152.281 181.53 152.281 181.378C152.281 181.227 152.405 181.104 152.559 181.104C152.712 181.104 152.837 181.227 152.837 181.378Z" fill="#033043"/>
<path d="M146.861 178.36H146.954M153.624 184.396H152.188H149.455V183.756V183.573L149.594 183.436L149.733 183.299H150.799M153.624 184.396H159.692H160.248L160.619 184.03L160.758 183.756V182.659V180.143V178.452M153.624 184.396L153.393 184.122L153.3 183.893V183.299M160.758 178.452V178.086M160.758 178.452L160.804 178.36M160.758 178.086V177.537V177.034V176.897L160.665 176.76L160.572 176.668L160.48 176.622H159.831H159.09H158.21H157.978H157.909M160.758 178.086H153.3M157.909 176.622H157.839L153.763 176.668H153.485L153.3 176.805V177.034V178.086M157.909 176.622V174.336L157.793 174.153L157.608 174.062H157.006H147.417H147.232L147.047 174.153L146.954 174.29V174.473V178.36M146.954 178.36V180.418M153.207 182.384H150.799M150.799 182.384H147.371L147.232 182.338L147.139 182.293L147.047 182.201L146.954 182.064V181.973V180.418M150.799 182.384V183.299M150.799 183.299H153.3M153.3 183.299V180.692V180.418M153.3 180.418H146.954M153.3 180.418V178.086M154.087 182.338H156.357M152.837 181.378C152.837 181.53 152.712 181.653 152.559 181.653C152.405 181.653 152.281 181.53 152.281 181.378C152.281 181.227 152.405 181.104 152.559 181.104C152.712 181.104 152.837 181.227 152.837 181.378Z" stroke="#105D5E"/>
<path d="M157.654 182.614H159.878" stroke="#105D5E"/>
<path d="M154.086 183.529H155.244" stroke="#105D5E"/>
<path d="M157.607 183.576H158.812" stroke="#105D5E"/>
<path d="M157.559 181.745H156.401V181.654V181.563L156.494 181.471H157.374H157.605L157.652 181.563L157.605 181.654L157.559 181.745Z" fill="#033043"/>
<path d="M156.633 181.436V181.308L156.54 181.151L156.123 180.511L157.003 179.459M157.003 179.459L157.837 180.511L157.513 181.151L157.374 181.308V181.471M157.003 179.459V180.465H156.772H157.014H157.257M157.374 181.471H157.605L157.652 181.563L157.605 181.654L157.559 181.745H156.401V181.654V181.563L156.494 181.471H157.374Z" stroke="#105D5E"/>
<path d="M150.66 175.62L149.363 178.455" stroke="#105D5E"/>
<path d="M151.125 176.305L151.866 177.036L151.125 177.768" stroke="#105D5E"/>
<path d="M148.855 176.259L148.114 176.991L148.855 177.723" stroke="#105D5E"/>
<path d="M153.493 307C68.8582 307 0 238.142 0 153.493C0 68.8433 68.8582 0 153.493 0C238.127 0 307 68.8582 307 153.493C307 238.127 238.142 307 153.493 307ZM153.493 2.96547C70.4892 2.96547 2.96547 70.4892 2.96547 153.493C2.96547 236.496 70.4892 304.035 153.493 304.035C236.496 304.035 304.035 236.511 304.035 153.493C304.035 70.4892 236.496 2.96547 153.493 2.96547Z" fill="url(#paint0_linear_199671_37324)"/>
<path d="M153.493 281.897C82.6929 281.897 25.1035 224.293 25.1035 153.508C25.1035 82.707 82.7077 25.1177 153.493 25.1177C224.294 25.1177 281.883 82.7219 281.883 153.508C281.898 224.293 224.294 281.897 153.493 281.897ZM153.493 35.2596C88.2976 35.2596 35.2602 88.297 35.2602 153.493C35.2602 218.689 88.2976 271.726 153.493 271.726C218.689 271.726 271.727 218.689 271.727 153.493C271.727 88.297 218.689 35.2596 153.493 35.2596Z" fill="#FF9D00"/>
<path d="M153.492 256.78C96.5405 256.78 50.2051 210.445 50.2051 153.493C50.2051 96.541 96.5405 50.2056 153.492 50.2056C210.444 50.2056 256.779 96.541 256.779 153.493C256.779 210.445 210.444 256.78 153.492 256.78ZM153.492 53.171C98.1715 53.171 53.1705 98.172 53.1705 153.493C53.1705 208.814 98.1715 253.815 153.492 253.815C208.813 253.815 253.814 208.814 253.814 153.493C253.814 98.172 208.813 53.171 153.492 53.171Z" fill="url(#paint1_linear_199671_37324)"/>
<path d="M153.493 231.677C110.39 231.677 75.3086 196.611 75.3086 153.493C75.3086 110.375 110.375 75.3081 153.493 75.3081C196.611 75.3081 231.678 110.375 231.678 153.493C231.678 196.611 196.611 231.677 153.493 231.677ZM153.493 78.2884C112.021 78.2884 78.2741 112.035 78.2741 153.507C78.2741 194.98 112.021 228.727 153.493 228.727C194.965 228.727 228.712 194.98 228.712 153.507C228.712 112.035 194.98 78.2884 153.493 78.2884Z" fill="url(#paint2_linear_199671_37324)"/>
<path d="M153.389 206.503C124.12 206.503 100.322 182.691 100.322 153.422C100.322 124.152 124.135 100.354 153.389 100.354C182.658 100.354 206.471 124.167 206.471 153.422C206.471 182.691 182.658 206.503 153.389 206.503ZM153.389 103.32C125.766 103.32 103.288 125.798 103.288 153.422C103.288 181.045 125.766 203.538 153.389 203.538C181.013 203.538 203.506 181.06 203.506 153.422C203.506 125.783 181.027 103.32 153.389 103.32Z" fill="url(#paint3_linear_199671_37324)"/>
<defs>
<linearGradient id="paint0_linear_199671_37324" x1="-16.9146" y1="-31.8558" x2="328.989" y2="331.949" gradientUnits="userSpaceOnUse">
<stop stop-color="#033043"/>
<stop offset="0.5" stop-color="#0A7273"/>
<stop offset="1" stop-color="#FF7B00"/>
</linearGradient>
<linearGradient id="paint1_linear_199671_37324" x1="38.8236" y1="28.7704" x2="271.575" y2="273.568" gradientUnits="userSpaceOnUse">
<stop stop-color="#033043"/>
<stop offset="0.5" stop-color="#0A7273"/>
<stop offset="1" stop-color="#FF7B00"/>
</linearGradient>
<linearGradient id="paint2_linear_199671_37324" x1="66.6932" y1="59.0825" x2="242.878" y2="244.385" gradientUnits="userSpaceOnUse">
<stop stop-color="#033043"/>
<stop offset="0.5" stop-color="#0A7273"/>
<stop offset="1" stop-color="#FF7B00"/>
</linearGradient>
<linearGradient id="paint3_linear_199671_37324" x1="94.4738" y1="89.34" x2="214.074" y2="215.13" gradientUnits="userSpaceOnUse">
<stop stop-color="#033043"/>
<stop offset="0.5" stop-color="#0A7273"/>
<stop offset="1" stop-color="#FF7B00"/>
</linearGradient>
</defs>
</svg>
